G04*
G04 #@! TF.GenerationSoftware,Altium Limited,Altium Designer,24.2.2 (26)*
G04*
G04 Layer_Physical_Order=1*
G04 Layer_Color=255*
%FSLAX44Y44*%
%MOMM*%
G71*
G04*
G04 #@! TF.SameCoordinates,B6E7CD46-7335-45AA-B55C-DBCC516995BC*
G04*
G04*
G04 #@! TF.FilePolarity,Positive*
G04*
G01*
G75*
%ADD17C,0.1778*%
%ADD18C,0.2540*%
%ADD21R,2.5000X1.7000*%
%ADD22R,0.6400X0.6000*%
%ADD23O,0.2000X1.0000*%
%ADD24O,0.3000X1.2000*%
%ADD26R,0.7500X0.6000*%
%ADD27R,1.5000X3.4000*%
%ADD28R,1.0000X3.5000*%
%ADD29R,1.0000X1.5500*%
%ADD30R,3.2000X1.6000*%
%ADD31R,1.8000X2.0000*%
%ADD32R,1.4000X1.3000*%
%ADD33R,0.6000X0.7500*%
%ADD34R,0.6096X0.2794*%
%ADD35R,0.9000X1.0000*%
%ADD36R,0.6000X0.6400*%
%ADD37R,1.3000X1.8000*%
%ADD38R,5.4000X2.9000*%
%ADD39R,2.1000X5.6000*%
%ADD40R,0.6500X2.2500*%
G04:AMPARAMS|DCode=41|XSize=0.2mm|YSize=0.84mm|CornerRadius=0.025mm|HoleSize=0mm|Usage=FLASHONLY|Rotation=90.000|XOffset=0mm|YOffset=0mm|HoleType=Round|Shape=RoundedRectangle|*
%AMROUNDEDRECTD41*
21,1,0.2000,0.7900,0,0,90.0*
21,1,0.1500,0.8400,0,0,90.0*
1,1,0.0500,0.3950,0.0750*
1,1,0.0500,0.3950,-0.0750*
1,1,0.0500,-0.3950,-0.0750*
1,1,0.0500,-0.3950,0.0750*
%
%ADD41ROUNDEDRECTD41*%
G04:AMPARAMS|DCode=42|XSize=0.84mm|YSize=0.2mm|CornerRadius=0.025mm|HoleSize=0mm|Usage=FLASHONLY|Rotation=90.000|XOffset=0mm|YOffset=0mm|HoleType=Round|Shape=RoundedRectangle|*
%AMROUNDEDRECTD42*
21,1,0.8400,0.1500,0,0,90.0*
21,1,0.7900,0.2000,0,0,90.0*
1,1,0.0500,0.0750,0.3950*
1,1,0.0500,0.0750,-0.3950*
1,1,0.0500,-0.0750,-0.3950*
1,1,0.0500,-0.0750,0.3950*
%
%ADD42ROUNDEDRECTD42*%
%ADD44R,1.5500X1.0000*%
%ADD45R,3.4000X1.5000*%
%ADD46R,3.5000X1.0000*%
%ADD47R,0.6500X1.9250*%
%ADD48R,0.6500X1.6500*%
%ADD49R,1.6000X1.5000*%
%ADD50R,1.6000X2.8000*%
%ADD51R,0.9500X0.9000*%
%ADD52R,0.9000X0.9500*%
%ADD53R,1.1500X2.5000*%
%ADD58R,0.6000X1.5000*%
%AMCUSTOMSHAPE89*
4,1,16,-1.9510,3.3008,-1.3510,3.3007,-1.3510,1.9507,-0.6604,1.9507,-0.6604,3.3005,-0.1016,3.3008,-0.1016,1.9507,0.5842,1.9507,0.5842,3.3013,1.1938,3.3017,1.1938,1.9507,1.8542,1.9507,1.8542,3.2998,2.4590,3.3007,2.4590,-1.5943,-1.9510,-1.5943,-1.9510,3.3008,0.0*%
%ADD89CUSTOMSHAPE89*%

%AMCUSTOMSHAPE90*
4,1,16,1.9510,-3.3008,1.3510,-3.3007,1.3510,-1.9507,0.6604,-1.9507,0.6604,-3.3005,0.1016,-3.3008,0.1016,-1.9507,-0.5842,-1.9507,-0.5842,-3.3013,-1.1938,-3.3017,-1.1938,-1.9507,-1.8542,-1.9507,-1.8542,-3.2998,-2.4590,-3.3007,-2.4590,1.5943,1.9510,1.5943,1.9510,-3.3008,0.0*%
%ADD90CUSTOMSHAPE90*%

%ADD91R,3.1000X3.1000*%
%ADD92C,0.2032*%
%ADD93C,0.2787*%
%ADD94C,0.3810*%
%ADD95C,2.2000*%
%ADD96O,1.0000X1.6000*%
%ADD97C,0.6500*%
%ADD98O,5.6000X5.5000*%
%ADD99O,5.5000X5.6000*%
%ADD100C,0.5080*%
G36*
X1133882Y886861D02*
X1140314Y885137D01*
X1146467Y882589D01*
X1152234Y879259D01*
X1157517Y875206D01*
X1162226Y870497D01*
X1166280Y865214D01*
X1169609Y859447D01*
X1172157Y853294D01*
X1173881Y846862D01*
X1174750Y840260D01*
X1174750Y836930D01*
X1174750Y740953D01*
X1066073D01*
Y768350D01*
X1065935Y769044D01*
X1065542Y769632D01*
X1037602Y797572D01*
X1037014Y797965D01*
X1036320Y798103D01*
X1006591D01*
X985532Y819162D01*
X985460Y819210D01*
X984250Y820420D01*
X814070D01*
X800100Y806450D01*
Y787400D01*
Y775243D01*
Y752019D01*
X800067Y751854D01*
X799974Y751714D01*
X792606Y744346D01*
X792466Y744253D01*
X792301Y744220D01*
X739319D01*
X739170Y744250D01*
X739140Y744398D01*
Y756377D01*
Y772160D01*
X726983D01*
X726845Y772854D01*
X726452Y773442D01*
X718958Y780936D01*
X718810Y781035D01*
X718683Y781161D01*
X718544Y781255D01*
X718379Y781323D01*
X718370Y781329D01*
X718360Y781331D01*
X718074Y781449D01*
X718065Y781455D01*
X718055Y781457D01*
X717890Y781525D01*
X717890Y781525D01*
X717725Y781558D01*
X717546D01*
X717371Y781593D01*
X681990D01*
Y887730D01*
X1123950D01*
X1123950Y887730D01*
X1123950Y887730D01*
X1127280Y887730D01*
X1133882Y886861D01*
D02*
G37*
G36*
X376352Y811729D02*
X376362Y811724D01*
X377270Y811101D01*
X377278Y811093D01*
X377280Y811082D01*
Y797560D01*
X393860D01*
Y810701D01*
X393885Y810739D01*
X393886Y810740D01*
X394025Y810834D01*
X394966Y811232D01*
X395123Y811264D01*
X395258Y811177D01*
X401496Y805119D01*
X401588Y804987D01*
X401593Y804982D01*
X401593Y804975D01*
X401629Y804816D01*
X403449Y742944D01*
X417711Y729096D01*
X417794Y728971D01*
X417799Y728967D01*
X417799Y728960D01*
X417830Y728814D01*
Y668020D01*
Y607811D01*
Y607060D01*
X425450Y599440D01*
X461010D01*
X471170Y609600D01*
X471170Y680541D01*
X471203Y680706D01*
X471296Y680846D01*
X487554Y697104D01*
X487694Y697197D01*
X487859Y697230D01*
X544830D01*
X575184Y727584D01*
X575324Y727677D01*
X575489Y727710D01*
X660400D01*
X662940Y730250D01*
Y769441D01*
X662973Y769606D01*
X663066Y769746D01*
X672974Y779654D01*
X673114Y779747D01*
X673279Y779780D01*
X717371D01*
X717536Y779747D01*
X717676Y779654D01*
X725170Y772160D01*
X725170Y732790D01*
X736600Y721360D01*
X853440D01*
X859790Y727710D01*
Y736600D01*
Y749300D01*
X859790Y751113D01*
X859790Y751113D01*
X859790Y765864D01*
Y770711D01*
X859823Y770876D01*
X859916Y771016D01*
X868554Y779654D01*
X868694Y779747D01*
X868858Y779780D01*
X876300D01*
X911681Y779780D01*
X911846Y779747D01*
X911986Y779654D01*
X923164Y768476D01*
X923257Y768336D01*
X923290Y768171D01*
X923290Y746760D01*
Y744947D01*
X923290Y709918D01*
X923290Y709902D01*
X923250Y708660D01*
X626110D01*
X625563Y708112D01*
X533526Y616076D01*
X533386Y615983D01*
X533222Y615950D01*
X520700D01*
X513080Y608330D01*
Y593269D01*
X513059Y593161D01*
X512065Y592355D01*
X511000Y592857D01*
Y595030D01*
X499920D01*
Y592669D01*
X498747Y592183D01*
X497840Y593090D01*
Y599440D01*
X497180Y600100D01*
Y602440D01*
X494840D01*
X494030Y603250D01*
X486410D01*
X485600Y602440D01*
X480660D01*
Y596900D01*
X479390D01*
Y595630D01*
X473100D01*
Y591820D01*
X472440D01*
X467360Y586740D01*
Y576320D01*
Y568959D01*
X471169Y565150D01*
X473329D01*
Y563633D01*
X478917D01*
Y561508D01*
X473329D01*
Y560926D01*
X466682D01*
X466517Y560959D01*
X466378Y561052D01*
X444500Y582930D01*
X387529D01*
X387364Y582963D01*
X387224Y583056D01*
X367030Y603250D01*
Y657860D01*
X353060Y671830D01*
X312599D01*
X312434Y671863D01*
X312294Y671956D01*
X303404Y680846D01*
X293496Y690754D01*
X293403Y690894D01*
X293370Y691059D01*
Y714831D01*
X293403Y714996D01*
X293496Y715136D01*
X307214Y728854D01*
X307354Y728947D01*
X307519Y728980D01*
X351790D01*
X369570Y746760D01*
Y747511D01*
X369570Y804133D01*
X369696Y805306D01*
X369696D01*
X369696Y805306D01*
X376089Y811699D01*
X376098Y811705D01*
X376215Y811822D01*
X376352Y811729D01*
D02*
G37*
G36*
X874487Y817880D02*
Y781593D01*
X868680D01*
X867986Y781455D01*
X867398Y781062D01*
X858508Y772172D01*
X858115Y771584D01*
X857977Y770890D01*
X847090D01*
X830580Y787400D01*
X829770D01*
Y792075D01*
X818690D01*
Y787400D01*
X801913D01*
Y805699D01*
X814821Y818607D01*
X873337D01*
X874487Y817880D01*
D02*
G37*
G36*
X680177Y781593D02*
X673100D01*
X672406Y781455D01*
X671818Y781062D01*
X661658Y770902D01*
X661265Y770314D01*
X661127Y769620D01*
X652780D01*
X636270Y786130D01*
X635460D01*
Y790610D01*
X624380D01*
Y786130D01*
X614680D01*
Y887730D01*
X680177D01*
Y781593D01*
D02*
G37*
G36*
X818690Y783750D02*
X829770D01*
Y783850D01*
X831040Y784376D01*
X845808Y769608D01*
X846396Y769215D01*
X847090Y769077D01*
X857977D01*
X857977Y767807D01*
X857977Y751113D01*
X839657D01*
X839485Y751079D01*
X839310Y751079D01*
X839142Y751010D01*
X838963Y750975D01*
X838818Y750878D01*
X838656Y750811D01*
X838057Y750415D01*
X836982Y750567D01*
X836587Y750810D01*
X836332Y751192D01*
X832393Y755131D01*
Y767080D01*
X832255Y767774D01*
X831862Y768362D01*
X825939Y774285D01*
X826465Y775555D01*
X829770D01*
Y779940D01*
X818690D01*
Y775555D01*
X817549Y775243D01*
X801913D01*
Y785587D01*
X818690D01*
Y783750D01*
D02*
G37*
G36*
X1037047Y757439D02*
Y738413D01*
X1031700D01*
Y741080D01*
X1020620D01*
Y740150D01*
X1019350Y739624D01*
X1018222Y740752D01*
X1017634Y741145D01*
X1016940Y741283D01*
X1016246Y741145D01*
X1015553Y740857D01*
X1014730Y741680D01*
X1003300D01*
X1002316Y740696D01*
X1001090Y740590D01*
Y740590D01*
X999917Y740109D01*
X999223Y739971D01*
X998635Y739578D01*
X995668Y736612D01*
X995275Y736024D01*
X995137Y735330D01*
Y704331D01*
X976533Y685727D01*
X975360Y686213D01*
Y744947D01*
X982980D01*
X983674Y745085D01*
X984262Y745478D01*
X994422Y755638D01*
X994815Y756226D01*
X994953Y756920D01*
Y770139D01*
X998971Y774157D01*
X1020329D01*
X1037047Y757439D01*
D02*
G37*
G36*
X830580Y767080D02*
Y754380D01*
X835050Y749910D01*
X834524Y748640D01*
X834390D01*
Y743620D01*
X838660D01*
Y748640D01*
X839657Y749300D01*
X857977D01*
Y738413D01*
X838660D01*
Y741080D01*
X833120D01*
X827090D01*
X826407Y740797D01*
X814082Y753122D01*
X813494Y753515D01*
X812800Y753653D01*
X801913D01*
Y773430D01*
X824230D01*
X830580Y767080D01*
D02*
G37*
G36*
X1019810Y736600D02*
X1020620D01*
Y732120D01*
X1031700D01*
Y736600D01*
X1037047D01*
Y727191D01*
X972808Y662952D01*
X972415Y662364D01*
X972277Y661670D01*
Y642101D01*
X955559Y625383D01*
X947420D01*
Y638437D01*
X947980Y639475D01*
X952500D01*
Y651640D01*
Y663805D01*
X949944D01*
X949458Y664978D01*
X953770Y669290D01*
X962660D01*
X996950Y703580D01*
Y735330D01*
X999917Y738297D01*
X1001090Y737811D01*
Y734820D01*
X1015670D01*
Y738944D01*
X1016940Y739470D01*
X1019810Y736600D01*
D02*
G37*
G36*
X624380Y781650D02*
X635460D01*
Y782580D01*
X636730Y783106D01*
X651498Y768338D01*
X652086Y767945D01*
X652780Y767807D01*
X661127D01*
Y731001D01*
X659649Y729523D01*
X614680D01*
Y784317D01*
X624380D01*
Y781650D01*
D02*
G37*
G36*
X304800Y887730D02*
X612867Y887730D01*
Y786130D01*
X613005Y785436D01*
X613147Y785224D01*
X613005Y785011D01*
X612867Y784317D01*
Y729523D01*
X575489D01*
X575313Y729488D01*
X575135D01*
X574970Y729455D01*
X574970Y729455D01*
X574970D01*
X574805Y729387D01*
X574795Y729385D01*
X574786Y729379D01*
X574500Y729260D01*
X574490Y729258D01*
X574481Y729253D01*
X574316Y729184D01*
X574316Y729184D01*
X574316Y729184D01*
X574176Y729091D01*
X574050Y728965D01*
X573902Y728866D01*
X544079Y699043D01*
X487859D01*
X487683Y699008D01*
X487505D01*
X487340Y698975D01*
X487340Y698975D01*
X487340D01*
X487175Y698907D01*
X487165Y698905D01*
X487156Y698899D01*
X486870Y698781D01*
X486860Y698779D01*
X486851Y698773D01*
X486687Y698705D01*
X486687Y698705D01*
X486686Y698704D01*
X486547Y698611D01*
X486420Y698485D01*
X486272Y698386D01*
X470014Y682128D01*
X469915Y681980D01*
X469789Y681853D01*
X469696Y681714D01*
X469696Y681713D01*
X469696Y681713D01*
X469627Y681549D01*
X469622Y681540D01*
X469619Y681530D01*
X469501Y681244D01*
X469495Y681235D01*
X469493Y681225D01*
X469425Y681060D01*
Y681060D01*
X469425Y681060D01*
X469392Y680895D01*
Y680716D01*
X469357Y680541D01*
X469357Y610351D01*
X460259Y601253D01*
X426201D01*
X419643Y607811D01*
Y668020D01*
Y728814D01*
X419610Y728979D01*
X419611Y728986D01*
X419611Y728993D01*
X419605Y729022D01*
X419603Y729193D01*
X419571Y729339D01*
X419510Y729482D01*
X419505Y729507D01*
X419504Y729509D01*
X419473Y729660D01*
X419466Y729671D01*
X419463Y729684D01*
X419376Y729811D01*
X419375Y729814D01*
X419361Y729835D01*
X419301Y729978D01*
X419218Y730103D01*
X419097Y730224D01*
X419081Y730248D01*
X419076Y730253D01*
X419069Y730257D01*
X418974Y730396D01*
X405240Y743732D01*
X403442Y804870D01*
X403405Y805028D01*
X403405Y805032D01*
X403401Y805047D01*
X403396Y805222D01*
X403360Y805381D01*
X403294Y805527D01*
X403257Y805700D01*
X403251Y805710D01*
X403248Y805721D01*
X403144Y805868D01*
X403080Y806016D01*
X402988Y806149D01*
X402866Y806268D01*
X402856Y806282D01*
X402850Y806287D01*
X402759Y806420D01*
X396521Y812477D01*
X396371Y812574D01*
X396243Y812699D01*
X396108Y812786D01*
X395942Y812852D01*
X395927Y812861D01*
X395910Y812865D01*
X395786Y812914D01*
X395463Y813045D01*
X395457Y813045D01*
X395451Y813047D01*
X395105Y813042D01*
X394970Y813041D01*
X394952Y813044D01*
X394935Y813041D01*
X394756Y813039D01*
X394599Y813007D01*
X394434Y812937D01*
X394260Y812901D01*
X393318Y812503D01*
X393171Y812403D01*
X393167Y812401D01*
X393156Y812399D01*
X393155Y812399D01*
X393148Y812393D01*
X393006Y812333D01*
X392878Y812247D01*
X392878Y812247D01*
X392878Y812246D01*
X392868Y812239D01*
X392742Y812112D01*
X392733Y812106D01*
X392730Y812101D01*
X392576Y811993D01*
X392491Y811859D01*
X392378Y811747D01*
X392353Y811709D01*
X392284Y811544D01*
X392185Y811395D01*
X392172Y811330D01*
X379146D01*
X379062Y811415D01*
X379060Y811426D01*
X378990Y811601D01*
X378953Y811787D01*
X378859Y811926D01*
X378797Y812082D01*
X378665Y812217D01*
X378560Y812375D01*
X378552Y812383D01*
X378413Y812476D01*
X378296Y812595D01*
X377388Y813219D01*
X377378Y813223D01*
X377241Y813317D01*
X377087Y813383D01*
X377076Y813390D01*
X377065Y813395D01*
X377060Y813396D01*
X376909Y813497D01*
X376745Y813530D01*
X376591Y813596D01*
X376401Y813598D01*
X376215Y813635D01*
X376051Y813602D01*
X375884Y813605D01*
X375708Y813534D01*
X375522Y813497D01*
X375382Y813404D01*
X375227Y813342D01*
X375096Y813214D01*
X375091Y813212D01*
X375081Y813206D01*
X375072Y813197D01*
X374933Y813104D01*
X374816Y812987D01*
X374807Y812981D01*
X368414Y806588D01*
X368378Y806534D01*
X368327Y806494D01*
X368230Y806325D01*
X368105Y806175D01*
X368076Y806082D01*
X368022Y806000D01*
X368009Y805936D01*
X367976Y805880D01*
X367952Y805686D01*
X367894Y805500D01*
X367768Y804327D01*
X367776Y804229D01*
X367757Y804133D01*
X367757Y747511D01*
X351039Y730793D01*
X307519D01*
X307343Y730758D01*
X307165D01*
X307000Y730725D01*
X307000Y730725D01*
X307000D01*
X306835Y730657D01*
X306825Y730655D01*
X306816Y730649D01*
X306530Y730531D01*
X306520Y730529D01*
X306511Y730523D01*
X306347Y730455D01*
X306346Y730454D01*
X306346Y730454D01*
X306206Y730361D01*
X306080Y730235D01*
X305932Y730136D01*
X292214Y716418D01*
X292115Y716270D01*
X291989Y716143D01*
X291896Y716004D01*
X291896Y716003D01*
X291896Y716003D01*
X291827Y715839D01*
X291821Y715830D01*
X291819Y715820D01*
X291701Y715534D01*
X291695Y715525D01*
X291693Y715515D01*
X291625Y715350D01*
Y715350D01*
X291625Y715350D01*
X291592Y715185D01*
Y715006D01*
X291557Y714831D01*
Y691059D01*
X291592Y690883D01*
Y690705D01*
X291625Y690540D01*
X291625Y690540D01*
Y690540D01*
X291693Y690375D01*
X291695Y690365D01*
X291701Y690356D01*
X291819Y690070D01*
X291821Y690060D01*
X291827Y690051D01*
X291896Y689886D01*
X291896Y689886D01*
X291896Y689886D01*
X291989Y689746D01*
X292115Y689620D01*
X292214Y689472D01*
X302122Y679564D01*
X311012Y670674D01*
X311160Y670575D01*
X311287Y670449D01*
X311426Y670356D01*
X311427Y670356D01*
X311427Y670356D01*
X311591Y670287D01*
X311600Y670282D01*
X311610Y670279D01*
X311896Y670161D01*
X311905Y670155D01*
X311915Y670153D01*
X312080Y670085D01*
X312080D01*
X312080Y670085D01*
X312245Y670052D01*
X312423D01*
X312599Y670017D01*
X352309D01*
X365217Y657109D01*
Y603250D01*
X364167Y602755D01*
X364148Y602743D01*
X364127Y602738D01*
X363855Y602547D01*
X363579Y602362D01*
X355714Y594498D01*
X355615Y594350D01*
X355489Y594224D01*
X355396Y594084D01*
X355396Y594084D01*
X355396Y594084D01*
X355327Y593919D01*
X355322Y593910D01*
X355320Y593900D01*
X355201Y593614D01*
X355195Y593605D01*
X355193Y593595D01*
X355125Y593430D01*
Y593430D01*
X355125Y593430D01*
X355092Y593265D01*
Y593087D01*
X355057Y592911D01*
Y520878D01*
X355092Y520703D01*
Y520525D01*
X355127Y520346D01*
X355196Y520181D01*
X355231Y520006D01*
X355330Y519858D01*
X355356Y519794D01*
X355330Y519729D01*
X355231Y519581D01*
X355196Y519406D01*
X355127Y519241D01*
X355092Y519062D01*
X355092Y518884D01*
X355057Y518709D01*
Y435789D01*
X355092Y435614D01*
Y435435D01*
X355125Y435270D01*
X355125Y435270D01*
Y435270D01*
X355193Y435105D01*
X355195Y435095D01*
X355201Y435086D01*
X355320Y434800D01*
X355322Y434790D01*
X355327Y434781D01*
X355396Y434617D01*
X355396Y434617D01*
X355396Y434616D01*
X355489Y434477D01*
X355615Y434350D01*
X355714Y434202D01*
X368162Y421754D01*
X368310Y421655D01*
X368437Y421529D01*
X368576Y421436D01*
X368577Y421436D01*
X368577Y421436D01*
X368741Y421367D01*
X368750Y421362D01*
X368760Y421359D01*
X369046Y421241D01*
X369055Y421235D01*
X369065Y421233D01*
X369230Y421165D01*
X369230D01*
X369230Y421165D01*
X369395Y421132D01*
X369574D01*
X369749Y421097D01*
X436702D01*
X436877Y421132D01*
X437055D01*
X437220Y421165D01*
X437220Y421165D01*
X437220D01*
X437385Y421233D01*
X437395Y421235D01*
X437404Y421241D01*
X437690Y421359D01*
X437700Y421361D01*
X437709Y421367D01*
X437873Y421435D01*
X437873Y421436D01*
X437874Y421436D01*
X438013Y421529D01*
X438140Y421655D01*
X438288Y421754D01*
X475731Y459197D01*
X524331D01*
X524506Y459232D01*
X524685D01*
X524850Y459265D01*
X524850Y459265D01*
X524850D01*
X525015Y459333D01*
X525025Y459335D01*
X525034Y459341D01*
X525320Y459459D01*
X525330Y459462D01*
X525339Y459467D01*
X525504Y459535D01*
X525504Y459535D01*
X525504Y459536D01*
X525644Y459629D01*
X525770Y459755D01*
X525918Y459854D01*
X545986Y479922D01*
X546085Y480070D01*
X546211Y480196D01*
X546304Y480336D01*
X546305Y480336D01*
X546305Y480336D01*
X546373Y480501D01*
X546379Y480510D01*
X546381Y480520D01*
X546499Y480806D01*
X546505Y480815D01*
X546507Y480825D01*
X546575Y480990D01*
Y480990D01*
X546575Y480990D01*
X546608Y481155D01*
Y481334D01*
X546643Y481509D01*
Y542256D01*
X547913Y542509D01*
X548143Y541952D01*
X549572Y540523D01*
X551440Y539750D01*
X553461D01*
X555328Y540523D01*
X556757Y541952D01*
X557530Y543820D01*
Y544599D01*
X565585Y552655D01*
X566399Y553873D01*
X566685Y555310D01*
Y559190D01*
X577970D01*
Y581270D01*
X547913D01*
X547890Y581270D01*
X547545Y581285D01*
X547042Y582579D01*
X553201Y588737D01*
X575131D01*
X575307Y588772D01*
X575485D01*
X575650Y588805D01*
X575650Y588805D01*
X575650D01*
X575815Y588873D01*
X575825Y588875D01*
X575834Y588881D01*
X576120Y588999D01*
X576130Y589002D01*
X576139Y589007D01*
X576303Y589076D01*
X576303Y589076D01*
X576304Y589076D01*
X576443Y589169D01*
X576570Y589295D01*
X576718Y589394D01*
X579944Y592620D01*
X580768Y592279D01*
X581117Y591997D01*
Y558979D01*
X581152Y558803D01*
Y558625D01*
X581185Y558460D01*
X581185Y558460D01*
Y558460D01*
X581253Y558295D01*
X581255Y558285D01*
X581261Y558276D01*
X581380Y557990D01*
X581381Y557980D01*
X581387Y557971D01*
X581455Y557807D01*
X581455Y557807D01*
X581456Y557806D01*
X581549Y557667D01*
X581675Y557540D01*
X581774Y557392D01*
X588315Y550852D01*
X588297Y550671D01*
X581729Y544103D01*
X571426D01*
X570732Y543965D01*
X570144Y543572D01*
X568948Y542376D01*
X568799Y542153D01*
X568418Y541771D01*
X568417Y541771D01*
X560184Y533538D01*
X560085Y533390D01*
X559959Y533264D01*
X559866Y533124D01*
X559865Y533124D01*
X559865Y533124D01*
X559797Y532959D01*
X559791Y532950D01*
X559790Y532940D01*
X559671Y532654D01*
X559665Y532645D01*
X559663Y532635D01*
X559595Y532470D01*
Y532470D01*
X559595Y532470D01*
X559562Y532305D01*
Y532127D01*
X559527Y531951D01*
Y509449D01*
X559562Y509273D01*
Y509095D01*
X559595Y508930D01*
X559595Y508930D01*
Y508930D01*
X559663Y508765D01*
X559665Y508755D01*
X559671Y508746D01*
X559789Y508460D01*
X559791Y508450D01*
X559797Y508442D01*
X559865Y508277D01*
X559865Y508276D01*
X559865Y508276D01*
X559959Y508136D01*
X560085Y508010D01*
X560184Y507862D01*
X565126Y502920D01*
X560058Y497852D01*
X559665Y497264D01*
X559527Y496570D01*
Y477520D01*
X559665Y476826D01*
X560058Y476238D01*
X572758Y463538D01*
X573346Y463145D01*
X574040Y463007D01*
X609600D01*
X610294Y463145D01*
X610882Y463538D01*
X616701Y469357D01*
X622920D01*
Y464440D01*
X632460D01*
X642000D01*
Y469357D01*
X655320D01*
X656014Y469495D01*
X656602Y469888D01*
X660412Y473698D01*
X660805Y474286D01*
X660943Y474980D01*
Y488950D01*
X660805Y489644D01*
X660412Y490232D01*
X658344Y492300D01*
X658870Y493570D01*
X668690D01*
Y499110D01*
X669960D01*
Y500380D01*
X676250D01*
Y504650D01*
X670805D01*
X670319Y505823D01*
X673197Y508702D01*
X679450D01*
X680639Y508939D01*
X681647Y509613D01*
X686728Y514692D01*
X687401Y515701D01*
X687638Y516890D01*
Y546250D01*
X687401Y547439D01*
X686728Y548447D01*
X680060Y555115D01*
Y561800D01*
X655980D01*
Y560391D01*
X650621D01*
Y561347D01*
X650101D01*
X649615Y562520D01*
X655445Y568350D01*
X662130D01*
Y578577D01*
X664032D01*
X664207Y578612D01*
X664385D01*
X664550Y578645D01*
X664550Y578645D01*
X664550D01*
X664715Y578713D01*
X664725Y578715D01*
X664734Y578721D01*
X665020Y578839D01*
X665030Y578841D01*
X665039Y578847D01*
X665203Y578915D01*
X665203Y578915D01*
X665204Y578915D01*
X665343Y579009D01*
X665470Y579135D01*
X665618Y579234D01*
X666636Y580252D01*
X666735Y580400D01*
X666861Y580527D01*
X666954Y580666D01*
X666954Y580667D01*
X666954Y580667D01*
X667023Y580831D01*
X667029Y580840D01*
X667030Y580850D01*
X667149Y581136D01*
X667155Y581145D01*
X667157Y581155D01*
X667225Y581320D01*
Y581320D01*
X667225Y581320D01*
X667258Y581485D01*
Y581664D01*
X667293Y581839D01*
Y594182D01*
X667258Y594357D01*
Y594535D01*
X667225Y594700D01*
X667225Y594700D01*
Y594700D01*
X667157Y594865D01*
X667155Y594875D01*
X667149Y594884D01*
X667031Y595170D01*
X667029Y595180D01*
X667023Y595188D01*
X666955Y595353D01*
X666954Y595354D01*
X666954Y595354D01*
X666861Y595494D01*
X666735Y595620D01*
X666636Y595768D01*
X665614Y596790D01*
X665662Y597236D01*
X666003Y598060D01*
X671240D01*
Y608330D01*
X662200D01*
X653160D01*
Y600743D01*
X651986Y600257D01*
X649513Y602731D01*
Y622121D01*
X649478Y622296D01*
Y622475D01*
X649445Y622640D01*
X649445Y622640D01*
Y622640D01*
X649377Y622805D01*
X649375Y622815D01*
X649369Y622824D01*
X649250Y623110D01*
X649249Y623120D01*
X649243Y623129D01*
X649174Y623293D01*
X649174Y623293D01*
X649174Y623294D01*
X649081Y623433D01*
X648955Y623560D01*
X648856Y623708D01*
X640218Y632346D01*
X640070Y632445D01*
X639944Y632571D01*
X639804Y632664D01*
X639804Y632664D01*
X639804Y632664D01*
X639639Y632733D01*
X639630Y632738D01*
X639620Y632741D01*
X639334Y632859D01*
X639325Y632865D01*
X639315Y632867D01*
X639150Y632935D01*
X639150D01*
X639150Y632935D01*
X638985Y632968D01*
X638806D01*
X638631Y633003D01*
X602936D01*
X602595Y633827D01*
X602547Y634273D01*
X663691Y695417D01*
X696687Y695417D01*
X697957Y695417D01*
X697957Y669290D01*
X698095Y668596D01*
X698488Y668008D01*
X701920Y664577D01*
X702298Y664198D01*
X702300Y664197D01*
X702870Y663805D01*
Y655395D01*
X701195D01*
X697230Y659361D01*
Y660141D01*
X696457Y662008D01*
X695028Y663437D01*
X693160Y664210D01*
X691140D01*
X689272Y663437D01*
X687843Y662008D01*
X687070Y660141D01*
Y658120D01*
X687843Y656252D01*
X689272Y654823D01*
X691140Y654050D01*
X691919D01*
X696985Y648985D01*
X698203Y648171D01*
X699640Y647885D01*
X702870D01*
Y639475D01*
X714450D01*
Y639475D01*
X715570D01*
Y639475D01*
X724854D01*
X725112Y639338D01*
X725481Y639005D01*
X725897Y638437D01*
Y621030D01*
X726035Y620336D01*
X726428Y619748D01*
X728968Y617208D01*
X729556Y616815D01*
X730250Y616677D01*
X737870D01*
X738564Y616815D01*
X739152Y617208D01*
X741692Y619748D01*
X742085Y620336D01*
X742223Y621030D01*
Y638437D01*
X742639Y639005D01*
X743008Y639338D01*
X743266Y639475D01*
X752550D01*
Y639475D01*
X753670D01*
Y639475D01*
X765250D01*
X765250Y639475D01*
X766370D01*
Y639475D01*
X766520Y639475D01*
X777800D01*
X777950Y639475D01*
Y639475D01*
X779070D01*
Y639475D01*
X783590D01*
Y651640D01*
Y663805D01*
X781366D01*
X781108Y663942D01*
X780739Y664275D01*
X780580Y664492D01*
X780323Y665075D01*
X780323Y665075D01*
X780323Y665075D01*
X780323Y693939D01*
X785240Y698856D01*
X786510Y698331D01*
Y689610D01*
X795550D01*
X804590D01*
Y699227D01*
X829153D01*
X856707Y699227D01*
Y668020D01*
X856845Y667326D01*
X857238Y666738D01*
X859400Y664577D01*
X859080Y663805D01*
X859080D01*
Y655395D01*
X856061D01*
X851891Y659565D01*
Y660345D01*
X851117Y662212D01*
X849688Y663641D01*
X847821Y664415D01*
X845800D01*
X843933Y663641D01*
X842504Y662212D01*
X841731Y660345D01*
Y658324D01*
X842504Y656457D01*
X843933Y655028D01*
X845800Y654255D01*
X846580D01*
X851850Y648985D01*
X853068Y648171D01*
X854505Y647885D01*
X859080D01*
Y639475D01*
X870660D01*
X870660Y639475D01*
X871780D01*
Y639475D01*
X871930Y639475D01*
X881064D01*
X881322Y639338D01*
X881691Y639005D01*
X882107Y638437D01*
Y610870D01*
X882245Y610176D01*
X882638Y609588D01*
X897878Y594348D01*
X898466Y593955D01*
X899160Y593817D01*
X1035777D01*
X1036471Y593955D01*
X1036684Y594097D01*
X1036896Y593955D01*
X1037590Y593817D01*
X1174750D01*
Y491367D01*
X1173480Y490420D01*
X1134890D01*
Y470340D01*
X1173480D01*
X1173970Y470340D01*
X1174750Y469393D01*
X1174750Y384367D01*
X1173480Y383420D01*
X1134890D01*
Y363340D01*
X1173480D01*
X1173970Y363340D01*
X1174750Y362393D01*
Y304800D01*
X1174750Y304800D01*
X1174750Y301470D01*
X1173881Y294868D01*
X1172157Y288436D01*
X1169609Y282283D01*
X1166279Y276516D01*
X1162225Y271233D01*
X1157517Y266525D01*
X1152234Y262471D01*
X1146466Y259141D01*
X1140314Y256593D01*
X1133882Y254869D01*
X1127280Y254000D01*
X851100D01*
Y292830D01*
X831020D01*
Y254000D01*
X764100D01*
Y292830D01*
X744020D01*
Y254000D01*
X632660D01*
Y292830D01*
X612580D01*
Y254000D01*
X545660D01*
Y292830D01*
X525580D01*
Y254000D01*
X301470D01*
X294868Y254869D01*
X288436Y256593D01*
X282283Y259141D01*
X276516Y262471D01*
X271233Y266525D01*
X266525Y271233D01*
X262471Y276516D01*
X259141Y282283D01*
X256593Y288436D01*
X254869Y294868D01*
X254000Y301470D01*
Y304800D01*
Y836930D01*
X254000Y840259D01*
X254869Y846862D01*
X256593Y853294D01*
X259141Y859446D01*
X262471Y865213D01*
X266525Y870497D01*
X271233Y875205D01*
X276516Y879259D01*
X282283Y882589D01*
X288436Y885137D01*
X294868Y886861D01*
X301470Y887730D01*
X304800Y887730D01*
D02*
G37*
G36*
X827580Y737060D02*
Y736060D01*
Y732120D01*
X833120D01*
X838660D01*
Y736060D01*
Y736600D01*
X857977D01*
Y728461D01*
X852689Y723173D01*
X781050D01*
Y742407D01*
X792480D01*
X793174Y742545D01*
X793762Y742938D01*
X801382Y750558D01*
X801775Y751146D01*
X801913Y751840D01*
X812800D01*
X827580Y737060D01*
D02*
G37*
G36*
X737327Y756377D02*
Y744398D01*
X737362Y744223D01*
Y744045D01*
X737392Y743896D01*
X737460Y743731D01*
X737465Y743705D01*
X737480Y743683D01*
X737662Y743242D01*
X737662Y743242D01*
X737662Y743242D01*
X737913Y742992D01*
X738163Y742742D01*
X738163Y742742D01*
X738163Y742742D01*
X738603Y742560D01*
X738625Y742545D01*
X738651Y742540D01*
X738816Y742472D01*
X738816D01*
X738816Y742472D01*
X738965Y742442D01*
X739144Y742442D01*
X739319Y742407D01*
X779237D01*
Y723173D01*
X737351D01*
X726983Y733541D01*
X726983Y769077D01*
X726983Y770347D01*
X737327D01*
Y756377D01*
D02*
G37*
G36*
X730977Y690129D02*
Y682082D01*
X729615Y680720D01*
X718820D01*
X716940Y678840D01*
X711880D01*
Y673100D01*
Y667360D01*
X718210D01*
X720090Y665480D01*
X723244D01*
X723545Y665075D01*
X722908Y663805D01*
X722630D01*
Y651640D01*
X720090D01*
Y663805D01*
X715570D01*
X715570Y663805D01*
X714450D01*
Y663805D01*
X714300Y663805D01*
X711605D01*
X709930Y665480D01*
X703580Y665480D01*
X699770Y669290D01*
X699770Y695417D01*
X706190D01*
Y692150D01*
X713230D01*
X720270D01*
Y695417D01*
X725689D01*
X730977Y690129D01*
D02*
G37*
G36*
X1005840Y796290D02*
X1036320D01*
X1064260Y768350D01*
Y739140D01*
Y726464D01*
X1036308Y698512D01*
X1035915Y697924D01*
X1035777Y697230D01*
Y595630D01*
X899160D01*
X883920Y610870D01*
Y638437D01*
X884480Y639475D01*
X885190Y639475D01*
X887730D01*
Y651640D01*
Y663805D01*
X885190D01*
X884480Y663805D01*
X883418Y664307D01*
X880741Y666984D01*
X881160Y667995D01*
X881160D01*
Y672465D01*
X875620D01*
Y675005D01*
X881160D01*
Y679475D01*
X882444Y679729D01*
X882638Y679438D01*
X891528Y670548D01*
X892116Y670155D01*
X892810Y670017D01*
X913649Y670017D01*
X918688Y664978D01*
X918202Y663805D01*
X910030D01*
X909880Y663805D01*
X908760D01*
X908610Y663805D01*
X897330D01*
X897180Y663805D01*
X896060D01*
X895910Y663805D01*
X892810D01*
Y651640D01*
Y639475D01*
X895910D01*
X896060Y639475D01*
X897180D01*
X897330Y639475D01*
X908610D01*
X908760Y639475D01*
X909880D01*
X910030Y639475D01*
X921460D01*
X922020Y638437D01*
Y629920D01*
X928370Y623570D01*
X956310Y623570D01*
X974090Y641350D01*
Y661670D01*
X1038860Y726440D01*
Y758190D01*
X1021080Y775970D01*
X998220D01*
X993140Y770890D01*
Y756920D01*
X982980Y746760D01*
X925103D01*
X925103Y768350D01*
X924965Y769044D01*
X924572Y769632D01*
X913142Y781062D01*
X912554Y781455D01*
X911860Y781593D01*
X876300Y781593D01*
Y817880D01*
X984250D01*
X1005840Y796290D01*
D02*
G37*
G36*
X882107Y695209D02*
Y681523D01*
X882091Y681507D01*
X880808Y681253D01*
X880642Y681185D01*
X880466Y681150D01*
X880318Y681051D01*
X880154Y680983D01*
X880027Y680856D01*
X879878Y680757D01*
X879853Y680720D01*
X875030D01*
Y680720D01*
X873785Y679475D01*
X868090D01*
Y673735D01*
Y667995D01*
X877867D01*
X878928Y666984D01*
X878928Y666984D01*
X879066Y666290D01*
X879459Y665702D01*
X880183Y664978D01*
X879697Y663805D01*
X878840D01*
Y651640D01*
X876300D01*
Y663805D01*
X872322D01*
X871220Y664210D01*
Y664210D01*
X871220Y664210D01*
X862330D01*
X858520Y668020D01*
Y699227D01*
X878089D01*
X882107Y695209D01*
D02*
G37*
G36*
X730870Y678152D02*
X730977Y677982D01*
Y676910D01*
X731115Y676216D01*
X731508Y675628D01*
X737858Y669278D01*
X738446Y668885D01*
X739140Y668747D01*
X761249D01*
X763997Y665999D01*
X763997Y665075D01*
X763740Y664492D01*
X763581Y664275D01*
X763212Y663942D01*
X762954Y663805D01*
X753670D01*
Y663805D01*
X752550D01*
Y663805D01*
X741120D01*
X740970Y663805D01*
X739850D01*
X739700Y663805D01*
X736600D01*
Y651640D01*
Y639475D01*
X739140D01*
X739850Y639475D01*
X740410Y638437D01*
Y621030D01*
X737870Y618490D01*
X730250D01*
X727710Y621030D01*
Y638437D01*
X728270Y639475D01*
X728980Y639475D01*
X731520D01*
Y651640D01*
Y663805D01*
X728420D01*
X728270Y663805D01*
X727150D01*
X727000Y663805D01*
X726309D01*
X726282Y663816D01*
X725979Y664027D01*
X725614Y664475D01*
X725353Y664943D01*
X725318Y665230D01*
X725303Y665519D01*
X725274Y665579D01*
X725266Y665645D01*
X725124Y665897D01*
X724999Y666158D01*
X724950Y667360D01*
X724950Y667360D01*
Y671830D01*
X719410D01*
Y674370D01*
X724950D01*
Y678840D01*
X726192Y678907D01*
X729615D01*
X729707Y678925D01*
X730870Y678152D01*
D02*
G37*
G36*
X928916Y706798D02*
X929056Y706704D01*
X934594Y701166D01*
X934687Y701026D01*
X934720Y700861D01*
Y664843D01*
X934160Y663805D01*
X930275D01*
Y651640D01*
X926465D01*
Y663805D01*
X922580D01*
X921637Y664593D01*
X914400Y671830D01*
X892989Y671830D01*
X892824Y671863D01*
X892684Y671956D01*
X884046Y680594D01*
X883951Y680736D01*
X883920Y680767D01*
Y695960D01*
X878840Y701040D01*
X858520D01*
X856707D01*
X829153Y701040D01*
X784860D01*
X778510Y694690D01*
Y693236D01*
X778510Y665075D01*
X778510Y665075D01*
X778510Y664843D01*
X777950Y663805D01*
X774065D01*
Y651640D01*
X770255D01*
Y663805D01*
X766370D01*
X765810Y664843D01*
Y665075D01*
X765810Y665075D01*
X765810Y666750D01*
X762000Y670560D01*
X739319D01*
X739154Y670593D01*
X739014Y670686D01*
X732916Y676784D01*
X732823Y676924D01*
X732790Y677089D01*
Y690880D01*
X726440Y697230D01*
X720270D01*
Y698170D01*
X706190D01*
Y697230D01*
X664503Y697230D01*
X662940D01*
X662409Y696699D01*
X601168Y635458D01*
X598182Y632472D01*
X586188Y620478D01*
X582930Y617220D01*
Y598349D01*
X582897Y598184D01*
X582804Y598044D01*
X575436Y590676D01*
X575296Y590583D01*
X575131Y590550D01*
X552450D01*
X544830Y582930D01*
Y542256D01*
Y481509D01*
X544797Y481344D01*
X544704Y481204D01*
X524636Y461136D01*
X524496Y461043D01*
X524331Y461010D01*
X474980D01*
X437006Y423036D01*
X436866Y422943D01*
X436702Y422910D01*
X369749D01*
X369584Y422943D01*
X369444Y423036D01*
X356996Y435484D01*
X356903Y435624D01*
X356870Y435789D01*
Y518709D01*
X356906Y518887D01*
X481330D01*
X482024Y519025D01*
X482612Y519418D01*
X483744Y518286D01*
X483837Y518146D01*
X483870Y517981D01*
Y516080D01*
X479390D01*
Y510540D01*
Y505000D01*
X484330D01*
X487680Y501650D01*
X528320D01*
X534670Y508000D01*
Y574040D01*
X530860Y577850D01*
X524689D01*
X524524Y577883D01*
X524384Y577976D01*
X513080Y589280D01*
Y590651D01*
X513455Y590901D01*
X514362Y591808D01*
X514755Y592396D01*
X514893Y593090D01*
Y607579D01*
X521451Y614137D01*
X533400D01*
X534094Y614275D01*
X534682Y614668D01*
X626844Y706831D01*
X928751D01*
X928916Y706798D01*
D02*
G37*
G36*
X973547Y686213D02*
X973685Y685519D01*
X974078Y684931D01*
X974285Y683755D01*
X974234Y683428D01*
X961909Y671103D01*
X953770D01*
X953076Y670965D01*
X952488Y670572D01*
X948176Y666260D01*
X947784Y665672D01*
X947646Y664978D01*
X947695Y664729D01*
X946903Y663935D01*
X946855Y663905D01*
X946610Y663805D01*
X942340D01*
Y651640D01*
Y639475D01*
X944564D01*
X944822Y639338D01*
X945191Y639005D01*
X945607Y638437D01*
Y625383D01*
X944337Y625383D01*
X929121Y625383D01*
X923833Y630671D01*
Y638437D01*
X924249Y639005D01*
X924618Y639338D01*
X924876Y639475D01*
X934010D01*
X934160Y639475D01*
Y639475D01*
X935280D01*
Y639475D01*
X939800D01*
Y651640D01*
Y663805D01*
X937576D01*
X937318Y663942D01*
X936949Y664275D01*
X936533Y664843D01*
Y700861D01*
X936498Y701036D01*
Y701215D01*
X936465Y701380D01*
X936465Y701380D01*
Y701380D01*
X936397Y701545D01*
X936395Y701555D01*
X936389Y701564D01*
X936271Y701850D01*
X936268Y701860D01*
X936263Y701869D01*
X936195Y702033D01*
X936195Y702033D01*
X936194Y702034D01*
X936101Y702173D01*
X935975Y702300D01*
X935876Y702448D01*
X930338Y707986D01*
X930189Y708085D01*
X930063Y708212D01*
X929923Y708305D01*
X929923Y708305D01*
X929923Y708305D01*
X929758Y708373D01*
X929749Y708379D01*
X929739Y708381D01*
X929453Y708500D01*
X929445Y708505D01*
X929435Y708507D01*
X929269Y708576D01*
X929269D01*
X929269Y708576D01*
X929104Y708609D01*
X928926D01*
X928751Y708643D01*
X925976D01*
X925134Y709513D01*
X925102Y709876D01*
X925099Y709897D01*
X925103Y709918D01*
X925103Y744947D01*
X925103Y744947D01*
X973547D01*
Y686213D01*
D02*
G37*
G36*
X638796Y631157D02*
X638936Y631064D01*
X647574Y622426D01*
X647667Y622286D01*
X647700Y622121D01*
Y601980D01*
X652780Y596900D01*
X662940D01*
X664235Y595605D01*
X664235Y595605D01*
X665354Y594486D01*
X665447Y594346D01*
X665480Y594182D01*
Y581839D01*
X665447Y581674D01*
X665354Y581534D01*
X664336Y580516D01*
X664196Y580423D01*
X664032Y580390D01*
X662130D01*
Y584870D01*
X651050D01*
Y582509D01*
X649877Y582023D01*
X648970Y582930D01*
Y590550D01*
X646430Y593090D01*
X637540D01*
X636730Y592280D01*
X630520D01*
Y586740D01*
X629250D01*
Y585470D01*
X622960D01*
Y581200D01*
X625124D01*
X625650Y579930D01*
X624230Y578510D01*
X623790D01*
Y578070D01*
X621030Y575310D01*
Y568326D01*
X620692Y568187D01*
X619263Y566758D01*
X619240Y566701D01*
X617970Y566954D01*
Y567690D01*
X605470D01*
Y559190D01*
X617970D01*
Y560806D01*
X619240Y561059D01*
X619263Y561002D01*
X620692Y559573D01*
X622117Y558983D01*
X624459Y556641D01*
Y553473D01*
X630047D01*
Y551348D01*
X624459D01*
Y550770D01*
X591138D01*
X590973Y550803D01*
X590834Y550896D01*
X583056Y558674D01*
X582963Y558814D01*
X582930Y558979D01*
Y592134D01*
Y595606D01*
X584212Y596888D01*
X584605Y597476D01*
X584743Y598170D01*
Y616469D01*
X586794Y618520D01*
X587890Y617820D01*
X587890Y616946D01*
Y609600D01*
X600390D01*
Y618100D01*
X589126D01*
X588170Y618100D01*
X587470Y619196D01*
X599464Y631190D01*
X638631D01*
X638796Y631157D01*
D02*
G37*
G36*
X1174750Y595630D02*
X1037590D01*
Y697230D01*
X1066073Y725713D01*
Y739140D01*
X1174750D01*
Y595630D01*
D02*
G37*
G36*
X523102Y576694D02*
X523250Y576595D01*
X523377Y576469D01*
X523516Y576376D01*
X523517Y576376D01*
X523517Y576376D01*
X523681Y576307D01*
X523690Y576301D01*
X523700Y576300D01*
X523986Y576181D01*
X523995Y576175D01*
X524005Y576173D01*
X524170Y576105D01*
X524170D01*
X524170Y576105D01*
X524335Y576072D01*
X524514D01*
X524689Y576037D01*
X530109D01*
X532857Y573289D01*
Y564893D01*
X532374Y564584D01*
X531587Y564408D01*
X528930Y567065D01*
Y574500D01*
X504850D01*
Y570289D01*
X499491D01*
Y571507D01*
X497450D01*
X497325Y572777D01*
X497843Y572880D01*
X498725Y573470D01*
X503765Y578510D01*
X511000D01*
Y587000D01*
X512270Y587526D01*
X523102Y576694D01*
D02*
G37*
G36*
X487749Y556155D02*
X487749Y556155D01*
X488315Y555777D01*
Y548633D01*
X490795D01*
Y547497D01*
X491032Y546308D01*
X491706Y545299D01*
X494892Y542113D01*
X494406Y540940D01*
X486779D01*
X486611Y541015D01*
X485982Y541552D01*
X485923Y541610D01*
X485718Y541857D01*
X485718Y542131D01*
X485727Y542210D01*
X485733Y542240D01*
X485723Y542293D01*
X485730Y542497D01*
X485718Y542529D01*
Y542564D01*
X485623Y542793D01*
X485595Y542933D01*
X485535Y543024D01*
X485484Y543160D01*
X485461Y543185D01*
X485447Y543217D01*
X485428Y543247D01*
X485302Y543373D01*
X485202Y543521D01*
X484008Y544716D01*
X483860Y544815D01*
X483733Y544941D01*
X483594Y545034D01*
X483593Y545034D01*
X483593Y545034D01*
X483429Y545103D01*
X483420Y545108D01*
X483410Y545111D01*
X483124Y545229D01*
X483115Y545235D01*
X483105Y545237D01*
X482940Y545305D01*
X482940D01*
X482940Y545305D01*
X482775Y545338D01*
X482597D01*
X482421Y545373D01*
X469464D01*
X468770Y545235D01*
X468182Y544842D01*
X467941Y544600D01*
X466740Y544103D01*
X465440D01*
X464239Y544600D01*
X463998Y544842D01*
X463410Y545235D01*
X463109Y545295D01*
X461553Y546851D01*
Y551699D01*
X463031Y553177D01*
X473329D01*
Y548633D01*
X477647D01*
Y552570D01*
X478917D01*
Y553633D01*
X484505D01*
Y557735D01*
X485699Y558128D01*
X485775Y558129D01*
X487749Y556155D01*
D02*
G37*
G36*
X589826Y549389D02*
X589966Y549296D01*
X589966Y549296D01*
X589966Y549296D01*
X590131Y549227D01*
X590140Y549222D01*
X590150Y549220D01*
X590436Y549101D01*
X590445Y549095D01*
X590455Y549093D01*
X590620Y549025D01*
X590620D01*
X590620Y549025D01*
X590785Y548992D01*
X590963D01*
X591138Y548957D01*
X624459D01*
Y548472D01*
X630047D01*
Y546347D01*
X624459D01*
Y543895D01*
X623652Y543226D01*
X623189Y543084D01*
X622040Y543560D01*
X620019D01*
X618152Y542787D01*
X616723Y541358D01*
X615950Y539491D01*
Y537469D01*
X616723Y535602D01*
X618152Y534173D01*
X620019Y533400D01*
X622040D01*
X623908Y534173D01*
X625337Y535602D01*
X625487Y535965D01*
X626141Y536095D01*
X627150Y536768D01*
X628854Y538473D01*
X633673D01*
Y538128D01*
X637540Y534260D01*
Y532050D01*
X632060D01*
Y524510D01*
Y516970D01*
X632903D01*
X633236Y516740D01*
X633721Y516033D01*
X633800Y515700D01*
X633780Y515670D01*
X630046Y511936D01*
X629906Y511843D01*
X629741Y511810D01*
X621030D01*
X612266Y503046D01*
X612126Y502953D01*
X611961Y502920D01*
X567869D01*
X567704Y502953D01*
X567564Y503046D01*
X561466Y509144D01*
X561373Y509284D01*
X561340Y509449D01*
Y531951D01*
X561373Y532116D01*
X561466Y532256D01*
X569699Y540489D01*
X569699Y540489D01*
X570230Y541020D01*
Y541094D01*
X571426Y542290D01*
X582480D01*
X589579Y549389D01*
X589826D01*
D02*
G37*
G36*
X505680Y556884D02*
Y549250D01*
X518750D01*
Y554990D01*
X521290D01*
Y549250D01*
X525560D01*
X526482Y548411D01*
Y534608D01*
X517253Y525378D01*
X516080Y525864D01*
Y534130D01*
Y546710D01*
X505000D01*
Y543528D01*
X502267D01*
X498335Y547460D01*
X498821Y548633D01*
X499491D01*
Y559851D01*
X502714D01*
X505680Y556884D01*
D02*
G37*
G36*
X386068Y581648D02*
X386656Y581255D01*
X387350Y581117D01*
X443749D01*
X465222Y559644D01*
X465810Y559251D01*
X466504Y559113D01*
X473329D01*
Y558632D01*
X478917D01*
Y556507D01*
X473329D01*
Y554990D01*
X462280D01*
X459740Y552450D01*
Y546100D01*
X462280Y543560D01*
X462716D01*
X463212Y543063D01*
X465079Y542290D01*
X467100D01*
X468968Y543063D01*
X469464Y543560D01*
X482421D01*
X482586Y543527D01*
X482726Y543434D01*
X483920Y542240D01*
X483940Y542210D01*
X483861Y541877D01*
X483349Y541131D01*
X483032Y540940D01*
X480930D01*
Y533400D01*
Y525860D01*
X484260D01*
X484347Y525816D01*
X484634Y525555D01*
X485187Y524604D01*
X485094Y524464D01*
X481456Y520826D01*
X481316Y520733D01*
X481151Y520700D01*
X356906D01*
X356870Y520878D01*
Y592911D01*
X356903Y593076D01*
X356996Y593216D01*
X364860Y601081D01*
X366594Y601122D01*
X386068Y581648D01*
D02*
G37*
G36*
X505000Y522630D02*
X512846D01*
X513332Y521457D01*
X507955Y516080D01*
X499770D01*
Y513648D01*
X495910D01*
Y516080D01*
X485683D01*
Y517981D01*
X485648Y518157D01*
Y518335D01*
X485615Y518500D01*
X485615Y518500D01*
Y518500D01*
X485547Y518665D01*
X485545Y518675D01*
X485539Y518684D01*
X485420Y518970D01*
X485419Y518980D01*
X485413Y518989D01*
X485345Y519154D01*
X485345Y519154D01*
X485344Y519154D01*
X485251Y519294D01*
X485125Y519420D01*
X485026Y519568D01*
X483894Y520700D01*
X486376Y523182D01*
X486475Y523330D01*
X486601Y523456D01*
X486694Y523596D01*
X486763Y523761D01*
X486768Y523770D01*
X486771Y523780D01*
X486809Y523872D01*
X486940Y524141D01*
X486943Y524197D01*
X486965Y524250D01*
Y524548D01*
X486984Y524846D01*
X487260Y525247D01*
X487759Y525738D01*
X487979Y525860D01*
X500200D01*
Y530292D01*
X505000D01*
Y522630D01*
D02*
G37*
G36*
X681422Y544963D02*
Y518177D01*
X678163Y514918D01*
X671910D01*
X670721Y514681D01*
X669713Y514007D01*
X668383Y512678D01*
X667210Y513164D01*
Y521430D01*
Y534010D01*
X659479D01*
X658112Y535377D01*
X658598Y536550D01*
X669880D01*
Y542290D01*
X671150D01*
Y543560D01*
X676690D01*
Y547899D01*
X677680Y548704D01*
X681422Y544963D01*
D02*
G37*
G36*
X532375Y530747D02*
X532857Y530438D01*
Y508751D01*
X527569Y503463D01*
X489291D01*
X489113Y503730D01*
X489791Y505000D01*
X495910D01*
Y507432D01*
X499770D01*
Y505000D01*
X516290D01*
Y510540D01*
X517560D01*
Y511810D01*
X523850D01*
Y516080D01*
X518404D01*
X517918Y517253D01*
X531587Y530922D01*
X532375Y530747D01*
D02*
G37*
G36*
X656130Y518115D02*
Y509930D01*
X663976D01*
X664462Y508757D01*
X660355Y504650D01*
X652170D01*
Y502218D01*
X647040D01*
Y504650D01*
X636813D01*
Y506730D01*
X636675Y507424D01*
X636282Y508012D01*
X632484Y511810D01*
X635062Y514389D01*
X635162Y514537D01*
X635288Y514663D01*
X635307Y514693D01*
X635321Y514725D01*
X635344Y514750D01*
X635395Y514886D01*
X635455Y514977D01*
X635483Y515117D01*
X635578Y515346D01*
Y515381D01*
X635590Y515413D01*
X635583Y515617D01*
X635593Y515670D01*
X635587Y515700D01*
X635578Y515779D01*
X635578Y516053D01*
X635783Y516300D01*
X635842Y516358D01*
X636471Y516895D01*
X636639Y516970D01*
X651330D01*
Y521402D01*
X652843D01*
X656130Y518115D01*
D02*
G37*
G36*
X635000Y506730D02*
Y504650D01*
X630520D01*
Y499110D01*
Y493570D01*
X636730D01*
X638810Y491490D01*
X656590D01*
X659130Y488950D01*
Y474980D01*
X655320Y471170D01*
X642000D01*
Y477900D01*
X632460D01*
X622920D01*
Y471170D01*
X615950D01*
X609600Y464820D01*
X574040D01*
X561340Y477520D01*
Y496570D01*
X566408Y501638D01*
X566996Y501245D01*
X567690Y501107D01*
X612140D01*
X612834Y501245D01*
X613422Y501638D01*
X621781Y509997D01*
X629920D01*
X630614Y510135D01*
X631202Y510528D01*
X635000Y506730D01*
D02*
G37*
%LPC*%
G36*
X1123950Y867563D02*
X1119236Y867192D01*
X1114638Y866088D01*
X1110270Y864279D01*
X1106238Y861808D01*
X1102643Y858737D01*
X1099572Y855142D01*
X1097101Y851110D01*
X1095292Y846742D01*
X1094188Y842144D01*
X1093817Y837430D01*
Y836430D01*
X1094188Y831716D01*
X1095292Y827118D01*
X1097101Y822750D01*
X1099572Y818718D01*
X1102643Y815123D01*
X1106238Y812052D01*
X1110270Y809581D01*
X1114638Y807772D01*
X1119236Y806668D01*
X1123950Y806297D01*
X1128664Y806668D01*
X1133262Y807772D01*
X1137630Y809581D01*
X1141662Y812052D01*
X1145257Y815123D01*
X1148328Y818718D01*
X1150799Y822750D01*
X1152608Y827118D01*
X1153712Y831716D01*
X1154083Y836430D01*
Y837430D01*
X1153712Y842144D01*
X1152608Y846742D01*
X1150799Y851110D01*
X1148328Y855142D01*
X1145257Y858737D01*
X1141662Y861808D01*
X1137630Y864279D01*
X1133262Y866088D01*
X1128664Y867192D01*
X1123950Y867563D01*
D02*
G37*
G36*
X1108710Y776607D02*
Y765810D01*
X1119507D01*
X1118787Y768496D01*
X1117005Y771584D01*
X1114484Y774105D01*
X1111396Y775887D01*
X1108710Y776607D01*
D02*
G37*
G36*
X1103630D02*
X1100944Y775887D01*
X1097856Y774105D01*
X1095335Y771584D01*
X1093553Y768496D01*
X1092833Y765810D01*
X1103630D01*
Y776607D01*
D02*
G37*
G36*
X1119507Y760730D02*
X1108710D01*
Y749933D01*
X1111396Y750653D01*
X1114484Y752435D01*
X1117005Y754956D01*
X1118787Y758044D01*
X1119507Y760730D01*
D02*
G37*
G36*
X1103630D02*
X1092833D01*
X1093553Y758044D01*
X1095335Y754956D01*
X1097856Y752435D01*
X1100944Y750653D01*
X1103630Y749933D01*
Y760730D01*
D02*
G37*
G36*
X393860Y795020D02*
X386840D01*
Y781250D01*
X393860D01*
Y795020D01*
D02*
G37*
G36*
X384300D02*
X377280D01*
Y781250D01*
X384300D01*
Y795020D01*
D02*
G37*
G36*
X326390Y716917D02*
Y706120D01*
X337187D01*
X336467Y708806D01*
X334685Y711894D01*
X332164Y714415D01*
X329076Y716197D01*
X326390Y716917D01*
D02*
G37*
G36*
X321310D02*
X318624Y716197D01*
X315536Y714415D01*
X313015Y711894D01*
X311233Y708806D01*
X310513Y706120D01*
X321310D01*
Y716917D01*
D02*
G37*
G36*
X337187Y701040D02*
X326390D01*
Y690243D01*
X329076Y690963D01*
X332164Y692745D01*
X334685Y695266D01*
X336467Y698354D01*
X337187Y701040D01*
D02*
G37*
G36*
X321310D02*
X310513D01*
X311233Y698354D01*
X313015Y695266D01*
X315536Y692745D01*
X318624Y690963D01*
X321310Y690243D01*
Y701040D01*
D02*
G37*
G36*
X410100Y630300D02*
X392830D01*
Y621030D01*
X410100D01*
Y630300D01*
D02*
G37*
G36*
X390290D02*
X373020D01*
Y621030D01*
X390290D01*
Y630300D01*
D02*
G37*
G36*
X410100Y618490D02*
X392830D01*
Y609220D01*
X410100D01*
Y618490D01*
D02*
G37*
G36*
X390290D02*
X373020D01*
Y609220D01*
X390290D01*
Y618490D01*
D02*
G37*
G36*
X478120Y602440D02*
X473100D01*
Y598170D01*
X478120D01*
Y602440D01*
D02*
G37*
G36*
X511000Y602590D02*
X506730D01*
Y597570D01*
X511000D01*
Y602590D01*
D02*
G37*
G36*
X504190D02*
X499920D01*
Y597570D01*
X504190D01*
Y602590D01*
D02*
G37*
G36*
X829770Y799635D02*
X825500D01*
Y794615D01*
X829770D01*
Y799635D01*
D02*
G37*
G36*
X822960D02*
X818690D01*
Y794615D01*
X822960D01*
Y799635D01*
D02*
G37*
G36*
X850570Y798955D02*
X844550D01*
Y793185D01*
X850570D01*
Y798955D01*
D02*
G37*
G36*
X842010D02*
X835990D01*
Y793185D01*
X842010D01*
Y798955D01*
D02*
G37*
G36*
X850570Y790645D02*
X844550D01*
Y784875D01*
X850570D01*
Y790645D01*
D02*
G37*
G36*
X842010D02*
X835990D01*
Y784875D01*
X842010D01*
Y790645D01*
D02*
G37*
G36*
X635460Y798170D02*
X631190D01*
Y793150D01*
X635460D01*
Y798170D01*
D02*
G37*
G36*
X628650D02*
X624380D01*
Y793150D01*
X628650D01*
Y798170D01*
D02*
G37*
G36*
X656260Y797490D02*
X650240D01*
Y791720D01*
X656260D01*
Y797490D01*
D02*
G37*
G36*
X647700D02*
X641680D01*
Y791720D01*
X647700D01*
Y797490D01*
D02*
G37*
G36*
X656260Y789180D02*
X650240D01*
Y783410D01*
X656260D01*
Y789180D01*
D02*
G37*
G36*
X647700D02*
X641680D01*
Y783410D01*
X647700D01*
Y789180D01*
D02*
G37*
G36*
X850570Y767455D02*
X844550D01*
Y761685D01*
X850570D01*
Y767455D01*
D02*
G37*
G36*
X842010D02*
X835990D01*
Y761685D01*
X842010D01*
Y767455D01*
D02*
G37*
G36*
X850570Y759145D02*
X844550D01*
Y753375D01*
X850570D01*
Y759145D01*
D02*
G37*
G36*
X842010D02*
X835990D01*
Y753375D01*
X842010D01*
Y759145D01*
D02*
G37*
G36*
X1015670Y772090D02*
X1009650D01*
Y766320D01*
X1015670D01*
Y772090D01*
D02*
G37*
G36*
X1007110D02*
X1001090D01*
Y766320D01*
X1007110D01*
Y772090D01*
D02*
G37*
G36*
X1015670Y763780D02*
X1009650D01*
Y758010D01*
X1015670D01*
Y763780D01*
D02*
G37*
G36*
X1007110D02*
X1001090D01*
Y758010D01*
X1007110D01*
Y763780D01*
D02*
G37*
G36*
X1031700Y748640D02*
X1027430D01*
Y743620D01*
X1031700D01*
Y748640D01*
D02*
G37*
G36*
X1024890D02*
X1020620D01*
Y743620D01*
X1024890D01*
Y748640D01*
D02*
G37*
G36*
X821360Y770820D02*
X815340D01*
Y765050D01*
X821360D01*
Y770820D01*
D02*
G37*
G36*
X812800D02*
X806780D01*
Y765050D01*
X812800D01*
Y770820D01*
D02*
G37*
G36*
X821360Y762510D02*
X815340D01*
Y756740D01*
X821360D01*
Y762510D01*
D02*
G37*
G36*
X812800D02*
X806780D01*
Y756740D01*
X812800D01*
Y762510D01*
D02*
G37*
G36*
X831850Y748640D02*
X827580D01*
Y743620D01*
X831850D01*
Y748640D01*
D02*
G37*
G36*
X1015670Y732280D02*
X1009650D01*
Y726510D01*
X1015670D01*
Y732280D01*
D02*
G37*
G36*
X1007110D02*
X1001090D01*
Y726510D01*
X1007110D01*
Y732280D01*
D02*
G37*
G36*
X1031700Y729580D02*
X1027430D01*
Y724560D01*
X1031700D01*
Y729580D01*
D02*
G37*
G36*
X1024890D02*
X1020620D01*
Y724560D01*
X1024890D01*
Y729580D01*
D02*
G37*
G36*
X959560Y663805D02*
X955040D01*
Y652910D01*
X959560D01*
Y663805D01*
D02*
G37*
G36*
Y650370D02*
X955040D01*
Y639475D01*
X959560D01*
Y650370D01*
D02*
G37*
G36*
X635460Y779110D02*
X631190D01*
Y774090D01*
X635460D01*
Y779110D01*
D02*
G37*
G36*
X628650D02*
X624380D01*
Y774090D01*
X628650D01*
Y779110D01*
D02*
G37*
G36*
X656260Y765990D02*
X650240D01*
Y760220D01*
X656260D01*
Y765990D01*
D02*
G37*
G36*
X647700D02*
X641680D01*
Y760220D01*
X647700D01*
Y765990D01*
D02*
G37*
G36*
X656260Y757680D02*
X650240D01*
Y751910D01*
X656260D01*
Y757680D01*
D02*
G37*
G36*
X647700D02*
X641680D01*
Y751910D01*
X647700D01*
Y757680D01*
D02*
G37*
G36*
X521080Y875130D02*
X511810D01*
Y866360D01*
X521080D01*
Y875130D01*
D02*
G37*
G36*
X472185D02*
X462915D01*
Y866360D01*
X472185D01*
Y875130D01*
D02*
G37*
G36*
X425830D02*
X416560D01*
Y866360D01*
X425830D01*
Y875130D01*
D02*
G37*
G36*
X509270D02*
X500000D01*
Y866360D01*
X509270D01*
Y875130D01*
D02*
G37*
G36*
X460375D02*
X451105D01*
Y866360D01*
X460375D01*
Y875130D01*
D02*
G37*
G36*
X414020D02*
X404750D01*
Y866360D01*
X414020D01*
Y875130D01*
D02*
G37*
G36*
X521080Y863820D02*
X511810D01*
Y855050D01*
X521080D01*
Y863820D01*
D02*
G37*
G36*
X509270D02*
X500000D01*
Y855050D01*
X509270D01*
Y863820D01*
D02*
G37*
G36*
X472185D02*
X462915D01*
Y855050D01*
X472185D01*
Y863820D01*
D02*
G37*
G36*
X460375D02*
X451105D01*
Y855050D01*
X460375D01*
Y863820D01*
D02*
G37*
G36*
X425830D02*
X416560D01*
Y855050D01*
X425830D01*
Y863820D01*
D02*
G37*
G36*
X414020D02*
X404750D01*
Y855050D01*
X414020D01*
Y863820D01*
D02*
G37*
G36*
X304800Y867563D02*
X300086Y867192D01*
X295488Y866088D01*
X291120Y864279D01*
X287088Y861808D01*
X283493Y858737D01*
X280422Y855142D01*
X277951Y851110D01*
X276142Y846742D01*
X275038Y842144D01*
X274667Y837430D01*
Y836430D01*
X275038Y831716D01*
X276142Y827118D01*
X277951Y822750D01*
X280422Y818718D01*
X283493Y815123D01*
X287088Y812052D01*
X291120Y809581D01*
X295488Y807772D01*
X300086Y806668D01*
X304800Y806297D01*
X309514Y806668D01*
X314112Y807772D01*
X318480Y809581D01*
X322512Y812052D01*
X326107Y815123D01*
X329178Y818718D01*
X331649Y822750D01*
X333458Y827118D01*
X334562Y831716D01*
X334933Y836430D01*
Y837430D01*
X334562Y842144D01*
X333458Y846742D01*
X331649Y851110D01*
X329178Y855142D01*
X326107Y858737D01*
X322512Y861808D01*
X318480Y864279D01*
X314112Y866088D01*
X309514Y867192D01*
X304800Y867563D01*
D02*
G37*
G36*
X521080Y839130D02*
X500000D01*
Y819050D01*
X506785D01*
Y815875D01*
X507071Y814438D01*
X507858Y813260D01*
X507751Y812703D01*
X507455Y811990D01*
X498500D01*
Y800910D01*
X501382D01*
Y796857D01*
X500184Y795658D01*
X499410Y793791D01*
Y791770D01*
X500184Y789903D01*
X501613Y788474D01*
X503480Y787700D01*
X505501D01*
X507368Y788474D01*
X508797Y789903D01*
X509570Y791770D01*
Y793791D01*
X508797Y795658D01*
X507598Y796857D01*
Y800910D01*
X522580D01*
Y811990D01*
X518196D01*
X517914Y813407D01*
X517100Y814625D01*
X514295Y817430D01*
Y819050D01*
X521080D01*
Y839130D01*
D02*
G37*
G36*
X472185D02*
X451105D01*
Y819050D01*
X457890D01*
Y815875D01*
X458176Y814438D01*
X458963Y813260D01*
X458856Y812703D01*
X458560Y811990D01*
X448970D01*
Y800910D01*
X451852D01*
Y796816D01*
X451782Y796787D01*
X450353Y795358D01*
X449580Y793491D01*
Y791469D01*
X450353Y789602D01*
X451782Y788173D01*
X453649Y787400D01*
X455671D01*
X457538Y788173D01*
X458967Y789602D01*
X459740Y791469D01*
Y793491D01*
X458967Y795358D01*
X458068Y796256D01*
Y800910D01*
X473050D01*
Y811990D01*
X468670D01*
Y812605D01*
X468384Y814042D01*
X467570Y815260D01*
X465400Y817430D01*
Y819050D01*
X472185D01*
Y839130D01*
D02*
G37*
G36*
X425830D02*
X404750D01*
Y819050D01*
X411535D01*
Y811330D01*
X408780D01*
Y781250D01*
X425360D01*
Y811330D01*
X419045D01*
Y819050D01*
X425830D01*
Y839130D01*
D02*
G37*
G36*
X326390Y767717D02*
Y756920D01*
X337187D01*
X336467Y759606D01*
X334685Y762694D01*
X332164Y765215D01*
X329076Y766997D01*
X326390Y767717D01*
D02*
G37*
G36*
X321310D02*
X318624Y766997D01*
X315536Y765215D01*
X313015Y762694D01*
X311233Y759606D01*
X310513Y756920D01*
X321310D01*
Y767717D01*
D02*
G37*
G36*
X337187Y751840D02*
X326390D01*
Y741043D01*
X329076Y741763D01*
X332164Y743545D01*
X334685Y746066D01*
X336467Y749154D01*
X337187Y751840D01*
D02*
G37*
G36*
X321310D02*
X310513D01*
X311233Y749154D01*
X313015Y746066D01*
X315536Y743545D01*
X318624Y741763D01*
X321310Y741043D01*
Y751840D01*
D02*
G37*
G36*
X804590Y687070D02*
X796820D01*
Y676800D01*
X804590D01*
Y687070D01*
D02*
G37*
G36*
X794280D02*
X786510D01*
Y676800D01*
X794280D01*
Y687070D01*
D02*
G37*
G36*
X820161Y665480D02*
X818139D01*
X816272Y664707D01*
X814843Y663278D01*
X814070Y661411D01*
Y660631D01*
X808835Y655395D01*
X803350D01*
Y663805D01*
X791920D01*
X791770Y663805D01*
X790650D01*
X790500Y663805D01*
X786130D01*
Y651640D01*
Y639475D01*
X790500D01*
X790650Y639475D01*
X791770D01*
X791920Y639475D01*
X803350D01*
Y647885D01*
X810390D01*
X811827Y648171D01*
X813045Y648985D01*
X819381Y655320D01*
X820161D01*
X822028Y656093D01*
X823457Y657522D01*
X824230Y659389D01*
Y661411D01*
X823457Y663278D01*
X822028Y664707D01*
X820161Y665480D01*
D02*
G37*
G36*
X460100Y630300D02*
X442830D01*
Y621030D01*
X460100D01*
Y630300D01*
D02*
G37*
G36*
X440290D02*
X423020D01*
Y621030D01*
X440290D01*
Y630300D01*
D02*
G37*
G36*
X671240Y621140D02*
X663470D01*
Y610870D01*
X671240D01*
Y621140D01*
D02*
G37*
G36*
X660930D02*
X653160D01*
Y610870D01*
X660930D01*
Y621140D01*
D02*
G37*
G36*
X460100Y618490D02*
X442830D01*
Y609220D01*
X460100D01*
Y618490D01*
D02*
G37*
G36*
X440290D02*
X423020D01*
Y609220D01*
X440290D01*
Y618490D01*
D02*
G37*
G36*
X690620Y585470D02*
X688599D01*
X686732Y584697D01*
X685995Y583959D01*
X685165Y583366D01*
X684335Y583959D01*
X683598Y584697D01*
X681730Y585470D01*
X679709D01*
X677842Y584697D01*
X676413Y583268D01*
X675640Y581400D01*
Y579380D01*
X676413Y577512D01*
X677842Y576083D01*
X679709Y575310D01*
X681405D01*
X681422Y575293D01*
Y557032D01*
X681659Y555843D01*
X682333Y554835D01*
X689042Y548125D01*
Y530552D01*
X689279Y529363D01*
X689952Y528355D01*
X699738Y518570D01*
X700746Y517896D01*
X701935Y517659D01*
X713656D01*
X721385Y509930D01*
X720859Y508660D01*
X718230D01*
Y502920D01*
X716960D01*
Y501650D01*
X711420D01*
Y497230D01*
X711420Y497180D01*
X711420D01*
Y495960D01*
X711420D01*
Y491490D01*
X716960D01*
Y490220D01*
X718230D01*
Y484480D01*
X727271D01*
X728788Y482963D01*
X728302Y481790D01*
X708050D01*
Y474527D01*
X692736D01*
X691499Y474281D01*
X690450Y473580D01*
X663580Y446710D01*
X590797D01*
X589560Y446464D01*
X588510Y445763D01*
X551357Y408610D01*
X418435D01*
X417197Y408364D01*
X416148Y407663D01*
X402246Y393761D01*
X401545Y392712D01*
X401299Y391475D01*
Y387076D01*
X400092Y386577D01*
X398663Y385148D01*
X397890Y383280D01*
Y381259D01*
X398663Y379392D01*
X400092Y377963D01*
X401636Y377324D01*
X403345Y375615D01*
X403046Y374118D01*
X402386Y373845D01*
X401772Y374133D01*
X401674Y374235D01*
X401109Y375079D01*
X401109Y375079D01*
X389618Y386570D01*
X388694Y387188D01*
X387604Y387405D01*
X387604Y387405D01*
X356616D01*
X355526Y387188D01*
X354602Y386570D01*
X354602Y386570D01*
X340886Y372854D01*
X340268Y371930D01*
X340173Y371450D01*
X337360D01*
Y358870D01*
Y354930D01*
X348440D01*
Y358870D01*
Y371450D01*
X348440Y371450D01*
X348440D01*
X348735Y372646D01*
X357796Y381707D01*
X371662D01*
X372510Y380437D01*
X372110Y379470D01*
Y377449D01*
X372883Y375582D01*
X374312Y374153D01*
X375695Y373581D01*
X375866Y373307D01*
X376131Y372346D01*
X376121Y372134D01*
X375474Y371166D01*
X375161Y369590D01*
Y366360D01*
X379280D01*
Y363820D01*
X375161D01*
Y360590D01*
X375474Y359014D01*
X375583Y358851D01*
X375500Y357499D01*
X373871Y355870D01*
X373039Y353860D01*
X378780D01*
Y351320D01*
X373039D01*
X373871Y349310D01*
X375500Y347682D01*
X377104Y347017D01*
X376990Y346742D01*
Y344438D01*
X377872Y342310D01*
X379500Y340681D01*
X381628Y339800D01*
X383932D01*
X386060Y340681D01*
X386780Y341402D01*
X387500Y340681D01*
X389628Y339800D01*
X391932D01*
X394060Y340681D01*
X394780Y341402D01*
X395500Y340681D01*
X397628Y339800D01*
X399932D01*
X402060Y340681D01*
X403689Y342310D01*
X404570Y344438D01*
Y346742D01*
X404456Y347017D01*
X406060Y347682D01*
X406780Y348402D01*
X407500Y347682D01*
X409104Y347017D01*
X408990Y346742D01*
Y344438D01*
X409871Y342310D01*
X411500Y340681D01*
X413628Y339800D01*
X415932D01*
X416363Y339978D01*
X420536Y335806D01*
X421460Y335188D01*
X422550Y334971D01*
X422550Y334971D01*
X436880D01*
X436880Y334971D01*
X437970Y335188D01*
X438894Y335806D01*
X440662Y337573D01*
X442003Y337118D01*
X442134Y336122D01*
X442894Y334287D01*
X444102Y332712D01*
X445677Y331504D01*
X447512Y330744D01*
X448210Y330652D01*
Y341090D01*
X449480D01*
Y342360D01*
X457085D01*
Y344090D01*
X456826Y346058D01*
X456066Y347892D01*
X454857Y349468D01*
X453283Y350676D01*
X451448Y351436D01*
X450143Y351608D01*
X449687Y352949D01*
X458980Y362241D01*
X465630D01*
Y354860D01*
X476710D01*
Y358800D01*
X476710Y370396D01*
Y370412D01*
Y370412D01*
X476710Y370689D01*
X477183Y370885D01*
X477980Y371215D01*
X482140Y367055D01*
Y358870D01*
Y347370D01*
X493220D01*
Y350552D01*
X497380D01*
Y347370D01*
X508460D01*
Y351481D01*
X519430D01*
X519430Y351481D01*
X520520Y351698D01*
X521444Y352316D01*
X522642Y353513D01*
X577695D01*
X578181Y352340D01*
X578003Y352162D01*
X577386Y351238D01*
X577305Y350830D01*
X571580D01*
Y310750D01*
X586660D01*
Y350211D01*
X591580D01*
Y310750D01*
X606660D01*
Y327941D01*
X626020D01*
X639746Y314216D01*
X639746Y314216D01*
X640670Y313598D01*
X641760Y313381D01*
X641761Y313381D01*
X734060D01*
X734060Y313381D01*
X735150Y313598D01*
X736074Y314216D01*
X768847Y346988D01*
X770020Y346502D01*
Y332060D01*
X776290D01*
Y350830D01*
X774348D01*
X773862Y352003D01*
X783604Y361746D01*
X783604Y361746D01*
X784222Y362670D01*
X784439Y363760D01*
Y416996D01*
X784840Y417325D01*
X786340D01*
X787429Y417542D01*
X787590Y417650D01*
X787751Y417542D01*
X788840Y417325D01*
X790340D01*
X790901Y416865D01*
Y411260D01*
X788010D01*
Y400180D01*
Y398190D01*
X793750D01*
X799490D01*
Y400180D01*
Y411260D01*
X796599D01*
Y417127D01*
X796840Y417325D01*
X798340D01*
X799429Y417542D01*
X799590Y417650D01*
X799751Y417542D01*
X800840Y417325D01*
X802340D01*
X802871Y416890D01*
Y412340D01*
X803078Y411299D01*
X803667Y410417D01*
X819005Y395079D01*
X819887Y394490D01*
X820928Y394283D01*
X876952D01*
X970101Y301134D01*
Y286876D01*
X966144Y282919D01*
X957290D01*
Y287740D01*
X936710D01*
Y283955D01*
X904790D01*
Y287740D01*
X884210D01*
Y272660D01*
X904790D01*
Y276445D01*
X936710D01*
Y272660D01*
X957290D01*
Y277481D01*
X967270D01*
X968311Y277688D01*
X969193Y278277D01*
X974743Y283827D01*
X974743Y283827D01*
X975332Y284709D01*
X975539Y285750D01*
X975539Y285750D01*
Y299116D01*
X976713Y299602D01*
X998037Y278277D01*
X998919Y277688D01*
X999960Y277481D01*
X1001050Y276947D01*
Y272660D01*
X1021630D01*
Y276445D01*
X1053550D01*
Y272660D01*
X1074130D01*
Y287740D01*
X1053550D01*
Y283955D01*
X1021630D01*
Y287740D01*
X1001050D01*
Y284615D01*
X999877Y284129D01*
X884628Y399378D01*
X885114Y400551D01*
X895960D01*
Y397730D01*
X907440D01*
Y399515D01*
X924220D01*
Y376620D01*
X950300D01*
Y437700D01*
X924220D01*
Y407025D01*
X907440D01*
Y410800D01*
X895960D01*
Y405989D01*
X856426D01*
X840919Y421496D01*
Y427386D01*
X842093Y427872D01*
X845167Y424797D01*
X846049Y424208D01*
X847090Y424001D01*
X847090Y424001D01*
X867410D01*
X868451Y424208D01*
X869333Y424797D01*
X889653Y445117D01*
X890242Y445999D01*
X890449Y447040D01*
Y488340D01*
X893270D01*
Y502335D01*
X895960D01*
Y498520D01*
X901700D01*
X907440D01*
Y502295D01*
X924220D01*
Y471620D01*
X950300D01*
Y530681D01*
X971694D01*
X977721Y524654D01*
Y505460D01*
X977928Y504419D01*
X978517Y503537D01*
X991217Y490837D01*
X992099Y490248D01*
X993140Y490041D01*
X993140Y490041D01*
X1010920D01*
X1011961Y490248D01*
X1012843Y490837D01*
X1033163Y511157D01*
X1033752Y512039D01*
X1033959Y513080D01*
Y529260D01*
X1036880D01*
X1037030Y529260D01*
X1038150D01*
X1038300Y529260D01*
X1049580D01*
X1049730Y529260D01*
X1050850D01*
X1051000Y529260D01*
X1053532D01*
Y528320D01*
X1053769Y527131D01*
X1054230Y526440D01*
X1053756Y525170D01*
X1053050D01*
Y513690D01*
X1055482D01*
Y467360D01*
X1055719Y466171D01*
X1056393Y465163D01*
X1066873Y454683D01*
X1067881Y454009D01*
X1069070Y453772D01*
X1076890D01*
Y449340D01*
X1116970D01*
Y464420D01*
X1076890D01*
Y459988D01*
X1070358D01*
X1061698Y468647D01*
Y513690D01*
X1066120D01*
Y519430D01*
Y525170D01*
X1061698D01*
Y526370D01*
X1061461Y527559D01*
X1061173Y527990D01*
X1061852Y529260D01*
X1062280D01*
X1062430Y529260D01*
X1063550D01*
X1063700Y529260D01*
X1074980D01*
X1075130Y529260D01*
X1076250D01*
X1076400Y529260D01*
X1080770D01*
Y543050D01*
Y556840D01*
X1076400D01*
X1076250Y556840D01*
X1075130D01*
X1074980Y556840D01*
X1063700D01*
X1063550Y556840D01*
X1062430D01*
X1062280Y556840D01*
X1059748D01*
Y562356D01*
X1059511Y563545D01*
X1058838Y564553D01*
X1048678Y574714D01*
X1047669Y575387D01*
X1046480Y575624D01*
X893826D01*
X892637Y575387D01*
X891628Y574714D01*
X888073Y571157D01*
X887399Y570149D01*
X887283Y569565D01*
X884630D01*
X884480Y569565D01*
Y569565D01*
X883360D01*
Y569565D01*
X871930D01*
X871780Y569565D01*
X870660D01*
X870510Y569565D01*
X859080D01*
Y545235D01*
X870510D01*
X870660Y545235D01*
X871780D01*
X871930Y545235D01*
X877510D01*
X877804Y544525D01*
X877919Y543965D01*
X877241Y542950D01*
X873980D01*
Y542780D01*
X873246Y542290D01*
X871226D01*
X869358Y541517D01*
X867929Y540088D01*
X867156Y538220D01*
Y536199D01*
X867929Y534332D01*
X869358Y532903D01*
X871226Y532130D01*
X873246D01*
X873980Y531640D01*
Y531470D01*
X887050D01*
Y537210D01*
X888320D01*
Y538480D01*
X893860D01*
Y542950D01*
X889165D01*
X888679Y544123D01*
X889790Y545235D01*
X896060D01*
Y545235D01*
X897180D01*
Y545235D01*
X899619D01*
X899957Y544393D01*
X900001Y543965D01*
X898663Y542628D01*
X897890Y540760D01*
Y538740D01*
X898663Y536872D01*
X900092Y535443D01*
X900930Y535097D01*
X901228Y533598D01*
X897399Y529769D01*
X808846D01*
X803293Y535323D01*
X802411Y535912D01*
X801370Y536119D01*
X777373D01*
X776681Y537389D01*
X777240Y538740D01*
Y540760D01*
X776467Y542628D01*
X775129Y543965D01*
X775173Y544393D01*
X775511Y545235D01*
X777800D01*
X777950Y545235D01*
X779070D01*
X779220Y545235D01*
X783590D01*
Y557400D01*
Y569565D01*
X779220D01*
X779070Y569565D01*
X777950D01*
X777800Y569565D01*
X766520D01*
X766370Y569565D01*
X765250D01*
X765100Y569565D01*
X760730D01*
Y557400D01*
Y545235D01*
X765100D01*
X765250Y545235D01*
X766370D01*
X766520Y545235D01*
X768809D01*
X769147Y544393D01*
X769191Y543965D01*
X767853Y542628D01*
X767080Y540760D01*
Y538740D01*
X767853Y536872D01*
X769282Y535443D01*
X770569Y534911D01*
X770951Y533497D01*
X759460Y522006D01*
X753763Y527703D01*
X752881Y528292D01*
X751840Y528499D01*
X738741D01*
X737650Y528930D01*
X737650Y529769D01*
Y533400D01*
X732110D01*
Y534670D01*
X730840D01*
Y540410D01*
X730415D01*
X729929Y541583D01*
X733580Y545235D01*
X739700D01*
X739850Y545235D01*
X740970D01*
X741120Y545235D01*
X744041D01*
Y542852D01*
X743882Y542787D01*
X742453Y541358D01*
X741680Y539491D01*
Y537469D01*
X742453Y535602D01*
X743882Y534173D01*
X745750Y533400D01*
X747770D01*
X749638Y534173D01*
X751067Y535602D01*
X751840Y537469D01*
Y539491D01*
X751067Y541358D01*
X749638Y542787D01*
X749479Y542852D01*
Y545235D01*
X752400D01*
X752550Y545235D01*
X753670D01*
X753820Y545235D01*
X758190D01*
Y557400D01*
Y569565D01*
X753820D01*
X753670Y569565D01*
X752550D01*
X752400Y569565D01*
X741120D01*
X740970Y569565D01*
X739850D01*
X739700Y569565D01*
X728420D01*
X728270Y569565D01*
Y569565D01*
X727150D01*
Y569565D01*
X715720D01*
X715570Y569565D01*
X714450D01*
X714300Y569565D01*
X702870D01*
Y545235D01*
X714300D01*
X714450Y545235D01*
X715570D01*
X715720Y545235D01*
X721300D01*
X721594Y544525D01*
X721709Y543965D01*
X720936Y542807D01*
X720650Y541370D01*
Y540410D01*
X717770D01*
Y538425D01*
X713359D01*
X712808Y538977D01*
X710940Y539750D01*
X708920D01*
X707052Y538977D01*
X705623Y537548D01*
X704850Y535681D01*
Y533660D01*
X705623Y531792D01*
X707052Y530363D01*
X708487Y529769D01*
X708234Y528499D01*
X705976D01*
X701219Y533256D01*
Y552638D01*
X701219Y552638D01*
X701012Y553679D01*
X700423Y554561D01*
X692329Y562655D01*
Y576018D01*
X692488Y576083D01*
X693917Y577512D01*
X694690Y579380D01*
Y581400D01*
X693917Y583268D01*
X692488Y584697D01*
X690620Y585470D01*
D02*
G37*
G36*
X791770Y569565D02*
X790650D01*
X790500Y569565D01*
X786130D01*
Y557400D01*
Y545235D01*
X790500D01*
X790650Y545235D01*
X791770D01*
X791920Y545235D01*
X803350D01*
Y569565D01*
X791920D01*
X791770Y569565D01*
D02*
G37*
G36*
X270740Y554700D02*
X264470D01*
Y545680D01*
X270740D01*
Y554700D01*
D02*
G37*
G36*
X261930D02*
X255660D01*
Y545680D01*
X261930D01*
Y554700D01*
D02*
G37*
G36*
X1083310Y556840D02*
Y544320D01*
X1087830D01*
Y556840D01*
X1083310D01*
D02*
G37*
G36*
X287740Y554700D02*
X272660D01*
Y534120D01*
X277092D01*
Y502200D01*
X272660D01*
Y481620D01*
X287740D01*
Y502200D01*
X283308D01*
Y534120D01*
X287740D01*
Y541442D01*
X305229D01*
X305294Y541284D01*
X306723Y539855D01*
X308591Y539081D01*
X310612D01*
X312479Y539855D01*
X313908Y541284D01*
X314681Y543151D01*
Y545172D01*
X313908Y547039D01*
X312479Y548468D01*
X310612Y549241D01*
X308591D01*
X306723Y548468D01*
X305294Y547039D01*
X305229Y546881D01*
X287740D01*
Y554700D01*
D02*
G37*
G36*
X737650Y540410D02*
X733380D01*
Y535940D01*
X737650D01*
Y540410D01*
D02*
G37*
G36*
X270740Y543140D02*
X264470D01*
Y534120D01*
X270740D01*
Y543140D01*
D02*
G37*
G36*
X261930D02*
X255660D01*
Y534120D01*
X261930D01*
Y543140D01*
D02*
G37*
G36*
X893860Y535940D02*
X889590D01*
Y531470D01*
X893860D01*
Y535940D01*
D02*
G37*
G36*
X1087830Y541780D02*
X1083310D01*
Y529260D01*
X1087830D01*
Y541780D01*
D02*
G37*
G36*
X1072930Y525170D02*
X1068660D01*
Y520700D01*
X1072930D01*
Y525170D01*
D02*
G37*
G36*
Y518160D02*
X1068660D01*
Y513690D01*
X1072930D01*
Y518160D01*
D02*
G37*
G36*
X715690Y508660D02*
X711420D01*
Y504190D01*
X715690D01*
Y508660D01*
D02*
G37*
G36*
X676250Y497840D02*
X671230D01*
Y493570D01*
X676250D01*
Y497840D01*
D02*
G37*
G36*
X270740Y502200D02*
X264470D01*
Y493180D01*
X270740D01*
Y502200D01*
D02*
G37*
G36*
X261930D02*
X255660D01*
Y493180D01*
X261930D01*
Y502200D01*
D02*
G37*
G36*
X907440Y495980D02*
X902970D01*
Y491710D01*
X907440D01*
Y495980D01*
D02*
G37*
G36*
X900430D02*
X895960D01*
Y491710D01*
X900430D01*
Y495980D01*
D02*
G37*
G36*
X715690Y488950D02*
X711420D01*
Y484480D01*
X715690D01*
Y488950D01*
D02*
G37*
G36*
X270740Y490640D02*
X264470D01*
Y481620D01*
X270740D01*
Y490640D01*
D02*
G37*
G36*
X261930D02*
X255660D01*
Y481620D01*
X261930D01*
Y490640D01*
D02*
G37*
G36*
X642000Y461900D02*
X633730D01*
Y454130D01*
X642000D01*
Y461900D01*
D02*
G37*
G36*
X631190D02*
X622920D01*
Y454130D01*
X631190D01*
Y461900D01*
D02*
G37*
G36*
X510920Y456050D02*
X501650D01*
Y440780D01*
X510920D01*
Y456050D01*
D02*
G37*
G36*
X499110D02*
X489840D01*
Y440780D01*
X499110D01*
Y456050D01*
D02*
G37*
G36*
X1116970Y444420D02*
X1098200D01*
Y438150D01*
X1116970D01*
Y444420D01*
D02*
G37*
G36*
X1095660D02*
X1076890D01*
Y438150D01*
X1095660D01*
Y444420D01*
D02*
G37*
G36*
X1116970Y435610D02*
X1098200D01*
Y429340D01*
X1116970D01*
Y435610D01*
D02*
G37*
G36*
X1095660D02*
X1076890D01*
Y429340D01*
X1095660D01*
Y435610D01*
D02*
G37*
G36*
X510920Y438240D02*
X501650D01*
Y422970D01*
X510920D01*
Y438240D01*
D02*
G37*
G36*
X499110D02*
X489840D01*
Y422970D01*
X499110D01*
Y438240D01*
D02*
G37*
G36*
X1116970Y424420D02*
X1076890D01*
Y419279D01*
X1025452D01*
X1025387Y419438D01*
X1023958Y420867D01*
X1022091Y421640D01*
X1020070D01*
X1018202Y420867D01*
X1016773Y419438D01*
X1016000Y417570D01*
Y415550D01*
X1016773Y413682D01*
X1018202Y412253D01*
X1020070Y411480D01*
X1022091D01*
X1023958Y412253D01*
X1025387Y413682D01*
X1025452Y413841D01*
X1076890D01*
Y409340D01*
X1116970D01*
Y424420D01*
D02*
G37*
G36*
X287740Y425160D02*
X281470D01*
Y416140D01*
X287740D01*
Y425160D01*
D02*
G37*
G36*
X278930D02*
X272660D01*
Y416140D01*
X278930D01*
Y425160D01*
D02*
G37*
G36*
X907440Y417610D02*
X902970D01*
Y413340D01*
X907440D01*
Y417610D01*
D02*
G37*
G36*
X900430D02*
X895960D01*
Y413340D01*
X900430D01*
Y417610D01*
D02*
G37*
G36*
X287740Y413600D02*
X281470D01*
Y404580D01*
X287740D01*
Y413600D01*
D02*
G37*
G36*
X278930D02*
X272660D01*
Y404580D01*
X278930D01*
Y413600D01*
D02*
G37*
G36*
X1116970Y404420D02*
X1076890D01*
Y400229D01*
X1025452D01*
X1025387Y400388D01*
X1023958Y401817D01*
X1022091Y402590D01*
X1020070D01*
X1018202Y401817D01*
X1016773Y400388D01*
X1016000Y398521D01*
Y396499D01*
X1016773Y394632D01*
X1018202Y393203D01*
X1020070Y392430D01*
X1022091D01*
X1023958Y393203D01*
X1025387Y394632D01*
X1025452Y394791D01*
X1076890D01*
Y389340D01*
X1116970D01*
Y404420D01*
D02*
G37*
G36*
X799490Y395650D02*
X795020D01*
Y391380D01*
X799490D01*
Y395650D01*
D02*
G37*
G36*
X792480D02*
X788010D01*
Y391380D01*
X792480D01*
Y395650D01*
D02*
G37*
G36*
X876960Y388400D02*
X872490D01*
Y384130D01*
X876960D01*
Y388400D01*
D02*
G37*
G36*
X869950D02*
X865480D01*
Y384130D01*
X869950D01*
Y388400D01*
D02*
G37*
G36*
X807460Y388620D02*
X805440D01*
X803572Y387847D01*
X802143Y386418D01*
X801370Y384551D01*
Y382529D01*
X801436Y382371D01*
X795637Y376573D01*
X795048Y375691D01*
X794841Y374650D01*
Y350830D01*
X790020D01*
Y310750D01*
X805100D01*
Y350830D01*
X800279D01*
Y373524D01*
X805281Y378526D01*
X805440Y378460D01*
X807460D01*
X809328Y379233D01*
X810757Y380662D01*
X811530Y382529D01*
Y384551D01*
X810757Y386418D01*
X809328Y387847D01*
X807460Y388620D01*
D02*
G37*
G36*
X854710Y375700D02*
X850240D01*
Y371430D01*
X854710D01*
Y375700D01*
D02*
G37*
G36*
X287740Y372660D02*
X281470D01*
Y363640D01*
X287740D01*
Y372660D01*
D02*
G37*
G36*
X278930D02*
X272660D01*
Y363640D01*
X278930D01*
Y372660D01*
D02*
G37*
G36*
X287740Y361100D02*
X281470D01*
Y352080D01*
X287740D01*
Y361100D01*
D02*
G37*
G36*
X278930D02*
X272660D01*
Y352080D01*
X278930D01*
Y361100D01*
D02*
G37*
G36*
X348440Y352390D02*
X344170D01*
Y347370D01*
X348440D01*
Y352390D01*
D02*
G37*
G36*
X341630D02*
X337360D01*
Y347370D01*
X341630D01*
Y352390D01*
D02*
G37*
G36*
X476710Y352320D02*
X472440D01*
Y347300D01*
X476710D01*
Y352320D01*
D02*
G37*
G36*
X469900D02*
X465630D01*
Y347300D01*
X469900D01*
Y352320D01*
D02*
G37*
G36*
X365350Y351528D02*
Y342360D01*
X371685D01*
Y344090D01*
X371426Y346058D01*
X370666Y347892D01*
X369458Y349468D01*
X367883Y350676D01*
X366048Y351436D01*
X365350Y351528D01*
D02*
G37*
G36*
X362810D02*
X362112Y351436D01*
X360277Y350676D01*
X358703Y349468D01*
X357494Y347892D01*
X356734Y346058D01*
X356475Y344090D01*
Y342360D01*
X362810D01*
Y351528D01*
D02*
G37*
G36*
X270740Y425160D02*
X255660D01*
Y404580D01*
X260092D01*
Y372660D01*
X255660D01*
Y352080D01*
X263822D01*
Y349020D01*
X264059Y347831D01*
X264733Y346822D01*
X270510Y341045D01*
Y339350D01*
X271283Y337482D01*
X272712Y336053D01*
X274580Y335280D01*
X276600D01*
X278468Y336053D01*
X279897Y337482D01*
X280670Y339350D01*
Y341371D01*
X279897Y343238D01*
X278468Y344667D01*
X276600Y345440D01*
X274905D01*
X270038Y350307D01*
Y352080D01*
X270740D01*
Y372660D01*
X266308D01*
Y404580D01*
X270740D01*
Y425160D01*
D02*
G37*
G36*
X831590Y386080D02*
X829569D01*
X827702Y385307D01*
X826273Y383878D01*
X825500Y382010D01*
Y379990D01*
X826273Y378122D01*
X827702Y376693D01*
X829569Y375920D01*
X831590D01*
X833458Y376693D01*
X834887Y378122D01*
X834952Y378281D01*
X856124D01*
X857531Y376873D01*
X857250Y376194D01*
Y370160D01*
X855980D01*
Y368890D01*
X850240D01*
Y364620D01*
Y355820D01*
X853131D01*
Y352250D01*
X837590D01*
Y345199D01*
X826370Y333979D01*
X825100Y334459D01*
Y350830D01*
X810020D01*
Y310750D01*
X825100D01*
Y327941D01*
X827210D01*
X827210Y327941D01*
X828300Y328158D01*
X829224Y328775D01*
X841619Y341170D01*
X861670D01*
Y343861D01*
X865530D01*
Y341170D01*
X872000D01*
X872486Y339997D01*
X866703Y334214D01*
X865530Y334700D01*
Y335060D01*
X854050D01*
Y323980D01*
Y321990D01*
X859790D01*
X865530D01*
Y325599D01*
X866038Y326671D01*
X867128Y326888D01*
X868052Y327505D01*
X881717Y341170D01*
X889610D01*
Y352250D01*
X886169D01*
Y355140D01*
X889610D01*
Y366220D01*
X874669D01*
Y368520D01*
X876960D01*
Y377320D01*
Y381590D01*
X865480D01*
Y378890D01*
X863205D01*
X859173Y382923D01*
X858291Y383512D01*
X857250Y383719D01*
X834952D01*
X834887Y383878D01*
X833458Y385307D01*
X831590Y386080D01*
D02*
G37*
G36*
X785100Y350830D02*
X778830D01*
Y332060D01*
X785100D01*
Y350830D01*
D02*
G37*
G36*
X566660D02*
X560390D01*
Y332060D01*
X566660D01*
Y350830D01*
D02*
G37*
G36*
X557850D02*
X551580D01*
Y332060D01*
X557850D01*
Y350830D01*
D02*
G37*
G36*
X371685Y339820D02*
X365350D01*
Y330652D01*
X366048Y330744D01*
X367883Y331504D01*
X369458Y332712D01*
X370666Y334287D01*
X371426Y336122D01*
X371685Y338090D01*
Y339820D01*
D02*
G37*
G36*
X457085D02*
X450750D01*
Y330652D01*
X451448Y330744D01*
X453283Y331504D01*
X454857Y332712D01*
X456066Y334287D01*
X456826Y336122D01*
X457085Y338090D01*
Y339820D01*
D02*
G37*
G36*
X362810D02*
X356475D01*
Y338090D01*
X356734Y336122D01*
X357494Y334287D01*
X358703Y332712D01*
X360277Y331504D01*
X362112Y330744D01*
X362810Y330652D01*
Y339820D01*
D02*
G37*
G36*
X408050Y326647D02*
Y320560D01*
X410389D01*
Y323290D01*
X410115Y324671D01*
X409332Y325842D01*
X408161Y326625D01*
X408050Y326647D01*
D02*
G37*
G36*
X405510D02*
X405399Y326625D01*
X404228Y325842D01*
X403445Y324671D01*
X403171Y323290D01*
Y320560D01*
X405510D01*
Y326647D01*
D02*
G37*
G36*
X865530Y319450D02*
X861060D01*
Y315180D01*
X865530D01*
Y319450D01*
D02*
G37*
G36*
X858520D02*
X854050D01*
Y315180D01*
X858520D01*
Y319450D01*
D02*
G37*
G36*
X410389Y318020D02*
X408050D01*
Y311933D01*
X408161Y311956D01*
X409332Y312738D01*
X410115Y313909D01*
X410389Y315290D01*
Y318020D01*
D02*
G37*
G36*
X405510D02*
X403171D01*
Y315290D01*
X403445Y313909D01*
X404228Y312738D01*
X405399Y311956D01*
X405510Y311933D01*
Y318020D01*
D02*
G37*
G36*
X785100Y329520D02*
X778830D01*
Y310750D01*
X785100D01*
Y329520D01*
D02*
G37*
G36*
X776290D02*
X770020D01*
Y310750D01*
X776290D01*
Y329520D01*
D02*
G37*
G36*
X566660D02*
X560390D01*
Y310750D01*
X566660D01*
Y329520D01*
D02*
G37*
G36*
X557850D02*
X551580D01*
Y310750D01*
X557850D01*
Y329520D01*
D02*
G37*
G36*
X365350Y304228D02*
Y295060D01*
X371685D01*
Y296790D01*
X371426Y298759D01*
X370666Y300593D01*
X369458Y302168D01*
X367883Y303376D01*
X366048Y304136D01*
X365350Y304228D01*
D02*
G37*
G36*
X450750D02*
Y295060D01*
X457085D01*
Y296790D01*
X456826Y298759D01*
X456066Y300593D01*
X454857Y302168D01*
X453283Y303376D01*
X451448Y304136D01*
X450750Y304228D01*
D02*
G37*
G36*
X448210D02*
X447512Y304136D01*
X445677Y303376D01*
X444102Y302168D01*
X442894Y300593D01*
X442134Y298759D01*
X441875Y296790D01*
Y295060D01*
X448210D01*
Y304228D01*
D02*
G37*
G36*
X362810D02*
X362112Y304136D01*
X360277Y303376D01*
X358703Y302168D01*
X357494Y300593D01*
X356734Y298759D01*
X356475Y296790D01*
Y295060D01*
X362810D01*
Y304228D01*
D02*
G37*
G36*
X408300Y295647D02*
Y289560D01*
X410639D01*
Y292290D01*
X410364Y293671D01*
X409582Y294842D01*
X408411Y295625D01*
X408300Y295647D01*
D02*
G37*
G36*
X405760D02*
X405649Y295625D01*
X404478Y294842D01*
X403695Y293671D01*
X403421Y292290D01*
Y289560D01*
X405760D01*
Y295647D01*
D02*
G37*
G36*
X371685Y292520D02*
X365350D01*
Y283352D01*
X366048Y283444D01*
X367883Y284204D01*
X369458Y285413D01*
X370666Y286988D01*
X371426Y288822D01*
X371685Y290790D01*
Y292520D01*
D02*
G37*
G36*
X457085D02*
X450750D01*
Y283352D01*
X451448Y283444D01*
X453283Y284204D01*
X454857Y285413D01*
X456066Y286988D01*
X456826Y288822D01*
X457085Y290790D01*
Y292520D01*
D02*
G37*
G36*
X448210D02*
X441875D01*
Y290790D01*
X442134Y288822D01*
X442894Y286988D01*
X444102Y285413D01*
X445677Y284204D01*
X447512Y283444D01*
X448210Y283352D01*
Y292520D01*
D02*
G37*
G36*
X362810D02*
X356475D01*
Y290790D01*
X356734Y288822D01*
X357494Y286988D01*
X358703Y285413D01*
X360277Y284204D01*
X362112Y283444D01*
X362810Y283352D01*
Y292520D01*
D02*
G37*
G36*
X410639Y287020D02*
X408300D01*
Y280933D01*
X408411Y280955D01*
X409582Y281738D01*
X410364Y282909D01*
X410639Y284290D01*
Y287020D01*
D02*
G37*
G36*
X405760D02*
X403421D01*
Y284290D01*
X403695Y282909D01*
X404478Y281738D01*
X405649Y280955D01*
X405760Y280933D01*
Y287020D01*
D02*
G37*
G36*
X1123950Y335433D02*
X1119236Y335062D01*
X1114638Y333958D01*
X1110270Y332149D01*
X1106238Y329678D01*
X1102643Y326607D01*
X1099572Y323012D01*
X1097101Y318980D01*
X1095292Y314612D01*
X1094188Y310014D01*
X1093817Y305300D01*
Y304300D01*
X1094188Y299586D01*
X1095292Y294988D01*
X1097101Y290620D01*
X1099572Y286588D01*
X1102643Y282993D01*
X1106238Y279922D01*
X1110270Y277451D01*
X1114638Y275642D01*
X1119236Y274538D01*
X1123950Y274167D01*
X1128664Y274538D01*
X1133262Y275642D01*
X1137630Y277451D01*
X1141662Y279922D01*
X1145257Y282993D01*
X1148328Y286588D01*
X1150799Y290620D01*
X1152608Y294988D01*
X1153712Y299586D01*
X1154083Y304300D01*
Y305300D01*
X1153712Y310014D01*
X1152608Y314612D01*
X1150799Y318980D01*
X1148328Y323012D01*
X1145257Y326607D01*
X1141662Y329678D01*
X1137630Y332149D01*
X1133262Y333958D01*
X1128664Y335062D01*
X1123950Y335433D01*
D02*
G37*
G36*
X304800D02*
X300086Y335062D01*
X295488Y333958D01*
X291120Y332149D01*
X287088Y329678D01*
X283493Y326607D01*
X280422Y323012D01*
X277951Y318980D01*
X276142Y314612D01*
X275038Y310014D01*
X274667Y305300D01*
Y304300D01*
X275038Y299586D01*
X276142Y294988D01*
X277951Y290620D01*
X280422Y286588D01*
X283493Y282993D01*
X287088Y279922D01*
X291120Y277451D01*
X295488Y275642D01*
X300086Y274538D01*
X304800Y274167D01*
X309514Y274538D01*
X314112Y275642D01*
X318480Y277451D01*
X322512Y279922D01*
X326107Y282993D01*
X329178Y286588D01*
X331649Y290620D01*
X333458Y294988D01*
X334562Y299586D01*
X334933Y304300D01*
Y305300D01*
X334562Y310014D01*
X333458Y314612D01*
X331649Y318980D01*
X329178Y323012D01*
X326107Y326607D01*
X322512Y329678D01*
X318480Y332149D01*
X314112Y333958D01*
X309514Y335062D01*
X304800Y335433D01*
D02*
G37*
G36*
X1074130Y270740D02*
X1065110D01*
Y264470D01*
X1074130D01*
Y270740D01*
D02*
G37*
G36*
X1062570D02*
X1053550D01*
Y264470D01*
X1062570D01*
Y270740D01*
D02*
G37*
G36*
X1021630D02*
X1012610D01*
Y264470D01*
X1021630D01*
Y270740D01*
D02*
G37*
G36*
X1010070D02*
X1001050D01*
Y264470D01*
X1010070D01*
Y270740D01*
D02*
G37*
G36*
X957290D02*
X948270D01*
Y264470D01*
X957290D01*
Y270740D01*
D02*
G37*
G36*
X945730D02*
X936710D01*
Y264470D01*
X945730D01*
Y270740D01*
D02*
G37*
G36*
X904790D02*
X895770D01*
Y264470D01*
X904790D01*
Y270740D01*
D02*
G37*
G36*
X893230D02*
X884210D01*
Y264470D01*
X893230D01*
Y270740D01*
D02*
G37*
G36*
X1074130Y261930D02*
X1065110D01*
Y255660D01*
X1074130D01*
Y261930D01*
D02*
G37*
G36*
X1062570D02*
X1053550D01*
Y255660D01*
X1062570D01*
Y261930D01*
D02*
G37*
G36*
X1021630D02*
X1012610D01*
Y255660D01*
X1021630D01*
Y261930D01*
D02*
G37*
G36*
X1010070D02*
X1001050D01*
Y255660D01*
X1010070D01*
Y261930D01*
D02*
G37*
G36*
X957290D02*
X948270D01*
Y255660D01*
X957290D01*
Y261930D01*
D02*
G37*
G36*
X945730D02*
X936710D01*
Y255660D01*
X945730D01*
Y261930D01*
D02*
G37*
G36*
X904790D02*
X895770D01*
Y255660D01*
X904790D01*
Y261930D01*
D02*
G37*
G36*
X893230D02*
X884210D01*
Y255660D01*
X893230D01*
Y261930D01*
D02*
G37*
%LPD*%
G36*
X1053532Y561069D02*
Y556840D01*
X1051000D01*
X1050850Y556840D01*
X1049730D01*
X1049580Y556840D01*
X1038300D01*
X1038150Y556840D01*
X1037030D01*
X1036880Y556840D01*
X1025600D01*
X1025450Y556840D01*
X1024330D01*
X1024180Y556840D01*
X1012750D01*
Y556840D01*
X1011630D01*
Y556840D01*
X1000200D01*
X1000050Y556840D01*
X998930D01*
X998780Y556840D01*
X994410D01*
Y543050D01*
Y529260D01*
X998780D01*
X998930Y529260D01*
X1000050D01*
X1000200Y529260D01*
X1002392D01*
Y525170D01*
X997630D01*
Y519430D01*
Y513690D01*
X1007135D01*
X1007622Y512517D01*
X1006305Y511200D01*
X997630D01*
Y505460D01*
Y499720D01*
X1010700D01*
Y506805D01*
X1020738Y516842D01*
X1021411Y517851D01*
X1021648Y519040D01*
Y529260D01*
X1024180D01*
X1024330Y529260D01*
X1025450D01*
X1025600Y529260D01*
X1028521D01*
Y514206D01*
X1009794Y495479D01*
X994266D01*
X991296Y498450D01*
X991822Y499720D01*
X995090D01*
Y504190D01*
X990820D01*
Y500722D01*
X989550Y500195D01*
X983159Y506586D01*
Y525780D01*
X982952Y526821D01*
X982363Y527703D01*
X974743Y535323D01*
X973861Y535912D01*
X972820Y536119D01*
X933583D01*
X932891Y537389D01*
X933450Y538740D01*
Y540760D01*
X932677Y542628D01*
X931339Y543965D01*
X931383Y544393D01*
X931721Y545235D01*
X934160D01*
Y545235D01*
X935280D01*
Y545235D01*
X939800D01*
Y557400D01*
X942340D01*
Y545235D01*
X946860D01*
Y545235D01*
X947980D01*
Y545235D01*
X959560D01*
Y569408D01*
X1045193D01*
X1053532Y561069D01*
D02*
G37*
G36*
X924220Y509805D02*
X907440D01*
Y511590D01*
X895960D01*
Y509845D01*
X893270D01*
Y512420D01*
X882190D01*
Y499840D01*
Y488340D01*
X885011D01*
Y448166D01*
X866284Y429439D01*
X848821D01*
X848498Y429870D01*
X849133Y431140D01*
X858430D01*
Y436880D01*
Y442620D01*
X853749D01*
Y445110D01*
X858430D01*
Y450850D01*
Y456590D01*
X845379D01*
X844062Y457907D01*
X844548Y459080D01*
X852760D01*
Y464820D01*
Y470560D01*
X839690D01*
Y467319D01*
X825064D01*
X824735Y467720D01*
Y469220D01*
X824518Y470309D01*
X824410Y470470D01*
X824518Y470631D01*
X824735Y471720D01*
Y472626D01*
X825139Y473040D01*
X826587Y473059D01*
X826657Y472989D01*
X828524Y472216D01*
X830545D01*
X832412Y472989D01*
X833841Y474418D01*
X834614Y476285D01*
Y477597D01*
X834801Y477751D01*
X853174D01*
X859094Y471830D01*
X858568Y470560D01*
X855300D01*
Y466090D01*
X859570D01*
Y469558D01*
X860840Y470085D01*
X870016Y460909D01*
X869950Y460751D01*
Y458730D01*
X870723Y456862D01*
X872152Y455433D01*
X874019Y454660D01*
X876040D01*
X877908Y455433D01*
X879337Y456862D01*
X880110Y458730D01*
Y460751D01*
X879337Y462618D01*
X878599Y463355D01*
X878006Y464185D01*
X878599Y465015D01*
X879337Y465752D01*
X880110Y467620D01*
Y469641D01*
X879337Y471508D01*
X877908Y472937D01*
X876040Y473710D01*
X874019D01*
X873861Y473644D01*
X861113Y486393D01*
X860231Y486982D01*
X859190Y487189D01*
X836238D01*
X834968Y488460D01*
X834085Y489049D01*
X833045Y489256D01*
X825575D01*
X825575Y489256D01*
X824535Y489049D01*
X823652Y488460D01*
X823016Y487823D01*
X822979Y487848D01*
X821890Y488065D01*
X814319D01*
X813656Y488536D01*
X813185Y489199D01*
Y496770D01*
X812968Y497859D01*
X812351Y498781D01*
X811429Y499398D01*
X810340Y499615D01*
X808840D01*
X807751Y499398D01*
X807590Y499290D01*
X807429Y499398D01*
X806340Y499615D01*
X804840D01*
X803751Y499398D01*
X803590Y499290D01*
X803429Y499398D01*
X802340Y499615D01*
X800840D01*
X799751Y499398D01*
X799590Y499290D01*
X799429Y499398D01*
X798340Y499615D01*
X796840D01*
X796599Y499813D01*
Y506950D01*
X799490D01*
Y509383D01*
X868159D01*
X869358Y508184D01*
X871226Y507410D01*
X873247D01*
X875114Y508184D01*
X876543Y509613D01*
X877316Y511480D01*
Y513501D01*
X876543Y515368D01*
X875114Y516797D01*
X873247Y517570D01*
X871226D01*
X869358Y516797D01*
X868159Y515598D01*
X799490D01*
Y520020D01*
X788010D01*
Y515598D01*
X782980D01*
Y520020D01*
X777240D01*
Y521290D01*
X775970D01*
Y526830D01*
X773635D01*
X773149Y528003D01*
X775826Y530681D01*
X800244D01*
X805797Y525127D01*
X805797Y525127D01*
X806679Y524538D01*
X807720Y524331D01*
X898525D01*
X899566Y524538D01*
X900448Y525127D01*
X906001Y530681D01*
X924220D01*
Y509805D01*
D02*
G37*
G36*
X743560Y523020D02*
Y518750D01*
X749300D01*
Y516210D01*
X743560D01*
Y511940D01*
Y503140D01*
X751011D01*
X754741Y499410D01*
Y498651D01*
X754212Y497859D01*
X753995Y496770D01*
Y488971D01*
X753569Y488491D01*
X753089Y488065D01*
X745290D01*
X744585Y487924D01*
X731300Y501209D01*
Y503693D01*
X732227Y504312D01*
X735915Y508000D01*
X737610D01*
X739478Y508773D01*
X740907Y510202D01*
X741680Y512070D01*
Y514090D01*
X740907Y515958D01*
X739478Y517387D01*
X737610Y518160D01*
X735590D01*
X733722Y517387D01*
X732293Y515958D01*
X731520Y514090D01*
Y512395D01*
X729982Y510857D01*
X728722Y511120D01*
X728566Y511237D01*
X727957Y512148D01*
X718314Y521791D01*
X718840Y523061D01*
X742307D01*
X743560Y523020D01*
D02*
G37*
G36*
X765550Y458872D02*
Y440430D01*
X779780D01*
Y458470D01*
X787400D01*
Y440430D01*
X798928D01*
X799715Y439496D01*
X799791Y439114D01*
Y438669D01*
X793574Y432451D01*
X792211Y433814D01*
X791287Y434432D01*
X790197Y434649D01*
X790196Y434649D01*
X760984D01*
X760984Y434649D01*
X759893Y434432D01*
X758969Y433814D01*
X758969Y433814D01*
X757305Y432150D01*
X756035Y432676D01*
Y433220D01*
X755818Y434309D01*
X755710Y434470D01*
X755818Y434631D01*
X756035Y435720D01*
Y437220D01*
X755818Y438309D01*
X755710Y438470D01*
X755818Y438631D01*
X756035Y439720D01*
Y441220D01*
X755818Y442309D01*
X755710Y442470D01*
X755818Y442631D01*
X756035Y443720D01*
Y445220D01*
X755818Y446309D01*
X755710Y446470D01*
X755818Y446631D01*
X756035Y447720D01*
Y449220D01*
X755818Y450309D01*
X755710Y450470D01*
X755818Y450631D01*
X756035Y451720D01*
Y453220D01*
X756364Y453621D01*
X757460D01*
X757460Y453621D01*
X758550Y453838D01*
X759474Y454456D01*
X764377Y459358D01*
X765550Y458872D01*
D02*
G37*
G36*
X708050Y456740D02*
X725372D01*
X725858Y455567D01*
X722410Y452118D01*
X721140Y452645D01*
Y454050D01*
X708070D01*
Y448310D01*
X706800D01*
Y447040D01*
X701260D01*
Y444809D01*
X698500D01*
X698500Y444809D01*
X697410Y444592D01*
X696486Y443974D01*
X688866Y436354D01*
X688248Y435430D01*
X688031Y434340D01*
X686795Y434140D01*
X685240D01*
X685090Y434140D01*
X683970D01*
X683820Y434140D01*
X672390D01*
Y419758D01*
X663600D01*
Y424180D01*
X652120D01*
Y419910D01*
Y411110D01*
X663600D01*
Y413542D01*
X672390D01*
Y412560D01*
X675072D01*
Y385331D01*
X673873Y384132D01*
X673100Y382265D01*
Y380243D01*
X673873Y378376D01*
X675302Y376947D01*
X677169Y376174D01*
X679191D01*
X681058Y376947D01*
X682487Y378376D01*
X683260Y380243D01*
Y382265D01*
X682487Y384132D01*
X681288Y385331D01*
Y412560D01*
X683820D01*
X683970Y412560D01*
X685090D01*
X685240Y412560D01*
X696670D01*
Y412560D01*
X697790D01*
Y412560D01*
X709370D01*
Y412560D01*
X710490D01*
Y412560D01*
X722070D01*
Y431491D01*
X723900D01*
X723900Y431491D01*
X724990Y431708D01*
X725914Y432326D01*
X735194Y441605D01*
X739321D01*
X739807Y440432D01*
X730031Y430656D01*
X729413Y429731D01*
X729196Y428641D01*
X729196Y428641D01*
Y399215D01*
X701566Y371584D01*
X700948Y370660D01*
X700731Y369570D01*
X700731Y369570D01*
Y362140D01*
X697790D01*
Y362140D01*
X696670D01*
Y362140D01*
X685090D01*
Y362140D01*
X683970D01*
Y362140D01*
X672390D01*
Y354942D01*
X671390Y354199D01*
X670300Y353982D01*
X669376Y353364D01*
X669376Y353364D01*
X667440Y351429D01*
X664670D01*
Y366370D01*
X653590D01*
Y362853D01*
X643822D01*
X642958Y363717D01*
X641090Y364490D01*
X639070D01*
X637202Y363717D01*
X635773Y362288D01*
X635000Y360420D01*
Y358400D01*
X635773Y356532D01*
X637202Y355103D01*
X639070Y354330D01*
X641090D01*
X642958Y355103D01*
X644387Y356532D01*
X644430Y356637D01*
X653590D01*
Y342290D01*
X664670D01*
Y345731D01*
X668620D01*
X668620Y345731D01*
X669710Y345948D01*
X670634Y346566D01*
X671217Y347148D01*
X672390Y346662D01*
Y340560D01*
X674095D01*
X675331Y340360D01*
X675548Y339270D01*
X676166Y338346D01*
X681246Y333266D01*
X681246Y333266D01*
X682170Y332648D01*
X683260Y332431D01*
X683260Y332431D01*
X732733D01*
X733219Y331258D01*
X728660Y326699D01*
X645070D01*
X619234Y352534D01*
X618310Y353152D01*
X618181Y353178D01*
X612982Y358376D01*
X612058Y358994D01*
X610967Y359211D01*
X610967Y359211D01*
X521462D01*
X521462Y359211D01*
X520372Y358994D01*
X519448Y358376D01*
X518250Y357179D01*
X508460D01*
Y363890D01*
X497380D01*
Y356768D01*
X493220D01*
Y371450D01*
X486535D01*
X473517Y384468D01*
X472509Y385141D01*
X471320Y385378D01*
X456197D01*
X454998Y386577D01*
X453130Y387350D01*
X451110D01*
X449242Y386577D01*
X448044Y385378D01*
X427990D01*
X426801Y385141D01*
X425793Y384468D01*
X417082Y375757D01*
X416409Y374749D01*
X416358Y374492D01*
X416347Y374470D01*
X414990Y373582D01*
X414912Y373583D01*
X414280Y373709D01*
X413399Y373534D01*
X412525Y373654D01*
X411983Y374441D01*
X411912Y374799D01*
X411294Y375723D01*
X411294Y375723D01*
X411001Y376017D01*
X411487Y377190D01*
X411600D01*
X413468Y377963D01*
X414897Y379392D01*
X415670Y381259D01*
Y383280D01*
X414897Y385148D01*
X413468Y386577D01*
X413236Y386673D01*
X413139Y387161D01*
X412438Y388210D01*
Y389070D01*
X421454Y398087D01*
X554377D01*
X555615Y398333D01*
X556664Y399034D01*
X593817Y436186D01*
X666600D01*
X667838Y436433D01*
X668887Y437133D01*
X695756Y464003D01*
X708050D01*
Y456740D01*
D02*
G37*
G36*
X771751Y417542D02*
X772840Y417325D01*
X774340D01*
X774741Y416996D01*
Y366020D01*
X765612Y356891D01*
X764439Y357377D01*
Y416996D01*
X764840Y417325D01*
X766340D01*
X767429Y417542D01*
X767590Y417650D01*
X767751Y417542D01*
X768840Y417325D01*
X770340D01*
X771429Y417542D01*
X771590Y417650D01*
X771751Y417542D01*
D02*
G37*
G36*
X826210Y435313D02*
Y434152D01*
X826983Y432285D01*
X828412Y430856D01*
X830279Y430083D01*
X832300D01*
X834167Y430856D01*
X834307Y430996D01*
X835481Y430510D01*
Y420370D01*
X835688Y419329D01*
X836277Y418447D01*
X850782Y403943D01*
X850296Y402769D01*
X826626D01*
X812436Y416959D01*
X812351Y418159D01*
X812968Y419081D01*
X813185Y420170D01*
Y427741D01*
X813656Y428404D01*
X814319Y428875D01*
X821890D01*
X822979Y429092D01*
X823901Y429709D01*
X824518Y430631D01*
X824735Y431720D01*
Y433220D01*
X824518Y434309D01*
X824410Y434470D01*
X824518Y434631D01*
X824568Y434882D01*
X825979Y435467D01*
X826210Y435313D01*
D02*
G37*
G36*
X749300Y391380D02*
X753770D01*
X754482Y390405D01*
Y389053D01*
X751763Y386334D01*
X750068D01*
X748200Y385561D01*
X746771Y384132D01*
X745998Y382265D01*
Y380243D01*
X746771Y378376D01*
X748200Y376947D01*
X750068Y376174D01*
X752088D01*
X753956Y376947D01*
X755385Y378376D01*
X756158Y380243D01*
Y381939D01*
X757568Y383349D01*
X758741Y382863D01*
Y356781D01*
X744432Y342471D01*
X743259Y342957D01*
Y391380D01*
X746760D01*
Y396920D01*
X749300D01*
Y391380D01*
D02*
G37*
G36*
X476545Y372650D02*
X476019Y371380D01*
X475742Y371380D01*
X475742Y371380D01*
X475726Y371380D01*
X465630D01*
Y367939D01*
X457800D01*
X456710Y367722D01*
X455786Y367104D01*
X455785Y367104D01*
X441743Y353062D01*
X440570Y353548D01*
Y353742D01*
X439688Y355870D01*
X438060Y357499D01*
X438007Y358895D01*
X438086Y359014D01*
X438399Y360590D01*
Y363820D01*
X434280D01*
Y365090D01*
X433400D01*
Y369590D01*
X433086Y371166D01*
X433010Y371280D01*
Y373456D01*
X432704Y373396D01*
X431780Y372778D01*
X430856Y373396D01*
X429280Y373709D01*
X427704Y373396D01*
X426780Y372778D01*
X425856Y373396D01*
X425398Y373487D01*
X424980Y374865D01*
X429277Y379162D01*
X448044D01*
X449242Y377963D01*
X451110Y377190D01*
X453130D01*
X454998Y377963D01*
X456197Y379162D01*
X470033D01*
X476545Y372650D01*
D02*
G37*
G36*
X733751Y394053D02*
Y342810D01*
X732880Y341939D01*
X722070D01*
Y350080D01*
X716280D01*
Y351350D01*
X715010D01*
Y362140D01*
X710490D01*
Y362140D01*
X709370D01*
Y362140D01*
X706429D01*
Y368390D01*
X732578Y394539D01*
X733751Y394053D01*
D02*
G37*
G36*
X623819Y334812D02*
X623333Y333638D01*
X606660D01*
Y350211D01*
X608420D01*
X623819Y334812D01*
D02*
G37*
%LPC*%
G36*
X991870Y556840D02*
X987350D01*
Y544320D01*
X991870D01*
Y556840D01*
D02*
G37*
G36*
Y541780D02*
X987350D01*
Y529260D01*
X991870D01*
Y541780D01*
D02*
G37*
G36*
X995090Y525170D02*
X990820D01*
Y520700D01*
X995090D01*
Y525170D01*
D02*
G37*
G36*
Y518160D02*
X990820D01*
Y513690D01*
X995090D01*
Y518160D01*
D02*
G37*
G36*
Y511200D02*
X990820D01*
Y506730D01*
X995090D01*
Y511200D01*
D02*
G37*
G36*
X799490Y526830D02*
X795020D01*
Y522560D01*
X799490D01*
Y526830D01*
D02*
G37*
G36*
X792480D02*
X788010D01*
Y522560D01*
X792480D01*
Y526830D01*
D02*
G37*
G36*
X782980D02*
X778510D01*
Y522560D01*
X782980D01*
Y526830D01*
D02*
G37*
G36*
X859570Y463550D02*
X855300D01*
Y459080D01*
X859570D01*
Y463550D01*
D02*
G37*
G36*
X865240Y456590D02*
X860970D01*
Y452120D01*
X865240D01*
Y456590D01*
D02*
G37*
G36*
Y449580D02*
X860970D01*
Y445110D01*
X865240D01*
Y449580D01*
D02*
G37*
G36*
Y442620D02*
X860970D01*
Y438150D01*
X865240D01*
Y442620D01*
D02*
G37*
G36*
Y435610D02*
X860970D01*
Y431140D01*
X865240D01*
Y435610D01*
D02*
G37*
G36*
X705530Y454050D02*
X701260D01*
Y449580D01*
X705530D01*
Y454050D01*
D02*
G37*
G36*
X663600Y430990D02*
X659130D01*
Y426720D01*
X663600D01*
Y430990D01*
D02*
G37*
G36*
X656590D02*
X652120D01*
Y426720D01*
X656590D01*
Y430990D01*
D02*
G37*
G36*
X508460Y371450D02*
X504190D01*
Y366430D01*
X508460D01*
Y371450D01*
D02*
G37*
G36*
X501650D02*
X497380D01*
Y366430D01*
X501650D01*
Y371450D01*
D02*
G37*
G36*
X435550Y373456D02*
Y366360D01*
X438399D01*
Y369590D01*
X438086Y371166D01*
X437193Y372503D01*
X435856Y373396D01*
X435550Y373456D01*
D02*
G37*
G36*
X722070Y362140D02*
X717550D01*
Y352620D01*
X722070D01*
Y362140D01*
D02*
G37*
G36*
X821360Y739320D02*
X815340D01*
Y733550D01*
X821360D01*
Y739320D01*
D02*
G37*
G36*
X812800D02*
X806780D01*
Y733550D01*
X812800D01*
Y739320D01*
D02*
G37*
G36*
X821360Y731010D02*
X815340D01*
Y725240D01*
X821360D01*
Y731010D01*
D02*
G37*
G36*
X812800D02*
X806780D01*
Y725240D01*
X812800D01*
Y731010D01*
D02*
G37*
G36*
X838660Y729580D02*
X834390D01*
Y724560D01*
X838660D01*
Y729580D01*
D02*
G37*
G36*
X831850D02*
X827580D01*
Y724560D01*
X831850D01*
Y729580D01*
D02*
G37*
G36*
X720270Y689610D02*
X714500D01*
Y683590D01*
X720270D01*
Y689610D01*
D02*
G37*
G36*
X711960D02*
X706190D01*
Y683590D01*
X711960D01*
Y689610D01*
D02*
G37*
G36*
X709340Y678840D02*
X705070D01*
Y674370D01*
X709340D01*
Y678840D01*
D02*
G37*
G36*
Y671830D02*
X705070D01*
Y667360D01*
X709340D01*
Y671830D01*
D02*
G37*
G36*
X876480Y696900D02*
X870710D01*
Y690880D01*
X876480D01*
Y696900D01*
D02*
G37*
G36*
X868170D02*
X862400D01*
Y690880D01*
X868170D01*
Y696900D01*
D02*
G37*
G36*
X876480Y688340D02*
X870710D01*
Y682320D01*
X876480D01*
Y688340D01*
D02*
G37*
G36*
X868170D02*
X862400D01*
Y682320D01*
X868170D01*
Y688340D01*
D02*
G37*
G36*
X865550Y679475D02*
X861280D01*
Y675005D01*
X865550D01*
Y679475D01*
D02*
G37*
G36*
Y672465D02*
X861280D01*
Y667995D01*
X865550D01*
Y672465D01*
D02*
G37*
G36*
X751770Y698170D02*
X747270D01*
Y693420D01*
X751770D01*
Y698170D01*
D02*
G37*
G36*
X742190D02*
X737690D01*
Y693420D01*
X742190D01*
Y698170D01*
D02*
G37*
G36*
X907980Y696900D02*
X903480D01*
Y692150D01*
X907980D01*
Y696900D01*
D02*
G37*
G36*
X898400D02*
X893900D01*
Y692150D01*
X898400D01*
Y696900D01*
D02*
G37*
G36*
X775590Y699880D02*
X769090D01*
Y690880D01*
X775590D01*
Y699880D01*
D02*
G37*
G36*
X931800D02*
X925300D01*
Y690880D01*
X931800D01*
Y699880D01*
D02*
G37*
G36*
X764010D02*
X757510D01*
Y690880D01*
X764010D01*
Y699880D01*
D02*
G37*
G36*
X920220D02*
X913720D01*
Y690880D01*
X920220D01*
Y699880D01*
D02*
G37*
G36*
X751770Y688340D02*
X747270D01*
Y683590D01*
X751770D01*
Y688340D01*
D02*
G37*
G36*
X742190D02*
X737690D01*
Y683590D01*
X742190D01*
Y688340D01*
D02*
G37*
G36*
X907980Y687070D02*
X903480D01*
Y682320D01*
X907980D01*
Y687070D01*
D02*
G37*
G36*
X898400D02*
X893900D01*
Y682320D01*
X898400D01*
Y687070D01*
D02*
G37*
G36*
X931800Y685800D02*
X925300D01*
Y676800D01*
X931800D01*
Y685800D01*
D02*
G37*
G36*
X920220D02*
X913720D01*
Y676800D01*
X920220D01*
Y685800D01*
D02*
G37*
G36*
X775590D02*
X769090D01*
Y676800D01*
X775590D01*
Y685800D01*
D02*
G37*
G36*
X764010D02*
X757510D01*
Y676800D01*
X764010D01*
Y685800D01*
D02*
G37*
G36*
X577970Y618100D02*
X565470D01*
Y609600D01*
X577970D01*
Y618100D01*
D02*
G37*
G36*
X560390D02*
X547890D01*
Y609600D01*
X560390D01*
Y618100D01*
D02*
G37*
G36*
X577970Y604520D02*
X565470D01*
Y596020D01*
X577970D01*
Y604520D01*
D02*
G37*
G36*
X560390D02*
X547890D01*
Y596020D01*
X560390D01*
Y604520D01*
D02*
G37*
G36*
X476850Y516080D02*
X471830D01*
Y511810D01*
X476850D01*
Y516080D01*
D02*
G37*
G36*
Y509270D02*
X471830D01*
Y505000D01*
X476850D01*
Y509270D01*
D02*
G37*
G36*
X510920Y499050D02*
X501650D01*
Y483780D01*
X510920D01*
Y499050D01*
D02*
G37*
G36*
X499110D02*
X489840D01*
Y483780D01*
X499110D01*
Y499050D01*
D02*
G37*
G36*
X510920Y481240D02*
X501650D01*
Y465970D01*
X510920D01*
Y481240D01*
D02*
G37*
G36*
X499110D02*
X489840D01*
Y465970D01*
X499110D01*
Y481240D01*
D02*
G37*
G36*
X427050Y474270D02*
X398780D01*
Y458500D01*
X427050D01*
Y474270D01*
D02*
G37*
G36*
X396240D02*
X367970D01*
Y458500D01*
X396240D01*
Y474270D01*
D02*
G37*
G36*
X427050Y455960D02*
X398780D01*
Y440190D01*
X427050D01*
Y455960D01*
D02*
G37*
G36*
X396240D02*
X367970D01*
Y440190D01*
X396240D01*
Y455960D01*
D02*
G37*
G36*
X960800Y699880D02*
X953030D01*
Y689610D01*
X960800D01*
Y699880D01*
D02*
G37*
G36*
X950490D02*
X942720D01*
Y689610D01*
X950490D01*
Y699880D01*
D02*
G37*
G36*
X960800Y687070D02*
X953030D01*
Y676800D01*
X960800D01*
Y687070D01*
D02*
G37*
G36*
X950490D02*
X942720D01*
Y676800D01*
X950490D01*
Y687070D01*
D02*
G37*
G36*
X642240Y621140D02*
X634470D01*
Y610870D01*
X642240D01*
Y621140D01*
D02*
G37*
G36*
X631930D02*
X624160D01*
Y610870D01*
X631930D01*
Y621140D01*
D02*
G37*
G36*
X605470Y618100D02*
Y609600D01*
X617970D01*
Y618100D01*
X605470D01*
D02*
G37*
G36*
X642240Y608330D02*
X634470D01*
Y598060D01*
X642240D01*
Y608330D01*
D02*
G37*
G36*
X631930D02*
X624160D01*
Y598060D01*
X631930D01*
Y608330D01*
D02*
G37*
G36*
X617970Y604520D02*
X605470D01*
Y596020D01*
X617970D01*
Y604520D01*
D02*
G37*
G36*
X600390D02*
X587890D01*
Y596020D01*
X600390D01*
Y604520D01*
D02*
G37*
G36*
X627980Y592280D02*
X622960D01*
Y588010D01*
X627980D01*
Y592280D01*
D02*
G37*
G36*
X662130Y592430D02*
X657860D01*
Y587410D01*
X662130D01*
Y592430D01*
D02*
G37*
G36*
X655320D02*
X651050D01*
Y587410D01*
X655320D01*
Y592430D01*
D02*
G37*
G36*
X617970Y581270D02*
X605470D01*
Y572770D01*
X617970D01*
Y581270D01*
D02*
G37*
G36*
X600390D02*
X587890D01*
Y572770D01*
X600390D01*
Y581270D01*
D02*
G37*
G36*
Y567690D02*
X587890D01*
Y559190D01*
X600390D01*
Y567690D01*
D02*
G37*
G36*
X1108710Y725807D02*
Y715010D01*
X1119507D01*
X1118787Y717696D01*
X1117005Y720784D01*
X1114484Y723305D01*
X1111396Y725087D01*
X1108710Y725807D01*
D02*
G37*
G36*
X1103630D02*
X1100944Y725087D01*
X1097856Y723305D01*
X1095335Y720784D01*
X1093553Y717696D01*
X1092833Y715010D01*
X1103630D01*
Y725807D01*
D02*
G37*
G36*
X1119507Y709930D02*
X1108710D01*
Y699133D01*
X1111396Y699853D01*
X1114484Y701635D01*
X1117005Y704156D01*
X1118787Y707244D01*
X1119507Y709930D01*
D02*
G37*
G36*
X1103630D02*
X1092833D01*
X1093553Y707244D01*
X1095335Y704156D01*
X1097856Y701635D01*
X1100944Y699853D01*
X1103630Y699133D01*
Y709930D01*
D02*
G37*
G36*
X484505Y551300D02*
X480187D01*
Y548633D01*
X484505D01*
Y551300D01*
D02*
G37*
G36*
X602090Y537960D02*
X591820D01*
Y526690D01*
X602090D01*
Y537960D01*
D02*
G37*
G36*
X589280D02*
X579010D01*
Y526690D01*
X589280D01*
Y537960D01*
D02*
G37*
G36*
X629520Y532050D02*
X623750D01*
Y525780D01*
X629520D01*
Y532050D01*
D02*
G37*
G36*
Y523240D02*
X623750D01*
Y516970D01*
X629520D01*
Y523240D01*
D02*
G37*
G36*
X602090Y524150D02*
X591820D01*
Y512880D01*
X602090D01*
Y524150D01*
D02*
G37*
G36*
X589280D02*
X579010D01*
Y512880D01*
X589280D01*
Y524150D01*
D02*
G37*
G36*
X427050Y573270D02*
X398780D01*
Y557500D01*
X427050D01*
Y573270D01*
D02*
G37*
G36*
X396240D02*
X367970D01*
Y557500D01*
X396240D01*
Y573270D01*
D02*
G37*
G36*
X427050Y554960D02*
X398780D01*
Y539190D01*
X427050D01*
Y554960D01*
D02*
G37*
G36*
X396240D02*
X367970D01*
Y539190D01*
X396240D01*
Y554960D01*
D02*
G37*
G36*
X478390Y540940D02*
X472620D01*
Y534670D01*
X478390D01*
Y540940D01*
D02*
G37*
G36*
Y532130D02*
X472620D01*
Y525860D01*
X478390D01*
Y532130D01*
D02*
G37*
G36*
X676690Y541020D02*
X672420D01*
Y536550D01*
X676690D01*
Y541020D01*
D02*
G37*
G36*
X523850Y509270D02*
X518830D01*
Y505000D01*
X523850D01*
Y509270D01*
D02*
G37*
G36*
X627980Y504650D02*
X622960D01*
Y500380D01*
X627980D01*
Y504650D01*
D02*
G37*
G36*
Y497840D02*
X622960D01*
Y493570D01*
X627980D01*
Y497840D01*
D02*
G37*
G36*
X602090Y492960D02*
X591820D01*
Y481690D01*
X602090D01*
Y492960D01*
D02*
G37*
G36*
X589280D02*
X579010D01*
Y481690D01*
X589280D01*
Y492960D01*
D02*
G37*
G36*
X642000Y488210D02*
X633730D01*
Y480440D01*
X642000D01*
Y488210D01*
D02*
G37*
G36*
X631190D02*
X622920D01*
Y480440D01*
X631190D01*
Y488210D01*
D02*
G37*
G36*
X602090Y479150D02*
X591820D01*
Y467880D01*
X602090D01*
Y479150D01*
D02*
G37*
G36*
X589280D02*
X579010D01*
Y467880D01*
X589280D01*
Y479150D01*
D02*
G37*
%LPD*%
D17*
X797560Y330790D02*
Y374650D01*
X806450Y383540D01*
X1021080Y397510D02*
X1096300D01*
X1021080Y416560D02*
X1096610D01*
X1096930Y416880D01*
X838200Y420370D02*
Y449580D01*
X835310Y452470D02*
X838200Y449580D01*
X817940Y452470D02*
X835310D01*
X842010Y431800D02*
Y450479D01*
X818051Y456359D02*
X836130D01*
X842010Y450479D01*
X817940Y440470D02*
X825983D01*
X831290Y435163D01*
X838200Y420370D02*
X855300Y403270D01*
X842010Y431800D02*
X847090Y426720D01*
X867410D01*
X698500Y532130D02*
Y552638D01*
X704850Y525780D02*
X751840D01*
X698500Y532130D02*
X704850Y525780D01*
X689610Y561528D02*
X698500Y552638D01*
X827560Y476664D02*
X828903D01*
X829534Y477296D01*
X827366Y476470D02*
X827560Y476664D01*
X817940Y476470D02*
X827366D01*
X854300Y480470D02*
X875030Y459740D01*
X859190Y484470D02*
X875030Y468630D01*
X835112Y484470D02*
X859190D01*
X823508D02*
X825575Y486537D01*
X831782Y483489D02*
X834801Y480470D01*
X833045Y486537D02*
X835112Y484470D01*
X834801Y480470D02*
X854300D01*
X826838Y483489D02*
X831782D01*
X825575Y486537D02*
X833045D01*
X777570Y483540D02*
X786737D01*
X786753Y483556D01*
X808660Y441731D02*
Y448310D01*
Y441731D02*
X811581Y438810D01*
X813722Y436581D02*
X817829D01*
X817940Y436470D01*
X811581Y438722D02*
Y438810D01*
Y438722D02*
X813722Y436581D01*
X898525Y527050D02*
X904875Y533400D01*
X807720Y527050D02*
X898525D01*
X801370Y533400D02*
X807720Y527050D01*
X774700Y533400D02*
X801370D01*
X761111Y519811D02*
X774700Y533400D01*
X746760Y538480D02*
Y557400D01*
X772160Y539750D02*
Y557400D01*
X773590Y487520D02*
X777570Y483540D01*
X773590Y487520D02*
Y492820D01*
X777479Y496131D02*
X777590Y496020D01*
X777479Y496131D02*
Y502681D01*
X777240Y502920D02*
X777479Y502681D01*
X777590Y492820D02*
Y496020D01*
X758063Y509345D02*
Y519557D01*
Y509345D02*
X761590Y505818D01*
X765590Y492820D02*
Y506129D01*
X761111Y510608D02*
X765590Y506129D01*
X751840Y525780D02*
X758063Y519557D01*
X761590Y492820D02*
Y505818D01*
X761111Y510608D02*
Y519811D01*
X689610Y561528D02*
Y580390D01*
X928370Y539750D02*
Y557400D01*
X805590Y412340D02*
Y424120D01*
Y412340D02*
X820928Y397002D01*
X878078D01*
X972820Y302260D01*
Y285750D02*
Y302260D01*
X967270Y280200D02*
X972820Y285750D01*
X947000Y280200D02*
X967270D01*
X809590Y415960D02*
Y424120D01*
Y415960D02*
X825500Y400050D01*
X880110D01*
X999960Y280200D01*
X1011340D01*
X904875Y533400D02*
X972820D01*
X980440Y525780D01*
Y505460D02*
Y525780D01*
Y505460D02*
X993140Y492760D01*
X1010920D01*
X1031240Y513080D01*
Y543050D01*
X817940Y484470D02*
X823508D01*
X817940Y480470D02*
X823819D01*
X826838Y483489D01*
X1096300Y397510D02*
X1096930Y396880D01*
X510540Y528920D02*
Y529670D01*
X493903Y562570D02*
X503840D01*
X511220Y555190D01*
Y554990D02*
Y555190D01*
X493395Y558078D02*
X493903Y557570D01*
X489672Y558078D02*
X493395D01*
X487680Y560070D02*
X489672Y558078D01*
X487680Y560070D02*
Y568845D01*
X494227Y575392D01*
X496802D01*
X505460Y584050D01*
Y584800D01*
X493903Y567570D02*
X509750D01*
X511140Y568960D01*
X902970Y539750D02*
Y557400D01*
X869109Y376171D02*
X871220Y374060D01*
X862079Y376171D02*
X869109D01*
X857250Y381000D02*
X862079Y376171D01*
X830580Y381000D02*
X857250D01*
X871220Y374060D02*
X871820Y373460D01*
X280200Y544410D02*
X280448Y544161D01*
X309601D01*
X487680Y365160D02*
Y365910D01*
X855300Y403270D02*
X901700D01*
X817940Y456470D02*
X818051Y456359D01*
X867410Y426720D02*
X887730Y447040D01*
Y494630D01*
D18*
X624952Y538966D02*
X628396Y542410D01*
X621030Y538480D02*
X621516Y538966D01*
X628396Y542410D02*
X630047D01*
X621516Y538966D02*
X624952D01*
X624056Y567296D02*
X629330Y572570D01*
Y572770D01*
X624056Y564366D02*
Y567296D01*
X623570Y563880D02*
X624056Y564366D01*
X692150Y530552D02*
X701935Y520767D01*
X692150Y530552D02*
Y549412D01*
X684530Y557032D02*
X692150Y549412D01*
X472926Y575796D02*
Y577456D01*
X472440Y575310D02*
X472926Y575796D01*
Y577456D02*
X479470Y584000D01*
X725760Y503120D02*
Y509950D01*
Y502920D02*
Y503120D01*
X701935Y520767D02*
X714943D01*
X767080Y513080D02*
X767375Y512785D01*
X776945D01*
X777240Y512490D01*
X793750D01*
X729149Y506510D02*
X730030D01*
X736600Y513080D01*
X725760Y503120D02*
X729149Y506510D01*
X678180Y418630D02*
Y423350D01*
Y381254D02*
Y418630D01*
X676200Y416650D02*
X678180Y418630D01*
X657860Y416650D02*
X676200D01*
X757590Y387766D02*
Y397152D01*
X752282Y402460D02*
X757590Y397152D01*
X748230Y405720D02*
X751490Y402460D01*
X752282D01*
X748030Y405720D02*
X748230D01*
X714943Y520767D02*
X725760Y509950D01*
X680720Y580390D02*
X684530Y576580D01*
X504490Y806150D02*
X504790Y806450D01*
X504490Y792780D02*
Y806150D01*
X872236Y537210D02*
X879520D01*
X793750Y512490D02*
X872236D01*
X890270Y557400D02*
Y568960D01*
X893826Y572516D01*
X1046480D01*
X1056640Y562356D01*
Y543050D02*
Y562356D01*
X751078Y381254D02*
X757590Y387766D01*
X657860Y416560D02*
Y416650D01*
X1056640Y528320D02*
Y543050D01*
Y528320D02*
X1058590Y526370D01*
Y519430D02*
Y526370D01*
Y467360D02*
Y519430D01*
Y467360D02*
X1069070Y456880D01*
X1096930D01*
X644290Y524510D02*
X654130D01*
X661670Y516970D01*
Y516220D02*
Y516970D01*
X630047Y557410D02*
Y562617D01*
X636400Y568970D01*
Y571040D01*
X638130Y572770D01*
Y584870D01*
X640000Y586740D01*
X640750D01*
X645033Y552410D02*
X652430D01*
X662350Y542490D01*
Y542290D02*
Y542490D01*
X493160Y533400D02*
X506810D01*
X510540Y529670D01*
X1005160Y505460D02*
Y505660D01*
X1018540Y519040D01*
Y543050D01*
X1005160Y519430D02*
X1005500Y519770D01*
Y542710D01*
X1005840Y543050D01*
X478917Y567570D02*
X480568D01*
X488270Y575272D01*
Y584200D01*
Y584400D01*
X490890Y587020D01*
Y596900D01*
X645033Y542410D02*
X646684D01*
X658894Y530200D01*
X659940D01*
X661670Y528470D01*
Y527720D02*
Y528470D01*
X644906Y547537D02*
X645033Y547410D01*
X641869Y547537D02*
X644906D01*
X637540Y551866D02*
X641869Y547537D01*
X637540Y551866D02*
Y558800D01*
X641350Y562610D01*
X645310D01*
X656590Y573890D01*
Y574640D01*
X645033Y557410D02*
X645160Y557283D01*
X661247D01*
X662270Y556260D01*
X640750Y499110D02*
X658460D01*
X659210D01*
X671910Y511810D01*
X679450D01*
X684530Y516890D01*
Y546250D01*
X674520Y556260D02*
X684530Y546250D01*
X673770Y556260D02*
X674520D01*
X493903Y547497D02*
Y552570D01*
Y547497D02*
X500980Y540420D01*
X510540D01*
X489620Y510540D02*
X506060D01*
X506810D01*
X529590Y533320D01*
Y562010D01*
X525120Y566480D02*
X529590Y562010D01*
X525120Y566480D02*
Y567230D01*
X523390Y568960D02*
X525120Y567230D01*
X522640Y568960D02*
X523390D01*
X280200Y491910D02*
Y544410D01*
X263200Y362370D02*
Y414870D01*
Y362370D02*
X266930Y358640D01*
Y349020D02*
Y358640D01*
Y349020D02*
X275590Y340360D01*
X640080Y359410D02*
X640415Y359745D01*
X658795D01*
X659130Y360080D01*
X487680Y353660D02*
X502920D01*
X419280Y365090D02*
Y373560D01*
X427990Y382270D01*
X452120D01*
X471320D02*
X487680Y365910D01*
X452120Y382270D02*
X471320D01*
X394280Y365090D02*
Y371530D01*
X387350Y378460D02*
X394280Y371530D01*
X377190Y378460D02*
X387350D01*
X394465Y357375D02*
Y364905D01*
Y357375D02*
X394970Y356870D01*
Y352780D02*
Y356870D01*
X419231Y365041D02*
X419280Y365090D01*
X419231Y358271D02*
Y365041D01*
X418780Y357820D02*
X419231Y358271D01*
X418780Y352590D02*
Y357820D01*
X684530Y557032D02*
Y576580D01*
X454660Y792480D02*
X454960Y792780D01*
Y806150D01*
X455260Y806450D01*
D21*
X562930Y570230D02*
D03*
X602930D02*
D03*
X562930Y607060D02*
D03*
X602930D02*
D03*
D22*
X749300Y517480D02*
D03*
Y508680D02*
D03*
X793750Y521290D02*
D03*
Y512490D02*
D03*
X871220Y374060D02*
D03*
Y382860D02*
D03*
X859790Y329520D02*
D03*
Y320720D02*
D03*
X855980Y361360D02*
D03*
Y370160D02*
D03*
X901700Y506050D02*
D03*
Y497250D02*
D03*
Y403270D02*
D03*
Y412070D02*
D03*
X777240Y512490D02*
D03*
Y521290D02*
D03*
X748030Y405720D02*
D03*
Y396920D02*
D03*
X793750Y405720D02*
D03*
Y396920D02*
D03*
X657860Y416650D02*
D03*
Y425450D02*
D03*
D23*
X407030Y288290D02*
D03*
X406780Y319290D02*
D03*
D24*
X434280Y365090D02*
D03*
X429280D02*
D03*
X384280D02*
D03*
X424280D02*
D03*
X419280D02*
D03*
X414280D02*
D03*
X404280D02*
D03*
X399280D02*
D03*
X394280D02*
D03*
X389280D02*
D03*
X379280D02*
D03*
X409280D02*
D03*
D26*
X714340Y462280D02*
D03*
Y476250D02*
D03*
X669960Y499110D02*
D03*
X658460D02*
D03*
X640750D02*
D03*
X629250D02*
D03*
Y586740D02*
D03*
X640750D02*
D03*
X662270Y556260D02*
D03*
X673770D02*
D03*
X517560Y510540D02*
D03*
X506060D02*
D03*
X883320Y360680D02*
D03*
X871820D02*
D03*
X504790Y806450D02*
D03*
X516290D02*
D03*
X511140Y568960D02*
D03*
X522640D02*
D03*
X455260Y806450D02*
D03*
X466760D02*
D03*
X479390Y596900D02*
D03*
X490890D02*
D03*
X725840Y462280D02*
D03*
Y476250D02*
D03*
X489620Y510540D02*
D03*
X478120D02*
D03*
X871820Y346710D02*
D03*
X883320D02*
D03*
X843880D02*
D03*
X855380D02*
D03*
D27*
X535620Y273290D02*
D03*
X622620D02*
D03*
X754060D02*
D03*
X841060D02*
D03*
D28*
X579120Y330790D02*
D03*
X599120D02*
D03*
X559120D02*
D03*
X797560D02*
D03*
X817560D02*
D03*
X777560D02*
D03*
D29*
X263200Y362370D02*
D03*
Y414870D02*
D03*
X280200Y362370D02*
D03*
Y414870D02*
D03*
X263200Y491910D02*
D03*
Y544410D02*
D03*
X280200Y491910D02*
D03*
Y544410D02*
D03*
D30*
X441560Y619760D02*
D03*
X391560D02*
D03*
D31*
X590550Y525420D02*
D03*
Y480420D02*
D03*
D32*
X632460Y463170D02*
D03*
Y479170D02*
D03*
D33*
X661670Y527720D02*
D03*
Y516220D02*
D03*
X656590Y586140D02*
D03*
Y574640D02*
D03*
X471170Y365090D02*
D03*
Y353590D02*
D03*
X487680Y353660D02*
D03*
Y365160D02*
D03*
X502920D02*
D03*
Y353660D02*
D03*
X342900Y365160D02*
D03*
Y353660D02*
D03*
X887730Y506130D02*
D03*
Y494630D02*
D03*
X659130Y360080D02*
D03*
Y348580D02*
D03*
X510540Y540420D02*
D03*
Y528920D02*
D03*
X505460Y596300D02*
D03*
Y584800D02*
D03*
X629920Y791880D02*
D03*
Y780380D02*
D03*
X833120Y730850D02*
D03*
Y742350D02*
D03*
X824230Y793345D02*
D03*
Y781845D02*
D03*
X1026160Y742350D02*
D03*
Y730850D02*
D03*
D34*
X645033Y557410D02*
D03*
Y552410D02*
D03*
Y547410D02*
D03*
Y542410D02*
D03*
X630047D02*
D03*
Y547410D02*
D03*
Y552410D02*
D03*
Y557410D02*
D03*
X493903Y567570D02*
D03*
Y562570D02*
D03*
Y557570D02*
D03*
Y552570D02*
D03*
X478917D02*
D03*
Y557570D02*
D03*
Y562570D02*
D03*
Y567570D02*
D03*
D35*
X644290Y524510D02*
D03*
X630790D02*
D03*
X493160Y533400D02*
D03*
X479660D02*
D03*
D36*
X638130Y572770D02*
D03*
X629330D02*
D03*
X662350Y542290D02*
D03*
X671150D02*
D03*
X850900Y436880D02*
D03*
X859700D02*
D03*
X520020Y554990D02*
D03*
X511220D02*
D03*
X488270Y584200D02*
D03*
X479470D02*
D03*
X1005160Y519430D02*
D03*
X996360D02*
D03*
Y505460D02*
D03*
X1005160D02*
D03*
X1058590Y519430D02*
D03*
X1067390D02*
D03*
X879520Y537210D02*
D03*
X888320D02*
D03*
X723310Y534670D02*
D03*
X732110D02*
D03*
X715600Y448310D02*
D03*
X706800D02*
D03*
X845230Y464820D02*
D03*
X854030D02*
D03*
X725760Y490220D02*
D03*
X716960D02*
D03*
X850900Y450850D02*
D03*
X859700D02*
D03*
X725760Y502920D02*
D03*
X716960D02*
D03*
X710610Y673100D02*
D03*
X719410D02*
D03*
X866820Y673735D02*
D03*
X875620D02*
D03*
D37*
X662200Y609600D02*
D03*
X633200D02*
D03*
X922760Y688340D02*
D03*
X951760D02*
D03*
X766550D02*
D03*
X795550D02*
D03*
D38*
X397510Y457230D02*
D03*
Y556230D02*
D03*
D39*
X937260Y502160D02*
D03*
Y407160D02*
D03*
D40*
X1082040Y543050D02*
D03*
X1069340D02*
D03*
X1056640D02*
D03*
X1043940D02*
D03*
X1031240D02*
D03*
X1018540D02*
D03*
X1005840D02*
D03*
X993140D02*
D03*
Y638050D02*
D03*
X1005840D02*
D03*
X1018540D02*
D03*
X1031240D02*
D03*
X1043940D02*
D03*
X1056640D02*
D03*
X1069340D02*
D03*
X1082040D02*
D03*
D41*
X817940Y432470D02*
D03*
Y436470D02*
D03*
Y440470D02*
D03*
Y444470D02*
D03*
Y448470D02*
D03*
Y452470D02*
D03*
Y456470D02*
D03*
Y460470D02*
D03*
Y464470D02*
D03*
Y468470D02*
D03*
Y472470D02*
D03*
Y476470D02*
D03*
Y480470D02*
D03*
Y484470D02*
D03*
X749240D02*
D03*
Y480470D02*
D03*
Y476470D02*
D03*
Y472470D02*
D03*
Y468470D02*
D03*
Y464470D02*
D03*
Y460470D02*
D03*
Y456470D02*
D03*
Y452470D02*
D03*
Y448470D02*
D03*
Y444470D02*
D03*
Y440470D02*
D03*
Y436470D02*
D03*
Y432470D02*
D03*
D42*
X757590Y424120D02*
D03*
X761590D02*
D03*
X765590D02*
D03*
X769590D02*
D03*
X773590D02*
D03*
X777590D02*
D03*
X781590D02*
D03*
X785590D02*
D03*
X789590D02*
D03*
X793590D02*
D03*
X797590D02*
D03*
X801590D02*
D03*
X805590D02*
D03*
X809590D02*
D03*
Y492820D02*
D03*
X805590D02*
D03*
X801590D02*
D03*
X797590D02*
D03*
X793590D02*
D03*
X789590D02*
D03*
X785590D02*
D03*
X781590D02*
D03*
X777590D02*
D03*
X773590D02*
D03*
X769590D02*
D03*
X765590D02*
D03*
X761590D02*
D03*
X757590D02*
D03*
D44*
X1063840Y263200D02*
D03*
X1011340D02*
D03*
X1063840Y280200D02*
D03*
X1011340D02*
D03*
X947000Y263200D02*
D03*
X894500D02*
D03*
X947000Y280200D02*
D03*
X894500D02*
D03*
D45*
X1154430Y373380D02*
D03*
Y480380D02*
D03*
D46*
X1096930Y436880D02*
D03*
Y456880D02*
D03*
Y416880D02*
D03*
Y396880D02*
D03*
D47*
X953770Y651640D02*
D03*
X941070D02*
D03*
X928370D02*
D03*
X915670D02*
D03*
X902970D02*
D03*
X890270D02*
D03*
X877570D02*
D03*
X864870D02*
D03*
Y557400D02*
D03*
X877570D02*
D03*
X890270D02*
D03*
X902970D02*
D03*
X915670D02*
D03*
X928370D02*
D03*
X941070D02*
D03*
X953770D02*
D03*
X797560Y651640D02*
D03*
X784860D02*
D03*
X772160D02*
D03*
X759460D02*
D03*
X746760D02*
D03*
X734060D02*
D03*
X721360D02*
D03*
X708660D02*
D03*
Y557400D02*
D03*
X721360D02*
D03*
X734060D02*
D03*
X746760D02*
D03*
X759460D02*
D03*
X772160D02*
D03*
X784860D02*
D03*
X797560D02*
D03*
D48*
X678180Y351350D02*
D03*
X690880D02*
D03*
X703580D02*
D03*
X716280D02*
D03*
Y423350D02*
D03*
X703580D02*
D03*
X690880D02*
D03*
X678180D02*
D03*
D49*
X510540Y829090D02*
D03*
Y865090D02*
D03*
X461645D02*
D03*
Y829090D02*
D03*
X415290Y865090D02*
D03*
Y829090D02*
D03*
D50*
X500380Y439510D02*
D03*
Y482510D02*
D03*
D51*
X648970Y790450D02*
D03*
Y758950D02*
D03*
X814070Y732280D02*
D03*
Y763780D02*
D03*
X843280Y791915D02*
D03*
Y760415D02*
D03*
X1008380Y765050D02*
D03*
Y733550D02*
D03*
D52*
X744730Y690880D02*
D03*
X713230D02*
D03*
X900940Y689610D02*
D03*
X869440D02*
D03*
D53*
X417070Y796290D02*
D03*
X385570D02*
D03*
D58*
X943610Y732890D02*
D03*
X956310D02*
D03*
X969010D02*
D03*
X981710D02*
D03*
X908050Y792770D02*
D03*
X895350D02*
D03*
X882650D02*
D03*
X869950D02*
D03*
X749300Y731425D02*
D03*
X762000D02*
D03*
X774700D02*
D03*
X787400D02*
D03*
X713740Y792480D02*
D03*
X701040D02*
D03*
X688340D02*
D03*
X675640D02*
D03*
D89*
X960120Y767783D02*
D03*
X765810Y766318D02*
D03*
D90*
X891540Y757877D02*
D03*
X697230Y757587D02*
D03*
D91*
X783590Y458470D02*
D03*
D92*
X757574Y420936D02*
X757590Y420952D01*
X757574Y420936D02*
X757574Y420936D01*
X798583Y483540D02*
X804799D01*
X817924Y460486D02*
X817956Y460454D01*
X757574Y420936D02*
X757574D01*
X757590Y420952D02*
Y420952D01*
X829755Y445770D02*
X830580D01*
X817940Y448470D02*
X827055D01*
X829755Y445770D01*
X847090Y450850D02*
X850900D01*
X837486Y460454D02*
X847090Y450850D01*
X850900Y436880D02*
Y450850D01*
X409280Y365090D02*
Y373709D01*
X403553Y379436D02*
Y381687D01*
X402970Y382270D02*
X403553Y381687D01*
Y379436D02*
X409280Y373709D01*
X799823Y476470D02*
X811807Y464486D01*
X759301Y476470D02*
X799823D01*
X801341Y474951D01*
X757460Y456470D02*
X764616Y463626D01*
Y471155D01*
X759301Y476470D02*
X764616Y471155D01*
X749240Y476470D02*
X759301D01*
X749240Y456470D02*
X757460D01*
X749256Y464486D02*
X754376D01*
X758520Y468630D01*
X739310Y476470D02*
X749240D01*
X802640Y437489D02*
Y439420D01*
X793574Y428423D02*
X802640Y437489D01*
X802564Y439496D02*
X802640Y439420D01*
X802564Y439496D02*
Y453314D01*
X807720Y458470D01*
X810545Y460470D02*
X817940D01*
X808545Y458470D02*
X810545Y460470D01*
X807720Y458470D02*
X808545D01*
X811807Y464486D02*
X817924D01*
X793606Y488517D02*
X798583Y483540D01*
X793606Y488517D02*
Y492804D01*
X757574Y488334D02*
Y492804D01*
X753710Y484470D02*
X757574Y488334D01*
X749240Y484470D02*
X753710D01*
X817940Y464470D02*
X845397D01*
X817924Y464486D02*
X817940Y464470D01*
X725760Y502720D02*
X743994Y484486D01*
X725760Y502720D02*
Y502920D01*
X379465Y359905D02*
Y364905D01*
Y359905D02*
X386780Y352590D01*
X379280Y365090D02*
X379465Y364905D01*
X378780Y359828D02*
X379280Y360328D01*
X378780Y352590D02*
Y359828D01*
X379280Y360328D02*
Y365090D01*
X426780Y352590D02*
X434095Y359905D01*
Y364905D01*
X434280Y365090D01*
X434465Y364905D01*
Y352905D02*
X434780Y352590D01*
X434465Y352905D02*
Y364905D01*
X749240Y456470D02*
X749256Y456486D01*
X793590Y492820D02*
X793606Y492804D01*
X757606Y428423D02*
X760984Y431800D01*
X790197D01*
X793574Y428423D01*
Y424136D02*
X793590Y424120D01*
X793574Y424136D02*
Y428423D01*
X757606Y424136D02*
Y428423D01*
X757590Y424120D02*
X757606Y424136D01*
X757198Y420936D02*
X757574D01*
X757590Y420952D02*
Y424120D01*
X757574Y420936D02*
X757590Y420952D01*
X748030Y411768D02*
X757198Y420936D01*
X748030Y405720D02*
Y411768D01*
X749240Y464470D02*
X749256Y464486D01*
X749240Y480470D02*
X749256Y480454D01*
X749500Y508680D02*
X757590Y500590D01*
Y492820D02*
Y500590D01*
X749240Y460470D02*
Y464470D01*
X749300Y508680D02*
X749500D01*
X749240Y480470D02*
Y484470D01*
X757574Y492804D02*
X757590Y492820D01*
X743994Y484486D02*
X749224D01*
X749240Y484470D01*
X725760Y490020D02*
Y490220D01*
Y490020D02*
X739310Y476470D01*
X715600Y448310D02*
X722630D01*
X730790Y456470D01*
X749240D01*
X855380Y346710D02*
X871820D01*
X855380D02*
X855980Y347310D01*
Y361360D01*
X859790Y329520D02*
X866038D01*
X880586Y344068D01*
Y344726D01*
X882570Y346710D01*
X883320D01*
Y360680D01*
X342900Y365160D02*
Y370840D01*
X356616Y384556D01*
X387604D01*
X399095Y373065D01*
Y365275D02*
Y373065D01*
Y365275D02*
X399280Y365090D01*
X414780Y345590D02*
X422550Y337820D01*
X436880D01*
X439420Y340360D01*
Y346710D01*
X457800Y365090D01*
X471170D01*
X817560Y330790D02*
X827210D01*
X843130Y346710D01*
X843880D01*
X725840Y476250D02*
X726590D01*
X728574Y474266D01*
Y472106D02*
Y474266D01*
Y472106D02*
X729764Y470916D01*
X734808D01*
X736013Y472121D01*
X745723D01*
X746072Y472470D01*
X749240D01*
X725840Y462280D02*
X726590D01*
X728574Y464264D01*
Y466424D01*
X729764Y467614D01*
X736175D01*
X737380Y468819D01*
X745723D01*
X746072Y468470D01*
X749240D01*
X871820Y360680D02*
Y373460D01*
X659130Y348580D02*
X668620D01*
X671390Y351350D01*
X678180D01*
Y340360D02*
Y351350D01*
Y340360D02*
X683260Y335280D01*
X736600D01*
X740410Y339090D01*
Y426808D01*
X746072Y432470D01*
X749240D01*
X703580Y423350D02*
Y435610D01*
X706120Y438150D01*
X722630D01*
X732934Y448454D01*
X749224D01*
X749240Y448470D01*
X716280Y423350D02*
Y433070D01*
X717550Y434340D01*
X723900D01*
X734014Y444454D01*
X749224D01*
X749240Y444470D01*
X690880Y340280D02*
Y351350D01*
Y340280D02*
X692070Y339090D01*
X734060D01*
X736600Y341630D01*
Y428116D01*
X744938Y436454D01*
X749224D01*
X749240Y436470D01*
X703580Y351350D02*
Y369570D01*
X732045Y398035D01*
Y428641D01*
X743874Y440470D01*
X749240D01*
X690880Y423350D02*
Y434340D01*
X698500Y441960D01*
X721360D01*
X731854Y452454D01*
X749224D01*
X749240Y452470D01*
X599120Y330790D02*
X627200D01*
X641760Y316230D01*
X734060D01*
X781590Y363760D01*
Y424120D01*
X579120Y330790D02*
X580018Y331688D01*
Y350148D01*
X582930Y353060D01*
X609600D01*
X642620Y320040D01*
X732790D01*
X777590Y364840D01*
Y424120D01*
X404280Y365090D02*
X404465Y364905D01*
Y358805D02*
Y364905D01*
Y358805D02*
X410680Y352590D01*
X410780D01*
X502920Y353660D02*
X503590Y354330D01*
X519430D01*
X521462Y356362D01*
X610967D01*
X616810Y350520D01*
X617220D01*
X643890Y323850D01*
X729839D01*
X761590Y355601D01*
Y424120D01*
X394280Y365090D02*
X394465Y364905D01*
X394780Y352590D02*
X394970Y352780D01*
X793750Y405720D02*
Y420792D01*
X793590Y420952D02*
X793750Y420792D01*
X793590Y420952D02*
Y424120D01*
X817956Y460454D02*
X837486D01*
X817940Y460470D02*
X817956Y460454D01*
X793590Y492820D02*
Y495988D01*
X793750Y496148D01*
Y512490D01*
D93*
X408589Y389794D02*
X420115Y401320D01*
X402970Y382891D02*
X404117Y384037D01*
X402970Y382270D02*
Y382891D01*
X404117Y384951D02*
X404533Y385367D01*
X404117Y384037D02*
Y384951D01*
X404533Y385367D02*
Y391475D01*
X408589Y387486D02*
X410151Y385924D01*
Y382709D02*
Y385924D01*
Y382709D02*
X410590Y382270D01*
X408589Y387486D02*
Y389794D01*
X404533Y391475D02*
X418435Y405377D01*
X420115Y401320D02*
X554377D01*
X418435Y405377D02*
X552697D01*
X554377Y401320D02*
X592477Y439420D01*
X666600D01*
X694417Y467237D01*
X710351D01*
X711983Y465604D01*
Y463887D02*
Y465604D01*
Y463887D02*
X713590Y462280D01*
X714340D01*
X692736Y471293D02*
X710351D01*
X711983Y474644D02*
X713590Y476250D01*
X552697Y405377D02*
X590797Y443477D01*
X664920D01*
X692736Y471293D01*
X710351D02*
X711983Y472926D01*
Y474644D01*
X713590Y476250D02*
X714340D01*
D94*
X709930Y534670D02*
X723310D01*
X562930Y555310D02*
Y570230D01*
X552450Y544830D02*
X562930Y555310D01*
X479470Y584000D02*
Y584200D01*
X915670Y541020D02*
Y557400D01*
X692150Y659130D02*
X699640Y651640D01*
X708660D01*
X797560D02*
X810390D01*
X819150Y660400D01*
X846811Y659335D02*
X854505Y651640D01*
X864870D01*
X894500Y280200D02*
X947000D01*
X1011340D02*
X1063840D01*
X887730Y506130D02*
X887770Y506090D01*
X901660D01*
X901700Y506050D01*
X933370D01*
X937260Y502160D01*
X415290Y798070D02*
X417070Y796290D01*
X415290Y798070D02*
Y829090D01*
X461645Y815875D02*
Y829090D01*
Y815875D02*
X464915Y812605D01*
Y807545D02*
Y812605D01*
Y807545D02*
X466010Y806450D01*
X466760D01*
X510540Y815875D02*
Y829090D01*
Y815875D02*
X514445Y811970D01*
Y807545D02*
Y811970D01*
Y807545D02*
X515540Y806450D01*
X516290D01*
X879520Y537210D02*
X880615Y538305D01*
Y541370D01*
X890270Y551025D01*
Y557400D01*
X723310Y534670D02*
X724405Y535765D01*
Y541370D01*
X734060Y551025D01*
Y557400D01*
X901700Y403270D02*
X933370D01*
X937260Y407160D01*
D95*
X1106170Y712470D02*
D03*
Y763270D02*
D03*
X323850Y754380D02*
D03*
Y703580D02*
D03*
D96*
X449480Y293790D02*
D03*
X364080D02*
D03*
Y341090D02*
D03*
X449480D02*
D03*
D97*
X402780Y352590D02*
D03*
X398780Y345590D02*
D03*
X394780Y352590D02*
D03*
X386780D02*
D03*
X378780D02*
D03*
X390780Y345590D02*
D03*
X382780D02*
D03*
X430780D02*
D03*
X422780D02*
D03*
X434780Y352590D02*
D03*
X426780D02*
D03*
X418780D02*
D03*
X414780Y345590D02*
D03*
X410780Y352590D02*
D03*
D98*
X509270Y742950D02*
D03*
X508000Y652780D02*
D03*
D99*
X304800Y304800D02*
D03*
Y836930D02*
D03*
X1123950D02*
D03*
Y304800D02*
D03*
D100*
X739140Y739140D02*
D03*
Y731520D02*
D03*
X731520Y762000D02*
D03*
Y754380D02*
D03*
Y746760D02*
D03*
Y739140D02*
D03*
X624840Y406400D02*
D03*
X806450Y383540D02*
D03*
X807720Y458470D02*
D03*
X804799Y483540D02*
D03*
X1021080Y397510D02*
D03*
Y416560D02*
D03*
X843280Y473710D02*
D03*
X830580Y445770D02*
D03*
X831290Y435163D02*
D03*
X760730Y440690D02*
D03*
Y448310D02*
D03*
X410590Y382270D02*
D03*
X402970D02*
D03*
X853440Y502920D02*
D03*
Y495300D02*
D03*
X845820Y502920D02*
D03*
Y495300D02*
D03*
X624840Y421640D02*
D03*
Y414020D02*
D03*
X617220Y421640D02*
D03*
Y414020D02*
D03*
Y406400D02*
D03*
X609600Y421640D02*
D03*
Y414020D02*
D03*
Y406400D02*
D03*
X601980Y421640D02*
D03*
Y414020D02*
D03*
Y406400D02*
D03*
X594360Y421640D02*
D03*
Y414020D02*
D03*
Y406400D02*
D03*
X727710Y351790D02*
D03*
Y359410D02*
D03*
X754380D02*
D03*
X746760D02*
D03*
Y351790D02*
D03*
X740410Y497840D02*
D03*
X759460Y527050D02*
D03*
X709930Y534670D02*
D03*
X674370Y529590D02*
D03*
Y521970D02*
D03*
X621030Y538480D02*
D03*
X623570Y563880D02*
D03*
X466090Y547370D02*
D03*
X528320Y520700D02*
D03*
X520700Y537210D02*
D03*
Y544830D02*
D03*
X472440Y575310D02*
D03*
X975360Y563880D02*
D03*
Y556260D02*
D03*
Y548640D02*
D03*
Y541020D02*
D03*
X967740Y563880D02*
D03*
Y556260D02*
D03*
Y548640D02*
D03*
Y541020D02*
D03*
X915670D02*
D03*
X967740Y716280D02*
D03*
Y708660D02*
D03*
X960120Y716280D02*
D03*
Y708660D02*
D03*
X952500Y716280D02*
D03*
Y708660D02*
D03*
X944880Y716280D02*
D03*
Y708660D02*
D03*
X937260Y716280D02*
D03*
Y708660D02*
D03*
Y632460D02*
D03*
X929640D02*
D03*
X647700Y487680D02*
D03*
Y480060D02*
D03*
X829534Y477296D02*
D03*
X758520Y468630D02*
D03*
X786753Y483556D02*
D03*
X808660Y448310D02*
D03*
X772160Y539750D02*
D03*
X746760Y538480D02*
D03*
X777240Y502920D02*
D03*
X767080Y513080D02*
D03*
X736600D02*
D03*
X650240Y737870D02*
D03*
X641350D02*
D03*
X632460D02*
D03*
X623570D02*
D03*
X692150Y659130D02*
D03*
X852170Y742950D02*
D03*
X844550D02*
D03*
X819150Y660400D02*
D03*
X814070Y781050D02*
D03*
X806450D02*
D03*
X846811Y659335D02*
D03*
X739140Y815340D02*
D03*
Y807720D02*
D03*
X731520Y815340D02*
D03*
Y807720D02*
D03*
Y800100D02*
D03*
Y670560D02*
D03*
Y632460D02*
D03*
Y624840D02*
D03*
X723900Y815340D02*
D03*
Y807720D02*
D03*
Y800100D02*
D03*
X716280Y815340D02*
D03*
Y807720D02*
D03*
X708660Y815340D02*
D03*
Y807720D02*
D03*
X701040Y815340D02*
D03*
Y807720D02*
D03*
X504490Y792780D02*
D03*
X689610Y580390D02*
D03*
X928370Y539750D02*
D03*
X872236Y537210D02*
D03*
Y512490D02*
D03*
X751078Y381254D02*
D03*
X678180D02*
D03*
X875030Y468630D02*
D03*
Y459740D02*
D03*
X902970Y539750D02*
D03*
X830580Y381000D02*
D03*
X309601Y544161D02*
D03*
X275590Y340360D02*
D03*
X640080Y359410D02*
D03*
X552450Y544830D02*
D03*
X452120Y382270D02*
D03*
X377190Y378460D02*
D03*
X680720Y580390D02*
D03*
X454660Y792480D02*
D03*
M02*
