G04*
G04 #@! TF.GenerationSoftware,Altium Limited,Altium Designer,24.2.2 (26)*
G04*
G04 Layer_Color=10066410*
%FSLAX44Y44*%
%MOMM*%
G71*
G04*
G04 #@! TF.SameCoordinates,EFECB0DB-55D9-47D9-9B57-CE66261CE064*
G04*
G04*
G04 #@! TF.FilePolarity,Negative*
G04*
G01*
G75*
%ADD40R,1.0000X0.5200*%
%ADD41R,1.0000X0.2700*%
%ADD42R,2.0000X1.0000*%
%ADD57R,0.7000X0.5000*%
%ADD58R,0.5500X0.4000*%
%ADD59R,0.8000X0.3000*%
%ADD60R,1.5052X0.5721*%
G04:AMPARAMS|DCode=61|XSize=1.5052mm|YSize=0.5721mm|CornerRadius=0.2861mm|HoleSize=0mm|Usage=FLASHONLY|Rotation=180.000|XOffset=0mm|YOffset=0mm|HoleType=Round|Shape=RoundedRectangle|*
%AMROUNDEDRECTD61*
21,1,1.5052,0.0000,0,0,180.0*
21,1,0.9331,0.5721,0,0,180.0*
1,1,0.5721,-0.4666,0.0000*
1,1,0.5721,0.4666,0.0000*
1,1,0.5721,0.4666,0.0000*
1,1,0.5721,-0.4666,0.0000*
%
%ADD61ROUNDEDRECTD61*%
%ADD62R,2.9464X2.1463*%
%ADD63R,1.7500X1.2000*%
%ADD64R,0.5024X0.5524*%
%ADD65R,1.1000X1.2000*%
%ADD66R,0.5524X0.5024*%
%ADD67R,0.7524X1.7024*%
%ADD68R,1.3524X1.9524*%
G04:AMPARAMS|DCode=69|XSize=0.3524mm|YSize=0.9924mm|CornerRadius=0.1012mm|HoleSize=0mm|Usage=FLASHONLY|Rotation=270.000|XOffset=0mm|YOffset=0mm|HoleType=Round|Shape=RoundedRectangle|*
%AMROUNDEDRECTD69*
21,1,0.3524,0.7900,0,0,270.0*
21,1,0.1500,0.9924,0,0,270.0*
1,1,0.2024,-0.3950,-0.0750*
1,1,0.2024,-0.3950,0.0750*
1,1,0.2024,0.3950,0.0750*
1,1,0.2024,0.3950,-0.0750*
%
%ADD69ROUNDEDRECTD69*%
G04:AMPARAMS|DCode=70|XSize=0.9924mm|YSize=0.3524mm|CornerRadius=0.1012mm|HoleSize=0mm|Usage=FLASHONLY|Rotation=270.000|XOffset=0mm|YOffset=0mm|HoleType=Round|Shape=RoundedRectangle|*
%AMROUNDEDRECTD70*
21,1,0.9924,0.1500,0,0,270.0*
21,1,0.7900,0.3524,0,0,270.0*
1,1,0.2024,-0.0750,-0.3950*
1,1,0.2024,-0.0750,0.3950*
1,1,0.2024,0.0750,0.3950*
1,1,0.2024,0.0750,-0.3950*
%
%ADD70ROUNDEDRECTD70*%
%ADD71R,3.2524X3.2524*%
%ADD72R,1.8024X0.8024*%
%ADD73R,1.3524X1.5524*%
%ADD74R,1.1524X0.8524*%
G04:AMPARAMS|DCode=75|XSize=0.8224mm|YSize=0.4524mm|CornerRadius=0.1257mm|HoleSize=0mm|Usage=FLASHONLY|Rotation=0.000|XOffset=0mm|YOffset=0mm|HoleType=Round|Shape=RoundedRectangle|*
%AMROUNDEDRECTD75*
21,1,0.8224,0.2010,0,0,0.0*
21,1,0.5710,0.4524,0,0,0.0*
1,1,0.2514,0.2855,-0.1005*
1,1,0.2514,-0.2855,-0.1005*
1,1,0.2514,-0.2855,0.1005*
1,1,0.2514,0.2855,0.1005*
%
%ADD75ROUNDEDRECTD75*%
%ADD76R,1.3524X1.3524*%
%ADD77R,1.3524X1.3524*%
%ADD78R,1.4524X1.9524*%
%ADD79R,0.9524X1.0524*%
%ADD80R,0.8500X0.5000*%
%ADD81R,1.0524X0.9524*%
%ADD82R,1.7024X0.7524*%
%ADD83R,1.9524X1.3524*%
%ADD84R,1.0524X1.1524*%
%ADD85R,0.7524X0.7924*%
%ADD86R,1.4524X2.8524*%
%ADD87R,2.4524X4.7024*%
%ADD88R,1.5494X3.1496*%
%ADD89R,1.1524X1.3524*%
%ADD90R,0.6524X0.5524*%
%ADD91R,0.7524X0.6524*%
%ADD92R,0.6524X0.7524*%
%ADD93R,1.9524X1.4524*%
%ADD94R,1.2446X2.1590*%
%ADD95R,1.2446X0.9398*%
%ADD96C,5.7524*%
%ADD97R,0.1524X0.1524*%
G04:AMPARAMS|DCode=98|XSize=1.3mm|YSize=2.3mm|CornerRadius=0.65mm|HoleSize=0mm|Usage=FLASHONLY|Rotation=90.000|XOffset=0mm|YOffset=0mm|HoleType=Round|Shape=RoundedRectangle|*
%AMROUNDEDRECTD98*
21,1,1.3000,1.0000,0,0,90.0*
21,1,0.0000,2.3000,0,0,90.0*
1,1,1.3000,0.5000,0.0000*
1,1,1.3000,0.5000,0.0000*
1,1,1.3000,-0.5000,0.0000*
1,1,1.3000,-0.5000,0.0000*
%
%ADD98ROUNDEDRECTD98*%
G04:AMPARAMS|DCode=99|XSize=1.3mm|YSize=2.6mm|CornerRadius=0.65mm|HoleSize=0mm|Usage=FLASHONLY|Rotation=90.000|XOffset=0mm|YOffset=0mm|HoleType=Round|Shape=RoundedRectangle|*
%AMROUNDEDRECTD99*
21,1,1.3000,1.3000,0,0,90.0*
21,1,0.0000,2.6000,0,0,90.0*
1,1,1.3000,0.6500,0.0000*
1,1,1.3000,0.6500,0.0000*
1,1,1.3000,-0.6500,0.0000*
1,1,1.3000,-0.6500,0.0000*
%
%ADD99ROUNDEDRECTD99*%
%ADD100C,0.6000*%
G04:AMPARAMS|DCode=101|XSize=0.85mm|YSize=0.6mm|CornerRadius=0.3mm|HoleSize=0mm|Usage=FLASHONLY|Rotation=90.000|XOffset=0mm|YOffset=0mm|HoleType=Round|Shape=RoundedRectangle|*
%AMROUNDEDRECTD101*
21,1,0.8500,0.0000,0,0,90.0*
21,1,0.2500,0.6000,0,0,90.0*
1,1,0.6000,0.0000,0.1250*
1,1,0.6000,0.0000,-0.1250*
1,1,0.6000,0.0000,-0.1250*
1,1,0.6000,0.0000,0.1250*
%
%ADD101ROUNDEDRECTD101*%
%ADD102R,6.6524X6.1524*%
%ADD103C,1.8034*%
G36*
X884675Y1109465D02*
X884791Y1109437D01*
X884902Y1109391D01*
X885004Y1109328D01*
X885096Y1109250D01*
X885173Y1109159D01*
X885236Y1109057D01*
X885282Y1108946D01*
X885310Y1108830D01*
X885319Y1108710D01*
Y1096010D01*
X885310Y1095890D01*
X885282Y1095774D01*
X885236Y1095663D01*
X885173Y1095561D01*
X885096Y1095470D01*
X885004Y1095392D01*
X884902Y1095329D01*
X884791Y1095283D01*
X884675Y1095255D01*
X884555Y1095246D01*
X872490D01*
X872370Y1095255D01*
X872254Y1095283D01*
X872143Y1095329D01*
X872041Y1095392D01*
X871949Y1095470D01*
X871872Y1095561D01*
X871809Y1095663D01*
X871763Y1095774D01*
X871735Y1095890D01*
X871726Y1096010D01*
X871735Y1096130D01*
X871763Y1096246D01*
X871809Y1096357D01*
X871872Y1096459D01*
X871949Y1096551D01*
X877759Y1102360D01*
X871949Y1108169D01*
X871872Y1108261D01*
X871809Y1108363D01*
X871763Y1108474D01*
X871735Y1108590D01*
X871726Y1108710D01*
X871735Y1108830D01*
X871763Y1108946D01*
X871809Y1109057D01*
X871872Y1109159D01*
X871949Y1109250D01*
X872041Y1109328D01*
X872143Y1109391D01*
X872254Y1109437D01*
X872370Y1109465D01*
X872490Y1109474D01*
X884555D01*
X884675Y1109465D01*
D02*
G37*
G36*
X868087Y1109471D02*
X868129Y1109470D01*
X868146Y1109466D01*
X868165Y1109465D01*
X868205Y1109455D01*
X868246Y1109447D01*
X868263Y1109441D01*
X868281Y1109437D01*
X868320Y1109421D01*
X868359Y1109407D01*
X868375Y1109398D01*
X868392Y1109391D01*
X868428Y1109369D01*
X868464Y1109349D01*
X868479Y1109338D01*
X868494Y1109328D01*
X868526Y1109301D01*
X868559Y1109276D01*
X875544Y1102926D01*
X875569Y1102899D01*
X875596Y1102874D01*
X875610Y1102855D01*
X875626Y1102838D01*
X875647Y1102808D01*
X875669Y1102779D01*
X875680Y1102759D01*
X875694Y1102739D01*
X875709Y1102706D01*
X875727Y1102674D01*
X875735Y1102652D01*
X875745Y1102630D01*
X875755Y1102596D01*
X875767Y1102561D01*
X875772Y1102538D01*
X875778Y1102515D01*
X875783Y1102479D01*
X875790Y1102443D01*
X875790Y1102420D01*
X875794Y1102396D01*
X875792Y1102360D01*
X875794Y1102324D01*
X875790Y1102300D01*
X875790Y1102277D01*
X875783Y1102241D01*
X875778Y1102205D01*
X875772Y1102182D01*
X875767Y1102159D01*
X875755Y1102125D01*
X875745Y1102089D01*
X875735Y1102068D01*
X875727Y1102046D01*
X875709Y1102014D01*
X875694Y1101981D01*
X875680Y1101961D01*
X875669Y1101941D01*
X875647Y1101912D01*
X875626Y1101882D01*
X875610Y1101864D01*
X875596Y1101846D01*
X875569Y1101821D01*
X875544Y1101794D01*
X868559Y1095444D01*
X868526Y1095419D01*
X868494Y1095392D01*
X868479Y1095382D01*
X868464Y1095371D01*
X868428Y1095351D01*
X868392Y1095329D01*
X868375Y1095322D01*
X868359Y1095313D01*
X868320Y1095299D01*
X868281Y1095283D01*
X868263Y1095279D01*
X868246Y1095273D01*
X868205Y1095265D01*
X868165Y1095255D01*
X868146Y1095254D01*
X868129Y1095250D01*
X868087Y1095249D01*
X868045Y1095246D01*
X861695D01*
X861575Y1095255D01*
X861459Y1095283D01*
X861348Y1095329D01*
X861246Y1095392D01*
X861154Y1095470D01*
X861077Y1095561D01*
X861014Y1095663D01*
X860968Y1095774D01*
X860940Y1095890D01*
X860931Y1096010D01*
Y1108710D01*
X860940Y1108830D01*
X860968Y1108946D01*
X861014Y1109057D01*
X861077Y1109159D01*
X861154Y1109250D01*
X861246Y1109328D01*
X861348Y1109391D01*
X861459Y1109437D01*
X861575Y1109465D01*
X861695Y1109474D01*
X868045D01*
X868087Y1109471D01*
D02*
G37*
G36*
X652265Y1040885D02*
X652381Y1040857D01*
X652492Y1040811D01*
X652594Y1040748D01*
X652685Y1040670D01*
X652763Y1040579D01*
X652826Y1040477D01*
X652872Y1040366D01*
X652900Y1040250D01*
X652909Y1040130D01*
Y1027430D01*
X652900Y1027310D01*
X652872Y1027194D01*
X652826Y1027083D01*
X652763Y1026981D01*
X652685Y1026889D01*
X652594Y1026812D01*
X652492Y1026749D01*
X652381Y1026703D01*
X652265Y1026675D01*
X652145Y1026666D01*
X640080D01*
X639960Y1026675D01*
X639844Y1026703D01*
X639733Y1026749D01*
X639631Y1026812D01*
X639539Y1026889D01*
X639462Y1026981D01*
X639399Y1027083D01*
X639353Y1027194D01*
X639325Y1027310D01*
X639316Y1027430D01*
X639325Y1027550D01*
X639353Y1027666D01*
X639399Y1027777D01*
X639462Y1027879D01*
X639539Y1027971D01*
X645349Y1033780D01*
X639539Y1039589D01*
X639462Y1039681D01*
X639399Y1039783D01*
X639353Y1039894D01*
X639325Y1040010D01*
X639316Y1040130D01*
X639325Y1040250D01*
X639353Y1040366D01*
X639399Y1040477D01*
X639462Y1040579D01*
X639539Y1040670D01*
X639631Y1040748D01*
X639733Y1040811D01*
X639844Y1040857D01*
X639960Y1040885D01*
X640080Y1040894D01*
X652145D01*
X652265Y1040885D01*
D02*
G37*
G36*
X635677Y1040891D02*
X635718Y1040890D01*
X635736Y1040886D01*
X635755Y1040885D01*
X635795Y1040875D01*
X635836Y1040867D01*
X635854Y1040861D01*
X635871Y1040857D01*
X635910Y1040841D01*
X635949Y1040827D01*
X635965Y1040818D01*
X635982Y1040811D01*
X636018Y1040789D01*
X636054Y1040769D01*
X636069Y1040758D01*
X636084Y1040748D01*
X636116Y1040721D01*
X636149Y1040696D01*
X643134Y1034346D01*
X643159Y1034319D01*
X643186Y1034294D01*
X643200Y1034275D01*
X643216Y1034258D01*
X643237Y1034228D01*
X643259Y1034199D01*
X643270Y1034179D01*
X643284Y1034159D01*
X643299Y1034126D01*
X643317Y1034094D01*
X643325Y1034072D01*
X643335Y1034051D01*
X643345Y1034016D01*
X643357Y1033981D01*
X643362Y1033958D01*
X643368Y1033935D01*
X643373Y1033899D01*
X643380Y1033864D01*
X643381Y1033840D01*
X643383Y1033816D01*
X643382Y1033780D01*
X643383Y1033744D01*
X643381Y1033720D01*
X643380Y1033697D01*
X643373Y1033661D01*
X643368Y1033625D01*
X643362Y1033602D01*
X643357Y1033579D01*
X643345Y1033545D01*
X643335Y1033510D01*
X643325Y1033488D01*
X643317Y1033466D01*
X643299Y1033434D01*
X643284Y1033401D01*
X643270Y1033381D01*
X643259Y1033361D01*
X643237Y1033332D01*
X643216Y1033302D01*
X643200Y1033285D01*
X643186Y1033266D01*
X643159Y1033241D01*
X643134Y1033214D01*
X636149Y1026864D01*
X636116Y1026839D01*
X636084Y1026812D01*
X636069Y1026802D01*
X636054Y1026791D01*
X636018Y1026771D01*
X635982Y1026749D01*
X635965Y1026742D01*
X635949Y1026733D01*
X635910Y1026719D01*
X635871Y1026703D01*
X635854Y1026699D01*
X635836Y1026693D01*
X635795Y1026685D01*
X635755Y1026675D01*
X635736Y1026674D01*
X635718Y1026670D01*
X635677Y1026669D01*
X635635Y1026666D01*
X629285D01*
X629165Y1026675D01*
X629049Y1026703D01*
X628938Y1026749D01*
X628836Y1026812D01*
X628745Y1026889D01*
X628667Y1026981D01*
X628604Y1027083D01*
X628558Y1027194D01*
X628530Y1027310D01*
X628521Y1027430D01*
Y1040130D01*
X628530Y1040250D01*
X628558Y1040366D01*
X628604Y1040477D01*
X628667Y1040579D01*
X628745Y1040670D01*
X628836Y1040748D01*
X628938Y1040811D01*
X629049Y1040857D01*
X629165Y1040885D01*
X629285Y1040894D01*
X635635D01*
X635677Y1040891D01*
D02*
G37*
G36*
X684955Y888020D02*
X685139Y887903D01*
X685332Y887802D01*
X685534Y887719D01*
X685742Y887653D01*
X685956Y887606D01*
X686172Y887577D01*
X686390Y887568D01*
X688638D01*
Y869107D01*
X687104Y867572D01*
X686390D01*
X686172Y867563D01*
X685955Y867534D01*
X685742Y867487D01*
X685534Y867421D01*
X685451Y867387D01*
X685332Y867338D01*
X685139Y867237D01*
X684955Y867120D01*
X684890Y867070D01*
X684825Y867120D01*
X684641Y867237D01*
X684448Y867338D01*
X684246Y867421D01*
X684038Y867487D01*
X683825Y867534D01*
X683608Y867563D01*
X683390Y867572D01*
X681390D01*
X681172Y867563D01*
X680956Y867534D01*
X680742Y867487D01*
X680534Y867421D01*
X680332Y867338D01*
X680139Y867237D01*
X679955Y867120D01*
X679890Y867070D01*
X679825Y867120D01*
X679641Y867237D01*
X679448Y867338D01*
X679246Y867421D01*
X679038Y867487D01*
X678825Y867534D01*
X678608Y867563D01*
X678390Y867572D01*
X678390D01*
D01*
X676142D01*
Y887568D01*
X678390D01*
X678608Y887577D01*
X678825Y887606D01*
X679038Y887653D01*
X679246Y887719D01*
X679448Y887802D01*
X679641Y887903D01*
X679825Y888020D01*
X679890Y888070D01*
X679955Y888020D01*
X680139Y887903D01*
X680332Y887802D01*
X680534Y887719D01*
X680742Y887653D01*
X680956Y887606D01*
X681172Y887577D01*
X681390Y887568D01*
X683390D01*
X683608Y887577D01*
X683825Y887606D01*
X684038Y887653D01*
X684246Y887719D01*
X684448Y887802D01*
X684641Y887903D01*
X684825Y888020D01*
X684890Y888070D01*
X684955Y888020D01*
D02*
G37*
G36*
Y838490D02*
X685139Y838373D01*
X685332Y838272D01*
X685534Y838188D01*
X685742Y838123D01*
X685956Y838076D01*
X686172Y838047D01*
X686390Y838038D01*
X688638D01*
Y819576D01*
X687104Y818042D01*
X686390D01*
X686172Y818033D01*
X685955Y818004D01*
X685742Y817957D01*
X685534Y817891D01*
X685451Y817857D01*
X685332Y817808D01*
X685139Y817707D01*
X684955Y817590D01*
X684890Y817540D01*
X684825Y817590D01*
X684641Y817707D01*
X684448Y817808D01*
X684246Y817891D01*
X684038Y817957D01*
X683825Y818004D01*
X683608Y818033D01*
X683390Y818042D01*
X681390D01*
X681172Y818033D01*
X680956Y818004D01*
X680742Y817957D01*
X680534Y817891D01*
X680332Y817808D01*
X680139Y817707D01*
X679955Y817590D01*
X679890Y817540D01*
X679825Y817590D01*
X679641Y817707D01*
X679448Y817808D01*
X679246Y817891D01*
X679038Y817957D01*
X678825Y818004D01*
X678608Y818033D01*
X678390Y818042D01*
X678390D01*
D01*
X676142D01*
Y838038D01*
X678390D01*
X678608Y838047D01*
X678825Y838076D01*
X679038Y838123D01*
X679246Y838188D01*
X679448Y838272D01*
X679641Y838373D01*
X679825Y838490D01*
X679890Y838540D01*
X679955Y838490D01*
X680139Y838373D01*
X680332Y838272D01*
X680534Y838188D01*
X680742Y838123D01*
X680956Y838076D01*
X681172Y838047D01*
X681390Y838038D01*
X683390D01*
X683608Y838047D01*
X683825Y838076D01*
X684038Y838123D01*
X684246Y838188D01*
X684448Y838272D01*
X684641Y838373D01*
X684825Y838490D01*
X684890Y838540D01*
X684955Y838490D01*
D02*
G37*
G36*
X684555Y787690D02*
X684739Y787573D01*
X684932Y787472D01*
X685134Y787389D01*
X685342Y787323D01*
X685555Y787276D01*
X685772Y787247D01*
X685990Y787238D01*
X688238D01*
Y768776D01*
X686703Y767242D01*
X685990D01*
X685772Y767233D01*
X685555Y767204D01*
X685342Y767157D01*
X685134Y767092D01*
X685051Y767057D01*
X684932Y767008D01*
X684739Y766907D01*
X684555Y766790D01*
X684490Y766740D01*
X684425Y766790D01*
X684241Y766907D01*
X684048Y767008D01*
X683846Y767092D01*
X683638Y767157D01*
X683425Y767204D01*
X683208Y767233D01*
X682990Y767242D01*
X680990D01*
X680772Y767233D01*
X680555Y767204D01*
X680342Y767157D01*
X680134Y767092D01*
X679932Y767008D01*
X679739Y766907D01*
X679555Y766790D01*
X679490Y766740D01*
X679425Y766790D01*
X679241Y766907D01*
X679048Y767008D01*
X678846Y767092D01*
X678638Y767157D01*
X678425Y767204D01*
X678208Y767233D01*
X677990Y767242D01*
D01*
X677990D01*
X675742D01*
Y787238D01*
X677990D01*
X678208Y787247D01*
X678425Y787276D01*
X678638Y787323D01*
X678846Y787389D01*
X679048Y787472D01*
X679241Y787573D01*
X679425Y787690D01*
X679490Y787740D01*
X679555Y787690D01*
X679739Y787573D01*
X679932Y787472D01*
X680134Y787389D01*
X680342Y787323D01*
X680555Y787276D01*
X680772Y787247D01*
X680990Y787238D01*
X682990D01*
X683208Y787247D01*
X683425Y787276D01*
X683638Y787323D01*
X683846Y787389D01*
X684048Y787472D01*
X684241Y787573D01*
X684425Y787690D01*
X684490Y787740D01*
X684555Y787690D01*
D02*
G37*
D40*
X861273Y849170D02*
D03*
Y856670D02*
D03*
Y911170D02*
D03*
Y903670D02*
D03*
D41*
Y862670D02*
D03*
Y867670D02*
D03*
Y872670D02*
D03*
Y877670D02*
D03*
Y882670D02*
D03*
Y887670D02*
D03*
Y892670D02*
D03*
Y897670D02*
D03*
D42*
X903273Y866170D02*
D03*
Y894170D02*
D03*
D57*
X810140Y656590D02*
D03*
X795140D02*
D03*
D58*
X809390Y663840D02*
D03*
X795890D02*
D03*
X809390Y649340D02*
D03*
X795890D02*
D03*
D59*
X667390Y818040D02*
D03*
Y823040D02*
D03*
Y828040D02*
D03*
Y833040D02*
D03*
Y838040D02*
D03*
X697390D02*
D03*
Y833040D02*
D03*
Y828040D02*
D03*
Y823040D02*
D03*
Y818040D02*
D03*
X667390Y867570D02*
D03*
Y872570D02*
D03*
Y877570D02*
D03*
Y882570D02*
D03*
Y887570D02*
D03*
X697390D02*
D03*
Y882570D02*
D03*
Y877570D02*
D03*
Y872570D02*
D03*
Y867570D02*
D03*
X666990Y767240D02*
D03*
Y772240D02*
D03*
Y777240D02*
D03*
Y782240D02*
D03*
Y787240D02*
D03*
X696990D02*
D03*
Y782240D02*
D03*
Y777240D02*
D03*
Y772240D02*
D03*
Y767240D02*
D03*
D60*
X793245Y749960D02*
D03*
Y831240D02*
D03*
Y790600D02*
D03*
D61*
Y759460D02*
D03*
Y768960D02*
D03*
X771235D02*
D03*
Y749960D02*
D03*
X793245Y840740D02*
D03*
Y850240D02*
D03*
X771235D02*
D03*
Y831240D02*
D03*
X793245Y800100D02*
D03*
Y809600D02*
D03*
X771235D02*
D03*
Y790600D02*
D03*
D62*
X675640Y1104329D02*
D03*
Y1062291D02*
D03*
D63*
X704140Y660010D02*
D03*
X756640D02*
D03*
X704140Y643010D02*
D03*
X756640D02*
D03*
X746340Y1167300D02*
D03*
X693840D02*
D03*
X746340Y1184300D02*
D03*
X693840D02*
D03*
X577346Y660010D02*
D03*
X629846D02*
D03*
X577346Y643010D02*
D03*
X629846D02*
D03*
D64*
X807640Y695990D02*
D03*
Y689790D02*
D03*
X855270Y821690D02*
D03*
X861770D02*
D03*
X856540Y938530D02*
D03*
X863040D02*
D03*
X754380Y992430D02*
D03*
Y986230D02*
D03*
X782880Y1089660D02*
D03*
X789380D02*
D03*
X766370D02*
D03*
X772870D02*
D03*
X819860Y930910D02*
D03*
X813360D02*
D03*
X819860Y922020D02*
D03*
X813360D02*
D03*
X797560Y992430D02*
D03*
Y986230D02*
D03*
X756920Y877570D02*
D03*
Y883770D02*
D03*
X800100Y882090D02*
D03*
Y888290D02*
D03*
X822250Y665480D02*
D03*
X828750D02*
D03*
X822250Y647700D02*
D03*
X828750D02*
D03*
X822250Y656590D02*
D03*
X828750D02*
D03*
X761210Y723370D02*
D03*
X767710D02*
D03*
X801850D02*
D03*
X808350D02*
D03*
X761210Y714480D02*
D03*
X767710D02*
D03*
X801850D02*
D03*
X808350D02*
D03*
X761210Y705590D02*
D03*
X767710D02*
D03*
X801850D02*
D03*
X808350D02*
D03*
X815260Y756210D02*
D03*
Y750010D02*
D03*
X754300Y754940D02*
D03*
Y748740D02*
D03*
X815260Y837490D02*
D03*
Y831290D02*
D03*
X754300Y836220D02*
D03*
Y830020D02*
D03*
X815260Y796850D02*
D03*
Y790650D02*
D03*
X754300Y795580D02*
D03*
Y789380D02*
D03*
D65*
X872310Y980360D02*
D03*
X913310D02*
D03*
X872310Y964360D02*
D03*
X913310D02*
D03*
D66*
X859790Y976730D02*
D03*
Y983230D02*
D03*
X843990Y1062990D02*
D03*
X850190D02*
D03*
X663650Y1019810D02*
D03*
X669850D02*
D03*
X671680Y961390D02*
D03*
X665480D02*
D03*
X662940Y1156410D02*
D03*
Y1149910D02*
D03*
X836220Y937260D02*
D03*
X830020D02*
D03*
X681990Y977340D02*
D03*
Y970840D02*
D03*
X706830Y925830D02*
D03*
X713030D02*
D03*
X836220Y946150D02*
D03*
X830020D02*
D03*
X819710Y913130D02*
D03*
X813510D02*
D03*
X706830Y934720D02*
D03*
X713030D02*
D03*
X819710Y895350D02*
D03*
X813510D02*
D03*
X819710Y904240D02*
D03*
X813510D02*
D03*
X654050Y1149910D02*
D03*
Y1156410D02*
D03*
X615950Y1156260D02*
D03*
Y1162760D02*
D03*
X607060Y1156260D02*
D03*
Y1162760D02*
D03*
X598170Y1156260D02*
D03*
Y1162760D02*
D03*
X791920Y1162050D02*
D03*
X798120D02*
D03*
X754300Y771600D02*
D03*
Y765100D02*
D03*
X793670Y696140D02*
D03*
Y689640D02*
D03*
X784780Y696140D02*
D03*
Y689640D02*
D03*
X775890Y696140D02*
D03*
Y689640D02*
D03*
X754300Y852880D02*
D03*
Y846380D02*
D03*
Y812240D02*
D03*
Y805740D02*
D03*
D67*
X444500Y681990D02*
D03*
X434500D02*
D03*
X424500D02*
D03*
X414500D02*
D03*
D68*
X457500Y643240D02*
D03*
X401500D02*
D03*
D69*
X730190Y963260D02*
D03*
Y959260D02*
D03*
Y955260D02*
D03*
Y951260D02*
D03*
Y947260D02*
D03*
Y943260D02*
D03*
Y939260D02*
D03*
Y935260D02*
D03*
Y931260D02*
D03*
Y927260D02*
D03*
Y923260D02*
D03*
Y919260D02*
D03*
Y915260D02*
D03*
Y911260D02*
D03*
X798890D02*
D03*
Y915260D02*
D03*
Y919260D02*
D03*
Y923260D02*
D03*
Y927260D02*
D03*
Y931260D02*
D03*
Y935260D02*
D03*
Y939260D02*
D03*
Y943260D02*
D03*
Y947260D02*
D03*
Y951260D02*
D03*
Y955260D02*
D03*
Y959260D02*
D03*
Y963260D02*
D03*
D70*
X790540Y971610D02*
D03*
X786540D02*
D03*
X782540D02*
D03*
X778540D02*
D03*
X774540D02*
D03*
X770540D02*
D03*
X766540D02*
D03*
X762540D02*
D03*
X758540D02*
D03*
X754540D02*
D03*
X750540D02*
D03*
X746540D02*
D03*
X742540D02*
D03*
X738540D02*
D03*
Y902910D02*
D03*
X742540D02*
D03*
X746540D02*
D03*
X750540D02*
D03*
X754540D02*
D03*
X758540D02*
D03*
X762540D02*
D03*
X766540D02*
D03*
X770540D02*
D03*
X774540D02*
D03*
X778540D02*
D03*
X782540D02*
D03*
X786540D02*
D03*
X790540D02*
D03*
D71*
X764540Y937260D02*
D03*
D72*
X827210Y1059180D02*
D03*
Y1046480D02*
D03*
Y1033780D02*
D03*
Y1021080D02*
D03*
X755210D02*
D03*
Y1033780D02*
D03*
Y1046480D02*
D03*
Y1059180D02*
D03*
D73*
X666360Y979600D02*
D03*
X649360D02*
D03*
X666360Y1001600D02*
D03*
X649360D02*
D03*
D74*
X792045Y1148690D02*
D03*
Y1139190D02*
D03*
Y1129690D02*
D03*
X770055D02*
D03*
Y1139190D02*
D03*
Y1148690D02*
D03*
D75*
X639860Y1141610D02*
D03*
Y1136610D02*
D03*
Y1131610D02*
D03*
Y1126610D02*
D03*
X625060D02*
D03*
Y1131610D02*
D03*
Y1136610D02*
D03*
Y1141610D02*
D03*
D76*
X580720Y939800D02*
D03*
X424180Y964870D02*
D03*
X578180Y830580D02*
D03*
X424180Y855650D02*
D03*
X578180Y721360D02*
D03*
X424180Y746430D02*
D03*
D77*
X552120Y939800D02*
D03*
X424180Y993470D02*
D03*
X549580Y830580D02*
D03*
X424180Y884250D02*
D03*
X549580Y721360D02*
D03*
X424180Y775030D02*
D03*
D78*
X525040Y1027430D02*
D03*
X496040D02*
D03*
X493500Y808990D02*
D03*
X522500D02*
D03*
X493500Y918210D02*
D03*
X522500D02*
D03*
D79*
X405130Y961780D02*
D03*
Y978780D02*
D03*
Y869560D02*
D03*
Y852560D02*
D03*
Y760340D02*
D03*
Y743340D02*
D03*
D80*
X542500Y963930D02*
D03*
Y976630D02*
D03*
Y989330D02*
D03*
Y1002030D02*
D03*
X449580Y963930D02*
D03*
Y976630D02*
D03*
Y989330D02*
D03*
Y1002030D02*
D03*
X540490Y892810D02*
D03*
Y880110D02*
D03*
Y867410D02*
D03*
Y854710D02*
D03*
X449790Y892810D02*
D03*
Y880110D02*
D03*
Y867410D02*
D03*
Y854710D02*
D03*
X541020Y783590D02*
D03*
Y770890D02*
D03*
Y758190D02*
D03*
Y745490D02*
D03*
X449790Y783590D02*
D03*
Y770890D02*
D03*
Y758190D02*
D03*
Y745490D02*
D03*
D81*
X549030Y920750D02*
D03*
X566030D02*
D03*
X563490Y811530D02*
D03*
X546490D02*
D03*
X563490Y702310D02*
D03*
X546490D02*
D03*
D82*
X873390Y735490D02*
D03*
Y745490D02*
D03*
Y755490D02*
D03*
Y1025050D02*
D03*
Y1035050D02*
D03*
Y1045050D02*
D03*
D83*
X912140Y768490D02*
D03*
Y722490D02*
D03*
Y1058050D02*
D03*
Y1012050D02*
D03*
D84*
X637140Y765810D02*
D03*
X650640D02*
D03*
X637540Y816610D02*
D03*
X651040D02*
D03*
X637540Y866140D02*
D03*
X651040D02*
D03*
X783990Y1109980D02*
D03*
X770490D02*
D03*
D85*
X656000Y1137920D02*
D03*
X664800D02*
D03*
X669880Y1125220D02*
D03*
X661080D02*
D03*
D86*
X604490Y1069340D02*
D03*
X632490D02*
D03*
D87*
X533400Y1079600D02*
D03*
Y1155600D02*
D03*
X436880Y1079600D02*
D03*
Y1155600D02*
D03*
D88*
X810768Y1139190D02*
D03*
X832612D02*
D03*
D89*
X811690Y1107440D02*
D03*
X831690D02*
D03*
X811690Y1087120D02*
D03*
X831690D02*
D03*
D90*
X652780Y801560D02*
D03*
Y793560D02*
D03*
Y851090D02*
D03*
Y843090D02*
D03*
Y900620D02*
D03*
Y892620D02*
D03*
D91*
X586740Y1167050D02*
D03*
Y1157050D02*
D03*
D92*
X609520Y1174750D02*
D03*
X599520D02*
D03*
D93*
X598170Y1108180D02*
D03*
Y1137180D02*
D03*
D94*
X728980Y1107440D02*
D03*
X750570D02*
D03*
D95*
X728980Y1088390D02*
D03*
X750570D02*
D03*
D96*
X881380Y1153160D02*
D03*
X341630Y674370D02*
D03*
Y1153160D02*
D03*
X881380Y674370D02*
D03*
D97*
X730390Y637760D02*
D03*
Y665260D02*
D03*
X720090Y1189550D02*
D03*
Y1162050D02*
D03*
X603596Y637760D02*
D03*
Y665260D02*
D03*
D98*
X865023Y836970D02*
D03*
Y923370D02*
D03*
D99*
X903273Y836970D02*
D03*
Y923370D02*
D03*
D100*
X872273Y850170D02*
D03*
D101*
Y910170D02*
D03*
D102*
X336550Y1076960D02*
D03*
Y1000760D02*
D03*
Y924560D02*
D03*
Y848360D02*
D03*
Y772160D02*
D03*
D103*
X316550Y1096010D02*
D03*
Y1057910D02*
D03*
Y1019810D02*
D03*
Y981710D02*
D03*
Y943610D02*
D03*
Y905510D02*
D03*
Y867410D02*
D03*
Y829310D02*
D03*
Y791210D02*
D03*
Y753110D02*
D03*
M02*
