G04*
G04 #@! TF.GenerationSoftware,Altium Limited,Altium Designer,24.2.2 (26)*
G04*
G04 Layer_Color=10066410*
%FSLAX44Y44*%
%MOMM*%
G71*
G04*
G04 #@! TF.SameCoordinates,AEDDF3BC-744E-4892-9196-95ED917E8FD6*
G04*
G04*
G04 #@! TF.FilePolarity,Negative*
G04*
G01*
G75*
%ADD22R,2.1741X0.5834*%
G04:AMPARAMS|DCode=23|XSize=2.1741mm|YSize=0.5834mm|CornerRadius=0.2917mm|HoleSize=0mm|Usage=FLASHONLY|Rotation=0.000|XOffset=0mm|YOffset=0mm|HoleType=Round|Shape=RoundedRectangle|*
%AMROUNDEDRECTD23*
21,1,2.1741,0.0000,0,0,0.0*
21,1,1.5907,0.5834,0,0,0.0*
1,1,0.5834,0.7953,0.0000*
1,1,0.5834,-0.7953,0.0000*
1,1,0.5834,-0.7953,0.0000*
1,1,0.5834,0.7953,0.0000*
%
%ADD23ROUNDEDRECTD23*%
%ADD45R,1.0000X0.5200*%
%ADD46R,1.0000X0.2700*%
%ADD47R,2.0000X1.0000*%
%ADD60R,0.7000X0.5000*%
%ADD61R,0.5500X0.4000*%
%ADD62R,0.8000X0.3000*%
%ADD63R,1.5052X0.5721*%
G04:AMPARAMS|DCode=64|XSize=1.5052mm|YSize=0.5721mm|CornerRadius=0.2861mm|HoleSize=0mm|Usage=FLASHONLY|Rotation=180.000|XOffset=0mm|YOffset=0mm|HoleType=Round|Shape=RoundedRectangle|*
%AMROUNDEDRECTD64*
21,1,1.5052,0.0000,0,0,180.0*
21,1,0.9331,0.5721,0,0,180.0*
1,1,0.5721,-0.4666,0.0000*
1,1,0.5721,0.4666,0.0000*
1,1,0.5721,0.4666,0.0000*
1,1,0.5721,-0.4666,0.0000*
%
%ADD64ROUNDEDRECTD64*%
%ADD65R,1.7524X3.3524*%
%ADD66R,2.9464X2.1463*%
%ADD67R,2.9524X1.7524*%
%ADD68R,2.6524X1.7524*%
%ADD69R,1.7500X1.2000*%
%ADD70R,0.5024X0.5524*%
%ADD71R,1.1000X1.2000*%
%ADD72R,0.5524X0.5024*%
%ADD73R,0.7524X1.7024*%
%ADD74R,1.3524X1.9524*%
G04:AMPARAMS|DCode=75|XSize=0.3524mm|YSize=0.9924mm|CornerRadius=0.1012mm|HoleSize=0mm|Usage=FLASHONLY|Rotation=270.000|XOffset=0mm|YOffset=0mm|HoleType=Round|Shape=RoundedRectangle|*
%AMROUNDEDRECTD75*
21,1,0.3524,0.7900,0,0,270.0*
21,1,0.1500,0.9924,0,0,270.0*
1,1,0.2024,-0.3950,-0.0750*
1,1,0.2024,-0.3950,0.0750*
1,1,0.2024,0.3950,0.0750*
1,1,0.2024,0.3950,-0.0750*
%
%ADD75ROUNDEDRECTD75*%
G04:AMPARAMS|DCode=76|XSize=0.9924mm|YSize=0.3524mm|CornerRadius=0.1012mm|HoleSize=0mm|Usage=FLASHONLY|Rotation=270.000|XOffset=0mm|YOffset=0mm|HoleType=Round|Shape=RoundedRectangle|*
%AMROUNDEDRECTD76*
21,1,0.9924,0.1500,0,0,270.0*
21,1,0.7900,0.3524,0,0,270.0*
1,1,0.2024,-0.0750,-0.3950*
1,1,0.2024,-0.0750,0.3950*
1,1,0.2024,0.0750,0.3950*
1,1,0.2024,0.0750,-0.3950*
%
%ADD76ROUNDEDRECTD76*%
%ADD77R,3.2524X3.2524*%
%ADD78R,1.3524X1.5524*%
%ADD79R,1.1524X0.8524*%
G04:AMPARAMS|DCode=80|XSize=0.8224mm|YSize=0.4524mm|CornerRadius=0.1257mm|HoleSize=0mm|Usage=FLASHONLY|Rotation=0.000|XOffset=0mm|YOffset=0mm|HoleType=Round|Shape=RoundedRectangle|*
%AMROUNDEDRECTD80*
21,1,0.8224,0.2010,0,0,0.0*
21,1,0.5710,0.4524,0,0,0.0*
1,1,0.2514,0.2855,-0.1005*
1,1,0.2514,-0.2855,-0.1005*
1,1,0.2514,-0.2855,0.1005*
1,1,0.2514,0.2855,0.1005*
%
%ADD80ROUNDEDRECTD80*%
%ADD81R,1.3524X1.3524*%
%ADD82R,1.3524X1.3524*%
%ADD83R,1.4524X1.9524*%
%ADD84R,0.9524X1.0524*%
%ADD85R,0.8500X0.5000*%
%ADD86R,1.0524X0.9524*%
%ADD87R,1.7024X0.7524*%
%ADD88R,1.9524X1.3524*%
%ADD89R,1.0524X1.1524*%
%ADD90R,0.7524X0.7924*%
%ADD91R,1.5494X3.1496*%
%ADD92R,1.1524X1.3524*%
%ADD93R,0.6524X0.5524*%
%ADD94R,0.7524X0.6524*%
%ADD95R,0.6524X0.7524*%
%ADD96R,1.9524X1.4524*%
%ADD97R,1.2446X2.1590*%
%ADD98R,1.2446X0.9398*%
%ADD99C,5.7524*%
%ADD100R,0.1524X0.1524*%
G04:AMPARAMS|DCode=101|XSize=1.3mm|YSize=2.3mm|CornerRadius=0.65mm|HoleSize=0mm|Usage=FLASHONLY|Rotation=90.000|XOffset=0mm|YOffset=0mm|HoleType=Round|Shape=RoundedRectangle|*
%AMROUNDEDRECTD101*
21,1,1.3000,1.0000,0,0,90.0*
21,1,0.0000,2.3000,0,0,90.0*
1,1,1.3000,0.5000,0.0000*
1,1,1.3000,0.5000,0.0000*
1,1,1.3000,-0.5000,0.0000*
1,1,1.3000,-0.5000,0.0000*
%
%ADD101ROUNDEDRECTD101*%
G04:AMPARAMS|DCode=102|XSize=1.3mm|YSize=2.6mm|CornerRadius=0.65mm|HoleSize=0mm|Usage=FLASHONLY|Rotation=90.000|XOffset=0mm|YOffset=0mm|HoleType=Round|Shape=RoundedRectangle|*
%AMROUNDEDRECTD102*
21,1,1.3000,1.3000,0,0,90.0*
21,1,0.0000,2.6000,0,0,90.0*
1,1,1.3000,0.6500,0.0000*
1,1,1.3000,0.6500,0.0000*
1,1,1.3000,-0.6500,0.0000*
1,1,1.3000,-0.6500,0.0000*
%
%ADD102ROUNDEDRECTD102*%
%ADD103C,0.6000*%
G04:AMPARAMS|DCode=104|XSize=0.85mm|YSize=0.6mm|CornerRadius=0.3mm|HoleSize=0mm|Usage=FLASHONLY|Rotation=90.000|XOffset=0mm|YOffset=0mm|HoleType=Round|Shape=RoundedRectangle|*
%AMROUNDEDRECTD104*
21,1,0.8500,0.0000,0,0,90.0*
21,1,0.2500,0.6000,0,0,90.0*
1,1,0.6000,0.0000,0.1250*
1,1,0.6000,0.0000,-0.1250*
1,1,0.6000,0.0000,-0.1250*
1,1,0.6000,0.0000,0.1250*
%
%ADD104ROUNDEDRECTD104*%
%ADD105R,6.6524X6.1524*%
%ADD106C,1.8034*%
%ADD107C,0.6604*%
G36*
X901185Y1110735D02*
X901301Y1110707D01*
X901412Y1110661D01*
X901514Y1110598D01*
X901606Y1110520D01*
X901683Y1110429D01*
X901746Y1110327D01*
X901792Y1110216D01*
X901820Y1110100D01*
X901829Y1109980D01*
Y1097280D01*
X901820Y1097160D01*
X901792Y1097044D01*
X901746Y1096933D01*
X901683Y1096831D01*
X901606Y1096740D01*
X901514Y1096662D01*
X901412Y1096599D01*
X901301Y1096553D01*
X901185Y1096525D01*
X901065Y1096516D01*
X889000D01*
X888880Y1096525D01*
X888764Y1096553D01*
X888653Y1096599D01*
X888551Y1096662D01*
X888459Y1096740D01*
X888382Y1096831D01*
X888319Y1096933D01*
X888273Y1097044D01*
X888245Y1097160D01*
X888236Y1097280D01*
X888245Y1097400D01*
X888273Y1097516D01*
X888319Y1097627D01*
X888382Y1097729D01*
X888459Y1097821D01*
X894269Y1103630D01*
X888459Y1109439D01*
X888382Y1109531D01*
X888319Y1109633D01*
X888273Y1109744D01*
X888245Y1109860D01*
X888236Y1109980D01*
X888245Y1110100D01*
X888273Y1110216D01*
X888319Y1110327D01*
X888382Y1110429D01*
X888459Y1110520D01*
X888551Y1110598D01*
X888653Y1110661D01*
X888764Y1110707D01*
X888880Y1110735D01*
X889000Y1110744D01*
X901065D01*
X901185Y1110735D01*
D02*
G37*
G36*
X884597Y1110741D02*
X884639Y1110740D01*
X884656Y1110736D01*
X884675Y1110735D01*
X884715Y1110725D01*
X884756Y1110717D01*
X884773Y1110711D01*
X884791Y1110707D01*
X884830Y1110691D01*
X884869Y1110677D01*
X884885Y1110668D01*
X884902Y1110661D01*
X884938Y1110639D01*
X884974Y1110619D01*
X884989Y1110608D01*
X885004Y1110598D01*
X885036Y1110571D01*
X885069Y1110546D01*
X892054Y1104196D01*
X892079Y1104169D01*
X892106Y1104144D01*
X892120Y1104125D01*
X892136Y1104108D01*
X892157Y1104078D01*
X892179Y1104049D01*
X892190Y1104029D01*
X892204Y1104009D01*
X892219Y1103976D01*
X892237Y1103944D01*
X892245Y1103922D01*
X892255Y1103901D01*
X892265Y1103866D01*
X892277Y1103831D01*
X892282Y1103808D01*
X892288Y1103785D01*
X892293Y1103749D01*
X892300Y1103714D01*
X892300Y1103690D01*
X892303Y1103666D01*
X892302Y1103630D01*
X892303Y1103594D01*
X892300Y1103570D01*
X892300Y1103547D01*
X892293Y1103511D01*
X892288Y1103475D01*
X892282Y1103452D01*
X892277Y1103429D01*
X892265Y1103395D01*
X892255Y1103360D01*
X892245Y1103338D01*
X892237Y1103316D01*
X892219Y1103284D01*
X892204Y1103251D01*
X892190Y1103231D01*
X892179Y1103211D01*
X892157Y1103182D01*
X892136Y1103152D01*
X892120Y1103135D01*
X892106Y1103116D01*
X892079Y1103091D01*
X892054Y1103064D01*
X885069Y1096714D01*
X885036Y1096689D01*
X885004Y1096662D01*
X884989Y1096652D01*
X884974Y1096641D01*
X884938Y1096621D01*
X884902Y1096599D01*
X884885Y1096592D01*
X884869Y1096583D01*
X884830Y1096569D01*
X884791Y1096553D01*
X884773Y1096549D01*
X884756Y1096543D01*
X884715Y1096535D01*
X884675Y1096525D01*
X884656Y1096524D01*
X884639Y1096520D01*
X884597Y1096519D01*
X884555Y1096516D01*
X878205D01*
X878085Y1096525D01*
X877969Y1096553D01*
X877858Y1096599D01*
X877756Y1096662D01*
X877664Y1096740D01*
X877587Y1096831D01*
X877524Y1096933D01*
X877478Y1097044D01*
X877450Y1097160D01*
X877441Y1097280D01*
Y1109980D01*
X877450Y1110100D01*
X877478Y1110216D01*
X877524Y1110327D01*
X877587Y1110429D01*
X877664Y1110520D01*
X877756Y1110598D01*
X877858Y1110661D01*
X877969Y1110707D01*
X878085Y1110735D01*
X878205Y1110744D01*
X884555D01*
X884597Y1110741D01*
D02*
G37*
G36*
X715765Y1044695D02*
X715881Y1044667D01*
X715992Y1044621D01*
X716094Y1044558D01*
X716186Y1044481D01*
X716263Y1044389D01*
X716326Y1044287D01*
X716372Y1044176D01*
X716400Y1044060D01*
X716409Y1043940D01*
Y1031240D01*
X716400Y1031120D01*
X716372Y1031004D01*
X716326Y1030893D01*
X716263Y1030791D01*
X716186Y1030699D01*
X716094Y1030622D01*
X715992Y1030559D01*
X715881Y1030513D01*
X715765Y1030485D01*
X715645Y1030476D01*
X703580D01*
X703460Y1030485D01*
X703344Y1030513D01*
X703233Y1030559D01*
X703131Y1030622D01*
X703039Y1030699D01*
X702962Y1030791D01*
X702899Y1030893D01*
X702853Y1031004D01*
X702825Y1031120D01*
X702816Y1031240D01*
X702825Y1031360D01*
X702853Y1031476D01*
X702899Y1031587D01*
X702962Y1031689D01*
X703039Y1031780D01*
X708849Y1037590D01*
X703039Y1043400D01*
X702962Y1043491D01*
X702899Y1043593D01*
X702853Y1043704D01*
X702825Y1043820D01*
X702816Y1043940D01*
X702825Y1044060D01*
X702853Y1044176D01*
X702899Y1044287D01*
X702962Y1044389D01*
X703039Y1044481D01*
X703131Y1044558D01*
X703233Y1044621D01*
X703344Y1044667D01*
X703460Y1044695D01*
X703580Y1044704D01*
X715645D01*
X715765Y1044695D01*
D02*
G37*
G36*
X699177Y1044701D02*
X699219Y1044700D01*
X699236Y1044696D01*
X699255Y1044695D01*
X699295Y1044685D01*
X699336Y1044677D01*
X699353Y1044671D01*
X699371Y1044667D01*
X699410Y1044651D01*
X699449Y1044637D01*
X699465Y1044628D01*
X699482Y1044621D01*
X699518Y1044599D01*
X699554Y1044579D01*
X699569Y1044568D01*
X699584Y1044558D01*
X699616Y1044531D01*
X699649Y1044506D01*
X706634Y1038156D01*
X706659Y1038129D01*
X706686Y1038104D01*
X706700Y1038085D01*
X706716Y1038068D01*
X706737Y1038038D01*
X706759Y1038009D01*
X706770Y1037989D01*
X706784Y1037969D01*
X706799Y1037936D01*
X706817Y1037904D01*
X706825Y1037882D01*
X706835Y1037860D01*
X706845Y1037826D01*
X706857Y1037791D01*
X706862Y1037768D01*
X706868Y1037745D01*
X706873Y1037709D01*
X706880Y1037673D01*
X706880Y1037650D01*
X706883Y1037626D01*
X706882Y1037590D01*
X706883Y1037554D01*
X706880Y1037530D01*
X706880Y1037506D01*
X706873Y1037471D01*
X706868Y1037435D01*
X706862Y1037412D01*
X706857Y1037389D01*
X706845Y1037355D01*
X706835Y1037319D01*
X706825Y1037298D01*
X706817Y1037276D01*
X706799Y1037244D01*
X706784Y1037211D01*
X706770Y1037191D01*
X706759Y1037171D01*
X706737Y1037142D01*
X706716Y1037112D01*
X706700Y1037094D01*
X706686Y1037076D01*
X706659Y1037051D01*
X706634Y1037024D01*
X699649Y1030674D01*
X699616Y1030649D01*
X699584Y1030622D01*
X699569Y1030612D01*
X699554Y1030601D01*
X699518Y1030581D01*
X699482Y1030559D01*
X699465Y1030552D01*
X699449Y1030543D01*
X699410Y1030529D01*
X699371Y1030513D01*
X699353Y1030509D01*
X699336Y1030503D01*
X699295Y1030495D01*
X699255Y1030485D01*
X699236Y1030484D01*
X699219Y1030480D01*
X699177Y1030479D01*
X699135Y1030476D01*
X692785D01*
X692665Y1030485D01*
X692549Y1030513D01*
X692438Y1030559D01*
X692336Y1030622D01*
X692244Y1030699D01*
X692167Y1030791D01*
X692104Y1030893D01*
X692058Y1031004D01*
X692030Y1031120D01*
X692021Y1031240D01*
Y1043940D01*
X692030Y1044060D01*
X692058Y1044176D01*
X692104Y1044287D01*
X692167Y1044389D01*
X692244Y1044481D01*
X692336Y1044558D01*
X692438Y1044621D01*
X692549Y1044667D01*
X692665Y1044695D01*
X692785Y1044704D01*
X699135D01*
X699177Y1044701D01*
D02*
G37*
G36*
X684955Y888020D02*
X685139Y887903D01*
X685332Y887802D01*
X685534Y887719D01*
X685742Y887653D01*
X685956Y887606D01*
X686172Y887577D01*
X686390Y887568D01*
X688638D01*
Y869107D01*
X687104Y867572D01*
X686390D01*
X686172Y867563D01*
X685955Y867534D01*
X685742Y867487D01*
X685534Y867421D01*
X685451Y867387D01*
X685332Y867338D01*
X685139Y867237D01*
X684955Y867120D01*
X684890Y867070D01*
X684825Y867120D01*
X684641Y867237D01*
X684448Y867338D01*
X684246Y867421D01*
X684038Y867487D01*
X683825Y867534D01*
X683608Y867563D01*
X683390Y867572D01*
X681390D01*
X681172Y867563D01*
X680956Y867534D01*
X680742Y867487D01*
X680534Y867421D01*
X680332Y867338D01*
X680139Y867237D01*
X679955Y867120D01*
X679890Y867070D01*
X679825Y867120D01*
X679641Y867237D01*
X679448Y867338D01*
X679246Y867421D01*
X679038Y867487D01*
X678825Y867534D01*
X678608Y867563D01*
X678390Y867572D01*
X678390D01*
D01*
X676142D01*
Y887568D01*
X678390D01*
X678608Y887577D01*
X678825Y887606D01*
X679038Y887653D01*
X679246Y887719D01*
X679448Y887802D01*
X679641Y887903D01*
X679825Y888020D01*
X679890Y888070D01*
X679955Y888020D01*
X680139Y887903D01*
X680332Y887802D01*
X680534Y887719D01*
X680742Y887653D01*
X680956Y887606D01*
X681172Y887577D01*
X681390Y887568D01*
X683390D01*
X683608Y887577D01*
X683825Y887606D01*
X684038Y887653D01*
X684246Y887719D01*
X684448Y887802D01*
X684641Y887903D01*
X684825Y888020D01*
X684890Y888070D01*
X684955Y888020D01*
D02*
G37*
G36*
Y838490D02*
X685139Y838373D01*
X685332Y838272D01*
X685534Y838188D01*
X685742Y838123D01*
X685956Y838076D01*
X686172Y838047D01*
X686390Y838038D01*
X688638D01*
Y819576D01*
X687104Y818042D01*
X686390D01*
X686172Y818033D01*
X685955Y818004D01*
X685742Y817957D01*
X685534Y817891D01*
X685451Y817857D01*
X685332Y817808D01*
X685139Y817707D01*
X684955Y817590D01*
X684890Y817540D01*
X684825Y817590D01*
X684641Y817707D01*
X684448Y817808D01*
X684246Y817891D01*
X684038Y817957D01*
X683825Y818004D01*
X683608Y818033D01*
X683390Y818042D01*
X681390D01*
X681172Y818033D01*
X680956Y818004D01*
X680742Y817957D01*
X680534Y817891D01*
X680332Y817808D01*
X680139Y817707D01*
X679955Y817590D01*
X679890Y817540D01*
X679825Y817590D01*
X679641Y817707D01*
X679448Y817808D01*
X679246Y817891D01*
X679038Y817957D01*
X678825Y818004D01*
X678608Y818033D01*
X678390Y818042D01*
X678390D01*
D01*
X676142D01*
Y838038D01*
X678390D01*
X678608Y838047D01*
X678825Y838076D01*
X679038Y838123D01*
X679246Y838188D01*
X679448Y838272D01*
X679641Y838373D01*
X679825Y838490D01*
X679890Y838540D01*
X679955Y838490D01*
X680139Y838373D01*
X680332Y838272D01*
X680534Y838188D01*
X680742Y838123D01*
X680956Y838076D01*
X681172Y838047D01*
X681390Y838038D01*
X683390D01*
X683608Y838047D01*
X683825Y838076D01*
X684038Y838123D01*
X684246Y838188D01*
X684448Y838272D01*
X684641Y838373D01*
X684825Y838490D01*
X684890Y838540D01*
X684955Y838490D01*
D02*
G37*
G36*
X684555Y787690D02*
X684739Y787573D01*
X684932Y787472D01*
X685134Y787389D01*
X685342Y787323D01*
X685555Y787276D01*
X685772Y787247D01*
X685990Y787238D01*
X688238D01*
Y768776D01*
X686703Y767242D01*
X685990D01*
X685772Y767233D01*
X685555Y767204D01*
X685342Y767157D01*
X685134Y767092D01*
X685051Y767057D01*
X684932Y767008D01*
X684739Y766907D01*
X684555Y766790D01*
X684490Y766740D01*
X684425Y766790D01*
X684241Y766907D01*
X684048Y767008D01*
X683846Y767092D01*
X683638Y767157D01*
X683425Y767204D01*
X683208Y767233D01*
X682990Y767242D01*
X680990D01*
X680772Y767233D01*
X680555Y767204D01*
X680342Y767157D01*
X680134Y767092D01*
X679932Y767008D01*
X679739Y766907D01*
X679555Y766790D01*
X679490Y766740D01*
X679425Y766790D01*
X679241Y766907D01*
X679048Y767008D01*
X678846Y767092D01*
X678638Y767157D01*
X678425Y767204D01*
X678208Y767233D01*
X677990Y767242D01*
D01*
X677990D01*
X675742D01*
Y787238D01*
X677990D01*
X678208Y787247D01*
X678425Y787276D01*
X678638Y787323D01*
X678846Y787389D01*
X679048Y787472D01*
X679241Y787573D01*
X679425Y787690D01*
X679490Y787740D01*
X679555Y787690D01*
X679739Y787573D01*
X679932Y787472D01*
X680134Y787389D01*
X680342Y787323D01*
X680555Y787276D01*
X680772Y787247D01*
X680990Y787238D01*
X682990D01*
X683208Y787247D01*
X683425Y787276D01*
X683638Y787323D01*
X683846Y787389D01*
X684048Y787472D01*
X684241Y787573D01*
X684425Y787690D01*
X684490Y787740D01*
X684555Y787690D01*
D02*
G37*
D22*
X763739Y1056640D02*
D03*
D23*
Y1043940D02*
D03*
Y1031240D02*
D03*
Y1018540D02*
D03*
X811061D02*
D03*
Y1031240D02*
D03*
Y1043940D02*
D03*
Y1056640D02*
D03*
D45*
X861273Y849170D02*
D03*
Y856670D02*
D03*
Y911170D02*
D03*
Y903670D02*
D03*
D46*
Y862670D02*
D03*
Y867670D02*
D03*
Y872670D02*
D03*
Y877670D02*
D03*
Y882670D02*
D03*
Y887670D02*
D03*
Y892670D02*
D03*
Y897670D02*
D03*
D47*
X903273Y866170D02*
D03*
Y894170D02*
D03*
D60*
X810140Y656590D02*
D03*
X795140D02*
D03*
D61*
X809390Y663840D02*
D03*
X795890D02*
D03*
X809390Y649340D02*
D03*
X795890D02*
D03*
D62*
X667390Y818040D02*
D03*
Y823040D02*
D03*
Y828040D02*
D03*
Y833040D02*
D03*
Y838040D02*
D03*
X697390D02*
D03*
Y833040D02*
D03*
Y828040D02*
D03*
Y823040D02*
D03*
Y818040D02*
D03*
X667390Y867570D02*
D03*
Y872570D02*
D03*
Y877570D02*
D03*
Y882570D02*
D03*
Y887570D02*
D03*
X697390D02*
D03*
Y882570D02*
D03*
Y877570D02*
D03*
Y872570D02*
D03*
Y867570D02*
D03*
X666990Y767240D02*
D03*
Y772240D02*
D03*
Y777240D02*
D03*
Y782240D02*
D03*
Y787240D02*
D03*
X696990D02*
D03*
Y782240D02*
D03*
Y777240D02*
D03*
Y772240D02*
D03*
Y767240D02*
D03*
D63*
X793245Y749960D02*
D03*
Y831240D02*
D03*
Y790600D02*
D03*
D64*
Y759460D02*
D03*
Y768960D02*
D03*
X771235D02*
D03*
Y749960D02*
D03*
X793245Y840740D02*
D03*
Y850240D02*
D03*
X771235D02*
D03*
Y831240D02*
D03*
X793245Y800100D02*
D03*
Y809600D02*
D03*
X771235D02*
D03*
Y790600D02*
D03*
D65*
X501650Y1124820D02*
D03*
Y1074820D02*
D03*
X425450Y1125690D02*
D03*
Y1075690D02*
D03*
D66*
X685220Y1063003D02*
D03*
Y1105040D02*
D03*
D67*
X591910Y1065530D02*
D03*
X634910D02*
D03*
D68*
X812520Y1093470D02*
D03*
X777520D02*
D03*
D69*
X704140Y660010D02*
D03*
X756640D02*
D03*
X704140Y643010D02*
D03*
X756640D02*
D03*
X746340Y1167300D02*
D03*
X693840D02*
D03*
X746340Y1184300D02*
D03*
X693840D02*
D03*
X577346Y660010D02*
D03*
X629846D02*
D03*
X577346Y643010D02*
D03*
X629846D02*
D03*
D70*
X807640Y695990D02*
D03*
Y689790D02*
D03*
X855270Y821690D02*
D03*
X861770D02*
D03*
X856540Y938530D02*
D03*
X863040D02*
D03*
X754380Y992430D02*
D03*
Y986230D02*
D03*
X733350Y1065530D02*
D03*
X739850D02*
D03*
Y1074420D02*
D03*
X733350D02*
D03*
X819860Y930910D02*
D03*
X813360D02*
D03*
X819860Y922020D02*
D03*
X813360D02*
D03*
X797560Y992430D02*
D03*
Y986230D02*
D03*
X756920Y877570D02*
D03*
Y883770D02*
D03*
X800100Y882090D02*
D03*
Y888290D02*
D03*
X822250Y665480D02*
D03*
X828750D02*
D03*
X822250Y647700D02*
D03*
X828750D02*
D03*
X822250Y656590D02*
D03*
X828750D02*
D03*
X761210Y723370D02*
D03*
X767710D02*
D03*
X801850D02*
D03*
X808350D02*
D03*
X761210Y714480D02*
D03*
X767710D02*
D03*
X801850D02*
D03*
X808350D02*
D03*
X761210Y705590D02*
D03*
X767710D02*
D03*
X801850D02*
D03*
X808350D02*
D03*
X815260Y756210D02*
D03*
Y750010D02*
D03*
X754300Y754940D02*
D03*
Y748740D02*
D03*
X815260Y837490D02*
D03*
Y831290D02*
D03*
X754300Y836220D02*
D03*
Y830020D02*
D03*
X815260Y796850D02*
D03*
Y790650D02*
D03*
X754300Y795580D02*
D03*
Y789380D02*
D03*
D71*
X872310Y980360D02*
D03*
X913310D02*
D03*
X872310Y964360D02*
D03*
X913310D02*
D03*
D72*
X859790Y976730D02*
D03*
Y983230D02*
D03*
X828750Y1056640D02*
D03*
X834950D02*
D03*
X663650Y1019810D02*
D03*
X669850D02*
D03*
X671680Y961390D02*
D03*
X665480D02*
D03*
X662940Y1156410D02*
D03*
Y1149910D02*
D03*
X836220Y937260D02*
D03*
X830020D02*
D03*
X681990Y977340D02*
D03*
Y970840D02*
D03*
X706830Y925830D02*
D03*
X713030D02*
D03*
X836220Y946150D02*
D03*
X830020D02*
D03*
X819710Y913130D02*
D03*
X813510D02*
D03*
X706830Y934720D02*
D03*
X713030D02*
D03*
X819710Y895350D02*
D03*
X813510D02*
D03*
X819710Y904240D02*
D03*
X813510D02*
D03*
X654050Y1149910D02*
D03*
Y1156410D02*
D03*
X615950Y1156260D02*
D03*
Y1162760D02*
D03*
X607060Y1156260D02*
D03*
Y1162760D02*
D03*
X598170Y1156260D02*
D03*
Y1162760D02*
D03*
X791920Y1162050D02*
D03*
X798120D02*
D03*
X754300Y771600D02*
D03*
Y765100D02*
D03*
X793670Y696140D02*
D03*
Y689640D02*
D03*
X784780Y696140D02*
D03*
Y689640D02*
D03*
X775890Y696140D02*
D03*
Y689640D02*
D03*
X754300Y852880D02*
D03*
Y846380D02*
D03*
Y812240D02*
D03*
Y805740D02*
D03*
D73*
X444500Y681990D02*
D03*
X434500D02*
D03*
X424500D02*
D03*
X414500D02*
D03*
D74*
X457500Y643240D02*
D03*
X401500D02*
D03*
D75*
X730190Y963260D02*
D03*
Y959260D02*
D03*
Y955260D02*
D03*
Y951260D02*
D03*
Y947260D02*
D03*
Y943260D02*
D03*
Y939260D02*
D03*
Y935260D02*
D03*
Y931260D02*
D03*
Y927260D02*
D03*
Y923260D02*
D03*
Y919260D02*
D03*
Y915260D02*
D03*
Y911260D02*
D03*
X798890D02*
D03*
Y915260D02*
D03*
Y919260D02*
D03*
Y923260D02*
D03*
Y927260D02*
D03*
Y931260D02*
D03*
Y935260D02*
D03*
Y939260D02*
D03*
Y943260D02*
D03*
Y947260D02*
D03*
Y951260D02*
D03*
Y955260D02*
D03*
Y959260D02*
D03*
Y963260D02*
D03*
D76*
X790540Y971610D02*
D03*
X786540D02*
D03*
X782540D02*
D03*
X778540D02*
D03*
X774540D02*
D03*
X770540D02*
D03*
X766540D02*
D03*
X762540D02*
D03*
X758540D02*
D03*
X754540D02*
D03*
X750540D02*
D03*
X746540D02*
D03*
X742540D02*
D03*
X738540D02*
D03*
Y902910D02*
D03*
X742540D02*
D03*
X746540D02*
D03*
X750540D02*
D03*
X754540D02*
D03*
X758540D02*
D03*
X762540D02*
D03*
X766540D02*
D03*
X770540D02*
D03*
X774540D02*
D03*
X778540D02*
D03*
X782540D02*
D03*
X786540D02*
D03*
X790540D02*
D03*
D77*
X764540Y937260D02*
D03*
D78*
X666360Y979600D02*
D03*
X649360D02*
D03*
X666360Y1001600D02*
D03*
X649360D02*
D03*
D79*
X792045Y1148690D02*
D03*
Y1139190D02*
D03*
Y1129690D02*
D03*
X770055D02*
D03*
Y1139190D02*
D03*
Y1148690D02*
D03*
D80*
X639860Y1141610D02*
D03*
Y1136610D02*
D03*
Y1131610D02*
D03*
Y1126610D02*
D03*
X625060D02*
D03*
Y1131610D02*
D03*
Y1136610D02*
D03*
Y1141610D02*
D03*
D81*
X580720Y939800D02*
D03*
X424180Y964870D02*
D03*
X578180Y830580D02*
D03*
X424180Y855650D02*
D03*
X578180Y721360D02*
D03*
X424180Y746430D02*
D03*
D82*
X552120Y939800D02*
D03*
X424180Y993470D02*
D03*
X549580Y830580D02*
D03*
X424180Y884250D02*
D03*
X549580Y721360D02*
D03*
X424180Y775030D02*
D03*
D83*
X525040Y1027430D02*
D03*
X496040D02*
D03*
X493500Y808990D02*
D03*
X522500D02*
D03*
X493500Y918210D02*
D03*
X522500D02*
D03*
D84*
X405130Y961780D02*
D03*
Y978780D02*
D03*
Y869560D02*
D03*
Y852560D02*
D03*
Y760340D02*
D03*
Y743340D02*
D03*
D85*
X542500Y963930D02*
D03*
Y976630D02*
D03*
Y989330D02*
D03*
Y1002030D02*
D03*
X449580Y963930D02*
D03*
Y976630D02*
D03*
Y989330D02*
D03*
Y1002030D02*
D03*
X540490Y892810D02*
D03*
Y880110D02*
D03*
Y867410D02*
D03*
Y854710D02*
D03*
X449790Y892810D02*
D03*
Y880110D02*
D03*
Y867410D02*
D03*
Y854710D02*
D03*
X541020Y783590D02*
D03*
Y770890D02*
D03*
Y758190D02*
D03*
Y745490D02*
D03*
X449790Y783590D02*
D03*
Y770890D02*
D03*
Y758190D02*
D03*
Y745490D02*
D03*
D86*
X549030Y920750D02*
D03*
X566030D02*
D03*
X563490Y811530D02*
D03*
X546490D02*
D03*
X563490Y702310D02*
D03*
X546490D02*
D03*
D87*
X873390Y735490D02*
D03*
Y745490D02*
D03*
Y755490D02*
D03*
Y1025050D02*
D03*
Y1035050D02*
D03*
Y1045050D02*
D03*
D88*
X912140Y768490D02*
D03*
Y722490D02*
D03*
Y1058050D02*
D03*
Y1012050D02*
D03*
D89*
X637140Y765810D02*
D03*
X650640D02*
D03*
X637540Y816610D02*
D03*
X651040D02*
D03*
X637540Y866140D02*
D03*
X651040D02*
D03*
D90*
X656000Y1137920D02*
D03*
X664800D02*
D03*
X669880Y1125220D02*
D03*
X661080D02*
D03*
D91*
X810768Y1140460D02*
D03*
X832612D02*
D03*
D92*
X839630Y1106170D02*
D03*
X859630D02*
D03*
X839630Y1085850D02*
D03*
X859630D02*
D03*
D93*
X652780Y801560D02*
D03*
Y793560D02*
D03*
Y851090D02*
D03*
Y843090D02*
D03*
Y900620D02*
D03*
Y892620D02*
D03*
D94*
X586740Y1167050D02*
D03*
Y1157050D02*
D03*
D95*
X609520Y1174750D02*
D03*
X599520D02*
D03*
D96*
X598170Y1108180D02*
D03*
Y1137180D02*
D03*
D97*
X728980Y1107440D02*
D03*
X750570D02*
D03*
D98*
X728980Y1088390D02*
D03*
X750570D02*
D03*
D99*
X881380Y1153160D02*
D03*
X341630Y674370D02*
D03*
Y1153160D02*
D03*
X881380Y674370D02*
D03*
D100*
X730390Y637760D02*
D03*
Y665260D02*
D03*
X720090Y1189550D02*
D03*
Y1162050D02*
D03*
X603596Y637760D02*
D03*
Y665260D02*
D03*
D101*
X865023Y836970D02*
D03*
Y923370D02*
D03*
D102*
X903273Y836970D02*
D03*
Y923370D02*
D03*
D103*
X872273Y850170D02*
D03*
D104*
Y910170D02*
D03*
D105*
X336550Y1076960D02*
D03*
Y1000760D02*
D03*
Y924560D02*
D03*
Y848360D02*
D03*
Y772160D02*
D03*
D106*
X316550Y1096010D02*
D03*
Y1057910D02*
D03*
Y1019810D02*
D03*
Y981710D02*
D03*
Y943610D02*
D03*
Y905510D02*
D03*
Y867410D02*
D03*
Y829310D02*
D03*
Y791210D02*
D03*
Y753110D02*
D03*
D107*
X515620Y713740D02*
D03*
X594360Y721360D02*
D03*
X406400Y774700D02*
D03*
X405803Y884639D02*
D03*
X406400Y991870D02*
D03*
X515620Y834390D02*
D03*
X519130Y945177D02*
D03*
X576580Y814070D02*
D03*
X580390Y923290D02*
D03*
M02*
