G04*
G04 #@! TF.GenerationSoftware,Altium Limited,Altium Designer,24.2.2 (26)*
G04*
G04 Layer_Physical_Order=2*
G04 Layer_Color=16711680*
%FSLAX44Y44*%
%MOMM*%
G71*
G04*
G04 #@! TF.SameCoordinates,EFECB0DB-55D9-47D9-9B57-CE66261CE064*
G04*
G04*
G04 #@! TF.FilePolarity,Positive*
G04*
G01*
G75*
%ADD10C,0.2540*%
%ADD17C,0.1778*%
G04:AMPARAMS|DCode=98|XSize=1.3mm|YSize=2.3mm|CornerRadius=0.65mm|HoleSize=0mm|Usage=FLASHONLY|Rotation=90.000|XOffset=0mm|YOffset=0mm|HoleType=Round|Shape=RoundedRectangle|*
%AMROUNDEDRECTD98*
21,1,1.3000,1.0000,0,0,90.0*
21,1,0.0000,2.3000,0,0,90.0*
1,1,1.3000,0.5000,0.0000*
1,1,1.3000,0.5000,0.0000*
1,1,1.3000,-0.5000,0.0000*
1,1,1.3000,-0.5000,0.0000*
%
%ADD98ROUNDEDRECTD98*%
G04:AMPARAMS|DCode=99|XSize=1.3mm|YSize=2.6mm|CornerRadius=0.65mm|HoleSize=0mm|Usage=FLASHONLY|Rotation=90.000|XOffset=0mm|YOffset=0mm|HoleType=Round|Shape=RoundedRectangle|*
%AMROUNDEDRECTD99*
21,1,1.3000,1.3000,0,0,90.0*
21,1,0.0000,2.6000,0,0,90.0*
1,1,1.3000,0.6500,0.0000*
1,1,1.3000,0.6500,0.0000*
1,1,1.3000,-0.6500,0.0000*
1,1,1.3000,-0.6500,0.0000*
%
%ADD99ROUNDEDRECTD99*%
%ADD100C,0.6000*%
G04:AMPARAMS|DCode=101|XSize=0.85mm|YSize=0.6mm|CornerRadius=0.3mm|HoleSize=0mm|Usage=FLASHONLY|Rotation=90.000|XOffset=0mm|YOffset=0mm|HoleType=Round|Shape=RoundedRectangle|*
%AMROUNDEDRECTD101*
21,1,0.8500,0.0000,0,0,90.0*
21,1,0.2500,0.6000,0,0,90.0*
1,1,0.6000,0.0000,0.1250*
1,1,0.6000,0.0000,-0.1250*
1,1,0.6000,0.0000,-0.1250*
1,1,0.6000,0.0000,0.1250*
%
%ADD101ROUNDEDRECTD101*%
%ADD109C,0.2032*%
%ADD110C,0.3810*%
%ADD112C,5.6000*%
%ADD113R,6.5000X6.0000*%
%ADD114C,1.6510*%
%ADD115C,0.5080*%
%AMCUSTOMSHAPE116*
4,1,5,-0.6350,0.3175,0.0000,1.0160,0.6350,0.3175,0.6350,-0.3175,-0.6350,-0.3175,-0.6350,0.3175,0.0*%
%ADD116CUSTOMSHAPE116*%

%AMCUSTOMSHAPE117*
4,1,5,-0.6350,0.4445,0.6350,0.4445,0.6350,-0.7620,0.0000,-0.1270,-0.6350,-0.7620,-0.6350,0.4445,0.0*%
%ADD117CUSTOMSHAPE117*%

G36*
X714253Y1194268D02*
X714710Y1192998D01*
X713800Y1190801D01*
Y1188299D01*
X714758Y1185987D01*
X716527Y1184218D01*
X718839Y1183260D01*
X721341D01*
X723653Y1184218D01*
X725422Y1185987D01*
X726380Y1188299D01*
Y1190801D01*
X725470Y1192998D01*
X725927Y1194268D01*
X881380D01*
X884074D01*
X889417Y1193565D01*
X894622Y1192170D01*
X899601Y1190108D01*
X904268Y1187414D01*
X908543Y1184133D01*
X912353Y1180323D01*
X915634Y1176048D01*
X918328Y1171381D01*
X920390Y1166402D01*
X921785Y1161197D01*
X922488Y1155854D01*
X922488Y1153160D01*
X922488Y674370D01*
X922488Y671676D01*
X921785Y666333D01*
X920390Y661128D01*
X918328Y656149D01*
X915634Y651482D01*
X912353Y647207D01*
X908543Y643397D01*
X904268Y640116D01*
X899601Y637422D01*
X894622Y635360D01*
X889417Y633965D01*
X884074Y633262D01*
X881380D01*
X736447D01*
X735861Y634532D01*
X736680Y636509D01*
Y639011D01*
X735722Y641323D01*
X733953Y643092D01*
X731641Y644050D01*
X729139D01*
X726827Y643092D01*
X725058Y641323D01*
X724100Y639011D01*
Y636509D01*
X724919Y634532D01*
X724333Y633262D01*
X609652Y633262D01*
X609067Y634532D01*
X609886Y636509D01*
Y639011D01*
X608928Y641323D01*
X607159Y643092D01*
X604847Y644050D01*
X602345D01*
X600033Y643092D01*
X598263Y641323D01*
X597306Y639011D01*
Y636509D01*
X598125Y634532D01*
X597539Y633262D01*
X341630D01*
X338936D01*
X333593Y633965D01*
X328388Y635360D01*
X323409Y637422D01*
X318742Y640116D01*
X314467Y643397D01*
X310657Y647207D01*
X307376Y651482D01*
X304682Y656149D01*
X302620Y661128D01*
X301225Y666333D01*
X300522Y671676D01*
X300522Y674370D01*
Y738940D01*
X301510Y739620D01*
X301792Y739620D01*
X371590D01*
Y804700D01*
X301792D01*
X300522Y805380D01*
Y815140D01*
X301510Y815820D01*
X301792Y815820D01*
X371590D01*
Y880900D01*
X301792D01*
X300522Y881580D01*
Y891340D01*
X301510Y892020D01*
X301792Y892020D01*
X371590D01*
Y957100D01*
X301792D01*
X300522Y957780D01*
Y1043740D01*
X301510Y1044420D01*
X301792Y1044420D01*
X371590D01*
Y1109500D01*
X301792D01*
X300522Y1110180D01*
Y1153160D01*
Y1155854D01*
X301225Y1161197D01*
X302620Y1166402D01*
X304682Y1171381D01*
X307376Y1176048D01*
X310657Y1180323D01*
X314467Y1184133D01*
X318742Y1187414D01*
X323409Y1190108D01*
X328388Y1192170D01*
X333593Y1193565D01*
X338936Y1194268D01*
X341630Y1194268D01*
X714253Y1194268D01*
D02*
G37*
%LPC*%
G36*
X721341Y1168340D02*
X718839D01*
X716527Y1167382D01*
X714758Y1165613D01*
X713800Y1163301D01*
Y1160799D01*
X714758Y1158487D01*
X716527Y1156718D01*
X718839Y1155760D01*
X721341D01*
X723653Y1156718D01*
X725422Y1158487D01*
X726380Y1160799D01*
Y1163301D01*
X725422Y1165613D01*
X723653Y1167382D01*
X721341Y1168340D01*
D02*
G37*
G36*
X883784Y1183700D02*
X878976D01*
X874229Y1182948D01*
X869657Y1181462D01*
X865374Y1179280D01*
X861485Y1176455D01*
X858085Y1173055D01*
X855260Y1169166D01*
X853077Y1164883D01*
X851592Y1160312D01*
X850840Y1155564D01*
Y1150756D01*
X851592Y1146009D01*
X853077Y1141437D01*
X855260Y1137154D01*
X858085Y1133264D01*
X861485Y1129865D01*
X865374Y1127040D01*
X869657Y1124857D01*
X874229Y1123372D01*
X878976Y1122620D01*
X883784D01*
X888531Y1123372D01*
X893103Y1124857D01*
X897386Y1127040D01*
X901275Y1129865D01*
X904675Y1133264D01*
X907500Y1137154D01*
X909682Y1141437D01*
X911168Y1146009D01*
X911920Y1150756D01*
Y1155564D01*
X911168Y1160312D01*
X909682Y1164883D01*
X907500Y1169166D01*
X904675Y1173055D01*
X901275Y1176455D01*
X897386Y1179280D01*
X893103Y1181462D01*
X888531Y1182948D01*
X883784Y1183700D01*
D02*
G37*
G36*
X344034D02*
X339226D01*
X334478Y1182948D01*
X329907Y1181462D01*
X325624Y1179280D01*
X321735Y1176455D01*
X318335Y1173055D01*
X315510Y1169166D01*
X313328Y1164883D01*
X311842Y1160312D01*
X311090Y1155564D01*
Y1150756D01*
X311842Y1146009D01*
X313328Y1141437D01*
X315510Y1137154D01*
X318335Y1133264D01*
X321735Y1129865D01*
X325624Y1127040D01*
X329907Y1124857D01*
X334478Y1123372D01*
X339226Y1122620D01*
X344034D01*
X348782Y1123372D01*
X353353Y1124857D01*
X357636Y1127040D01*
X361525Y1129865D01*
X364925Y1133264D01*
X367750Y1137154D01*
X369933Y1141437D01*
X371418Y1146009D01*
X372170Y1150756D01*
Y1155564D01*
X371418Y1160312D01*
X369933Y1164883D01*
X367750Y1169166D01*
X364925Y1173055D01*
X361525Y1176455D01*
X357636Y1179280D01*
X353353Y1181462D01*
X348782Y1182948D01*
X344034Y1183700D01*
D02*
G37*
G36*
X674110Y1156970D02*
X672089D01*
X670222Y1156197D01*
X668793Y1154768D01*
X668020Y1152900D01*
Y1150880D01*
X668793Y1149012D01*
X670222Y1147583D01*
X672089Y1146810D01*
X673053D01*
X710114Y1109748D01*
Y1100309D01*
X709380Y1099210D01*
X709104Y1097822D01*
X709104Y1097822D01*
Y1088139D01*
X708423Y1087458D01*
X707650Y1085591D01*
Y1083569D01*
X708423Y1081702D01*
X709852Y1080273D01*
X711719Y1079500D01*
X713740D01*
X715607Y1080273D01*
X717036Y1081702D01*
X717810Y1083569D01*
Y1085591D01*
X717036Y1087458D01*
X716355Y1088139D01*
Y1096346D01*
X717090Y1097445D01*
X717366Y1098833D01*
Y1111250D01*
X717366Y1111250D01*
X717090Y1112637D01*
X716304Y1113814D01*
X716304Y1113814D01*
X678180Y1151937D01*
Y1152900D01*
X677407Y1154768D01*
X675978Y1156197D01*
X674110Y1156970D01*
D02*
G37*
G36*
X317971Y1030605D02*
X315129D01*
X312383Y1029869D01*
X309922Y1028448D01*
X307912Y1026438D01*
X306491Y1023977D01*
X305755Y1021231D01*
Y1018389D01*
X306491Y1015643D01*
X307912Y1013182D01*
X309922Y1011172D01*
X312383Y1009751D01*
X315129Y1009015D01*
X317971D01*
X320717Y1009751D01*
X323178Y1011172D01*
X325188Y1013182D01*
X326609Y1015643D01*
X327345Y1018389D01*
Y1021231D01*
X326609Y1023977D01*
X325188Y1026438D01*
X323178Y1028448D01*
X320717Y1029869D01*
X317971Y1030605D01*
D02*
G37*
G36*
Y992505D02*
X315129D01*
X312383Y991769D01*
X309922Y990348D01*
X307912Y988338D01*
X306491Y985877D01*
X305755Y983131D01*
Y980289D01*
X306491Y977543D01*
X307912Y975082D01*
X309922Y973072D01*
X312383Y971651D01*
X315129Y970915D01*
X317971D01*
X320717Y971651D01*
X323178Y973072D01*
X325188Y975082D01*
X326609Y977543D01*
X327345Y980289D01*
Y983131D01*
X326609Y985877D01*
X325188Y988338D01*
X323178Y990348D01*
X320717Y991769D01*
X317971Y992505D01*
D02*
G37*
G36*
X586480Y1184910D02*
X584459D01*
X582592Y1184137D01*
X581163Y1182708D01*
X580390Y1180841D01*
Y1178820D01*
X581163Y1176952D01*
X582592Y1175523D01*
X584459Y1174750D01*
X584980D01*
X678494Y1081236D01*
Y924560D01*
X678760Y923222D01*
X679518Y922088D01*
X713808Y887798D01*
X713808Y887798D01*
X714942Y887040D01*
X716280Y886774D01*
X777362D01*
X778172Y885963D01*
X780040Y885190D01*
X782060D01*
X783928Y885963D01*
X785357Y887392D01*
X786130Y889259D01*
Y891281D01*
X785357Y893148D01*
X783928Y894577D01*
X782060Y895350D01*
X780040D01*
X778172Y894577D01*
X777362Y893766D01*
X717728D01*
X685486Y926008D01*
Y973836D01*
X686756Y974392D01*
X687384Y973848D01*
Y963930D01*
X687650Y962592D01*
X688408Y961458D01*
X704850Y945016D01*
Y943869D01*
X705623Y942002D01*
X707052Y940573D01*
X708920Y939800D01*
X710940D01*
X712808Y940573D01*
X713545Y941311D01*
X714375Y941904D01*
X715205Y941311D01*
X715942Y940573D01*
X717810Y939800D01*
X719830D01*
X721698Y940573D01*
X723127Y942002D01*
X723900Y943869D01*
Y945891D01*
X723127Y947758D01*
X721698Y949187D01*
X719830Y949960D01*
X718684D01*
X699837Y968807D01*
Y986023D01*
X700267Y986452D01*
X701040Y988319D01*
Y990340D01*
X700267Y992208D01*
X698838Y993637D01*
X696971Y994410D01*
X694949D01*
X693082Y993637D01*
X691653Y992208D01*
X690880Y990340D01*
Y988319D01*
X691653Y986452D01*
X692845Y985261D01*
Y983618D01*
X691890Y982980D01*
X689870D01*
X688002Y982207D01*
X686756Y980960D01*
X685892Y981136D01*
X685486Y981350D01*
Y1082684D01*
X685486Y1082684D01*
X685220Y1084022D01*
X684462Y1085156D01*
X684462Y1085156D01*
X590550Y1179068D01*
Y1180841D01*
X589777Y1182708D01*
X588348Y1184137D01*
X586480Y1184910D01*
D02*
G37*
G36*
X783331Y1084580D02*
X781310D01*
X779442Y1083807D01*
X778013Y1082378D01*
X777240Y1080510D01*
Y1078490D01*
X778013Y1076622D01*
X779442Y1075193D01*
X781310Y1074420D01*
X782456D01*
X782634Y1074242D01*
Y1026338D01*
X769072Y1012776D01*
X767802Y1013303D01*
Y1016410D01*
X777220Y1025828D01*
X778543Y1026376D01*
X779972Y1027805D01*
X780745Y1029672D01*
Y1031693D01*
X779972Y1033560D01*
X778543Y1034989D01*
X776676Y1035763D01*
X774655D01*
X772788Y1034989D01*
X771359Y1033560D01*
X770811Y1032237D01*
X760065Y1021492D01*
X759083Y1020022D01*
X758738Y1018288D01*
Y994203D01*
X758190Y992880D01*
Y992856D01*
X757398Y992064D01*
X756416Y990594D01*
X756071Y988859D01*
Y969137D01*
X756416Y967403D01*
X757398Y965932D01*
X778764Y944566D01*
X778268Y943296D01*
X748030D01*
X748030Y943296D01*
X746692Y943030D01*
X745558Y942272D01*
X737120Y933834D01*
X736362Y932700D01*
X736096Y931362D01*
Y929518D01*
X735285Y928708D01*
X734512Y926841D01*
Y924819D01*
X735285Y922952D01*
X736714Y921523D01*
X738581Y920750D01*
X740602D01*
X742470Y921523D01*
X743899Y922952D01*
X744672Y924819D01*
Y926841D01*
X743899Y928708D01*
X743088Y929518D01*
Y929914D01*
X749478Y936304D01*
X783712D01*
X784522Y935493D01*
X786389Y934720D01*
X788410D01*
X789218Y935054D01*
X790488Y934206D01*
Y899160D01*
X790833Y897426D01*
X791815Y895955D01*
X797240Y890531D01*
X798710Y889548D01*
X800445Y889203D01*
X805413D01*
X808522Y886094D01*
Y884781D01*
X750285Y826544D01*
X748962Y825997D01*
X747533Y824568D01*
X746760Y822701D01*
Y820679D01*
X747429Y819065D01*
Y783333D01*
X747001Y782302D01*
Y780281D01*
X747549Y778958D01*
Y761579D01*
X742665Y756694D01*
X741342Y756147D01*
X739913Y754718D01*
X739140Y752850D01*
Y750829D01*
X739913Y748962D01*
X741342Y747533D01*
X743210Y746760D01*
X745230D01*
X747098Y747533D01*
X748527Y748962D01*
X749074Y750285D01*
X755286Y756497D01*
X755286Y756497D01*
X756269Y757967D01*
X756614Y759702D01*
Y778958D01*
X757161Y780281D01*
Y782302D01*
X756493Y783916D01*
Y819648D01*
X756694Y820135D01*
X816258Y879699D01*
X817241Y881169D01*
X817586Y882904D01*
X817586Y882904D01*
Y885173D01*
X817603Y885190D01*
X818377Y887057D01*
Y889078D01*
X817603Y890945D01*
X816174Y892374D01*
X814307Y893148D01*
X814287D01*
X810495Y896940D01*
X809024Y897922D01*
X807290Y898267D01*
X802322D01*
X799552Y901037D01*
Y939348D01*
X825893D01*
X837156Y928085D01*
X837703Y926762D01*
X839132Y925333D01*
X841000Y924560D01*
X843020D01*
X844888Y925333D01*
X846317Y926762D01*
X847090Y928630D01*
Y930650D01*
X846317Y932518D01*
X844888Y933947D01*
X843565Y934494D01*
X830975Y947085D01*
X829504Y948067D01*
X827770Y948412D01*
X796897D01*
X794685Y950625D01*
X793309Y951544D01*
X793298Y951636D01*
X794077Y952814D01*
X820420D01*
X821758Y953080D01*
X822892Y953838D01*
X849034Y979980D01*
X850640D01*
X852508Y980753D01*
X853937Y982182D01*
X854710Y984050D01*
Y986070D01*
X853937Y987938D01*
X852508Y989367D01*
X850640Y990140D01*
X848620D01*
X846752Y989367D01*
X845323Y987938D01*
X844550Y986070D01*
Y985384D01*
X818972Y959806D01*
X789818D01*
X789008Y960617D01*
X787141Y961390D01*
X785119D01*
X783252Y960617D01*
X781823Y959188D01*
X781050Y957320D01*
Y956895D01*
X779780Y956369D01*
X765135Y971014D01*
Y977276D01*
X766070Y977900D01*
X768091D01*
X769958Y978673D01*
X770890Y979606D01*
X771822Y978673D01*
X773689Y977900D01*
X775711D01*
X777578Y978673D01*
X779007Y980102D01*
X779145Y980436D01*
X780415D01*
X780553Y980102D01*
X781982Y978673D01*
X783849Y977900D01*
X785871D01*
X787738Y978673D01*
X789167Y980102D01*
X789940Y981970D01*
Y983990D01*
X789167Y985858D01*
X787738Y987287D01*
X785871Y988060D01*
X784724D01*
X784546Y988238D01*
Y1005662D01*
X793928Y1015044D01*
X834390D01*
X835728Y1015310D01*
X836862Y1016068D01*
X852348Y1031554D01*
X856102D01*
X856912Y1030743D01*
X858780Y1029970D01*
X860800D01*
X862668Y1030743D01*
X864097Y1032172D01*
X864870Y1034040D01*
Y1036060D01*
X864097Y1037928D01*
X862668Y1039357D01*
X862334Y1039495D01*
Y1040765D01*
X862668Y1040903D01*
X864097Y1042332D01*
X864870Y1044200D01*
Y1044625D01*
X866140Y1045151D01*
X878118Y1033173D01*
Y1009065D01*
X876300D01*
X875309Y1008868D01*
X874469Y1008306D01*
X873907Y1007466D01*
X873710Y1006475D01*
Y994410D01*
X873907Y993419D01*
X874469Y992579D01*
X874553Y991893D01*
X874384Y991707D01*
X874155Y991326D01*
X873907Y990956D01*
X873895Y990895D01*
X873863Y990841D01*
X873797Y990401D01*
X873710Y989965D01*
Y983615D01*
X873907Y982624D01*
X874469Y981784D01*
X875309Y981222D01*
X876300Y981025D01*
X878118D01*
Y929756D01*
X876848Y929325D01*
X876470Y929817D01*
X874582Y931266D01*
X872383Y932177D01*
X870023Y932488D01*
X868833D01*
Y923370D01*
X865023D01*
Y919560D01*
X851816D01*
X852126Y918811D01*
X853576Y916923D01*
X855464Y915474D01*
X857663Y914563D01*
X860023Y914252D01*
X866091D01*
X866935Y912982D01*
X866624Y911420D01*
Y908920D01*
X867054Y906758D01*
X868279Y904926D01*
X870111Y903701D01*
X872273Y903271D01*
X873038Y902129D01*
Y895068D01*
X872490Y893745D01*
Y891724D01*
X873263Y889857D01*
X874692Y888428D01*
X876560Y887655D01*
X878580D01*
X880448Y888428D01*
X881877Y889857D01*
X882650Y891724D01*
Y893745D01*
X882102Y895068D01*
Y901452D01*
X885855Y905204D01*
X885855Y905204D01*
X886837Y906675D01*
X887182Y908409D01*
X887182Y908409D01*
Y919583D01*
X888452Y919836D01*
X888877Y918811D01*
X890326Y916923D01*
X892214Y915474D01*
X894413Y914563D01*
X896773Y914252D01*
X899463D01*
Y923370D01*
Y932488D01*
X896773D01*
X894413Y932177D01*
X892214Y931266D01*
X890326Y929817D01*
X888877Y927929D01*
X888452Y926904D01*
X887182Y927157D01*
Y981025D01*
X889000D01*
X889991Y981222D01*
X890831Y981784D01*
X891393Y982624D01*
X891590Y983615D01*
Y989965D01*
X891503Y990401D01*
X891437Y990841D01*
X891405Y990895D01*
X891393Y990956D01*
X891145Y991326D01*
X890916Y991707D01*
X890747Y991893D01*
X890831Y992579D01*
X891393Y993419D01*
X891590Y994410D01*
Y1006475D01*
X891393Y1007466D01*
X890831Y1008306D01*
X889991Y1008868D01*
X889000Y1009065D01*
X887182D01*
Y1035050D01*
X886837Y1036784D01*
X885855Y1038255D01*
X885855Y1038255D01*
X847755Y1076355D01*
X846284Y1077337D01*
X844550Y1077682D01*
X801163D01*
X799840Y1078230D01*
X797820D01*
X795952Y1077457D01*
X794523Y1076028D01*
X793750Y1074161D01*
Y1072140D01*
X794523Y1070272D01*
X795952Y1068843D01*
X797820Y1068070D01*
X799840D01*
X801163Y1068618D01*
X842673D01*
X859731Y1051560D01*
X859205Y1050290D01*
X858780D01*
X856912Y1049517D01*
X856102Y1048706D01*
X850578D01*
X849240Y1048440D01*
X848106Y1047682D01*
X826270Y1025846D01*
X791346D01*
X791346Y1025846D01*
X790896Y1025757D01*
X789626Y1026736D01*
Y1075690D01*
X789360Y1077028D01*
X788602Y1078162D01*
X787400Y1079364D01*
Y1080510D01*
X786627Y1082378D01*
X785198Y1083807D01*
X783331Y1084580D01*
D02*
G37*
G36*
X909773Y932488D02*
X907083D01*
Y927180D01*
X917980D01*
X917669Y927929D01*
X916220Y929817D01*
X914332Y931266D01*
X912133Y932177D01*
X909773Y932488D01*
D02*
G37*
G36*
X861213D02*
X860023D01*
X857663Y932177D01*
X855464Y931266D01*
X853576Y929817D01*
X852126Y927929D01*
X851816Y927180D01*
X861213D01*
Y932488D01*
D02*
G37*
G36*
X917980Y919560D02*
X907083D01*
Y914252D01*
X909773D01*
X912133Y914563D01*
X914332Y915474D01*
X916220Y916923D01*
X917669Y918811D01*
X917980Y919560D01*
D02*
G37*
G36*
X732531Y1154430D02*
X730509D01*
X728642Y1153657D01*
X727213Y1152228D01*
X726440Y1150360D01*
Y1148339D01*
X727213Y1146472D01*
X728024Y1145662D01*
Y943017D01*
X716296Y931289D01*
X715538Y930155D01*
X715272Y928817D01*
Y920679D01*
X714462Y919869D01*
X713689Y918002D01*
Y915981D01*
X714462Y914114D01*
X715891Y912685D01*
X717758Y911911D01*
X719779D01*
X721646Y912685D01*
X723075Y914114D01*
X723848Y915981D01*
Y918002D01*
X723075Y919869D01*
X722265Y920679D01*
Y927369D01*
X733992Y939096D01*
X734750Y940230D01*
X735016Y941568D01*
X735016Y941568D01*
Y1145662D01*
X735827Y1146472D01*
X736600Y1148339D01*
Y1150360D01*
X735827Y1152228D01*
X734398Y1153657D01*
X732531Y1154430D01*
D02*
G37*
G36*
X581400Y928370D02*
X579380D01*
X577512Y927597D01*
X576083Y926168D01*
X575310Y924301D01*
Y922280D01*
X576083Y920412D01*
X577512Y918983D01*
X579380Y918210D01*
X579976D01*
X622093Y876093D01*
X623353Y875251D01*
X624840Y874955D01*
X652020D01*
X652442Y874533D01*
X654309Y873760D01*
X656330D01*
X658198Y874533D01*
X659627Y875962D01*
X660400Y877830D01*
Y879850D01*
X659627Y881718D01*
X658198Y883147D01*
X656330Y883920D01*
X654309D01*
X652442Y883147D01*
X652020Y882725D01*
X626449D01*
X585470Y923704D01*
Y924301D01*
X584697Y926168D01*
X583268Y927597D01*
X581400Y928370D01*
D02*
G37*
G36*
X520140Y950257D02*
X518119D01*
X516252Y949484D01*
X514823Y948055D01*
X514050Y946188D01*
Y944167D01*
X514823Y942300D01*
X516252Y940871D01*
X518119Y940097D01*
X518716D01*
X608120Y850693D01*
X609380Y849851D01*
X610867Y849555D01*
X664720D01*
X665142Y849133D01*
X667010Y848360D01*
X669031D01*
X670898Y849133D01*
X672327Y850562D01*
X673100Y852430D01*
Y854451D01*
X672327Y856318D01*
X670898Y857747D01*
X669031Y858520D01*
X667010D01*
X665142Y857747D01*
X664720Y857325D01*
X612476D01*
X524210Y945591D01*
Y946188D01*
X523436Y948055D01*
X522007Y949484D01*
X520140Y950257D01*
D02*
G37*
G36*
X765551Y868680D02*
X763530D01*
X761662Y867907D01*
X760233Y866478D01*
X759460Y864611D01*
Y863464D01*
X738819Y842823D01*
X737441Y843241D01*
X737410Y843398D01*
X736624Y844574D01*
X736624Y844574D01*
X725194Y856004D01*
X724017Y856790D01*
X722630Y857066D01*
X722630Y857066D01*
X695708D01*
X695028Y857747D01*
X693160Y858520D01*
X691140D01*
X689272Y857747D01*
X687843Y856318D01*
X687070Y854451D01*
Y852430D01*
X687843Y850562D01*
X689272Y849133D01*
X691140Y848360D01*
X693160D01*
X695028Y849133D01*
X695708Y849814D01*
X721128D01*
X730434Y840508D01*
Y790329D01*
X729164Y789803D01*
X716280Y802688D01*
Y803651D01*
X715507Y805518D01*
X714078Y806947D01*
X712210Y807720D01*
X710190D01*
X708322Y806947D01*
X706893Y805518D01*
X706120Y803651D01*
Y801629D01*
X706893Y799762D01*
X708322Y798333D01*
X710190Y797560D01*
X711152D01*
X724084Y784628D01*
Y737260D01*
X724084Y737260D01*
X724212Y736618D01*
X723042Y735992D01*
X709527Y749507D01*
X708267Y750349D01*
X706780Y750645D01*
X691640D01*
X691218Y751067D01*
X689351Y751840D01*
X687329D01*
X685462Y751067D01*
X684033Y749638D01*
X683260Y747770D01*
Y745750D01*
X684033Y743882D01*
X685462Y742453D01*
X687329Y741680D01*
X689351D01*
X691218Y742453D01*
X691640Y742875D01*
X705171D01*
X745410Y702636D01*
Y702039D01*
X746183Y700172D01*
X747612Y698743D01*
X749480Y697970D01*
X751500D01*
X753368Y698743D01*
X754797Y700172D01*
X755570Y702039D01*
Y704061D01*
X754797Y705928D01*
X753368Y707357D01*
X752048Y707903D01*
X751864Y708227D01*
X752438Y709788D01*
X753368Y710173D01*
X754797Y711602D01*
X755570Y713469D01*
Y715490D01*
X754797Y717358D01*
X753368Y718787D01*
X751852Y719415D01*
X751707Y719645D01*
X751703Y719666D01*
X752264Y721146D01*
X753368Y721603D01*
X754797Y723032D01*
X755570Y724900D01*
Y726920D01*
X754797Y728788D01*
X753368Y730217D01*
X751500Y730990D01*
X750537D01*
X737686Y743842D01*
Y766647D01*
X738742Y767353D01*
X739399Y767080D01*
X741421D01*
X743288Y767853D01*
X744717Y769282D01*
X745490Y771150D01*
Y773170D01*
X744717Y775038D01*
X743906Y775848D01*
Y838022D01*
X764404Y858520D01*
X765551D01*
X767418Y859293D01*
X768847Y860722D01*
X769620Y862589D01*
Y864611D01*
X768847Y866478D01*
X767418Y867907D01*
X765551Y868680D01*
D02*
G37*
G36*
X909773Y846088D02*
X907083D01*
Y840780D01*
X917980D01*
X917669Y841529D01*
X916220Y843417D01*
X914332Y844866D01*
X912133Y845777D01*
X909773Y846088D01*
D02*
G37*
G36*
X899463D02*
X896773D01*
X894413Y845777D01*
X892214Y844866D01*
X890326Y843417D01*
X888877Y841529D01*
X888566Y840780D01*
X899463D01*
Y846088D01*
D02*
G37*
G36*
X873375Y855710D02*
X871171D01*
X869135Y854867D01*
X867576Y853308D01*
X866733Y851272D01*
Y849068D01*
X867441Y847358D01*
X866861Y846088D01*
X860023D01*
X857663Y845777D01*
X855464Y844866D01*
X853576Y843417D01*
X852126Y841529D01*
X851816Y840780D01*
X865023D01*
X878230D01*
X877919Y841529D01*
X876470Y843417D01*
X875522Y844145D01*
X875483Y844614D01*
X875613Y845676D01*
X876970Y847032D01*
X877813Y849068D01*
Y851272D01*
X876970Y853308D01*
X875411Y854867D01*
X873375Y855710D01*
D02*
G37*
G36*
X407411Y996950D02*
X405390D01*
X403522Y996177D01*
X402093Y994748D01*
X401320Y992880D01*
Y990860D01*
X402093Y988992D01*
X403522Y987563D01*
X405390Y986790D01*
X407411D01*
X409278Y987563D01*
X409700Y987985D01*
X436541D01*
X585263Y839263D01*
X586523Y838421D01*
X588010Y838125D01*
X673100D01*
X674587Y838421D01*
X675847Y839263D01*
X682197Y845613D01*
X683039Y846873D01*
X683335Y848360D01*
Y898400D01*
X683757Y898822D01*
X684530Y900689D01*
Y902710D01*
X683757Y904578D01*
X682328Y906007D01*
X680461Y906780D01*
X678439D01*
X676572Y906007D01*
X675143Y904578D01*
X674370Y902710D01*
Y900689D01*
X675143Y898822D01*
X675565Y898400D01*
Y849969D01*
X671491Y845895D01*
X589619D01*
X440897Y994617D01*
X439637Y995459D01*
X438150Y995755D01*
X409700D01*
X409278Y996177D01*
X407411Y996950D01*
D02*
G37*
G36*
X917980Y833160D02*
X907083D01*
Y827852D01*
X909773D01*
X912133Y828163D01*
X914332Y829074D01*
X916220Y830523D01*
X917669Y832411D01*
X917980Y833160D01*
D02*
G37*
G36*
X899463D02*
X888566D01*
X888877Y832411D01*
X890326Y830523D01*
X892214Y829074D01*
X894413Y828163D01*
X896773Y827852D01*
X899463D01*
Y833160D01*
D02*
G37*
G36*
X878230Y833160D02*
X868833D01*
Y827852D01*
X870023D01*
X872383Y828163D01*
X874582Y829074D01*
X876470Y830523D01*
X877919Y832411D01*
X878230Y833160D01*
D02*
G37*
G36*
X861213D02*
X851816D01*
X852126Y832411D01*
X853576Y830523D01*
X855464Y829074D01*
X857663Y828163D01*
X860023Y827852D01*
X861213D01*
Y833160D01*
D02*
G37*
G36*
X516631Y839470D02*
X514609D01*
X512742Y838697D01*
X511313Y837268D01*
X510540Y835400D01*
Y833380D01*
X511313Y831512D01*
X512742Y830083D01*
X514609Y829310D01*
X515206D01*
X543353Y801163D01*
X544613Y800321D01*
X546100Y800025D01*
X607351D01*
X608838Y800321D01*
X610098Y801163D01*
X610230Y801295D01*
X667260D01*
X667682Y800873D01*
X669549Y800100D01*
X671571D01*
X673438Y800873D01*
X674867Y802302D01*
X675640Y804169D01*
Y806190D01*
X674867Y808058D01*
X673438Y809487D01*
X671571Y810260D01*
X669549D01*
X667682Y809487D01*
X667260Y809065D01*
X608621D01*
X607135Y808769D01*
X605874Y807927D01*
X605742Y807795D01*
X577771D01*
X577590Y808990D01*
X579458Y809763D01*
X580887Y811192D01*
X581660Y813059D01*
Y813656D01*
X593429Y825425D01*
X652020D01*
X652442Y825003D01*
X654309Y824230D01*
X656330D01*
X658198Y825003D01*
X659627Y826432D01*
X660400Y828299D01*
Y830321D01*
X659627Y832188D01*
X658198Y833617D01*
X656330Y834390D01*
X654309D01*
X652442Y833617D01*
X652020Y833195D01*
X591820D01*
X590333Y832899D01*
X589073Y832057D01*
X576166Y819150D01*
X575569D01*
X573702Y818377D01*
X572273Y816948D01*
X571500Y815080D01*
Y813059D01*
X572273Y811192D01*
X573702Y809763D01*
X575569Y808990D01*
X575389Y807795D01*
X547709D01*
X520700Y834804D01*
Y835400D01*
X519927Y837268D01*
X518498Y838697D01*
X516631Y839470D01*
D02*
G37*
G36*
X406813Y889719D02*
X404792D01*
X402925Y888945D01*
X401496Y887516D01*
X400723Y885649D01*
Y883628D01*
X401496Y881761D01*
X402925Y880332D01*
X404792Y879559D01*
X406813D01*
X408680Y880332D01*
X409102Y880754D01*
X437092D01*
X526843Y791003D01*
X528103Y790161D01*
X529590Y789865D01*
X679450D01*
X680937Y790161D01*
X682197Y791003D01*
X709755Y818561D01*
X710597Y819821D01*
X710893Y821308D01*
Y835211D01*
X711315Y835633D01*
X712088Y837500D01*
Y839521D01*
X711315Y841388D01*
X709886Y842817D01*
X708018Y843590D01*
X705998D01*
X704130Y842817D01*
X702701Y841388D01*
X701928Y839521D01*
Y837500D01*
X702701Y835633D01*
X703123Y835211D01*
Y822917D01*
X677841Y797635D01*
X531199D01*
X441448Y887385D01*
X440188Y888228D01*
X438701Y888523D01*
X409102D01*
X408680Y888945D01*
X406813Y889719D01*
D02*
G37*
G36*
X816350Y825500D02*
X814330D01*
X812462Y824727D01*
X811033Y823298D01*
X810260Y821431D01*
Y819409D01*
X811033Y817542D01*
X812462Y816113D01*
X814330Y815340D01*
X815293D01*
X818724Y811908D01*
Y787779D01*
X817454Y786943D01*
X816350Y787400D01*
X814330D01*
X812462Y786627D01*
X811033Y785198D01*
X810260Y783331D01*
Y781310D01*
X811033Y779442D01*
X811714Y778762D01*
Y754162D01*
X788783Y731231D01*
X787997Y730054D01*
X787721Y728667D01*
X787721Y728667D01*
Y727878D01*
X786457Y726614D01*
X785684Y724747D01*
Y722726D01*
X786457Y720859D01*
X787886Y719430D01*
X789753Y718656D01*
X790044D01*
Y715139D01*
X788774Y714460D01*
X788590Y714583D01*
Y715490D01*
X787817Y717358D01*
X786388Y718787D01*
X784520Y719560D01*
X782499D01*
X781842Y719287D01*
X780786Y719993D01*
Y726161D01*
X781467Y726842D01*
X782240Y728709D01*
Y730731D01*
X781467Y732598D01*
X780038Y734027D01*
X778170Y734800D01*
X776150D01*
X774282Y734027D01*
X772853Y732598D01*
X772080Y730731D01*
Y728709D01*
X772853Y726842D01*
X773534Y726161D01*
Y707878D01*
X772853Y707198D01*
X772080Y705331D01*
Y703309D01*
X772853Y701442D01*
X774282Y700013D01*
X776150Y699240D01*
X778170D01*
X780038Y700013D01*
X781467Y701442D01*
X782240Y703309D01*
Y705331D01*
X781467Y707198D01*
X780876Y707788D01*
X780943Y708911D01*
X782015Y709601D01*
X782499Y709400D01*
X782541D01*
X788332Y703609D01*
X788332Y703609D01*
X789244Y703000D01*
X789363Y702712D01*
X790792Y701283D01*
X792660Y700510D01*
X794680D01*
X796548Y701283D01*
X797977Y702712D01*
X798750Y704579D01*
Y706600D01*
X797977Y708468D01*
X797296Y709148D01*
Y717238D01*
X824914Y744856D01*
X824914Y744856D01*
X825700Y746032D01*
X825976Y747420D01*
X825976Y747420D01*
Y813410D01*
X825700Y814798D01*
X824914Y815974D01*
X824914Y815974D01*
X820420Y820468D01*
Y821431D01*
X819647Y823298D01*
X818218Y824727D01*
X816350Y825500D01*
D02*
G37*
G36*
X709670Y792480D02*
X707650D01*
X705782Y791707D01*
X704353Y790278D01*
X703580Y788410D01*
Y787814D01*
X656665Y740898D01*
X655395Y741424D01*
Y749810D01*
X655817Y750232D01*
X656590Y752100D01*
Y754120D01*
X655817Y755988D01*
X654388Y757417D01*
X652521Y758190D01*
X650499D01*
X648632Y757417D01*
X647203Y755988D01*
X646430Y754120D01*
Y752100D01*
X647203Y750232D01*
X647625Y749810D01*
Y742019D01*
X623231Y717625D01*
X615638D01*
X615517Y717784D01*
X615168Y718895D01*
X634572Y738298D01*
X635414Y739558D01*
X635710Y741045D01*
Y753406D01*
X655734Y773430D01*
X656330D01*
X658198Y774203D01*
X659627Y775632D01*
X660400Y777499D01*
Y779520D01*
X659627Y781388D01*
X658198Y782817D01*
X656330Y783590D01*
X654309D01*
X652442Y782817D01*
X651013Y781388D01*
X650240Y779520D01*
Y778924D01*
X629078Y757762D01*
X628236Y756502D01*
X627940Y755015D01*
Y742654D01*
X610531Y725245D01*
X597660D01*
X597238Y725667D01*
X595370Y726440D01*
X593349D01*
X591482Y725667D01*
X590053Y724238D01*
X589280Y722371D01*
Y720350D01*
X589883Y718895D01*
X589252Y717625D01*
X518920D01*
X518498Y718047D01*
X516631Y718820D01*
X514609D01*
X512742Y718047D01*
X511313Y716618D01*
X510540Y714751D01*
Y712729D01*
X510705Y712331D01*
X510000Y711275D01*
X475319D01*
X411480Y775114D01*
Y775711D01*
X410707Y777578D01*
X409278Y779007D01*
X407411Y779780D01*
X405390D01*
X403522Y779007D01*
X402093Y777578D01*
X401320Y775711D01*
Y773689D01*
X402093Y771822D01*
X403522Y770393D01*
X405390Y769620D01*
X405986D01*
X470963Y704643D01*
X472223Y703801D01*
X473710Y703505D01*
X628650D01*
X630137Y703801D01*
X631397Y704643D01*
X709074Y782320D01*
X709670D01*
X711538Y783093D01*
X712967Y784522D01*
X713740Y786389D01*
Y788410D01*
X712967Y790278D01*
X711538Y791707D01*
X709670Y792480D01*
D02*
G37*
G36*
X713481Y725170D02*
X711460D01*
X710137Y724622D01*
X664571D01*
X664571Y724622D01*
X662836Y724277D01*
X661366Y723295D01*
X661366Y723295D01*
X629673Y691602D01*
X474317D01*
X468025Y697895D01*
X466554Y698877D01*
X464820Y699222D01*
X407463D01*
X406141Y699770D01*
X404119D01*
X402252Y698997D01*
X400823Y697568D01*
X400050Y695701D01*
Y693680D01*
X400823Y691812D01*
X402252Y690383D01*
X404119Y689610D01*
X406141D01*
X407463Y690158D01*
X462943D01*
X469235Y683865D01*
X470706Y682883D01*
X472440Y682538D01*
X631551D01*
X633285Y682883D01*
X634755Y683865D01*
X666448Y715558D01*
X710137D01*
X711460Y715010D01*
X713481D01*
X715348Y715783D01*
X716777Y717212D01*
X717550Y719080D01*
Y721100D01*
X716777Y722968D01*
X715348Y724397D01*
X713481Y725170D01*
D02*
G37*
G36*
X731641Y671550D02*
X729139D01*
X726827Y670592D01*
X725058Y668823D01*
X724100Y666511D01*
Y664009D01*
X725058Y661697D01*
X726827Y659928D01*
X729139Y658970D01*
X731641D01*
X733953Y659928D01*
X735722Y661697D01*
X736680Y664009D01*
Y666511D01*
X735722Y668823D01*
X733953Y670592D01*
X731641Y671550D01*
D02*
G37*
G36*
X604847D02*
X602345D01*
X600033Y670592D01*
X598263Y668823D01*
X597306Y666511D01*
Y664009D01*
X598263Y661697D01*
X600033Y659928D01*
X602345Y658970D01*
X604847D01*
X607159Y659928D01*
X608928Y661697D01*
X609886Y664009D01*
Y666511D01*
X608928Y668823D01*
X607159Y670592D01*
X604847Y671550D01*
D02*
G37*
G36*
X883784Y704910D02*
X878976D01*
X874229Y704158D01*
X869657Y702673D01*
X865374Y700490D01*
X861485Y697665D01*
X858085Y694266D01*
X855260Y690376D01*
X853077Y686093D01*
X851592Y681522D01*
X850840Y676774D01*
Y671966D01*
X851592Y667218D01*
X853077Y662647D01*
X855260Y658364D01*
X858085Y654474D01*
X861485Y651075D01*
X865374Y648250D01*
X869657Y646068D01*
X874229Y644582D01*
X878976Y643830D01*
X883784D01*
X888531Y644582D01*
X893103Y646068D01*
X897386Y648250D01*
X901275Y651075D01*
X904675Y654474D01*
X907500Y658364D01*
X909682Y662647D01*
X911168Y667218D01*
X911920Y671966D01*
Y676774D01*
X911168Y681522D01*
X909682Y686093D01*
X907500Y690376D01*
X904675Y694266D01*
X901275Y697665D01*
X897386Y700490D01*
X893103Y702673D01*
X888531Y704158D01*
X883784Y704910D01*
D02*
G37*
G36*
X344034D02*
X339226D01*
X334478Y704158D01*
X329907Y702673D01*
X325624Y700490D01*
X321735Y697665D01*
X318335Y694266D01*
X315510Y690376D01*
X313328Y686093D01*
X311842Y681522D01*
X311090Y676774D01*
Y671966D01*
X311842Y667218D01*
X313328Y662647D01*
X315510Y658364D01*
X318335Y654474D01*
X321735Y651075D01*
X325624Y648250D01*
X329907Y646068D01*
X334478Y644582D01*
X339226Y643830D01*
X344034D01*
X348782Y644582D01*
X353353Y646068D01*
X357636Y648250D01*
X361525Y651075D01*
X364925Y654474D01*
X367750Y658364D01*
X369933Y662647D01*
X371418Y667218D01*
X372170Y671966D01*
Y676774D01*
X371418Y681522D01*
X369933Y686093D01*
X367750Y690376D01*
X364925Y694266D01*
X361525Y697665D01*
X357636Y700490D01*
X353353Y702673D01*
X348782Y704158D01*
X344034Y704910D01*
D02*
G37*
%LPD*%
D10*
X529590Y793750D02*
X679450D01*
X405803Y884639D02*
X438701D01*
X529590Y793750D01*
X473710Y707390D02*
X628650D01*
X406400Y774700D02*
X473710Y707390D01*
X628650D02*
X708660Y787400D01*
X515620Y713740D02*
X624840D01*
X651510Y740410D01*
X612140Y721360D02*
X631825Y741045D01*
X594360Y721360D02*
X612140D01*
X688340Y746760D02*
X706780D01*
X750490Y703050D01*
X608621Y805180D02*
X670560D01*
X546100Y803910D02*
X607351D01*
X608621Y805180D01*
X631825Y741045D02*
Y755015D01*
X679450Y793750D02*
X707008Y821308D01*
Y838510D01*
X406400Y991870D02*
X438150D01*
X588010Y842010D01*
X673100D01*
X679450Y848360D01*
Y901700D01*
X610867Y853440D02*
X668020D01*
X519130Y945177D02*
X610867Y853440D01*
X580390Y923290D02*
X624840Y878840D01*
X651510Y740410D02*
Y753110D01*
X515620Y834390D02*
X546100Y803910D01*
X631825Y755015D02*
X655320Y778510D01*
X591820Y829310D02*
X655320D01*
X576580Y814070D02*
X591820Y829310D01*
X624840Y878840D02*
X655320D01*
D17*
X740410Y839470D02*
X764540Y863600D01*
X740410Y772160D02*
Y839470D01*
X716280Y890270D02*
X781050D01*
X786130Y956310D02*
X820420D01*
X848538Y984428D01*
X850900Y1035050D02*
X859790D01*
X834390Y1018540D02*
X850900Y1035050D01*
X792480Y1018540D02*
X834390D01*
X791346Y1022350D02*
X827718D01*
X850578Y1045210D01*
X859790D01*
X781050Y986790D02*
X784860Y982980D01*
X781050Y986790D02*
Y1007110D01*
X774700Y1005704D02*
X791346Y1022350D01*
X774700Y982980D02*
Y1005704D01*
X767080Y983132D02*
X770890Y986943D01*
Y1009650D01*
X767080Y982980D02*
Y983132D01*
X781050Y1007110D02*
X792480Y1018540D01*
X770890Y1009650D02*
X786130Y1024890D01*
Y1075690D01*
X681990Y924560D02*
Y1082684D01*
Y924560D02*
X716280Y890270D01*
X718768Y916992D02*
Y928817D01*
X585470Y1179204D02*
X681990Y1082684D01*
X748030Y939800D02*
X787400D01*
X739592Y931362D02*
X748030Y939800D01*
X739592Y925830D02*
Y931362D01*
X782320Y1079500D02*
X786130Y1075690D01*
X585470Y1179204D02*
Y1179830D01*
X695960Y989330D02*
X696341Y988949D01*
Y967359D02*
Y988949D01*
Y967359D02*
X718820Y944880D01*
X690880Y963930D02*
Y977900D01*
X718768Y928817D02*
X731520Y941568D01*
Y1149350D01*
X690880Y963930D02*
X709930Y944880D01*
D98*
X865023Y836970D02*
D03*
Y923370D02*
D03*
D99*
X903273Y836970D02*
D03*
Y923370D02*
D03*
D100*
X872273Y850170D02*
D03*
D101*
Y910170D02*
D03*
D109*
X712729Y1084580D02*
Y1097822D01*
X713740Y1098833D01*
Y1111250D01*
X673100Y1151890D02*
X713740Y1111250D01*
X790764Y723736D02*
X791347Y724320D01*
Y728667D02*
X815340Y752660D01*
X822350Y747420D02*
Y813410D01*
X793670Y718740D02*
X822350Y747420D01*
X791347Y724320D02*
Y728667D01*
X793670Y705590D02*
Y718740D01*
X815340Y820420D02*
X822350Y813410D01*
X815340Y752660D02*
Y782320D01*
X727710Y737260D02*
X750490Y714480D01*
X711200Y802640D02*
X727710Y786130D01*
Y737260D02*
Y786130D01*
X734060Y742340D02*
X750490Y725910D01*
X734060Y742340D02*
Y842010D01*
X692150Y853440D02*
X722630D01*
X734060Y842010D01*
X783510Y713655D02*
Y714480D01*
Y713655D02*
X784969Y712197D01*
Y712100D02*
Y712197D01*
Y712100D02*
X790895Y706173D01*
X777160Y704320D02*
Y729720D01*
X790895Y706173D02*
X793087D01*
X793670Y705590D01*
X777160Y729720D02*
X777668Y730228D01*
D110*
X813054Y882904D02*
Y887825D01*
X751840Y821690D02*
X813054Y882904D01*
X795020Y899160D02*
X800445Y893735D01*
X807290D02*
X812712Y888313D01*
X812710Y888068D02*
X812712Y888070D01*
Y888313D01*
X800445Y893735D02*
X807290D01*
X813054Y887825D02*
X813297Y888068D01*
X844550Y1073150D02*
X882650Y1035050D01*
Y1002030D02*
Y1035050D01*
Y908409D02*
Y986790D01*
X464820Y694690D02*
X472440Y687070D01*
X405130Y694690D02*
X464820D01*
X631551Y687070D02*
X664571Y720090D01*
X472440Y687070D02*
X631551D01*
X664571Y720090D02*
X712470D01*
X752082Y759702D02*
Y781292D01*
X744220Y751840D02*
X752082Y759702D01*
X751961Y781412D02*
X752082Y781292D01*
X751840Y821690D02*
X751961Y821569D01*
Y781412D02*
Y821569D01*
X798830Y1073150D02*
X844550D01*
X877570Y903329D02*
X882650Y908409D01*
X877570Y892735D02*
Y903329D01*
X791480Y947420D02*
X795020Y943880D01*
X760603Y969137D02*
X782320Y947420D01*
X791480D01*
X760603Y969137D02*
Y988859D01*
X795020Y943880D02*
X827770D01*
X842010Y929640D01*
X795020Y899160D02*
Y943880D01*
X763270Y991526D02*
Y991870D01*
Y1018288D01*
X760603Y988859D02*
X763270Y991526D01*
Y1018288D02*
X775665Y1030683D01*
D112*
X881380Y1153160D02*
D03*
X341630Y674370D02*
D03*
Y1153160D02*
D03*
X881380Y674370D02*
D03*
D113*
X336550Y1076960D02*
D03*
Y1000760D02*
D03*
Y924560D02*
D03*
Y848360D02*
D03*
Y772160D02*
D03*
D114*
X316550Y1096010D02*
D03*
Y1057910D02*
D03*
Y1019810D02*
D03*
Y981710D02*
D03*
Y943610D02*
D03*
Y905510D02*
D03*
Y867410D02*
D03*
Y829310D02*
D03*
Y791210D02*
D03*
Y753110D02*
D03*
D115*
X746760Y960120D02*
D03*
X670560Y1181100D02*
D03*
Y1173480D02*
D03*
X662940Y1181100D02*
D03*
Y1173480D02*
D03*
X655320Y1181100D02*
D03*
Y1173480D02*
D03*
X647700Y1181100D02*
D03*
Y1173480D02*
D03*
X640080Y1181100D02*
D03*
Y1173480D02*
D03*
X632460Y1181100D02*
D03*
Y1173480D02*
D03*
X670560Y944880D02*
D03*
Y937260D02*
D03*
Y929640D02*
D03*
Y922020D02*
D03*
X662940Y944880D02*
D03*
Y937260D02*
D03*
Y929640D02*
D03*
Y922020D02*
D03*
X655320Y944880D02*
D03*
Y937260D02*
D03*
Y929640D02*
D03*
Y922020D02*
D03*
X647700Y944880D02*
D03*
Y937260D02*
D03*
Y929640D02*
D03*
Y922020D02*
D03*
X640080Y944880D02*
D03*
Y937260D02*
D03*
Y929640D02*
D03*
Y922020D02*
D03*
X853440Y960120D02*
D03*
Y952500D02*
D03*
X845820Y960120D02*
D03*
Y952500D02*
D03*
X914400Y815340D02*
D03*
Y807720D02*
D03*
X906780Y815340D02*
D03*
Y807720D02*
D03*
X899160Y815340D02*
D03*
Y807720D02*
D03*
X891540Y815340D02*
D03*
Y807720D02*
D03*
X883920Y815340D02*
D03*
Y807720D02*
D03*
X830580Y685800D02*
D03*
Y678180D02*
D03*
X822960D02*
D03*
X716280Y701040D02*
D03*
Y693420D02*
D03*
X708660Y701040D02*
D03*
Y693420D02*
D03*
X701040Y701040D02*
D03*
Y693420D02*
D03*
X693420Y701040D02*
D03*
Y693420D02*
D03*
X685800Y701040D02*
D03*
Y693420D02*
D03*
X556260Y670560D02*
D03*
Y662940D02*
D03*
Y655320D02*
D03*
X548640Y670560D02*
D03*
Y662940D02*
D03*
Y655320D02*
D03*
X541020Y670560D02*
D03*
Y662940D02*
D03*
Y655320D02*
D03*
X533400Y670560D02*
D03*
Y662940D02*
D03*
Y655320D02*
D03*
X525780Y670560D02*
D03*
Y662940D02*
D03*
Y655320D02*
D03*
X518160Y670560D02*
D03*
Y662940D02*
D03*
Y655320D02*
D03*
X510540Y670560D02*
D03*
Y662940D02*
D03*
Y655320D02*
D03*
X502920Y670560D02*
D03*
Y662940D02*
D03*
Y655320D02*
D03*
X786130Y916940D02*
D03*
X813297Y888068D02*
D03*
X830580Y906780D02*
D03*
Y899160D02*
D03*
Y891540D02*
D03*
Y883920D02*
D03*
X822960D02*
D03*
X712729Y1084580D02*
D03*
X673100Y1151890D02*
D03*
X464820Y1043940D02*
D03*
Y1036320D02*
D03*
Y1028700D02*
D03*
Y1021080D02*
D03*
X457200Y1043940D02*
D03*
Y1036320D02*
D03*
Y1028700D02*
D03*
Y1021080D02*
D03*
X449580Y1043940D02*
D03*
Y1036320D02*
D03*
Y1028700D02*
D03*
Y1021080D02*
D03*
X441960Y1043940D02*
D03*
Y1036320D02*
D03*
Y1028700D02*
D03*
Y1021080D02*
D03*
X434340Y1043940D02*
D03*
Y1036320D02*
D03*
Y1028700D02*
D03*
Y1021080D02*
D03*
X426720Y1043940D02*
D03*
Y1036320D02*
D03*
Y1028700D02*
D03*
Y1021080D02*
D03*
X419100Y1043940D02*
D03*
Y1036320D02*
D03*
Y1028700D02*
D03*
Y1021080D02*
D03*
X411480Y1043940D02*
D03*
Y1036320D02*
D03*
Y1028700D02*
D03*
Y1021080D02*
D03*
X403860Y1043940D02*
D03*
Y1036320D02*
D03*
Y1028700D02*
D03*
Y1021080D02*
D03*
X480060Y815340D02*
D03*
Y807720D02*
D03*
Y800100D02*
D03*
X472440Y815340D02*
D03*
Y807720D02*
D03*
Y800100D02*
D03*
X464820Y807720D02*
D03*
Y800100D02*
D03*
X457200D02*
D03*
X449580D02*
D03*
X441960D02*
D03*
Y792480D02*
D03*
X434340Y800100D02*
D03*
Y792480D02*
D03*
X426720Y800100D02*
D03*
Y792480D02*
D03*
X419100Y800100D02*
D03*
Y792480D02*
D03*
X411480Y800100D02*
D03*
Y792480D02*
D03*
X403860Y800100D02*
D03*
Y792480D02*
D03*
X396240Y800100D02*
D03*
Y792480D02*
D03*
X388620Y800100D02*
D03*
Y792480D02*
D03*
Y784860D02*
D03*
Y777240D02*
D03*
Y769620D02*
D03*
X472440Y914400D02*
D03*
X464820D02*
D03*
X457200D02*
D03*
X449580D02*
D03*
X441960D02*
D03*
Y906780D02*
D03*
X434340Y914400D02*
D03*
Y906780D02*
D03*
X426720Y914400D02*
D03*
Y906780D02*
D03*
X419100Y914400D02*
D03*
Y906780D02*
D03*
X411480Y914400D02*
D03*
Y906780D02*
D03*
X403860Y914400D02*
D03*
Y906780D02*
D03*
Y899160D02*
D03*
X396240Y906780D02*
D03*
Y899160D02*
D03*
Y891540D02*
D03*
X388620Y899160D02*
D03*
Y891540D02*
D03*
Y883920D02*
D03*
X405130Y694690D02*
D03*
X712470Y720090D02*
D03*
X752082Y781292D02*
D03*
X751840Y821690D02*
D03*
X781050Y890270D02*
D03*
X740410Y772160D02*
D03*
X764540Y863600D02*
D03*
X756920Y868680D02*
D03*
X790764Y723736D02*
D03*
X815340Y820420D02*
D03*
Y782320D02*
D03*
X849630Y985060D02*
D03*
X744220Y751840D02*
D03*
X688340Y746760D02*
D03*
X711200Y802640D02*
D03*
X692150Y853440D02*
D03*
X783510Y714480D02*
D03*
X777160Y729720D02*
D03*
Y704320D02*
D03*
X793670Y705590D02*
D03*
X750490Y725910D02*
D03*
Y703050D02*
D03*
X859790Y1035050D02*
D03*
X515620Y713740D02*
D03*
X594360Y721360D02*
D03*
X788670Y993140D02*
D03*
X784860Y982980D02*
D03*
X774700D02*
D03*
X767080D02*
D03*
X709930Y918210D02*
D03*
X670560Y805180D02*
D03*
X406400Y774700D02*
D03*
X708660Y787400D02*
D03*
X405803Y884639D02*
D03*
X707008Y838510D02*
D03*
X406400Y991870D02*
D03*
X718768Y916992D02*
D03*
X679450Y901700D02*
D03*
X651510Y753110D02*
D03*
X515620Y834390D02*
D03*
X519130Y945177D02*
D03*
X668020Y853440D02*
D03*
X655320Y778510D02*
D03*
X798830Y1073150D02*
D03*
X859790Y1045210D02*
D03*
X877570Y892735D02*
D03*
X787400Y939800D02*
D03*
X786130Y956310D02*
D03*
X842010Y929640D02*
D03*
X775665Y1030683D02*
D03*
X763270Y991870D02*
D03*
X585470Y1179830D02*
D03*
X718820Y944880D02*
D03*
X690880Y977900D02*
D03*
X731520Y1149350D02*
D03*
X782320Y1079500D02*
D03*
X739592Y925830D02*
D03*
X695960Y989330D02*
D03*
X709930Y944880D02*
D03*
X576580Y814070D02*
D03*
X655320Y829310D02*
D03*
X580390Y923290D02*
D03*
X655320Y878840D02*
D03*
X750490Y714480D02*
D03*
D116*
X882650Y986790D02*
D03*
D117*
Y1002030D02*
D03*
M02*
