M48
;Layer_Color=9474304
;FILE_FORMAT=4:4
METRIC,LZ
;TYPE=PLATED
T01F00S00C0.2540
T03F00S00C1.4000
T04F00S00C1.6300
T05F00S00C3.4000
;TYPE=NON_PLATED
T06F00S00C0.6000
T08F00S00C0.7500
%
T01
X0082296Y0067818
X0083058
Y006858
X0081534Y0078232
X00752082Y00781292
X0074041Y0077216
X0074422Y0075184
X0075049Y0072591
Y0071448
Y0070305
X0077716Y0070432
X0078351Y0071448
X00790764Y00723736
X0077716Y0072972
X0079367Y0070559
X0071628Y0070104
Y0069342
X0070866
Y0070104
X0070104
Y0069342
X0069342
Y0070104
X006858
Y0069342
X0071247Y0072009
X0068834Y0074676
X0065151Y0075311
X0065532Y0077851
X0070866Y007874
X0059436Y0072136
X0051562Y0071374
X0051816Y0067056
X0052578
X005334
X0054102
X0054864
X0055626
Y0066294
Y0065532
X0054864
Y0066294
X0054102
Y0065532
X005334
Y0066294
X0052578
Y0065532
X0051816
Y0066294
X0051054
Y0067056
X0050292
Y0066294
Y0065532
X0051054
X0040513Y0069469
X004064Y007747
X0040386Y0079248
X0041148
X004191
X0042672
X0043434
X0044196
X0039624
X0038862
Y0078486
Y0077724
Y0076962
Y008001
X0039624
Y0089154
Y0089916
Y0090678
X0038862Y0089916
Y0089154
Y0088392
X00405803Y00884639
X0040386Y0089916
Y0090678
X0041148
X004191
X0042672
X0043434
X0044196
Y009144
X0044958
X004572
X0046482
X0047244
X0043434
X0042672
X004191
X0041148
X0040386
X004064Y0099187
X0040386Y0102108
X0041148
X004191
X0042672
X0043434
X0044196
X0044958
X004572
X0046482
Y010287
Y0103632
Y0104394
X004572
Y0103632
Y010287
X0044958
Y0103632
Y0104394
X0044196
Y0103632
Y010287
X0043434
Y0103632
Y0104394
X0042672
Y0103632
Y010287
X004191
Y0103632
Y0104394
X0041148
Y0103632
Y010287
X0040386
Y0103632
Y0104394
X0051913Y00945177
X0058039Y0092329
X0064008Y0092202
X006477
X0065532
X0066294
X0067056
Y0092964
Y0093726
Y0094488
X0066294
Y0093726
Y0092964
X0065532
Y0093726
Y0094488
X006477
Y0093726
Y0092964
X0064008
Y0093726
Y0094488
X0070993
X0071882
X00718768Y00916992
X0070993Y0091821
X00739592Y0092583
X0074676Y0096012
X0076708Y0098298
X007747
X0078486
X0078867Y0099314
X0076327Y0099187
X00775665Y01030683
X0078232Y010795
X00712729Y0108458
X0073152Y0114935
X006731Y0115189
X0067056Y0117348
Y011811
X0066294
Y0117348
X0065532
Y011811
X006477
Y0117348
X0064008
Y011811
X0063246
Y0117348
X0058547Y0117983
X0069596Y0098933
X0069088Y009779
X0067945Y009017
X0065532Y0087884
X0066802Y0085344
X0069215
X00707008Y0083851
X007112Y0080264
X0067056Y0080518
X0065532Y0082931
X0057658Y0081407
X0051562Y0083439
X0048006Y0081534
Y0080772
Y008001
X0047244
Y0080772
Y0081534
X0046482Y0080772
Y008001
X004572
X0044958
X0044196
X0043434
X0042672
X004191
X0041148
X0040386
X0075184Y0082169
X0075692Y0086868
X0076454Y008636
X0078105Y0089027
X0078613Y0091694
X007874Y009398
X0078613Y0095631
X0084582Y0096012
X0085344
Y009525
X0084582
X0084201Y0092964
X0083058Y0090678
Y0089916
Y0089154
Y0088392
X0082296
X00813297Y00888068
X0087757Y00892735
X0088392Y0081534
X0089154
X0089916
X0090678
X009144
Y0080772
X0090678
X0089916
X0089154
X0088392
X0081534Y0082042
X0084963Y0098506
X0085979Y0103505
Y0104521
X0079883Y0107315
T03
X0033655Y0077216
Y0084836
Y0092456
Y0100076
Y0107696
T04
X0031655Y0075311
Y0079121
Y0082931
Y0086741
Y0090551
Y0094361
Y0098171
Y0101981
Y0105791
Y0109601
T05
X0088138Y0067437
X0034163
Y0115316
X0088138
T06
X00872273Y0085017
T08
X00603596Y0063776
Y0066526
X0073039
Y0063776
X0072009Y0116205
Y0118955
M30
