G04*
G04 #@! TF.GenerationSoftware,Altium Limited,Altium Designer,24.2.2 (26)*
G04*
G04 Layer_Physical_Order=2*
G04 Layer_Color=16711680*
%FSLAX44Y44*%
%MOMM*%
G71*
G04*
G04 #@! TF.SameCoordinates,B6E7CD46-7335-45AA-B55C-DBCC516995BC*
G04*
G04*
G04 #@! TF.FilePolarity,Positive*
G04*
G01*
G75*
%ADD17C,0.1778*%
%ADD18C,0.2540*%
%ADD92C,0.2032*%
%ADD93C,0.2787*%
%ADD94C,0.3810*%
%ADD95C,2.2000*%
%ADD96O,1.0000X1.6000*%
%ADD97C,0.6500*%
%ADD98O,5.6000X5.5000*%
%ADD99O,5.5000X5.6000*%
%ADD100C,0.5080*%
G36*
X1123950Y887730D02*
X1123950Y887730D01*
X1127280Y887730D01*
X1133882Y886861D01*
X1140314Y885137D01*
X1146466Y882589D01*
X1152234Y879259D01*
X1157517Y875205D01*
X1162225Y870497D01*
X1166279Y865213D01*
X1169609Y859446D01*
X1172157Y853294D01*
X1173881Y846862D01*
X1174750Y840259D01*
X1174750Y836930D01*
X1174750Y304800D01*
X1174750Y304800D01*
Y301470D01*
X1173881Y294868D01*
X1172157Y288436D01*
X1169609Y282283D01*
X1166279Y276516D01*
X1162225Y271233D01*
X1157517Y266525D01*
X1152234Y262471D01*
X1146466Y259141D01*
X1140314Y256593D01*
X1133882Y254869D01*
X1127280Y254000D01*
X304800D01*
X301470Y254000D01*
X294868Y254869D01*
X288436Y256593D01*
X282283Y259141D01*
X276516Y262471D01*
X271233Y266525D01*
X266525Y271233D01*
X262471Y276516D01*
X259141Y282283D01*
X256593Y288436D01*
X254869Y294868D01*
X254000Y301470D01*
X254000Y304800D01*
X254000Y835734D01*
X254000Y836930D01*
X254000Y836930D01*
X254000Y836930D01*
X254000Y836930D01*
X254000Y840259D01*
X254869Y846862D01*
X256593Y853294D01*
X259141Y859446D01*
X262471Y865213D01*
X266524Y870497D01*
X271233Y875205D01*
X276516Y879259D01*
X282283Y882589D01*
X288436Y885137D01*
X294868Y886861D01*
X301470Y887730D01*
X304800Y887730D01*
X1123950Y887730D01*
X1123950Y887730D01*
D02*
G37*
%LPC*%
G36*
X1123950Y867563D02*
X1119236Y867192D01*
X1114638Y866088D01*
X1110270Y864279D01*
X1106238Y861808D01*
X1102643Y858737D01*
X1099572Y855142D01*
X1097101Y851110D01*
X1095292Y846742D01*
X1094188Y842144D01*
X1093817Y837430D01*
Y836430D01*
X1094188Y831716D01*
X1095292Y827118D01*
X1097101Y822750D01*
X1099572Y818718D01*
X1102643Y815123D01*
X1106238Y812052D01*
X1110270Y809581D01*
X1114638Y807772D01*
X1119236Y806668D01*
X1123950Y806297D01*
X1128664Y806668D01*
X1133262Y807772D01*
X1137630Y809581D01*
X1141662Y812052D01*
X1145257Y815123D01*
X1148328Y818718D01*
X1150799Y822750D01*
X1152608Y827118D01*
X1153712Y831716D01*
X1154083Y836430D01*
Y837430D01*
X1153712Y842144D01*
X1152608Y846742D01*
X1150799Y851110D01*
X1148328Y855142D01*
X1145257Y858737D01*
X1141662Y861808D01*
X1137630Y864279D01*
X1133262Y866088D01*
X1128664Y867192D01*
X1123950Y867563D01*
D02*
G37*
G36*
X304800D02*
X300086Y867192D01*
X295488Y866088D01*
X291120Y864279D01*
X287088Y861808D01*
X283493Y858737D01*
X280422Y855142D01*
X277951Y851110D01*
X276142Y846742D01*
X275038Y842144D01*
X274667Y837430D01*
Y836430D01*
X275038Y831716D01*
X276142Y827118D01*
X277951Y822750D01*
X280422Y818718D01*
X283493Y815123D01*
X287088Y812052D01*
X291120Y809581D01*
X295488Y807772D01*
X300086Y806668D01*
X304800Y806297D01*
X309514Y806668D01*
X314112Y807772D01*
X318480Y809581D01*
X322512Y812052D01*
X326107Y815123D01*
X329178Y818718D01*
X331649Y822750D01*
X333458Y827118D01*
X334562Y831716D01*
X334933Y836430D01*
Y837430D01*
X334562Y842144D01*
X333458Y846742D01*
X331649Y851110D01*
X329178Y855142D01*
X326107Y858737D01*
X322512Y861808D01*
X318480Y864279D01*
X314112Y866088D01*
X309514Y867192D01*
X304800Y867563D01*
D02*
G37*
G36*
X815080Y786130D02*
X813059D01*
X811192Y785357D01*
X810641Y784805D01*
X809879D01*
X809328Y785357D01*
X807460Y786130D01*
X805440D01*
X803572Y785357D01*
X802143Y783928D01*
X801370Y782060D01*
Y780040D01*
X802143Y778172D01*
X803572Y776743D01*
X805440Y775970D01*
X807460D01*
X809328Y776743D01*
X809879Y777295D01*
X810641D01*
X811192Y776743D01*
X813059Y775970D01*
X815080D01*
X816948Y776743D01*
X817499Y777295D01*
X826485D01*
X855219Y748560D01*
X854500Y747484D01*
X853180Y748030D01*
X851160D01*
X849292Y747257D01*
X848741Y746705D01*
X847979D01*
X847428Y747257D01*
X845561Y748030D01*
X843540D01*
X841672Y747257D01*
X841121Y746705D01*
X826770D01*
X825333Y746419D01*
X824115Y745605D01*
X816495Y737985D01*
X815681Y736767D01*
X815395Y735330D01*
Y663829D01*
X814843Y663278D01*
X814070Y661411D01*
Y659389D01*
X814843Y657522D01*
X816272Y656093D01*
X818139Y655320D01*
X820161D01*
X822028Y656093D01*
X823457Y657522D01*
X824230Y659389D01*
Y661411D01*
X823457Y663278D01*
X822905Y663829D01*
Y733775D01*
X828325Y739195D01*
X841121D01*
X841672Y738643D01*
X843540Y737870D01*
X845561D01*
X847428Y738643D01*
X847979Y739195D01*
X848741D01*
X849292Y738643D01*
X851160Y737870D01*
X853180D01*
X855048Y738643D01*
X856477Y740072D01*
X857250Y741939D01*
Y743960D01*
X856703Y745280D01*
X857780Y745999D01*
X859845Y743935D01*
Y677679D01*
X846580Y664415D01*
X845800D01*
X843933Y663641D01*
X842504Y662212D01*
X841731Y660345D01*
Y658324D01*
X842504Y656457D01*
X843933Y655028D01*
X845800Y654255D01*
X847821D01*
X849688Y655028D01*
X851117Y656457D01*
X851891Y658324D01*
Y659104D01*
X866255Y673468D01*
X867069Y674687D01*
X867355Y676124D01*
Y745490D01*
X867069Y746927D01*
X866255Y748145D01*
X830695Y783705D01*
X829477Y784519D01*
X828040Y784805D01*
X817499D01*
X816948Y785357D01*
X815080Y786130D01*
D02*
G37*
G36*
X505501Y797860D02*
X503480D01*
X501613Y797087D01*
X500184Y795658D01*
X499410Y793791D01*
Y791770D01*
X500184Y789903D01*
X501613Y788474D01*
X503480Y787700D01*
X504575D01*
X510657Y781618D01*
X510437Y780740D01*
X510169Y780348D01*
X471187D01*
X459740Y791795D01*
Y793491D01*
X458967Y795358D01*
X457538Y796787D01*
X455671Y797560D01*
X453649D01*
X451782Y796787D01*
X450353Y795358D01*
X449580Y793491D01*
Y791469D01*
X450353Y789602D01*
X451782Y788173D01*
X453649Y787400D01*
X455345D01*
X467702Y775042D01*
X468711Y774369D01*
X469900Y774132D01*
X530843D01*
X677612Y627363D01*
Y584467D01*
X676413Y583268D01*
X675640Y581400D01*
Y579380D01*
X676413Y577512D01*
X677842Y576083D01*
X679709Y575310D01*
X681730D01*
X683598Y576083D01*
X684335Y576821D01*
X685165Y577414D01*
X685995Y576821D01*
X686732Y576083D01*
X688599Y575310D01*
X690620D01*
X692488Y576083D01*
X693917Y577512D01*
X694690Y579380D01*
Y581400D01*
X693917Y583268D01*
X692718Y584467D01*
Y632242D01*
X692481Y633431D01*
X691807Y634440D01*
X540460Y785788D01*
X539451Y786461D01*
X538262Y786698D01*
X514367D01*
X509490Y791575D01*
X509570Y791770D01*
Y793791D01*
X508797Y795658D01*
X507368Y797087D01*
X505501Y797860D01*
D02*
G37*
G36*
X326390Y767717D02*
Y756920D01*
X337187D01*
X336467Y759606D01*
X334685Y762694D01*
X332164Y765215D01*
X329076Y766997D01*
X326390Y767717D01*
D02*
G37*
G36*
X321310D02*
X318624Y766997D01*
X315536Y765215D01*
X313015Y762694D01*
X311233Y759606D01*
X310513Y756920D01*
X321310D01*
Y767717D01*
D02*
G37*
G36*
X1107953Y776810D02*
X1104387D01*
X1100944Y775887D01*
X1097856Y774105D01*
X1095335Y771584D01*
X1093553Y768496D01*
X1092630Y765053D01*
Y761487D01*
X1093553Y758044D01*
X1095335Y754956D01*
X1097856Y752435D01*
X1100944Y750653D01*
X1104387Y749730D01*
X1107953D01*
X1111396Y750653D01*
X1114484Y752435D01*
X1117005Y754956D01*
X1118787Y758044D01*
X1119710Y761487D01*
Y765053D01*
X1118787Y768496D01*
X1117005Y771584D01*
X1114484Y774105D01*
X1111396Y775887D01*
X1107953Y776810D01*
D02*
G37*
G36*
X651251Y742950D02*
X649230D01*
X647362Y742177D01*
X646811Y741625D01*
X644779D01*
X644228Y742177D01*
X642361Y742950D01*
X640340D01*
X638472Y742177D01*
X637921Y741625D01*
X635889D01*
X635338Y742177D01*
X633470Y742950D01*
X631450D01*
X629582Y742177D01*
X629031Y741625D01*
X626999D01*
X626448Y742177D01*
X624580Y742950D01*
X622560D01*
X620692Y742177D01*
X619263Y740748D01*
X618490Y738880D01*
Y736860D01*
X619263Y734992D01*
X620692Y733563D01*
X622560Y732790D01*
X624580D01*
X626448Y733563D01*
X626999Y734115D01*
X629031D01*
X629582Y733563D01*
X631450Y732790D01*
X633470D01*
X635338Y733563D01*
X635889Y734115D01*
X637921D01*
X638472Y733563D01*
X640340Y732790D01*
X642361D01*
X644228Y733563D01*
X644779Y734115D01*
X646811D01*
X647362Y733563D01*
X649230Y732790D01*
X651251D01*
X653118Y733563D01*
X653669Y734115D01*
X661385D01*
X674425Y721075D01*
Y673100D01*
X674711Y671663D01*
X675525Y670445D01*
X687070Y658899D01*
Y658120D01*
X687843Y656252D01*
X689272Y654823D01*
X691140Y654050D01*
X693160D01*
X695028Y654823D01*
X696457Y656252D01*
X697230Y658120D01*
Y660141D01*
X696457Y662008D01*
X695028Y663437D01*
X693160Y664210D01*
X692381D01*
X681935Y674655D01*
Y722630D01*
X681649Y724067D01*
X680835Y725285D01*
X665595Y740525D01*
X664377Y741339D01*
X662940Y741625D01*
X653669D01*
X653118Y742177D01*
X651251Y742950D01*
D02*
G37*
G36*
X337187Y751840D02*
X326390D01*
Y741043D01*
X329076Y741763D01*
X332164Y743545D01*
X334685Y746066D01*
X336467Y749154D01*
X337187Y751840D01*
D02*
G37*
G36*
X321310D02*
X310513D01*
X311233Y749154D01*
X313015Y746066D01*
X315536Y743545D01*
X318624Y741763D01*
X321310Y741043D01*
Y751840D01*
D02*
G37*
G36*
X1107953Y726010D02*
X1104387D01*
X1100944Y725087D01*
X1097856Y723305D01*
X1095335Y720784D01*
X1093553Y717696D01*
X1092630Y714253D01*
Y710687D01*
X1093553Y707244D01*
X1095335Y704156D01*
X1097856Y701635D01*
X1100944Y699853D01*
X1104387Y698930D01*
X1107953D01*
X1111396Y699853D01*
X1114484Y701635D01*
X1117005Y704156D01*
X1118787Y707244D01*
X1119710Y710687D01*
Y714253D01*
X1118787Y717696D01*
X1117005Y720784D01*
X1114484Y723305D01*
X1111396Y725087D01*
X1107953Y726010D01*
D02*
G37*
G36*
X325633Y717120D02*
X322067D01*
X318624Y716197D01*
X315536Y714415D01*
X313015Y711894D01*
X311233Y708806D01*
X310310Y705363D01*
Y701797D01*
X311233Y698354D01*
X313015Y695266D01*
X315536Y692745D01*
X318624Y690963D01*
X322067Y690040D01*
X325633D01*
X329076Y690963D01*
X332164Y692745D01*
X334685Y695266D01*
X336467Y698354D01*
X337390Y701797D01*
Y705363D01*
X336467Y708806D01*
X334685Y711894D01*
X332164Y714415D01*
X329076Y716197D01*
X325633Y717120D01*
D02*
G37*
G36*
X508500Y682913D02*
X507500D01*
X502786Y682542D01*
X498188Y681438D01*
X493820Y679629D01*
X489788Y677158D01*
X486193Y674087D01*
X483122Y670492D01*
X480651Y666460D01*
X478842Y662092D01*
X477738Y657494D01*
X477367Y652780D01*
X477738Y648066D01*
X478842Y643468D01*
X480651Y639100D01*
X483122Y635068D01*
X486193Y631473D01*
X489788Y628402D01*
X493820Y625931D01*
X498188Y624122D01*
X502786Y623018D01*
X507500Y622647D01*
X508500D01*
X513214Y623018D01*
X517812Y624122D01*
X522180Y625931D01*
X526212Y628402D01*
X529807Y631473D01*
X532878Y635068D01*
X535349Y639100D01*
X537158Y643468D01*
X538262Y648066D01*
X538633Y652780D01*
X538262Y657494D01*
X537158Y662092D01*
X535349Y666460D01*
X532878Y670492D01*
X529807Y674087D01*
X526212Y677158D01*
X522180Y679629D01*
X517812Y681438D01*
X513214Y682542D01*
X508500Y682913D01*
D02*
G37*
G36*
X739140Y827313D02*
X704850D01*
X704156Y827175D01*
X703568Y826782D01*
X692138Y815352D01*
X691745Y814764D01*
X691607Y814070D01*
Y742950D01*
Y689610D01*
X691745Y688916D01*
X692138Y688328D01*
X720817Y659649D01*
Y626110D01*
X720955Y625416D01*
X721348Y624828D01*
X728968Y617208D01*
X729556Y616815D01*
X730250Y616677D01*
X739140Y616677D01*
X739834Y616815D01*
X740422Y617208D01*
X746772Y623558D01*
X747165Y624146D01*
X747303Y624840D01*
Y676910D01*
X747165Y677604D01*
X746772Y678192D01*
X728992Y695972D01*
X716823Y708141D01*
Y787919D01*
X723381Y794477D01*
X737870D01*
X738564Y794615D01*
X739152Y795008D01*
X746772Y802628D01*
X747165Y803216D01*
X747303Y803910D01*
Y819150D01*
X747165Y819844D01*
X746772Y820432D01*
X740422Y826782D01*
X739834Y827175D01*
X739140Y827313D01*
D02*
G37*
G36*
X873247Y542290D02*
X871226D01*
X869358Y541517D01*
X867929Y540088D01*
X867156Y538220D01*
Y536199D01*
X867929Y534332D01*
X869128Y533134D01*
Y516567D01*
X867929Y515368D01*
X867156Y513501D01*
Y511480D01*
X867929Y509613D01*
X869358Y508184D01*
X871226Y507410D01*
X873247D01*
X875114Y508184D01*
X876543Y509613D01*
X877316Y511480D01*
Y513501D01*
X876543Y515368D01*
X875344Y516567D01*
Y533134D01*
X876543Y534332D01*
X877316Y536199D01*
Y538220D01*
X876543Y540088D01*
X875114Y541517D01*
X873247Y542290D01*
D02*
G37*
G36*
X778510Y556439D02*
X319160D01*
X318119Y556232D01*
X317237Y555643D01*
X310770Y549176D01*
X310612Y549241D01*
X308591D01*
X306723Y548468D01*
X305294Y547039D01*
X304521Y545172D01*
Y543151D01*
X305294Y541284D01*
X306723Y539855D01*
X308591Y539081D01*
X310612D01*
X312479Y539855D01*
X313908Y541284D01*
X314681Y543151D01*
Y545172D01*
X314615Y545330D01*
X320286Y551001D01*
X550754D01*
X551007Y549731D01*
X549572Y549137D01*
X549021Y548585D01*
X539750D01*
X538313Y548299D01*
X537095Y547485D01*
X450565Y460955D01*
X401320D01*
X399883Y460669D01*
X398665Y459855D01*
X374535Y435725D01*
X373721Y434507D01*
X373435Y433070D01*
Y381889D01*
X372883Y381338D01*
X372110Y379470D01*
Y377775D01*
X367373Y373037D01*
X366699Y372029D01*
X366462Y370840D01*
Y352552D01*
X365350Y351673D01*
Y341090D01*
X364080D01*
D01*
X365350D01*
Y330652D01*
X366048Y330744D01*
X367883Y331504D01*
X369458Y332712D01*
X370666Y334287D01*
X371426Y336122D01*
X371685Y338090D01*
Y341081D01*
X372859Y341567D01*
X385153Y329272D01*
X386161Y328599D01*
X387350Y328362D01*
X430530D01*
X431719Y328599D01*
X432728Y329272D01*
X440704Y337249D01*
X442045Y336794D01*
X442134Y336122D01*
X442894Y334287D01*
X444102Y332712D01*
X445677Y331504D01*
X447512Y330744D01*
X448210Y330652D01*
Y341090D01*
Y351528D01*
X447512Y351436D01*
X445677Y350676D01*
X445068Y350208D01*
X443798Y350835D01*
Y369553D01*
X451435Y377190D01*
X453130D01*
X454998Y377963D01*
X456427Y379392D01*
X457200Y381259D01*
Y383280D01*
X456427Y385148D01*
X454998Y386577D01*
X453130Y387350D01*
X451110D01*
X449242Y386577D01*
X447813Y385148D01*
X447040Y383280D01*
Y381585D01*
X438493Y373037D01*
X437819Y372029D01*
X437582Y370840D01*
Y358839D01*
X436526Y358134D01*
X436050Y358331D01*
Y352590D01*
X433510D01*
Y358331D01*
X431500Y357499D01*
X430780Y356778D01*
X430060Y357499D01*
X428050Y358331D01*
Y352590D01*
X425510D01*
Y358331D01*
X423500Y357499D01*
X422780Y356778D01*
X422060Y357499D01*
X419932Y358380D01*
X417628D01*
X415500Y357499D01*
X414780Y356778D01*
X414060Y357499D01*
X412042Y358334D01*
Y377373D01*
X413468Y377963D01*
X414897Y379392D01*
X415670Y381259D01*
Y383280D01*
X414897Y385148D01*
X413468Y386577D01*
X411600Y387350D01*
X409580D01*
X407712Y386577D01*
X406780Y385644D01*
X405848Y386577D01*
X403980Y387350D01*
X401959D01*
X400092Y386577D01*
X398663Y385148D01*
X397890Y383280D01*
Y381259D01*
X398663Y379392D01*
X400092Y377963D01*
X401518Y377373D01*
Y358334D01*
X399500Y357499D01*
X398780Y356778D01*
X398060Y357499D01*
X395932Y358380D01*
X393628D01*
X391500Y357499D01*
X390780Y356778D01*
X390060Y357499D01*
X388050Y358331D01*
Y352590D01*
X385510D01*
Y358331D01*
X383500Y357499D01*
X382780Y356778D01*
X382060Y357499D01*
X380050Y358331D01*
Y352590D01*
X377510D01*
Y358331D01*
X375500Y357499D01*
X373948Y355946D01*
X373577Y355978D01*
X372678Y356306D01*
Y369553D01*
X376505Y373380D01*
X378200D01*
X380068Y374153D01*
X381497Y375582D01*
X382270Y377449D01*
Y379470D01*
X381497Y381338D01*
X380945Y381889D01*
Y431515D01*
X402875Y453445D01*
X452120D01*
X453557Y453731D01*
X454775Y454545D01*
X541305Y541075D01*
X549021D01*
X549572Y540523D01*
X551440Y539750D01*
X553461D01*
X555328Y540523D01*
X556757Y541952D01*
X557530Y543820D01*
Y545840D01*
X556757Y547708D01*
X555328Y549137D01*
X553893Y549731D01*
X554146Y551001D01*
X777384D01*
X826815Y501569D01*
Y481668D01*
X826657Y481602D01*
X825228Y480173D01*
X824454Y478306D01*
Y476285D01*
X825228Y474418D01*
X826657Y472989D01*
X827626Y472588D01*
X827924Y471090D01*
X813973Y457139D01*
X813682Y457219D01*
X812800Y457762D01*
Y459481D01*
X812027Y461348D01*
X810598Y462777D01*
X808730Y463550D01*
X807648D01*
Y479221D01*
X807677Y479234D01*
X809106Y480662D01*
X809879Y482530D01*
Y484551D01*
X809106Y486418D01*
X807677Y487847D01*
X805809Y488620D01*
X803789D01*
X802819Y488219D01*
X801549Y489067D01*
Y509384D01*
X801342Y510424D01*
X800753Y511307D01*
X775827Y536233D01*
X776467Y536872D01*
X777240Y538740D01*
Y540760D01*
X776467Y542628D01*
X775038Y544057D01*
X773170Y544830D01*
X771150D01*
X769282Y544057D01*
X767853Y542628D01*
X767080Y540760D01*
Y538740D01*
X767853Y536872D01*
X769282Y535443D01*
X770139Y535089D01*
X770279Y534381D01*
X770869Y533499D01*
X796111Y508257D01*
Y504794D01*
X794937Y504308D01*
X758843Y540403D01*
X757961Y540992D01*
X756920Y541199D01*
X751132D01*
X751067Y541358D01*
X749638Y542787D01*
X747770Y543560D01*
X745750D01*
X743882Y542787D01*
X742453Y541358D01*
X741680Y539491D01*
Y537469D01*
X742453Y535602D01*
X743882Y534173D01*
X745750Y533400D01*
X747770D01*
X749638Y534173D01*
X751067Y535602D01*
X751132Y535761D01*
X755794D01*
X767912Y523642D01*
X767287Y522472D01*
X767080Y522513D01*
X724651D01*
X720633Y526531D01*
Y538480D01*
X720495Y539174D01*
X720102Y539762D01*
X716292Y543572D01*
X715704Y543965D01*
X715010Y544103D01*
X703580D01*
X702886Y543965D01*
X702298Y543572D01*
X697853Y539127D01*
X697460Y538539D01*
X697322Y537845D01*
Y508116D01*
X682509Y493303D01*
X640080D01*
X639386Y493165D01*
X638798Y492772D01*
X636258Y490232D01*
X635865Y489644D01*
X635727Y488950D01*
Y473710D01*
X635865Y473016D01*
X636258Y472428D01*
X638798Y469888D01*
X639386Y469495D01*
X640080Y469357D01*
X685800D01*
X686494Y469495D01*
X687082Y469888D01*
X719571Y502377D01*
X740929D01*
X746217Y497089D01*
X746217Y468630D01*
X746355Y467936D01*
X746748Y467348D01*
X753098Y460998D01*
X753686Y460605D01*
X754380Y460467D01*
X762000D01*
X762694Y460605D01*
X763282Y460998D01*
X769632Y467348D01*
X770025Y467936D01*
X770163Y468630D01*
Y503419D01*
X771105Y504229D01*
X771318Y504169D01*
X772160Y503640D01*
Y501909D01*
X772933Y500042D01*
X774362Y498613D01*
X776229Y497840D01*
X777016D01*
Y410255D01*
X777223Y409215D01*
X777812Y408332D01*
X801436Y384709D01*
X801370Y384551D01*
Y382529D01*
X802143Y380662D01*
X803572Y379233D01*
X805440Y378460D01*
X807460D01*
X809328Y379233D01*
X810757Y380662D01*
X811530Y382529D01*
Y384551D01*
X810757Y386418D01*
X809328Y387847D01*
X807460Y388620D01*
X805440D01*
X805281Y388554D01*
X782454Y411382D01*
Y468451D01*
X783110Y468660D01*
X783724Y468662D01*
X784207Y467939D01*
X785940Y466207D01*
Y455675D01*
X784973Y454708D01*
X784383Y453826D01*
X784176Y452785D01*
Y424684D01*
X784383Y423644D01*
X784973Y422762D01*
X825566Y382169D01*
X825500Y382010D01*
Y379990D01*
X826273Y378122D01*
X827702Y376693D01*
X829569Y375920D01*
X831590D01*
X833458Y376693D01*
X834887Y378122D01*
X835660Y379990D01*
Y382010D01*
X834887Y383878D01*
X833458Y385307D01*
X831590Y386080D01*
X829569D01*
X829411Y386014D01*
X789615Y425811D01*
Y451659D01*
X790582Y452626D01*
X790784Y452928D01*
X792116Y452742D01*
X792705Y451859D01*
X811324Y433240D01*
X811324Y433240D01*
X812206Y432651D01*
X813247Y432444D01*
X826917D01*
X826983Y432285D01*
X828412Y430856D01*
X830279Y430083D01*
X832300D01*
X834167Y430856D01*
X835596Y432285D01*
X836370Y434152D01*
Y436173D01*
X836304Y436332D01*
X851553Y451580D01*
X852142Y452463D01*
X852349Y453503D01*
X852349Y453503D01*
Y471314D01*
X855836Y474801D01*
X873334D01*
X873587Y473531D01*
X872152Y472937D01*
X870723Y471508D01*
X869950Y469641D01*
Y467620D01*
X870723Y465752D01*
X871461Y465015D01*
X872054Y464185D01*
X871461Y463355D01*
X870723Y462618D01*
X869950Y460751D01*
Y458730D01*
X870723Y456862D01*
X872152Y455433D01*
X874019Y454660D01*
X876040D01*
X876199Y454726D01*
X935337Y395587D01*
X936219Y394998D01*
X937260Y394791D01*
X1016708D01*
X1016773Y394632D01*
X1018202Y393203D01*
X1020070Y392430D01*
X1022091D01*
X1023958Y393203D01*
X1025387Y394632D01*
X1026160Y396499D01*
Y398521D01*
X1025387Y400388D01*
X1023958Y401817D01*
X1022091Y402590D01*
X1020070D01*
X1018202Y401817D01*
X1016773Y400388D01*
X1016708Y400229D01*
X938386D01*
X925814Y412802D01*
X926440Y413972D01*
X927100Y413841D01*
X927100Y413841D01*
X1016708D01*
X1016773Y413682D01*
X1018202Y412253D01*
X1020070Y411480D01*
X1022091D01*
X1023958Y412253D01*
X1025387Y413682D01*
X1026160Y415550D01*
Y417570D01*
X1025387Y419438D01*
X1023958Y420867D01*
X1022091Y421640D01*
X1020070D01*
X1018202Y420867D01*
X1016773Y419438D01*
X1016708Y419279D01*
X928226D01*
X880044Y467461D01*
X880110Y467620D01*
Y469641D01*
X879337Y471508D01*
X877908Y472937D01*
X876473Y473531D01*
X876726Y474801D01*
X877570D01*
X878611Y475008D01*
X879493Y475597D01*
X930293Y526397D01*
X930882Y527279D01*
X931089Y528320D01*
Y535378D01*
X931248Y535443D01*
X932677Y536872D01*
X933450Y538740D01*
Y540760D01*
X932677Y542628D01*
X931248Y544057D01*
X929380Y544830D01*
X927359D01*
X925492Y544057D01*
X924063Y542628D01*
X923290Y540760D01*
Y538740D01*
X924063Y536872D01*
X925492Y535443D01*
X925651Y535378D01*
Y529446D01*
X876444Y480239D01*
X870159D01*
X870089Y480418D01*
X869947Y481509D01*
X870603Y481947D01*
X904893Y516237D01*
X905482Y517119D01*
X905689Y518160D01*
Y535378D01*
X905848Y535443D01*
X907277Y536872D01*
X908050Y538740D01*
Y540760D01*
X907277Y542628D01*
X905848Y544057D01*
X903980Y544830D01*
X901960D01*
X900092Y544057D01*
X898663Y542628D01*
X897890Y540760D01*
Y538740D01*
X898663Y536872D01*
X900092Y535443D01*
X900251Y535378D01*
Y519286D01*
X867554Y486589D01*
X844550D01*
X843509Y486382D01*
X842627Y485793D01*
X835741Y478906D01*
X834242Y479204D01*
X833841Y480173D01*
X832412Y481602D01*
X832253Y481668D01*
Y502696D01*
X832254Y502696D01*
X832047Y503736D01*
X831457Y504618D01*
X831457Y504619D01*
X780433Y555643D01*
X779551Y556232D01*
X778510Y556439D01*
D02*
G37*
G36*
X752088Y386334D02*
X750068D01*
X748200Y385561D01*
X747001Y384362D01*
X682256D01*
X681058Y385561D01*
X679191Y386334D01*
X677169D01*
X675302Y385561D01*
X673873Y384132D01*
X673100Y382265D01*
Y380243D01*
X673873Y378376D01*
X675302Y376947D01*
X677169Y376174D01*
X679191D01*
X681058Y376947D01*
X682256Y378146D01*
X747001D01*
X748200Y376947D01*
X750068Y376174D01*
X752088D01*
X753956Y376947D01*
X755385Y378376D01*
X756158Y380243D01*
Y382265D01*
X755385Y384132D01*
X753956Y385561D01*
X752088Y386334D01*
D02*
G37*
G36*
X641090Y364490D02*
X639070D01*
X637202Y363717D01*
X636003Y362518D01*
X548640D01*
X547451Y362281D01*
X546442Y361608D01*
X507983Y323148D01*
X347997D01*
X328587Y342557D01*
X327579Y343231D01*
X326390Y343468D01*
X279667D01*
X278468Y344667D01*
X276600Y345440D01*
X274580D01*
X272712Y344667D01*
X271283Y343238D01*
X270510Y341371D01*
Y339350D01*
X271283Y337482D01*
X272712Y336053D01*
X274580Y335280D01*
X276600D01*
X278468Y336053D01*
X279667Y337252D01*
X325103D01*
X344512Y317843D01*
X345521Y317169D01*
X346710Y316932D01*
X509270D01*
X510459Y317169D01*
X511468Y317843D01*
X549927Y356302D01*
X636003D01*
X637202Y355103D01*
X639070Y354330D01*
X641090D01*
X642958Y355103D01*
X644387Y356532D01*
X645160Y358400D01*
Y360420D01*
X644387Y362288D01*
X642958Y363717D01*
X641090Y364490D01*
D02*
G37*
G36*
X450750Y351528D02*
Y342360D01*
X457085D01*
Y344090D01*
X456826Y346058D01*
X456066Y347892D01*
X454857Y349468D01*
X453283Y350676D01*
X451448Y351436D01*
X450750Y351528D01*
D02*
G37*
G36*
X362810D02*
X362112Y351436D01*
X360277Y350676D01*
X358703Y349468D01*
X357494Y347892D01*
X356734Y346058D01*
X356475Y344090D01*
Y342360D01*
X362810D01*
Y351528D01*
D02*
G37*
G36*
X457085Y339820D02*
X450750D01*
Y330652D01*
X451448Y330744D01*
X453283Y331504D01*
X454857Y332712D01*
X456066Y334287D01*
X456826Y336122D01*
X457085Y338090D01*
Y339820D01*
D02*
G37*
G36*
X362810D02*
X356475D01*
Y338090D01*
X356734Y336122D01*
X357494Y334287D01*
X358703Y332712D01*
X360277Y331504D01*
X362112Y330744D01*
X362810Y330652D01*
Y339820D01*
D02*
G37*
G36*
X365350Y304228D02*
Y295060D01*
X371685D01*
Y296790D01*
X371426Y298759D01*
X370666Y300593D01*
X369458Y302168D01*
X367883Y303376D01*
X366048Y304136D01*
X365350Y304228D01*
D02*
G37*
G36*
X450750D02*
Y295060D01*
X457085D01*
Y296790D01*
X456826Y298759D01*
X456066Y300593D01*
X454857Y302168D01*
X453283Y303376D01*
X451448Y304136D01*
X450750Y304228D01*
D02*
G37*
G36*
X448210D02*
X447512Y304136D01*
X445677Y303376D01*
X444102Y302168D01*
X442894Y300593D01*
X442134Y298759D01*
X441875Y296790D01*
Y295060D01*
X448210D01*
Y304228D01*
D02*
G37*
G36*
X362810D02*
X362112Y304136D01*
X360277Y303376D01*
X358703Y302168D01*
X357494Y300593D01*
X356734Y298759D01*
X356475Y296790D01*
Y295060D01*
X362810D01*
Y304228D01*
D02*
G37*
G36*
X364080Y293790D02*
D01*
D01*
D01*
D02*
G37*
G36*
X371685Y292520D02*
X365350D01*
Y283352D01*
X366048Y283444D01*
X367883Y284204D01*
X369458Y285413D01*
X370666Y286988D01*
X371426Y288822D01*
X371685Y290790D01*
Y292520D01*
D02*
G37*
G36*
X457085D02*
X450750D01*
Y283352D01*
X451448Y283444D01*
X453283Y284204D01*
X454857Y285413D01*
X456066Y286988D01*
X456826Y288822D01*
X457085Y290790D01*
Y292520D01*
D02*
G37*
G36*
X448210D02*
X441875D01*
Y290790D01*
X442134Y288822D01*
X442894Y286988D01*
X444102Y285413D01*
X445677Y284204D01*
X447512Y283444D01*
X448210Y283352D01*
Y292520D01*
D02*
G37*
G36*
X362810D02*
X356475D01*
Y290790D01*
X356734Y288822D01*
X357494Y286988D01*
X358703Y285413D01*
X360277Y284204D01*
X362112Y283444D01*
X362810Y283352D01*
Y292520D01*
D02*
G37*
G36*
X1123950Y335433D02*
X1119236Y335062D01*
X1114638Y333958D01*
X1110270Y332149D01*
X1106238Y329678D01*
X1102643Y326607D01*
X1099572Y323012D01*
X1097101Y318980D01*
X1095292Y314612D01*
X1094188Y310014D01*
X1093817Y305300D01*
Y304300D01*
X1094188Y299586D01*
X1095292Y294988D01*
X1097101Y290620D01*
X1099572Y286588D01*
X1102643Y282993D01*
X1106238Y279922D01*
X1110270Y277451D01*
X1114638Y275642D01*
X1119236Y274538D01*
X1123950Y274167D01*
X1128664Y274538D01*
X1133262Y275642D01*
X1137630Y277451D01*
X1141662Y279922D01*
X1145257Y282993D01*
X1148328Y286588D01*
X1150799Y290620D01*
X1152608Y294988D01*
X1153712Y299586D01*
X1154083Y304300D01*
Y305300D01*
X1153712Y310014D01*
X1152608Y314612D01*
X1150799Y318980D01*
X1148328Y323012D01*
X1145257Y326607D01*
X1141662Y329678D01*
X1137630Y332149D01*
X1133262Y333958D01*
X1128664Y335062D01*
X1123950Y335433D01*
D02*
G37*
G36*
X304800D02*
X300086Y335062D01*
X295488Y333958D01*
X291120Y332149D01*
X287088Y329678D01*
X283493Y326607D01*
X280422Y323012D01*
X277951Y318980D01*
X276142Y314612D01*
X275038Y310014D01*
X274667Y305300D01*
Y304300D01*
X275038Y299586D01*
X276142Y294988D01*
X277951Y290620D01*
X280422Y286588D01*
X283493Y282993D01*
X287088Y279922D01*
X291120Y277451D01*
X295488Y275642D01*
X300086Y274538D01*
X304800Y274167D01*
X309514Y274538D01*
X314112Y275642D01*
X318480Y277451D01*
X322512Y279922D01*
X326107Y282993D01*
X329178Y286588D01*
X331649Y290620D01*
X333458Y294988D01*
X334562Y299586D01*
X334933Y304300D01*
Y305300D01*
X334562Y310014D01*
X333458Y314612D01*
X331649Y318980D01*
X329178Y323012D01*
X326107Y326607D01*
X322512Y329678D01*
X318480Y332149D01*
X314112Y333958D01*
X309514Y335062D01*
X304800Y335433D01*
D02*
G37*
%LPD*%
G36*
X686502Y630955D02*
Y584467D01*
X685995Y583959D01*
X685165Y583366D01*
X684335Y583959D01*
X683828Y584467D01*
Y628650D01*
X683591Y629839D01*
X682917Y630848D01*
X534553Y779212D01*
X534773Y780090D01*
X535041Y780482D01*
X536975D01*
X686502Y630955D01*
D02*
G37*
G36*
X745490Y819150D02*
Y803910D01*
X737870Y796290D01*
X722630D01*
X715010Y788670D01*
Y707390D01*
X727710Y694690D01*
X745490Y676910D01*
Y624840D01*
X739140Y618490D01*
X730250Y618490D01*
X722630Y626110D01*
Y660400D01*
X693420Y689610D01*
Y742950D01*
Y814070D01*
X704850Y825500D01*
X739140D01*
X745490Y819150D01*
D02*
G37*
G36*
X791909Y499646D02*
Y487380D01*
X791449Y487054D01*
X790639Y486854D01*
X789630Y487863D01*
X787763Y488636D01*
X785742D01*
X783875Y487863D01*
X783627Y487615D01*
X782454Y488101D01*
Y500227D01*
X782247Y501268D01*
X782128Y501446D01*
X782320Y501909D01*
Y503931D01*
X781547Y505798D01*
X780118Y507227D01*
X778251Y508000D01*
X776229D01*
X775181Y507566D01*
X774825Y507694D01*
X773973Y508440D01*
Y515620D01*
X773932Y515827D01*
X775102Y516452D01*
X791909Y499646D01*
D02*
G37*
G36*
X714996Y542257D02*
X715136Y542164D01*
X718560Y538740D01*
X718560Y538740D01*
X718820Y538301D01*
Y525780D01*
X723369Y521231D01*
X723369Y521231D01*
X723900Y520700D01*
X766901D01*
X766933Y520694D01*
X767023D01*
X767109Y520668D01*
X767112Y520668D01*
X772128Y515652D01*
X772128Y515649D01*
X772154Y515563D01*
Y515473D01*
X772160Y515441D01*
Y508000D01*
X768350Y504190D01*
Y468809D01*
X768317Y468644D01*
X768224Y468504D01*
X762126Y462406D01*
X761986Y462313D01*
X761822Y462280D01*
X754559D01*
X754394Y462313D01*
X754254Y462406D01*
X748156Y468504D01*
X748063Y468644D01*
X748030Y468809D01*
X748030Y497840D01*
X741680Y504190D01*
X718820D01*
X685926Y471296D01*
X685786Y471203D01*
X685621Y471170D01*
X640259D01*
X640094Y471203D01*
X639954Y471296D01*
X637666Y473584D01*
X637573Y473724D01*
X637540Y473889D01*
Y488771D01*
X637573Y488936D01*
X637666Y489076D01*
X639954Y491364D01*
X640094Y491457D01*
X640258Y491490D01*
X683260D01*
X699135Y507365D01*
Y537666D01*
X699168Y537831D01*
X699261Y537971D01*
X703454Y542164D01*
X703594Y542257D01*
X703759Y542290D01*
X714831D01*
X714996Y542257D01*
D02*
G37*
G36*
X853301Y480972D02*
X853443Y479881D01*
X852787Y479443D01*
X847707Y474363D01*
X847118Y473481D01*
X846911Y472440D01*
Y454630D01*
X832459Y440177D01*
X832300Y440243D01*
X830279D01*
X828412Y439469D01*
X826983Y438041D01*
X826917Y437882D01*
X814373D01*
X810186Y442069D01*
X810484Y443567D01*
X811537Y444003D01*
X812967Y445432D01*
X813740Y447299D01*
Y449214D01*
X845676Y481151D01*
X853231D01*
X853301Y480972D01*
D02*
G37*
G36*
X407500Y347682D02*
X409104Y347017D01*
X408990Y346742D01*
Y344438D01*
X409871Y342310D01*
X411500Y340681D01*
X413628Y339800D01*
X415932D01*
X418060Y340681D01*
X418780Y341402D01*
X419500Y340681D01*
X421628Y339800D01*
X423932D01*
X426060Y340681D01*
X426780Y341402D01*
X427500Y340681D01*
X429628Y339800D01*
X431932D01*
X433190Y340321D01*
X433909Y339244D01*
X429243Y334578D01*
X388637D01*
X384539Y338677D01*
X384837Y340175D01*
X386060Y340681D01*
X386780Y341402D01*
X387500Y340681D01*
X389628Y339800D01*
X391932D01*
X394060Y340681D01*
X394780Y341402D01*
X395500Y340681D01*
X397628Y339800D01*
X399932D01*
X402060Y340681D01*
X403689Y342310D01*
X404570Y344438D01*
Y346742D01*
X404456Y347017D01*
X406060Y347682D01*
X406780Y348402D01*
X407500Y347682D01*
D02*
G37*
D17*
X806450Y383540D02*
Y383540D01*
X779735Y410255D02*
X806450Y383540D01*
X779735Y410255D02*
Y500227D01*
X777240Y502722D02*
Y502920D01*
Y502722D02*
X779735Y500227D01*
X798830Y458470D02*
Y509383D01*
X786896Y424684D02*
X830580Y381000D01*
X794628Y487166D02*
Y500772D01*
X786896Y424684D02*
Y452785D01*
X798830Y458470D02*
X808660Y448640D01*
X794628Y453782D02*
Y487166D01*
X772792Y535422D02*
X798830Y509384D01*
X794628Y453782D02*
X813247Y435163D01*
X798830Y509383D02*
Y509384D01*
X756920Y538480D02*
X794628Y500772D01*
X937260Y397510D02*
X1021080D01*
X875030Y459740D02*
X937260Y397510D01*
X927100Y416560D02*
X1021080D01*
X875030Y468630D02*
X927100Y416560D01*
X849630Y472440D02*
X854710Y477520D01*
X849630Y453503D02*
Y472440D01*
X831290Y435163D02*
X849630Y453503D01*
X854710Y477520D02*
X877570D01*
X813247Y435163D02*
X831290D01*
X319160Y553720D02*
X778510D01*
X309601Y544161D02*
X319160Y553720D01*
X778510D02*
X829534Y502696D01*
Y477296D02*
Y502696D01*
X786130Y482933D02*
X786753Y483556D01*
X786130Y469862D02*
Y482933D01*
X808990Y448310D02*
X844550Y483870D01*
X808660Y448310D02*
Y448640D01*
X746760Y538480D02*
X756920D01*
X772160Y539750D02*
X772792Y539118D01*
Y535422D02*
Y539118D01*
X788659Y454549D02*
Y467333D01*
X786130Y469862D02*
X788659Y467333D01*
X877570Y477520D02*
X928370Y528320D01*
Y539750D01*
X844550Y483870D02*
X868680D01*
X902970Y518160D01*
Y539750D01*
X786896Y452785D02*
X788659Y454549D01*
D18*
X504190Y792480D02*
X504490Y792780D01*
X504190Y792480D02*
X513080Y783590D01*
X538262D01*
X689610Y632242D01*
Y580390D02*
Y632242D01*
X872236Y512490D02*
Y537210D01*
X678180Y381254D02*
X751078D01*
X275590Y340360D02*
X326390D01*
X346710Y320040D01*
X509270D01*
X548640Y359410D01*
X640080D01*
X371620Y347200D02*
X387350Y331470D01*
X371620Y347200D02*
Y347213D01*
X369570Y370840D02*
X377190Y378460D01*
X440690Y370840D02*
X452120Y382270D01*
X440690Y341630D02*
Y370840D01*
X430530Y331470D02*
X440690Y341630D01*
X387350Y331470D02*
X430530D01*
X369570Y349263D02*
X371620Y347213D01*
X369570Y349263D02*
Y370840D01*
X680720Y580390D02*
Y628650D01*
X532130Y777240D02*
X680720Y628650D01*
X469900Y777240D02*
X532130D01*
X454660Y792480D02*
X469900Y777240D01*
D92*
X807720Y458470D02*
Y459295D01*
X804799Y462216D02*
Y483540D01*
Y462216D02*
X807720Y459295D01*
D93*
X402780Y352590D02*
Y353595D01*
X404752Y355566D01*
X404117Y379589D02*
Y380503D01*
X409443D02*
X410590Y381650D01*
X409443Y379589D02*
Y380503D01*
X408808Y355566D02*
X410780Y353595D01*
X404752Y355566D02*
Y378954D01*
X402970Y381650D02*
Y382270D01*
Y381650D02*
X404117Y380503D01*
Y379589D02*
X404752Y378954D01*
X410590Y381650D02*
Y382270D01*
X408808Y355566D02*
Y378954D01*
X409443Y379589D01*
X410780Y352590D02*
Y353595D01*
D94*
X539750Y544830D02*
X552450D01*
X401320Y457200D02*
X452120D01*
X539750Y544830D01*
X662940Y737870D02*
X678180Y722630D01*
X623570Y737870D02*
X662940D01*
X678180Y673100D02*
Y722630D01*
Y673100D02*
X692150Y659130D01*
X826770Y742950D02*
X852170D01*
X819150Y735330D02*
X826770Y742950D01*
X819150Y660400D02*
Y735330D01*
X846811Y659335D02*
X863600Y676124D01*
X806450Y781050D02*
X814070D01*
X828040D01*
X863600Y745490D01*
Y676124D02*
Y745490D01*
X377190Y378460D02*
Y433070D01*
X401320Y457200D01*
D95*
X1106170Y712470D02*
D03*
Y763270D02*
D03*
X323850Y754380D02*
D03*
Y703580D02*
D03*
D96*
X449480Y293790D02*
D03*
X364080D02*
D03*
Y341090D02*
D03*
X449480D02*
D03*
D97*
X402780Y352590D02*
D03*
X398780Y345590D02*
D03*
X394780Y352590D02*
D03*
X386780D02*
D03*
X378780D02*
D03*
X390780Y345590D02*
D03*
X382780D02*
D03*
X430780D02*
D03*
X422780D02*
D03*
X434780Y352590D02*
D03*
X426780D02*
D03*
X418780D02*
D03*
X414780Y345590D02*
D03*
X410780Y352590D02*
D03*
D98*
X509270Y742950D02*
D03*
X508000Y652780D02*
D03*
D99*
X304800Y304800D02*
D03*
Y836930D02*
D03*
X1123950D02*
D03*
Y304800D02*
D03*
D100*
X739140Y739140D02*
D03*
Y731520D02*
D03*
X731520Y762000D02*
D03*
Y754380D02*
D03*
Y746760D02*
D03*
Y739140D02*
D03*
X624840Y406400D02*
D03*
X806450Y383540D02*
D03*
X807720Y458470D02*
D03*
X804799Y483540D02*
D03*
X1021080Y397510D02*
D03*
Y416560D02*
D03*
X843280Y473710D02*
D03*
X830580Y445770D02*
D03*
X831290Y435163D02*
D03*
X760730Y440690D02*
D03*
Y448310D02*
D03*
X410590Y382270D02*
D03*
X402970D02*
D03*
X853440Y502920D02*
D03*
Y495300D02*
D03*
X845820Y502920D02*
D03*
Y495300D02*
D03*
X624840Y421640D02*
D03*
Y414020D02*
D03*
X617220Y421640D02*
D03*
Y414020D02*
D03*
Y406400D02*
D03*
X609600Y421640D02*
D03*
Y414020D02*
D03*
Y406400D02*
D03*
X601980Y421640D02*
D03*
Y414020D02*
D03*
Y406400D02*
D03*
X594360Y421640D02*
D03*
Y414020D02*
D03*
Y406400D02*
D03*
X727710Y351790D02*
D03*
Y359410D02*
D03*
X754380D02*
D03*
X746760D02*
D03*
Y351790D02*
D03*
X740410Y497840D02*
D03*
X759460Y527050D02*
D03*
X709930Y534670D02*
D03*
X674370Y529590D02*
D03*
Y521970D02*
D03*
X621030Y538480D02*
D03*
X623570Y563880D02*
D03*
X466090Y547370D02*
D03*
X528320Y520700D02*
D03*
X520700Y537210D02*
D03*
Y544830D02*
D03*
X472440Y575310D02*
D03*
X975360Y563880D02*
D03*
Y556260D02*
D03*
Y548640D02*
D03*
Y541020D02*
D03*
X967740Y563880D02*
D03*
Y556260D02*
D03*
Y548640D02*
D03*
Y541020D02*
D03*
X915670D02*
D03*
X967740Y716280D02*
D03*
Y708660D02*
D03*
X960120Y716280D02*
D03*
Y708660D02*
D03*
X952500Y716280D02*
D03*
Y708660D02*
D03*
X944880Y716280D02*
D03*
Y708660D02*
D03*
X937260Y716280D02*
D03*
Y708660D02*
D03*
Y632460D02*
D03*
X929640D02*
D03*
X647700Y487680D02*
D03*
Y480060D02*
D03*
X829534Y477296D02*
D03*
X758520Y468630D02*
D03*
X786753Y483556D02*
D03*
X808660Y448310D02*
D03*
X772160Y539750D02*
D03*
X746760Y538480D02*
D03*
X777240Y502920D02*
D03*
X767080Y513080D02*
D03*
X736600D02*
D03*
X650240Y737870D02*
D03*
X641350D02*
D03*
X632460D02*
D03*
X623570D02*
D03*
X692150Y659130D02*
D03*
X852170Y742950D02*
D03*
X844550D02*
D03*
X819150Y660400D02*
D03*
X814070Y781050D02*
D03*
X806450D02*
D03*
X846811Y659335D02*
D03*
X739140Y815340D02*
D03*
Y807720D02*
D03*
X731520Y815340D02*
D03*
Y807720D02*
D03*
Y800100D02*
D03*
Y670560D02*
D03*
Y632460D02*
D03*
Y624840D02*
D03*
X723900Y815340D02*
D03*
Y807720D02*
D03*
Y800100D02*
D03*
X716280Y815340D02*
D03*
Y807720D02*
D03*
X708660Y815340D02*
D03*
Y807720D02*
D03*
X701040Y815340D02*
D03*
Y807720D02*
D03*
X504490Y792780D02*
D03*
X689610Y580390D02*
D03*
X928370Y539750D02*
D03*
X872236Y537210D02*
D03*
Y512490D02*
D03*
X751078Y381254D02*
D03*
X678180D02*
D03*
X875030Y468630D02*
D03*
Y459740D02*
D03*
X902970Y539750D02*
D03*
X830580Y381000D02*
D03*
X309601Y544161D02*
D03*
X275590Y340360D02*
D03*
X640080Y359410D02*
D03*
X552450Y544830D02*
D03*
X452120Y382270D02*
D03*
X377190Y378460D02*
D03*
X680720Y580390D02*
D03*
X454660Y792480D02*
D03*
M02*
