G04*
G04 #@! TF.GenerationSoftware,Altium Limited,Altium Designer,24.2.2 (26)*
G04*
G04 Layer_Color=8421504*
%FSLAX44Y44*%
%MOMM*%
G71*
G04*
G04 #@! TF.SameCoordinates,EFECB0DB-55D9-47D9-9B57-CE66261CE064*
G04*
G04*
G04 #@! TF.FilePolarity,Positive*
G04*
G01*
G75*
%ADD18R,1.5000X1.5000*%
%ADD19R,1.5000X1.5000*%
%ADD20R,0.7500X0.4000*%
%ADD21R,2.7940X1.9939*%
%ADD22R,1.5500X1.0000*%
%ADD23R,0.3500X0.4000*%
%ADD24R,0.9000X1.0000*%
%ADD25R,0.4000X0.3500*%
%ADD26R,0.6000X1.5500*%
%ADD27R,1.2000X1.8000*%
G04:AMPARAMS|DCode=28|XSize=0.2mm|YSize=0.84mm|CornerRadius=0.025mm|HoleSize=0mm|Usage=FLASHONLY|Rotation=270.000|XOffset=0mm|YOffset=0mm|HoleType=Round|Shape=RoundedRectangle|*
%AMROUNDEDRECTD28*
21,1,0.2000,0.7900,0,0,270.0*
21,1,0.1500,0.8400,0,0,270.0*
1,1,0.0500,-0.3950,-0.0750*
1,1,0.0500,-0.3950,0.0750*
1,1,0.0500,0.3950,0.0750*
1,1,0.0500,0.3950,-0.0750*
%
%ADD28ROUNDEDRECTD28*%
G04:AMPARAMS|DCode=29|XSize=0.84mm|YSize=0.2mm|CornerRadius=0.025mm|HoleSize=0mm|Usage=FLASHONLY|Rotation=270.000|XOffset=0mm|YOffset=0mm|HoleType=Round|Shape=RoundedRectangle|*
%AMROUNDEDRECTD29*
21,1,0.8400,0.1500,0,0,270.0*
21,1,0.7900,0.2000,0,0,270.0*
1,1,0.0500,-0.0750,-0.3950*
1,1,0.0500,-0.0750,0.3950*
1,1,0.0500,0.0750,0.3950*
1,1,0.0500,0.0750,-0.3950*
%
%ADD29ROUNDEDRECTD29*%
%ADD30R,1.9600X1.9600*%
%ADD31R,1.6500X0.6500*%
%ADD32R,1.2000X1.4000*%
%ADD33R,1.0000X0.7000*%
G04:AMPARAMS|DCode=34|XSize=0.67mm|YSize=0.3mm|CornerRadius=0.0495mm|HoleSize=0mm|Usage=FLASHONLY|Rotation=0.000|XOffset=0mm|YOffset=0mm|HoleType=Round|Shape=RoundedRectangle|*
%AMROUNDEDRECTD34*
21,1,0.6700,0.2010,0,0,0.0*
21,1,0.5710,0.3000,0,0,0.0*
1,1,0.0990,0.2855,-0.1005*
1,1,0.0990,-0.2855,-0.1005*
1,1,0.0990,-0.2855,0.1005*
1,1,0.0990,0.2855,0.1005*
%
%ADD34ROUNDEDRECTD34*%
%ADD35R,1.2000X1.2000*%
%ADD36R,1.2000X1.2000*%
%ADD37R,1.3000X1.8000*%
%ADD38R,0.8000X0.9000*%
%ADD39R,0.9000X0.8000*%
%ADD40R,1.0000X0.5200*%
%ADD41R,1.0000X0.2700*%
%ADD42R,2.0000X1.0000*%
%ADD43R,1.5500X0.6000*%
%ADD44R,1.8000X1.2000*%
%ADD45R,0.9000X1.0000*%
%ADD46R,0.6000X0.6400*%
%ADD47R,1.3000X2.7000*%
%ADD48R,2.3000X4.5500*%
%ADD49R,1.3970X2.9972*%
%ADD50R,1.0000X1.2000*%
%ADD51R,0.5000X0.4000*%
%ADD52R,0.6000X0.5000*%
%ADD53R,0.5000X0.6000*%
%ADD54R,1.8000X1.3000*%
%ADD55R,1.0922X2.0066*%
%ADD56R,1.0922X0.7874*%
%ADD57R,0.7000X0.5000*%
%ADD58R,0.5500X0.4000*%
%ADD59R,0.8000X0.3000*%
%ADD60R,1.5052X0.5721*%
G04:AMPARAMS|DCode=61|XSize=1.5052mm|YSize=0.5721mm|CornerRadius=0.2861mm|HoleSize=0mm|Usage=FLASHONLY|Rotation=180.000|XOffset=0mm|YOffset=0mm|HoleType=Round|Shape=RoundedRectangle|*
%AMROUNDEDRECTD61*
21,1,1.5052,0.0000,0,0,180.0*
21,1,0.9331,0.5721,0,0,180.0*
1,1,0.5721,-0.4666,0.0000*
1,1,0.5721,0.4666,0.0000*
1,1,0.5721,0.4666,0.0000*
1,1,0.5721,-0.4666,0.0000*
%
%ADD61ROUNDEDRECTD61*%
G36*
X884555Y1096010D02*
X872490D01*
X878840Y1102360D01*
X872490Y1108710D01*
X884555D01*
Y1096010D01*
D02*
G37*
G36*
X875030Y1102360D02*
X868045Y1096010D01*
X861695D01*
Y1108710D01*
X868045D01*
X875030Y1102360D01*
D02*
G37*
G36*
X652145Y1027430D02*
X640080D01*
X646430Y1033780D01*
X640080Y1040130D01*
X652145D01*
Y1027430D01*
D02*
G37*
G36*
X642620Y1033780D02*
X635635Y1027430D01*
X629285D01*
Y1040130D01*
X635635D01*
X642620Y1033780D01*
D02*
G37*
G36*
X684955Y888020D02*
X685139Y887903D01*
X685332Y887802D01*
X685534Y887719D01*
X685742Y887653D01*
X685956Y887606D01*
X686172Y887577D01*
X686390Y887568D01*
X688638D01*
Y869107D01*
X687104Y867572D01*
X686390D01*
X686172Y867563D01*
X685955Y867534D01*
X685742Y867487D01*
X685534Y867421D01*
X685451Y867387D01*
X685332Y867338D01*
X685139Y867237D01*
X684955Y867120D01*
X684890Y867070D01*
X684825Y867120D01*
X684641Y867237D01*
X684448Y867338D01*
X684246Y867421D01*
X684038Y867487D01*
X683825Y867534D01*
X683608Y867563D01*
X683390Y867572D01*
X681390D01*
X681172Y867563D01*
X680956Y867534D01*
X680742Y867487D01*
X680534Y867421D01*
X680332Y867338D01*
X680139Y867237D01*
X679955Y867120D01*
X679890Y867070D01*
X679825Y867120D01*
X679641Y867237D01*
X679448Y867338D01*
X679246Y867421D01*
X679038Y867487D01*
X678825Y867534D01*
X678608Y867563D01*
X678390Y867572D01*
X678390D01*
D01*
X676142D01*
Y887568D01*
X678390D01*
X678608Y887577D01*
X678825Y887606D01*
X679038Y887653D01*
X679246Y887719D01*
X679448Y887802D01*
X679641Y887903D01*
X679825Y888020D01*
X679890Y888070D01*
X679955Y888020D01*
X680139Y887903D01*
X680332Y887802D01*
X680534Y887719D01*
X680742Y887653D01*
X680956Y887606D01*
X681172Y887577D01*
X681390Y887568D01*
X683390D01*
X683608Y887577D01*
X683825Y887606D01*
X684038Y887653D01*
X684246Y887719D01*
X684448Y887802D01*
X684641Y887903D01*
X684825Y888020D01*
X684890Y888070D01*
X684955Y888020D01*
D02*
G37*
G36*
Y838490D02*
X685139Y838373D01*
X685332Y838272D01*
X685534Y838188D01*
X685742Y838123D01*
X685956Y838076D01*
X686172Y838047D01*
X686390Y838038D01*
X688638D01*
Y819576D01*
X687104Y818042D01*
X686390D01*
X686172Y818033D01*
X685955Y818004D01*
X685742Y817957D01*
X685534Y817891D01*
X685451Y817857D01*
X685332Y817808D01*
X685139Y817707D01*
X684955Y817590D01*
X684890Y817540D01*
X684825Y817590D01*
X684641Y817707D01*
X684448Y817808D01*
X684246Y817891D01*
X684038Y817957D01*
X683825Y818004D01*
X683608Y818033D01*
X683390Y818042D01*
X681390D01*
X681172Y818033D01*
X680956Y818004D01*
X680742Y817957D01*
X680534Y817891D01*
X680332Y817808D01*
X680139Y817707D01*
X679955Y817590D01*
X679890Y817540D01*
X679825Y817590D01*
X679641Y817707D01*
X679448Y817808D01*
X679246Y817891D01*
X679038Y817957D01*
X678825Y818004D01*
X678608Y818033D01*
X678390Y818042D01*
X678390D01*
D01*
X676142D01*
Y838038D01*
X678390D01*
X678608Y838047D01*
X678825Y838076D01*
X679038Y838123D01*
X679246Y838188D01*
X679448Y838272D01*
X679641Y838373D01*
X679825Y838490D01*
X679890Y838540D01*
X679955Y838490D01*
X680139Y838373D01*
X680332Y838272D01*
X680534Y838188D01*
X680742Y838123D01*
X680956Y838076D01*
X681172Y838047D01*
X681390Y838038D01*
X683390D01*
X683608Y838047D01*
X683825Y838076D01*
X684038Y838123D01*
X684246Y838188D01*
X684448Y838272D01*
X684641Y838373D01*
X684825Y838490D01*
X684890Y838540D01*
X684955Y838490D01*
D02*
G37*
G36*
X684555Y787690D02*
X684739Y787573D01*
X684932Y787472D01*
X685134Y787389D01*
X685342Y787323D01*
X685555Y787276D01*
X685772Y787247D01*
X685990Y787238D01*
X688238D01*
Y768776D01*
X686703Y767242D01*
X685990D01*
X685772Y767233D01*
X685555Y767204D01*
X685342Y767157D01*
X685134Y767092D01*
X685051Y767057D01*
X684932Y767008D01*
X684739Y766907D01*
X684555Y766790D01*
X684490Y766740D01*
X684425Y766790D01*
X684241Y766907D01*
X684048Y767008D01*
X683846Y767092D01*
X683638Y767157D01*
X683425Y767204D01*
X683208Y767233D01*
X682990Y767242D01*
X680990D01*
X680772Y767233D01*
X680555Y767204D01*
X680342Y767157D01*
X680134Y767092D01*
X679932Y767008D01*
X679739Y766907D01*
X679555Y766790D01*
X679490Y766740D01*
X679425Y766790D01*
X679241Y766907D01*
X679048Y767008D01*
X678846Y767092D01*
X678638Y767157D01*
X678425Y767204D01*
X678208Y767233D01*
X677990Y767242D01*
D01*
X677990D01*
X675742D01*
Y787238D01*
X677990D01*
X678208Y787247D01*
X678425Y787276D01*
X678638Y787323D01*
X678846Y787389D01*
X679048Y787472D01*
X679241Y787573D01*
X679425Y787690D01*
X679490Y787740D01*
X679555Y787690D01*
X679739Y787573D01*
X679932Y787472D01*
X680134Y787389D01*
X680342Y787323D01*
X680555Y787276D01*
X680772Y787247D01*
X680990Y787238D01*
X682990D01*
X683208Y787247D01*
X683425Y787276D01*
X683638Y787323D01*
X683846Y787389D01*
X684048Y787472D01*
X684241Y787573D01*
X684425Y787690D01*
X684490Y787740D01*
X684555Y787690D01*
D02*
G37*
D18*
X586500Y974480D02*
D03*
X569500D02*
D03*
X493580D02*
D03*
X476580D02*
D03*
X567490Y865260D02*
D03*
X584490D02*
D03*
X476790D02*
D03*
X493790D02*
D03*
X568020Y756040D02*
D03*
X585020D02*
D03*
X476790D02*
D03*
X493790D02*
D03*
D19*
X586500Y991480D02*
D03*
X569500D02*
D03*
X493580D02*
D03*
X476580D02*
D03*
X567490Y882260D02*
D03*
X584490D02*
D03*
X476790D02*
D03*
X493790D02*
D03*
X568020Y773040D02*
D03*
X585020D02*
D03*
X476790D02*
D03*
X493790D02*
D03*
D20*
X600550Y963930D02*
D03*
Y976630D02*
D03*
Y989330D02*
D03*
Y1002030D02*
D03*
X542450Y963930D02*
D03*
Y976630D02*
D03*
Y989330D02*
D03*
Y1002030D02*
D03*
X507630Y963930D02*
D03*
Y976630D02*
D03*
Y989330D02*
D03*
Y1002030D02*
D03*
X449530Y963930D02*
D03*
Y976630D02*
D03*
Y989330D02*
D03*
Y1002030D02*
D03*
X540440Y892810D02*
D03*
Y880110D02*
D03*
Y867410D02*
D03*
Y854710D02*
D03*
X598540Y892810D02*
D03*
Y880110D02*
D03*
Y867410D02*
D03*
Y854710D02*
D03*
X449740Y892810D02*
D03*
Y880110D02*
D03*
Y867410D02*
D03*
Y854710D02*
D03*
X507840Y892810D02*
D03*
Y880110D02*
D03*
Y867410D02*
D03*
Y854710D02*
D03*
X540970Y783590D02*
D03*
Y770890D02*
D03*
Y758190D02*
D03*
Y745490D02*
D03*
X599070Y783590D02*
D03*
Y770890D02*
D03*
Y758190D02*
D03*
Y745490D02*
D03*
X449740Y783590D02*
D03*
Y770890D02*
D03*
Y758190D02*
D03*
Y745490D02*
D03*
X507840Y783590D02*
D03*
Y770890D02*
D03*
Y758190D02*
D03*
Y745490D02*
D03*
D21*
X675640Y1104329D02*
D03*
Y1062291D02*
D03*
D22*
X704140Y660010D02*
D03*
X756640D02*
D03*
X704140Y643010D02*
D03*
X756640D02*
D03*
X746340Y1167300D02*
D03*
X693840D02*
D03*
X746340Y1184300D02*
D03*
X693840D02*
D03*
X577346Y660010D02*
D03*
X629846D02*
D03*
X577346Y643010D02*
D03*
X629846D02*
D03*
D23*
X807640Y695990D02*
D03*
Y689790D02*
D03*
X855270Y821690D02*
D03*
X861770D02*
D03*
X856540Y938530D02*
D03*
X863040D02*
D03*
X754380Y992430D02*
D03*
Y986230D02*
D03*
X782880Y1089660D02*
D03*
X789380D02*
D03*
X766370D02*
D03*
X772870D02*
D03*
X819860Y930910D02*
D03*
X813360D02*
D03*
X819860Y922020D02*
D03*
X813360D02*
D03*
X797560Y992430D02*
D03*
Y986230D02*
D03*
X756920Y877570D02*
D03*
Y883770D02*
D03*
X800100Y882090D02*
D03*
Y888290D02*
D03*
X822250Y665480D02*
D03*
X828750D02*
D03*
X822250Y647700D02*
D03*
X828750D02*
D03*
X822250Y656590D02*
D03*
X828750D02*
D03*
X761210Y723370D02*
D03*
X767710D02*
D03*
X801850D02*
D03*
X808350D02*
D03*
X761210Y714480D02*
D03*
X767710D02*
D03*
X801850D02*
D03*
X808350D02*
D03*
X761210Y705590D02*
D03*
X767710D02*
D03*
X801850D02*
D03*
X808350D02*
D03*
X815260Y756210D02*
D03*
Y750010D02*
D03*
X754300Y754940D02*
D03*
Y748740D02*
D03*
X815260Y837490D02*
D03*
Y831290D02*
D03*
X754300Y836220D02*
D03*
Y830020D02*
D03*
X815260Y796850D02*
D03*
Y790650D02*
D03*
X754300Y795580D02*
D03*
Y789380D02*
D03*
D24*
X872310Y980360D02*
D03*
X913310D02*
D03*
X872310Y964360D02*
D03*
X913310D02*
D03*
D25*
X859790Y976730D02*
D03*
Y983230D02*
D03*
X843990Y1062990D02*
D03*
X850190D02*
D03*
X663650Y1019810D02*
D03*
X669850D02*
D03*
X671680Y961390D02*
D03*
X665480D02*
D03*
X662940Y1156410D02*
D03*
Y1149910D02*
D03*
X836220Y937260D02*
D03*
X830020D02*
D03*
X681990Y977340D02*
D03*
Y970840D02*
D03*
X706830Y925830D02*
D03*
X713030D02*
D03*
X836220Y946150D02*
D03*
X830020D02*
D03*
X819710Y913130D02*
D03*
X813510D02*
D03*
X706830Y934720D02*
D03*
X713030D02*
D03*
X819710Y895350D02*
D03*
X813510D02*
D03*
X819710Y904240D02*
D03*
X813510D02*
D03*
X654050Y1149910D02*
D03*
Y1156410D02*
D03*
X615950Y1156260D02*
D03*
Y1162760D02*
D03*
X607060Y1156260D02*
D03*
Y1162760D02*
D03*
X598170Y1156260D02*
D03*
Y1162760D02*
D03*
X791920Y1162050D02*
D03*
X798120D02*
D03*
X754300Y771600D02*
D03*
Y765100D02*
D03*
X793670Y696140D02*
D03*
Y689640D02*
D03*
X784780Y696140D02*
D03*
Y689640D02*
D03*
X775890Y696140D02*
D03*
Y689640D02*
D03*
X754300Y852880D02*
D03*
Y846380D02*
D03*
Y812240D02*
D03*
Y805740D02*
D03*
D26*
X444500Y681990D02*
D03*
X434500D02*
D03*
X424500D02*
D03*
X414500D02*
D03*
D27*
X457500Y643240D02*
D03*
X401500D02*
D03*
D28*
X730190Y963260D02*
D03*
Y959260D02*
D03*
Y955260D02*
D03*
Y951260D02*
D03*
Y947260D02*
D03*
Y943260D02*
D03*
Y939260D02*
D03*
Y935260D02*
D03*
Y931260D02*
D03*
Y927260D02*
D03*
Y923260D02*
D03*
Y919260D02*
D03*
Y915260D02*
D03*
Y911260D02*
D03*
X798890D02*
D03*
Y915260D02*
D03*
Y919260D02*
D03*
Y923260D02*
D03*
Y927260D02*
D03*
Y931260D02*
D03*
Y935260D02*
D03*
Y939260D02*
D03*
Y943260D02*
D03*
Y947260D02*
D03*
Y951260D02*
D03*
Y955260D02*
D03*
Y959260D02*
D03*
Y963260D02*
D03*
D29*
X790540Y971610D02*
D03*
X786540D02*
D03*
X782540D02*
D03*
X778540D02*
D03*
X774540D02*
D03*
X770540D02*
D03*
X766540D02*
D03*
X762540D02*
D03*
X758540D02*
D03*
X754540D02*
D03*
X750540D02*
D03*
X746540D02*
D03*
X742540D02*
D03*
X738540D02*
D03*
Y902910D02*
D03*
X742540D02*
D03*
X746540D02*
D03*
X750540D02*
D03*
X754540D02*
D03*
X758540D02*
D03*
X762540D02*
D03*
X766540D02*
D03*
X770540D02*
D03*
X774540D02*
D03*
X778540D02*
D03*
X782540D02*
D03*
X786540D02*
D03*
X790540D02*
D03*
D30*
X764540Y937260D02*
D03*
D31*
X827210Y1059180D02*
D03*
Y1046480D02*
D03*
Y1033780D02*
D03*
Y1021080D02*
D03*
X755210D02*
D03*
Y1033780D02*
D03*
Y1046480D02*
D03*
Y1059180D02*
D03*
D32*
X666360Y979600D02*
D03*
X649360D02*
D03*
X666360Y1001600D02*
D03*
X649360D02*
D03*
D33*
X792045Y1148690D02*
D03*
Y1139190D02*
D03*
Y1129690D02*
D03*
X770055D02*
D03*
Y1139190D02*
D03*
Y1148690D02*
D03*
D34*
X639860Y1141610D02*
D03*
Y1136610D02*
D03*
Y1131610D02*
D03*
Y1126610D02*
D03*
X625060D02*
D03*
Y1131610D02*
D03*
Y1136610D02*
D03*
Y1141610D02*
D03*
D35*
X580720Y939800D02*
D03*
X424180Y964870D02*
D03*
X578180Y830580D02*
D03*
X424180Y855650D02*
D03*
X578180Y721360D02*
D03*
X424180Y746430D02*
D03*
D36*
X552120Y939800D02*
D03*
X424180Y993470D02*
D03*
X549580Y830580D02*
D03*
X424180Y884250D02*
D03*
X549580Y721360D02*
D03*
X424180Y775030D02*
D03*
D37*
X525040Y1027430D02*
D03*
X496040D02*
D03*
X493500Y808990D02*
D03*
X522500D02*
D03*
X493500Y918210D02*
D03*
X522500D02*
D03*
D38*
X405130Y961780D02*
D03*
Y978780D02*
D03*
Y869560D02*
D03*
Y852560D02*
D03*
Y760340D02*
D03*
Y743340D02*
D03*
D39*
X549030Y920750D02*
D03*
X566030D02*
D03*
X563490Y811530D02*
D03*
X546490D02*
D03*
X563490Y702310D02*
D03*
X546490D02*
D03*
D40*
X861273Y849170D02*
D03*
Y856670D02*
D03*
Y911170D02*
D03*
Y903670D02*
D03*
D41*
Y862670D02*
D03*
Y867670D02*
D03*
Y872670D02*
D03*
Y877670D02*
D03*
Y882670D02*
D03*
Y887670D02*
D03*
Y892670D02*
D03*
Y897670D02*
D03*
D42*
X903273Y866170D02*
D03*
Y894170D02*
D03*
D43*
X873390Y735490D02*
D03*
Y745490D02*
D03*
Y755490D02*
D03*
Y1025050D02*
D03*
Y1035050D02*
D03*
Y1045050D02*
D03*
D44*
X912140Y768490D02*
D03*
Y722490D02*
D03*
Y1058050D02*
D03*
Y1012050D02*
D03*
D45*
X637140Y765810D02*
D03*
X650640D02*
D03*
X637540Y816610D02*
D03*
X651040D02*
D03*
X637540Y866140D02*
D03*
X651040D02*
D03*
X783990Y1109980D02*
D03*
X770490D02*
D03*
D46*
X656000Y1137920D02*
D03*
X664800D02*
D03*
X669880Y1125220D02*
D03*
X661080D02*
D03*
D47*
X604490Y1069340D02*
D03*
X632490D02*
D03*
D48*
X533400Y1079600D02*
D03*
Y1155600D02*
D03*
X436880Y1079600D02*
D03*
Y1155600D02*
D03*
D49*
X810768Y1139190D02*
D03*
X832612D02*
D03*
D50*
X811690Y1107440D02*
D03*
X831690D02*
D03*
X811690Y1087120D02*
D03*
X831690D02*
D03*
D51*
X652780Y801560D02*
D03*
Y793560D02*
D03*
Y851090D02*
D03*
Y843090D02*
D03*
Y900620D02*
D03*
Y892620D02*
D03*
D52*
X586740Y1167050D02*
D03*
Y1157050D02*
D03*
D53*
X609520Y1174750D02*
D03*
X599520D02*
D03*
D54*
X598170Y1108180D02*
D03*
Y1137180D02*
D03*
D55*
X728980Y1107440D02*
D03*
X750570D02*
D03*
D56*
X728980Y1088390D02*
D03*
X750570D02*
D03*
D57*
X810140Y656590D02*
D03*
X795140D02*
D03*
D58*
X809390Y663840D02*
D03*
X795890D02*
D03*
X809390Y649340D02*
D03*
X795890D02*
D03*
D59*
X667390Y818040D02*
D03*
Y823040D02*
D03*
Y828040D02*
D03*
Y833040D02*
D03*
Y838040D02*
D03*
X697390D02*
D03*
Y833040D02*
D03*
Y828040D02*
D03*
Y823040D02*
D03*
Y818040D02*
D03*
X667390Y867570D02*
D03*
Y872570D02*
D03*
Y877570D02*
D03*
Y882570D02*
D03*
Y887570D02*
D03*
X697390D02*
D03*
Y882570D02*
D03*
Y877570D02*
D03*
Y872570D02*
D03*
Y867570D02*
D03*
X666990Y767240D02*
D03*
Y772240D02*
D03*
Y777240D02*
D03*
Y782240D02*
D03*
Y787240D02*
D03*
X696990D02*
D03*
Y782240D02*
D03*
Y777240D02*
D03*
Y772240D02*
D03*
Y767240D02*
D03*
D60*
X793245Y749960D02*
D03*
Y831240D02*
D03*
Y790600D02*
D03*
D61*
Y759460D02*
D03*
Y768960D02*
D03*
X771235D02*
D03*
Y749960D02*
D03*
X793245Y840740D02*
D03*
Y850240D02*
D03*
X771235D02*
D03*
Y831240D02*
D03*
X793245Y800100D02*
D03*
Y809600D02*
D03*
X771235D02*
D03*
Y790600D02*
D03*
M02*
