G04*
G04 #@! TF.GenerationSoftware,Altium Limited,Altium Designer,24.2.2 (26)*
G04*
G04 Layer_Color=65535*
%FSLAX44Y44*%
%MOMM*%
G71*
G04*
G04 #@! TF.SameCoordinates,8E206BF5-5000-4682-9AB4-4AEA4F1FC2D2*
G04*
G04*
G04 #@! TF.FilePolarity,Positive*
G04*
G01*
G75*
%ADD10C,0.2000*%
%ADD11C,0.2500*%
%ADD12C,0.1524*%
%ADD13C,0.5000*%
%ADD14C,0.1500*%
%ADD15C,0.2540*%
%ADD16C,0.1270*%
%ADD17C,0.1778*%
%ADD18C,0.5080*%
%ADD19R,0.5000X0.2500*%
%ADD20R,0.5000X0.2500*%
G36*
X926892Y776994D02*
X928116D01*
Y776363D01*
X926892D01*
Y774140D01*
X926315D01*
X923001Y776480D01*
Y776994D01*
X926315D01*
Y777689D01*
X926892D01*
Y776994D01*
D02*
G37*
G36*
X928506Y773579D02*
Y773571D01*
X928498Y773556D01*
X928483Y773524D01*
X928467Y773485D01*
X928451Y773439D01*
X928420Y773376D01*
X928389Y773314D01*
X928358Y773236D01*
X928272Y773072D01*
X928163Y772885D01*
X928038Y772682D01*
X927890Y772479D01*
Y772472D01*
X927906Y772456D01*
X927921Y772425D01*
X927937Y772378D01*
X927960Y772324D01*
X927991Y772261D01*
X928015Y772191D01*
X928046Y772113D01*
X928077Y772020D01*
X928100Y771926D01*
X928155Y771708D01*
X928186Y771474D01*
X928202Y771224D01*
Y771154D01*
X928194Y771107D01*
Y771045D01*
X928186Y770975D01*
X928171Y770897D01*
X928163Y770811D01*
X928124Y770616D01*
X928061Y770405D01*
X927983Y770187D01*
X927874Y769969D01*
X927867Y769961D01*
X927859Y769945D01*
X927835Y769914D01*
X927812Y769875D01*
X927781Y769828D01*
X927734Y769774D01*
X927633Y769649D01*
X927500Y769509D01*
X927336Y769368D01*
X927149Y769228D01*
X926931Y769103D01*
X926923D01*
X926900Y769088D01*
X926868Y769072D01*
X926822Y769056D01*
X926767Y769033D01*
X926697Y769009D01*
X926619Y768978D01*
X926533Y768955D01*
X926432Y768924D01*
X926330Y768893D01*
X926096Y768846D01*
X925839Y768815D01*
X925558Y768799D01*
X925551D01*
X925527D01*
X925480D01*
X925434Y768807D01*
X925363D01*
X925285Y768815D01*
X925200Y768822D01*
X925106Y768838D01*
X924888Y768877D01*
X924662Y768924D01*
X924420Y769002D01*
X924186Y769103D01*
X924178D01*
X924155Y769119D01*
X924124Y769134D01*
X924085Y769158D01*
X924030Y769189D01*
X923968Y769228D01*
X923835Y769329D01*
X923679Y769454D01*
X923523Y769602D01*
X923367Y769774D01*
X923235Y769976D01*
X923227Y769984D01*
X923219Y770000D01*
X923203Y770031D01*
X923180Y770078D01*
X923157Y770132D01*
X923133Y770195D01*
X923102Y770265D01*
X923071Y770351D01*
X923040Y770436D01*
X923008Y770538D01*
X922962Y770748D01*
X922923Y770990D01*
X922907Y771240D01*
Y771310D01*
X922915Y771357D01*
Y771419D01*
X922923Y771497D01*
X922938Y771575D01*
X922946Y771669D01*
X922993Y771863D01*
X923055Y772082D01*
X923133Y772300D01*
X923188Y772409D01*
X923250Y772518D01*
Y772526D01*
X923266Y772542D01*
X923281Y772573D01*
X923313Y772612D01*
X923344Y772659D01*
X923391Y772713D01*
X923492Y772838D01*
X923624Y772979D01*
X923788Y773127D01*
X923975Y773259D01*
X924194Y773384D01*
X924202D01*
X924217Y773400D01*
X924256Y773415D01*
X924303Y773431D01*
X924358Y773454D01*
X924420Y773478D01*
X924498Y773509D01*
X924591Y773540D01*
X924685Y773563D01*
X924794Y773595D01*
X925020Y773641D01*
X925278Y773673D01*
X925558Y773688D01*
X925566D01*
X925590D01*
X925621D01*
X925667D01*
X925722Y773680D01*
X925785D01*
X925855Y773673D01*
X925940Y773665D01*
X926112Y773641D01*
X926307Y773602D01*
X926502Y773556D01*
X926697Y773493D01*
X926705D01*
X926720Y773485D01*
X926744Y773470D01*
X926783Y773454D01*
X926822Y773439D01*
X926876Y773408D01*
X926993Y773345D01*
X927126Y773267D01*
X927274Y773166D01*
X927422Y773049D01*
X927570Y772908D01*
Y772916D01*
X927586Y772932D01*
X927601Y772955D01*
X927625Y772986D01*
X927648Y773033D01*
X927679Y773080D01*
X927749Y773197D01*
X927828Y773329D01*
X927906Y773478D01*
X927983Y773634D01*
X928046Y773790D01*
X928506Y773579D01*
D02*
G37*
G36*
X926227Y756853D02*
X926297D01*
X926375Y756845D01*
X926460Y756838D01*
X926554Y756822D01*
X926772Y756783D01*
X926999Y756736D01*
X927240Y756658D01*
X927474Y756557D01*
X927482D01*
X927505Y756541D01*
X927536Y756526D01*
X927576Y756502D01*
X927630Y756471D01*
X927692Y756432D01*
X927825Y756331D01*
X927981Y756206D01*
X928137Y756058D01*
X928293Y755886D01*
X928425Y755684D01*
X928433Y755676D01*
X928441Y755660D01*
X928457Y755629D01*
X928480Y755582D01*
X928503Y755527D01*
X928527Y755465D01*
X928558Y755395D01*
X928589Y755309D01*
X928620Y755223D01*
X928652Y755122D01*
X928698Y754911D01*
X928737Y754670D01*
X928753Y754420D01*
Y754350D01*
X928745Y754303D01*
Y754241D01*
X928737Y754163D01*
X928722Y754085D01*
X928714Y753991D01*
X928667Y753796D01*
X928605Y753578D01*
X928527Y753360D01*
X928472Y753251D01*
X928410Y753141D01*
Y753134D01*
X928394Y753118D01*
X928379Y753087D01*
X928347Y753048D01*
X928316Y753001D01*
X928270Y752946D01*
X928168Y752822D01*
X928036Y752681D01*
X927872Y752533D01*
X927685Y752401D01*
X927466Y752276D01*
X927458D01*
X927443Y752260D01*
X927404Y752245D01*
X927357Y752229D01*
X927303Y752206D01*
X927240Y752182D01*
X927162Y752151D01*
X927069Y752120D01*
X926975Y752096D01*
X926866Y752065D01*
X926640Y752019D01*
X926382Y751987D01*
X926102Y751972D01*
X926094D01*
X926070D01*
X926039D01*
X925993D01*
X925938Y751980D01*
X925876D01*
X925805Y751987D01*
X925720Y751995D01*
X925548Y752019D01*
X925353Y752057D01*
X925158Y752104D01*
X924963Y752167D01*
X924955D01*
X924940Y752175D01*
X924916Y752190D01*
X924877Y752206D01*
X924838Y752221D01*
X924784Y752253D01*
X924667Y752315D01*
X924534Y752393D01*
X924386Y752494D01*
X924238Y752611D01*
X924090Y752751D01*
Y752744D01*
X924074Y752728D01*
X924059Y752705D01*
X924035Y752674D01*
X924012Y752627D01*
X923981Y752580D01*
X923911Y752463D01*
X923832Y752330D01*
X923755Y752182D01*
X923677Y752026D01*
X923614Y751870D01*
X923154Y752081D01*
Y752089D01*
X923162Y752104D01*
X923177Y752135D01*
X923193Y752175D01*
X923209Y752221D01*
X923240Y752284D01*
X923271Y752346D01*
X923302Y752424D01*
X923388Y752588D01*
X923497Y752775D01*
X923622Y752978D01*
X923770Y753180D01*
Y753188D01*
X923755Y753204D01*
X923739Y753235D01*
X923723Y753282D01*
X923700Y753336D01*
X923669Y753399D01*
X923645Y753469D01*
X923614Y753547D01*
X923583Y753641D01*
X923560Y753734D01*
X923505Y753952D01*
X923474Y754186D01*
X923458Y754436D01*
Y754506D01*
X923466Y754553D01*
Y754615D01*
X923474Y754685D01*
X923489Y754763D01*
X923497Y754849D01*
X923536Y755044D01*
X923599Y755255D01*
X923677Y755473D01*
X923786Y755691D01*
X923794Y755699D01*
X923801Y755715D01*
X923825Y755746D01*
X923848Y755785D01*
X923879Y755832D01*
X923926Y755886D01*
X924027Y756011D01*
X924160Y756151D01*
X924324Y756292D01*
X924511Y756432D01*
X924729Y756557D01*
X924737D01*
X924761Y756572D01*
X924792Y756588D01*
X924838Y756604D01*
X924893Y756627D01*
X924963Y756650D01*
X925041Y756682D01*
X925127Y756705D01*
X925228Y756736D01*
X925330Y756767D01*
X925564Y756814D01*
X925821Y756845D01*
X926102Y756861D01*
X926109D01*
X926133D01*
X926180D01*
X926227Y756853D01*
D02*
G37*
G36*
X924987Y750669D02*
X924979D01*
X924963Y750662D01*
X924932D01*
X924901Y750646D01*
X924807Y750623D01*
X924690Y750584D01*
X924566Y750537D01*
X924433Y750475D01*
X924316Y750397D01*
X924215Y750311D01*
X924207Y750295D01*
X924176Y750264D01*
X924145Y750209D01*
X924098Y750132D01*
X924059Y750046D01*
X924020Y749937D01*
X923988Y749812D01*
X923981Y749679D01*
Y749632D01*
X923988Y749601D01*
X923996Y749523D01*
X924020Y749422D01*
X924059Y749297D01*
X924106Y749172D01*
X924183Y749048D01*
X924285Y748931D01*
X924300Y748915D01*
X924339Y748884D01*
X924402Y748837D01*
X924495Y748775D01*
X924604Y748720D01*
X924737Y748673D01*
X924885Y748642D01*
X925049Y748626D01*
X925057D01*
X925065D01*
X925088D01*
X925119Y748634D01*
X925197Y748642D01*
X925298Y748665D01*
X925408Y748697D01*
X925533Y748751D01*
X925649Y748821D01*
X925759Y748915D01*
X925774Y748931D01*
X925805Y748962D01*
X925844Y749024D01*
X925899Y749110D01*
X925954Y749211D01*
X925993Y749336D01*
X926024Y749469D01*
X926039Y749625D01*
Y749695D01*
X926031Y749749D01*
X926024Y749812D01*
X926016Y749890D01*
X926000Y749976D01*
X925977Y750069D01*
X926531Y749999D01*
Y749960D01*
X926523Y749929D01*
Y749827D01*
X926531Y749757D01*
X926546Y749656D01*
X926570Y749547D01*
X926609Y749430D01*
X926655Y749305D01*
X926725Y749180D01*
X926733Y749165D01*
X926765Y749126D01*
X926819Y749079D01*
X926889Y749016D01*
X926975Y748954D01*
X927084Y748907D01*
X927217Y748868D01*
X927373Y748853D01*
X927381D01*
X927388D01*
X927427D01*
X927490Y748868D01*
X927576Y748884D01*
X927661Y748907D01*
X927755Y748954D01*
X927856Y749009D01*
X927942Y749087D01*
X927950Y749094D01*
X927981Y749126D01*
X928020Y749180D01*
X928059Y749250D01*
X928106Y749336D01*
X928137Y749437D01*
X928168Y749554D01*
X928176Y749687D01*
Y749749D01*
X928160Y749820D01*
X928145Y749898D01*
X928121Y749999D01*
X928074Y750100D01*
X928020Y750202D01*
X927942Y750303D01*
X927934Y750311D01*
X927903Y750342D01*
X927848Y750381D01*
X927770Y750428D01*
X927677Y750482D01*
X927560Y750529D01*
X927420Y750576D01*
X927256Y750607D01*
X927365Y751239D01*
X927373D01*
X927396Y751231D01*
X927427Y751223D01*
X927466Y751215D01*
X927521Y751200D01*
X927583Y751184D01*
X927724Y751130D01*
X927880Y751067D01*
X928043Y750974D01*
X928199Y750864D01*
X928340Y750724D01*
X928347Y750716D01*
X928355Y750708D01*
X928371Y750685D01*
X928394Y750646D01*
X928418Y750607D01*
X928449Y750560D01*
X928519Y750443D01*
X928581Y750295D01*
X928636Y750116D01*
X928675Y749921D01*
X928691Y749812D01*
Y749632D01*
X928683Y749554D01*
X928667Y749453D01*
X928644Y749336D01*
X928613Y749203D01*
X928566Y749071D01*
X928503Y748938D01*
Y748931D01*
X928496Y748923D01*
X928472Y748876D01*
X928433Y748814D01*
X928379Y748736D01*
X928308Y748650D01*
X928223Y748556D01*
X928121Y748471D01*
X928012Y748393D01*
X927997Y748385D01*
X927958Y748361D01*
X927895Y748330D01*
X927817Y748299D01*
X927716Y748268D01*
X927607Y748237D01*
X927490Y748213D01*
X927357Y748205D01*
X927342D01*
X927303D01*
X927240Y748213D01*
X927162Y748229D01*
X927069Y748252D01*
X926967Y748283D01*
X926858Y748322D01*
X926757Y748385D01*
X926741Y748393D01*
X926710Y748416D01*
X926663Y748463D01*
X926601Y748517D01*
X926531Y748595D01*
X926460Y748681D01*
X926382Y748790D01*
X926320Y748915D01*
Y748907D01*
X926312Y748892D01*
Y748868D01*
X926297Y748837D01*
X926273Y748759D01*
X926227Y748658D01*
X926172Y748549D01*
X926094Y748431D01*
X926000Y748315D01*
X925883Y748213D01*
X925868Y748205D01*
X925821Y748174D01*
X925751Y748135D01*
X925657Y748081D01*
X925540Y748034D01*
X925400Y747995D01*
X925236Y747964D01*
X925057Y747956D01*
X925049D01*
X925026D01*
X924994D01*
X924948Y747964D01*
X924885Y747971D01*
X924823Y747979D01*
X924745Y747995D01*
X924667Y748018D01*
X924488Y748073D01*
X924386Y748112D01*
X924293Y748166D01*
X924199Y748221D01*
X924106Y748283D01*
X924012Y748361D01*
X923918Y748447D01*
X923911Y748455D01*
X923895Y748471D01*
X923879Y748494D01*
X923848Y748533D01*
X923809Y748580D01*
X923770Y748642D01*
X923731Y748712D01*
X923692Y748782D01*
X923645Y748868D01*
X923606Y748962D01*
X923567Y749063D01*
X923528Y749172D01*
X923497Y749289D01*
X923482Y749414D01*
X923466Y749547D01*
X923458Y749679D01*
Y749742D01*
X923466Y749788D01*
X923474Y749851D01*
X923482Y749913D01*
X923489Y749991D01*
X923505Y750069D01*
X923552Y750248D01*
X923630Y750436D01*
X923669Y750529D01*
X923723Y750615D01*
X923786Y750708D01*
X923856Y750794D01*
X923864Y750802D01*
X923872Y750810D01*
X923895Y750833D01*
X923926Y750864D01*
X923973Y750896D01*
X924020Y750935D01*
X924074Y750981D01*
X924137Y751020D01*
X924293Y751114D01*
X924472Y751192D01*
X924675Y751262D01*
X924784Y751285D01*
X924901Y751301D01*
X924987Y750669D01*
D02*
G37*
G36*
X733806Y772800D02*
X733798D01*
X733767D01*
X733720D01*
X733666Y772808D01*
X733603Y772816D01*
X733533Y772824D01*
X733455Y772847D01*
X733377Y772870D01*
X733369D01*
X733362Y772878D01*
X733315Y772894D01*
X733252Y772925D01*
X733159Y772972D01*
X733057Y773026D01*
X732940Y773104D01*
X732823Y773182D01*
X732699Y773284D01*
X732691D01*
X732683Y773299D01*
X732636Y773338D01*
X732566Y773401D01*
X732473Y773494D01*
X732363Y773611D01*
X732231Y773752D01*
X732083Y773923D01*
X731919Y774110D01*
X731911Y774118D01*
X731888Y774149D01*
X731857Y774188D01*
X731802Y774243D01*
X731747Y774313D01*
X731677Y774391D01*
X731529Y774563D01*
X731350Y774750D01*
X731170Y774937D01*
X731085Y775030D01*
X730999Y775108D01*
X730913Y775179D01*
X730835Y775241D01*
X730827D01*
X730819Y775257D01*
X730796Y775272D01*
X730765Y775288D01*
X730687Y775334D01*
X730585Y775389D01*
X730469Y775444D01*
X730344Y775490D01*
X730203Y775522D01*
X730071Y775537D01*
X730063D01*
X730055D01*
X730008Y775529D01*
X729938Y775522D01*
X729853Y775506D01*
X729751Y775467D01*
X729650Y775420D01*
X729541Y775358D01*
X729439Y775264D01*
X729431Y775249D01*
X729400Y775218D01*
X729361Y775155D01*
X729307Y775077D01*
X729260Y774976D01*
X729221Y774859D01*
X729190Y774718D01*
X729182Y774563D01*
Y774516D01*
X729190Y774485D01*
X729197Y774407D01*
X729213Y774305D01*
X729252Y774188D01*
X729299Y774063D01*
X729369Y773947D01*
X729463Y773837D01*
X729478Y773830D01*
X729509Y773798D01*
X729572Y773752D01*
X729658Y773705D01*
X729767Y773650D01*
X729892Y773611D01*
X730040Y773580D01*
X730211Y773564D01*
X730141Y772917D01*
X730133D01*
X730110D01*
X730071Y772925D01*
X730024Y772933D01*
X729962Y772948D01*
X729892Y772956D01*
X729735Y773003D01*
X729556Y773065D01*
X729377Y773151D01*
X729197Y773268D01*
X729119Y773331D01*
X729042Y773409D01*
X729034Y773416D01*
X729026Y773432D01*
X729003Y773455D01*
X728979Y773486D01*
X728956Y773533D01*
X728917Y773588D01*
X728886Y773650D01*
X728847Y773720D01*
X728815Y773798D01*
X728776Y773884D01*
X728745Y773986D01*
X728722Y774087D01*
X728675Y774321D01*
X728667Y774446D01*
X728660Y774578D01*
Y774648D01*
X728667Y774703D01*
X728675Y774765D01*
X728683Y774836D01*
X728691Y774913D01*
X728714Y774999D01*
X728761Y775186D01*
X728831Y775381D01*
X728878Y775483D01*
X728932Y775576D01*
X729003Y775662D01*
X729073Y775748D01*
X729081Y775756D01*
X729088Y775763D01*
X729112Y775787D01*
X729143Y775818D01*
X729190Y775849D01*
X729237Y775888D01*
X729353Y775966D01*
X729502Y776044D01*
X729673Y776114D01*
X729868Y776169D01*
X729977Y776177D01*
X730086Y776184D01*
X730102D01*
X730141D01*
X730203Y776177D01*
X730281Y776169D01*
X730375Y776153D01*
X730476Y776130D01*
X730585Y776099D01*
X730695Y776052D01*
X730710Y776044D01*
X730749Y776029D01*
X730804Y775997D01*
X730882Y775951D01*
X730975Y775896D01*
X731085Y775826D01*
X731194Y775732D01*
X731319Y775631D01*
X731334Y775615D01*
X731381Y775576D01*
X731451Y775506D01*
X731498Y775459D01*
X731552Y775405D01*
X731615Y775342D01*
X731685Y775264D01*
X731755Y775186D01*
X731841Y775101D01*
X731927Y775007D01*
X732020Y774898D01*
X732114Y774789D01*
X732223Y774664D01*
X732231Y774656D01*
X732246Y774641D01*
X732270Y774609D01*
X732301Y774570D01*
X732379Y774477D01*
X732480Y774360D01*
X732589Y774243D01*
X732699Y774118D01*
X732792Y774017D01*
X732831Y773978D01*
X732870Y773939D01*
X732878Y773931D01*
X732902Y773915D01*
X732933Y773884D01*
X732979Y773845D01*
X733081Y773759D01*
X733206Y773674D01*
Y776192D01*
X733806D01*
Y772800D01*
D02*
G37*
G36*
X734196Y772114D02*
Y772106D01*
X734188Y772091D01*
X734173Y772059D01*
X734157Y772020D01*
X734141Y771974D01*
X734110Y771911D01*
X734079Y771849D01*
X734048Y771771D01*
X733962Y771607D01*
X733853Y771420D01*
X733728Y771217D01*
X733580Y771015D01*
Y771007D01*
X733596Y770991D01*
X733611Y770960D01*
X733627Y770913D01*
X733650Y770859D01*
X733681Y770796D01*
X733705Y770726D01*
X733736Y770648D01*
X733767Y770555D01*
X733790Y770461D01*
X733845Y770243D01*
X733876Y770009D01*
X733892Y769759D01*
Y769689D01*
X733884Y769642D01*
Y769580D01*
X733876Y769510D01*
X733861Y769432D01*
X733853Y769346D01*
X733814Y769151D01*
X733751Y768940D01*
X733673Y768722D01*
X733564Y768504D01*
X733557Y768496D01*
X733549Y768480D01*
X733525Y768449D01*
X733502Y768410D01*
X733471Y768363D01*
X733424Y768309D01*
X733323Y768184D01*
X733190Y768044D01*
X733026Y767903D01*
X732839Y767763D01*
X732621Y767638D01*
X732613D01*
X732589Y767623D01*
X732558Y767607D01*
X732512Y767591D01*
X732457Y767568D01*
X732387Y767544D01*
X732309Y767513D01*
X732223Y767490D01*
X732122Y767459D01*
X732020Y767428D01*
X731786Y767381D01*
X731529Y767350D01*
X731248Y767334D01*
X731240D01*
X731217D01*
X731170D01*
X731124Y767342D01*
X731053D01*
X730975Y767350D01*
X730890Y767357D01*
X730796Y767373D01*
X730578Y767412D01*
X730352Y767459D01*
X730110Y767537D01*
X729876Y767638D01*
X729868D01*
X729845Y767654D01*
X729814Y767669D01*
X729774Y767693D01*
X729720Y767724D01*
X729658Y767763D01*
X729525Y767864D01*
X729369Y767989D01*
X729213Y768137D01*
X729057Y768309D01*
X728925Y768512D01*
X728917Y768519D01*
X728909Y768535D01*
X728893Y768566D01*
X728870Y768613D01*
X728847Y768667D01*
X728823Y768730D01*
X728792Y768800D01*
X728761Y768886D01*
X728730Y768971D01*
X728698Y769073D01*
X728652Y769283D01*
X728613Y769525D01*
X728597Y769775D01*
Y769845D01*
X728605Y769892D01*
Y769954D01*
X728613Y770032D01*
X728628Y770110D01*
X728636Y770204D01*
X728683Y770398D01*
X728745Y770617D01*
X728823Y770835D01*
X728878Y770944D01*
X728940Y771054D01*
Y771061D01*
X728956Y771077D01*
X728971Y771108D01*
X729003Y771147D01*
X729034Y771194D01*
X729081Y771248D01*
X729182Y771373D01*
X729314Y771514D01*
X729478Y771662D01*
X729665Y771794D01*
X729884Y771919D01*
X729892D01*
X729907Y771935D01*
X729946Y771950D01*
X729993Y771966D01*
X730048Y771989D01*
X730110Y772013D01*
X730188Y772044D01*
X730281Y772075D01*
X730375Y772098D01*
X730484Y772130D01*
X730710Y772176D01*
X730968Y772208D01*
X731248Y772223D01*
X731256D01*
X731280D01*
X731311D01*
X731357D01*
X731412Y772215D01*
X731475D01*
X731545Y772208D01*
X731630Y772200D01*
X731802Y772176D01*
X731997Y772137D01*
X732192Y772091D01*
X732387Y772028D01*
X732395D01*
X732410Y772020D01*
X732434Y772005D01*
X732473Y771989D01*
X732512Y771974D01*
X732566Y771943D01*
X732683Y771880D01*
X732816Y771802D01*
X732964Y771701D01*
X733112Y771584D01*
X733260Y771443D01*
Y771451D01*
X733276Y771467D01*
X733291Y771490D01*
X733315Y771521D01*
X733338Y771568D01*
X733369Y771615D01*
X733439Y771732D01*
X733518Y771864D01*
X733596Y772013D01*
X733673Y772169D01*
X733736Y772325D01*
X734196Y772114D01*
D02*
G37*
G36*
X731916Y756563D02*
X731987D01*
X732065Y756555D01*
X732150Y756548D01*
X732244Y756532D01*
X732462Y756493D01*
X732688Y756446D01*
X732930Y756368D01*
X733164Y756267D01*
X733172D01*
X733195Y756251D01*
X733226Y756236D01*
X733265Y756212D01*
X733320Y756181D01*
X733382Y756142D01*
X733515Y756041D01*
X733671Y755916D01*
X733827Y755768D01*
X733983Y755596D01*
X734115Y755394D01*
X734123Y755386D01*
X734131Y755370D01*
X734147Y755339D01*
X734170Y755292D01*
X734193Y755238D01*
X734217Y755175D01*
X734248Y755105D01*
X734279Y755019D01*
X734310Y754933D01*
X734342Y754832D01*
X734388Y754622D01*
X734427Y754380D01*
X734443Y754130D01*
Y754060D01*
X734435Y754013D01*
Y753951D01*
X734427Y753873D01*
X734412Y753795D01*
X734404Y753701D01*
X734357Y753506D01*
X734295Y753288D01*
X734217Y753070D01*
X734162Y752961D01*
X734100Y752851D01*
Y752844D01*
X734084Y752828D01*
X734069Y752797D01*
X734037Y752758D01*
X734006Y752711D01*
X733959Y752656D01*
X733858Y752532D01*
X733726Y752391D01*
X733562Y752243D01*
X733375Y752111D01*
X733156Y751986D01*
X733148D01*
X733133Y751970D01*
X733094Y751955D01*
X733047Y751939D01*
X732992Y751916D01*
X732930Y751892D01*
X732852Y751861D01*
X732759Y751830D01*
X732665Y751807D01*
X732556Y751775D01*
X732330Y751729D01*
X732072Y751697D01*
X731792Y751682D01*
X731784D01*
X731760D01*
X731729D01*
X731683D01*
X731628Y751690D01*
X731565D01*
X731495Y751697D01*
X731410Y751705D01*
X731238Y751729D01*
X731043Y751768D01*
X730848Y751814D01*
X730653Y751877D01*
X730645D01*
X730630Y751885D01*
X730606Y751900D01*
X730567Y751916D01*
X730528Y751931D01*
X730474Y751963D01*
X730357Y752025D01*
X730224Y752103D01*
X730076Y752204D01*
X729928Y752321D01*
X729780Y752462D01*
Y752454D01*
X729764Y752438D01*
X729749Y752415D01*
X729725Y752384D01*
X729702Y752337D01*
X729671Y752290D01*
X729601Y752173D01*
X729522Y752040D01*
X729445Y751892D01*
X729367Y751736D01*
X729304Y751580D01*
X728844Y751791D01*
Y751799D01*
X728852Y751814D01*
X728867Y751846D01*
X728883Y751885D01*
X728899Y751931D01*
X728930Y751994D01*
X728961Y752056D01*
X728992Y752134D01*
X729078Y752298D01*
X729187Y752485D01*
X729312Y752688D01*
X729460Y752890D01*
Y752898D01*
X729445Y752914D01*
X729429Y752945D01*
X729413Y752992D01*
X729390Y753046D01*
X729359Y753109D01*
X729335Y753179D01*
X729304Y753257D01*
X729273Y753351D01*
X729250Y753444D01*
X729195Y753662D01*
X729164Y753896D01*
X729148Y754146D01*
Y754216D01*
X729156Y754263D01*
Y754325D01*
X729164Y754395D01*
X729179Y754473D01*
X729187Y754559D01*
X729226Y754754D01*
X729289Y754965D01*
X729367Y755183D01*
X729476Y755401D01*
X729483Y755409D01*
X729491Y755425D01*
X729515Y755456D01*
X729538Y755495D01*
X729569Y755542D01*
X729616Y755596D01*
X729717Y755721D01*
X729850Y755861D01*
X730014Y756002D01*
X730201Y756142D01*
X730419Y756267D01*
X730427D01*
X730450Y756283D01*
X730482Y756298D01*
X730528Y756314D01*
X730583Y756337D01*
X730653Y756360D01*
X730731Y756392D01*
X730817Y756415D01*
X730918Y756446D01*
X731020Y756478D01*
X731254Y756524D01*
X731511Y756555D01*
X731792Y756571D01*
X731799D01*
X731823D01*
X731870D01*
X731916Y756563D01*
D02*
G37*
G36*
X733094Y750528D02*
X733102Y750512D01*
X733117Y750481D01*
X733141Y750450D01*
X733164Y750403D01*
X733187Y750348D01*
X733258Y750224D01*
X733343Y750083D01*
X733445Y749927D01*
X733562Y749771D01*
X733687Y749623D01*
X733694Y749615D01*
X733702Y749608D01*
X733749Y749561D01*
X733819Y749491D01*
X733905Y749405D01*
X734014Y749311D01*
X734131Y749218D01*
X734256Y749132D01*
X734380Y749062D01*
Y748649D01*
X729234D01*
Y749280D01*
X733242D01*
X733234Y749288D01*
X733203Y749319D01*
X733164Y749374D01*
X733110Y749444D01*
X733039Y749530D01*
X732969Y749631D01*
X732883Y749748D01*
X732805Y749881D01*
Y749888D01*
X732798Y749896D01*
X732766Y749943D01*
X732727Y750013D01*
X732681Y750099D01*
X732626Y750200D01*
X732579Y750309D01*
X732525Y750426D01*
X732478Y750536D01*
X733094D01*
Y750528D01*
D02*
G37*
%LPC*%
G36*
X926315Y776363D02*
X924022D01*
X926315Y774756D01*
Y776363D01*
D02*
G37*
G36*
X925558Y772986D02*
X925551D01*
X925527D01*
X925496D01*
X925457D01*
X925402Y772979D01*
X925340D01*
X925192Y772963D01*
X925020Y772932D01*
X924841Y772901D01*
X924654Y772846D01*
X924474Y772776D01*
X924467D01*
X924451Y772768D01*
X924428Y772753D01*
X924397Y772737D01*
X924311Y772690D01*
X924209Y772620D01*
X924092Y772534D01*
X923968Y772425D01*
X923851Y772300D01*
X923749Y772160D01*
Y772152D01*
X923742Y772144D01*
X923726Y772121D01*
X923710Y772090D01*
X923671Y772004D01*
X923617Y771895D01*
X923570Y771762D01*
X923531Y771606D01*
X923500Y771435D01*
X923492Y771247D01*
Y771177D01*
X923500Y771123D01*
X923508Y771060D01*
X923523Y770982D01*
X923539Y770897D01*
X923554Y770811D01*
X923617Y770608D01*
X923663Y770507D01*
X923710Y770397D01*
X923773Y770296D01*
X923843Y770187D01*
X923921Y770086D01*
X924014Y769992D01*
X924022Y769984D01*
X924038Y769969D01*
X924069Y769945D01*
X924108Y769914D01*
X924163Y769875D01*
X924233Y769836D01*
X924311Y769789D01*
X924397Y769750D01*
X924506Y769704D01*
X924615Y769657D01*
X924747Y769618D01*
X924880Y769579D01*
X925036Y769548D01*
X925200Y769524D01*
X925371Y769509D01*
X925558Y769501D01*
X925566D01*
X925605D01*
X925652D01*
X925722Y769509D01*
X925808Y769516D01*
X925901Y769524D01*
X926011Y769540D01*
X926128Y769563D01*
X926377Y769618D01*
X926502Y769665D01*
X926627Y769711D01*
X926759Y769766D01*
X926876Y769828D01*
X926993Y769906D01*
X927094Y769992D01*
X927102Y770000D01*
X927118Y770015D01*
X927141Y770039D01*
X927180Y770078D01*
X927219Y770132D01*
X927258Y770187D01*
X927313Y770257D01*
X927360Y770335D01*
X927406Y770421D01*
X927453Y770515D01*
X927500Y770616D01*
X927539Y770733D01*
X927578Y770850D01*
X927601Y770975D01*
X927617Y771107D01*
X927625Y771247D01*
Y771310D01*
X927617Y771380D01*
X927609Y771466D01*
X927594Y771567D01*
X927570Y771684D01*
X927539Y771809D01*
X927492Y771926D01*
X927484Y771910D01*
X927461Y771871D01*
X927422Y771809D01*
X927375Y771723D01*
X927328Y771630D01*
X927282Y771513D01*
X927235Y771396D01*
X927196Y771263D01*
X926705Y771427D01*
Y771435D01*
X926712Y771450D01*
X926720Y771481D01*
X926736Y771528D01*
X926751Y771575D01*
X926775Y771630D01*
X926829Y771770D01*
X926900Y771918D01*
X926977Y772082D01*
X927079Y772238D01*
X927196Y772386D01*
X927188Y772394D01*
X927172Y772409D01*
X927141Y772440D01*
X927094Y772479D01*
X927032Y772526D01*
X926962Y772573D01*
X926884Y772628D01*
X926783Y772690D01*
X926681Y772745D01*
X926556Y772799D01*
X926424Y772846D01*
X926276Y772893D01*
X926112Y772932D01*
X925940Y772963D01*
X925753Y772979D01*
X925558Y772986D01*
D02*
G37*
G36*
X926102Y756159D02*
X926094D01*
X926055D01*
X926008D01*
X925938Y756151D01*
X925852Y756144D01*
X925759Y756136D01*
X925649Y756120D01*
X925533Y756097D01*
X925283Y756042D01*
X925158Y755995D01*
X925033Y755949D01*
X924901Y755894D01*
X924784Y755832D01*
X924667Y755754D01*
X924566Y755668D01*
X924558Y755660D01*
X924542Y755645D01*
X924519Y755621D01*
X924480Y755582D01*
X924441Y755527D01*
X924402Y755473D01*
X924347Y755403D01*
X924300Y755325D01*
X924254Y755239D01*
X924207Y755145D01*
X924160Y755044D01*
X924121Y754927D01*
X924082Y754810D01*
X924059Y754685D01*
X924043Y754553D01*
X924035Y754413D01*
Y754350D01*
X924043Y754280D01*
X924051Y754194D01*
X924066Y754093D01*
X924090Y753976D01*
X924121Y753851D01*
X924168Y753734D01*
X924176Y753750D01*
X924199Y753789D01*
X924238Y753851D01*
X924285Y753937D01*
X924332Y754030D01*
X924378Y754147D01*
X924425Y754264D01*
X924464Y754397D01*
X924955Y754233D01*
Y754225D01*
X924948Y754210D01*
X924940Y754178D01*
X924924Y754132D01*
X924909Y754085D01*
X924885Y754030D01*
X924831Y753890D01*
X924761Y753742D01*
X924682Y753578D01*
X924581Y753422D01*
X924464Y753274D01*
X924472Y753266D01*
X924488Y753251D01*
X924519Y753219D01*
X924566Y753180D01*
X924628Y753134D01*
X924698Y753087D01*
X924776Y753032D01*
X924877Y752970D01*
X924979Y752915D01*
X925104Y752861D01*
X925236Y752814D01*
X925384Y752767D01*
X925548Y752728D01*
X925720Y752697D01*
X925907Y752681D01*
X926102Y752674D01*
X926109D01*
X926133D01*
X926164D01*
X926203D01*
X926258Y752681D01*
X926320D01*
X926468Y752697D01*
X926640Y752728D01*
X926819Y752759D01*
X927006Y752814D01*
X927186Y752884D01*
X927193D01*
X927209Y752892D01*
X927232Y752907D01*
X927264Y752923D01*
X927349Y752970D01*
X927451Y753040D01*
X927568Y753126D01*
X927692Y753235D01*
X927809Y753360D01*
X927911Y753500D01*
Y753508D01*
X927919Y753516D01*
X927934Y753539D01*
X927950Y753570D01*
X927989Y753656D01*
X928043Y753765D01*
X928090Y753898D01*
X928129Y754054D01*
X928160Y754225D01*
X928168Y754413D01*
Y754483D01*
X928160Y754537D01*
X928152Y754600D01*
X928137Y754678D01*
X928121Y754763D01*
X928106Y754849D01*
X928043Y755052D01*
X927997Y755153D01*
X927950Y755262D01*
X927887Y755364D01*
X927817Y755473D01*
X927739Y755574D01*
X927646Y755668D01*
X927638Y755676D01*
X927622Y755691D01*
X927591Y755715D01*
X927552Y755746D01*
X927497Y755785D01*
X927427Y755824D01*
X927349Y755871D01*
X927264Y755910D01*
X927154Y755956D01*
X927045Y756003D01*
X926913Y756042D01*
X926780Y756081D01*
X926624Y756112D01*
X926460Y756136D01*
X926289Y756151D01*
X926102Y756159D01*
D02*
G37*
G36*
X731248Y771521D02*
X731240D01*
X731217D01*
X731186D01*
X731147D01*
X731092Y771514D01*
X731030D01*
X730882Y771498D01*
X730710Y771467D01*
X730531Y771436D01*
X730344Y771381D01*
X730164Y771311D01*
X730157D01*
X730141Y771303D01*
X730118Y771288D01*
X730086Y771272D01*
X730001Y771225D01*
X729899Y771155D01*
X729782Y771069D01*
X729658Y770960D01*
X729541Y770835D01*
X729439Y770695D01*
Y770687D01*
X729431Y770679D01*
X729416Y770656D01*
X729400Y770625D01*
X729361Y770539D01*
X729307Y770430D01*
X729260Y770297D01*
X729221Y770141D01*
X729190Y769970D01*
X729182Y769782D01*
Y769712D01*
X729190Y769658D01*
X729197Y769595D01*
X729213Y769517D01*
X729229Y769432D01*
X729244Y769346D01*
X729307Y769143D01*
X729353Y769042D01*
X729400Y768932D01*
X729463Y768831D01*
X729533Y768722D01*
X729611Y768621D01*
X729704Y768527D01*
X729712Y768519D01*
X729728Y768504D01*
X729759Y768480D01*
X729798Y768449D01*
X729853Y768410D01*
X729923Y768371D01*
X730001Y768324D01*
X730086Y768285D01*
X730196Y768239D01*
X730305Y768192D01*
X730437Y768153D01*
X730570Y768114D01*
X730726Y768083D01*
X730890Y768059D01*
X731061Y768044D01*
X731248Y768036D01*
X731256D01*
X731295D01*
X731342D01*
X731412Y768044D01*
X731498Y768051D01*
X731591Y768059D01*
X731701Y768075D01*
X731818Y768098D01*
X732067Y768153D01*
X732192Y768200D01*
X732317Y768246D01*
X732449Y768301D01*
X732566Y768363D01*
X732683Y768441D01*
X732785Y768527D01*
X732792Y768535D01*
X732808Y768550D01*
X732831Y768574D01*
X732870Y768613D01*
X732909Y768667D01*
X732948Y768722D01*
X733003Y768792D01*
X733050Y768870D01*
X733096Y768956D01*
X733143Y769050D01*
X733190Y769151D01*
X733229Y769268D01*
X733268Y769385D01*
X733291Y769510D01*
X733307Y769642D01*
X733315Y769782D01*
Y769845D01*
X733307Y769915D01*
X733299Y770001D01*
X733283Y770102D01*
X733260Y770219D01*
X733229Y770344D01*
X733182Y770461D01*
X733174Y770445D01*
X733151Y770406D01*
X733112Y770344D01*
X733065Y770258D01*
X733018Y770165D01*
X732972Y770048D01*
X732925Y769931D01*
X732886Y769798D01*
X732395Y769962D01*
Y769970D01*
X732402Y769985D01*
X732410Y770016D01*
X732426Y770063D01*
X732441Y770110D01*
X732465Y770165D01*
X732519Y770305D01*
X732589Y770453D01*
X732667Y770617D01*
X732769Y770773D01*
X732886Y770921D01*
X732878Y770929D01*
X732862Y770944D01*
X732831Y770976D01*
X732785Y771015D01*
X732722Y771061D01*
X732652Y771108D01*
X732574Y771163D01*
X732473Y771225D01*
X732371Y771280D01*
X732246Y771334D01*
X732114Y771381D01*
X731966Y771428D01*
X731802Y771467D01*
X731630Y771498D01*
X731443Y771514D01*
X731248Y771521D01*
D02*
G37*
G36*
X731792Y755869D02*
X731784D01*
X731745D01*
X731698D01*
X731628Y755861D01*
X731542Y755854D01*
X731449Y755846D01*
X731339Y755830D01*
X731222Y755807D01*
X730973Y755752D01*
X730848Y755705D01*
X730723Y755659D01*
X730591Y755604D01*
X730474Y755542D01*
X730357Y755464D01*
X730256Y755378D01*
X730248Y755370D01*
X730232Y755355D01*
X730209Y755331D01*
X730170Y755292D01*
X730131Y755238D01*
X730092Y755183D01*
X730037Y755113D01*
X729990Y755035D01*
X729944Y754949D01*
X729897Y754855D01*
X729850Y754754D01*
X729811Y754637D01*
X729772Y754520D01*
X729749Y754395D01*
X729733Y754263D01*
X729725Y754122D01*
Y754060D01*
X729733Y753990D01*
X729741Y753904D01*
X729756Y753803D01*
X729780Y753686D01*
X729811Y753561D01*
X729858Y753444D01*
X729866Y753460D01*
X729889Y753499D01*
X729928Y753561D01*
X729975Y753647D01*
X730022Y753740D01*
X730068Y753857D01*
X730115Y753974D01*
X730154Y754107D01*
X730645Y753943D01*
Y753935D01*
X730638Y753920D01*
X730630Y753889D01*
X730614Y753842D01*
X730599Y753795D01*
X730575Y753740D01*
X730521Y753600D01*
X730450Y753452D01*
X730372Y753288D01*
X730271Y753132D01*
X730154Y752984D01*
X730162Y752976D01*
X730178Y752961D01*
X730209Y752930D01*
X730256Y752890D01*
X730318Y752844D01*
X730388Y752797D01*
X730466Y752742D01*
X730567Y752680D01*
X730669Y752625D01*
X730794Y752571D01*
X730926Y752524D01*
X731074Y752477D01*
X731238Y752438D01*
X731410Y752407D01*
X731597Y752391D01*
X731792Y752384D01*
X731799D01*
X731823D01*
X731854D01*
X731893D01*
X731948Y752391D01*
X732010D01*
X732158Y752407D01*
X732330Y752438D01*
X732509Y752469D01*
X732696Y752524D01*
X732876Y752594D01*
X732883D01*
X732899Y752602D01*
X732922Y752617D01*
X732953Y752633D01*
X733039Y752680D01*
X733141Y752750D01*
X733258Y752836D01*
X733382Y752945D01*
X733499Y753070D01*
X733601Y753210D01*
Y753218D01*
X733608Y753226D01*
X733624Y753249D01*
X733640Y753280D01*
X733679Y753366D01*
X733733Y753475D01*
X733780Y753608D01*
X733819Y753764D01*
X733850Y753935D01*
X733858Y754122D01*
Y754193D01*
X733850Y754247D01*
X733842Y754310D01*
X733827Y754388D01*
X733811Y754473D01*
X733796Y754559D01*
X733733Y754762D01*
X733687Y754863D01*
X733640Y754973D01*
X733577Y755074D01*
X733507Y755183D01*
X733429Y755284D01*
X733336Y755378D01*
X733328Y755386D01*
X733312Y755401D01*
X733281Y755425D01*
X733242Y755456D01*
X733187Y755495D01*
X733117Y755534D01*
X733039Y755581D01*
X732953Y755620D01*
X732844Y755667D01*
X732735Y755713D01*
X732603Y755752D01*
X732470Y755791D01*
X732314Y755822D01*
X732150Y755846D01*
X731979Y755861D01*
X731792Y755869D01*
D02*
G37*
%LPD*%
D10*
X602430Y557730D02*
G03*
X600930Y556230I0J-1500D01*
G01*
Y584230D02*
G03*
X602430Y582730I1500J0D01*
G01*
Y594560D02*
G03*
X600930Y593060I0J-1500D01*
G01*
Y621060D02*
G03*
X602430Y619560I1500J0D01*
G01*
X457510Y546730D02*
G03*
X437510Y566730I-20000J0D01*
G01*
X357510D02*
G03*
X337510Y546730I0J-20000D01*
G01*
Y466730D02*
G03*
X357510Y446730I20000J0D01*
G01*
X437510D02*
G03*
X457510Y466730I0J20000D01*
G01*
X758590Y413720D02*
G03*
X758590Y413720I-1000J0D01*
G01*
X1065172Y681071D02*
Y788671D01*
Y681071D02*
X1147172D01*
X1065172Y788671D02*
X1147172D01*
Y681071D02*
Y788671D01*
X559930Y555230D02*
Y557730D01*
Y555230D02*
X605930D01*
X578930Y570230D02*
X581930D01*
Y566230D02*
Y570230D01*
X559930Y582730D02*
Y585230D01*
X581930Y570230D02*
Y574230D01*
Y566230D02*
X585930Y570230D01*
X559930Y585230D02*
X605930D01*
X602430Y557730D02*
X605930D01*
Y555230D02*
Y557730D01*
X585930Y570230D02*
Y574230D01*
Y566230D02*
Y570230D01*
X581930Y574230D02*
X585930Y570230D01*
X586930D01*
X602430Y582730D02*
X605930D01*
Y585230D01*
X559930Y592060D02*
Y594560D01*
Y592060D02*
X605930D01*
X578930Y607060D02*
X581930D01*
Y603060D02*
Y607060D01*
X559930Y619560D02*
Y622060D01*
X581930Y607060D02*
Y611060D01*
Y603060D02*
X585930Y607060D01*
X559930Y622060D02*
X605930D01*
X602430Y594560D02*
X605930D01*
Y592060D02*
Y594560D01*
X585930Y607060D02*
Y611060D01*
Y603060D02*
Y607060D01*
X581930Y611060D02*
X585930Y607060D01*
X586930D01*
X602430Y619560D02*
X605930D01*
Y622060D01*
X362780Y353590D02*
Y356090D01*
X451030Y353590D02*
Y356090D01*
X441780D02*
X451030D01*
X362780D02*
X371780D01*
X362780Y306090D02*
Y328590D01*
X451030Y306090D02*
Y328590D01*
X362780Y249590D02*
Y281090D01*
Y249590D02*
X451030D01*
Y281090D01*
X989660Y733465D02*
Y793465D01*
X935660Y733465D02*
Y793465D01*
X862000Y732195D02*
Y792195D01*
X916000Y732195D02*
Y792195D01*
X795350Y732000D02*
Y792000D01*
X741350Y732000D02*
Y792000D01*
X667690Y731905D02*
Y791905D01*
X721690Y731905D02*
Y791905D01*
X547120Y258290D02*
X611120D01*
X609120Y318290D02*
X620120D01*
Y333290D01*
X629120D01*
Y294290D02*
Y333290D01*
X538120Y318290D02*
X549120D01*
X538120D02*
Y333290D01*
X529120D02*
X538120D01*
X529120Y294290D02*
Y333290D01*
X288950Y412620D02*
X290200D01*
X243200D02*
X254450D01*
X243200Y364620D02*
Y412620D01*
X288950Y364620D02*
X290200D01*
X243200D02*
X254450D01*
X290200D02*
Y412620D01*
X449560Y630760D02*
Y652760D01*
X394560D02*
X449560D01*
X383560Y641760D02*
X394560Y652760D01*
X383560Y630760D02*
Y641760D01*
X449560Y586760D02*
Y608760D01*
X394560Y586760D02*
X449560D01*
X383560Y597760D02*
X394560Y586760D01*
X383560Y597760D02*
Y608760D01*
X619090Y477920D02*
Y527920D01*
X567090Y477920D02*
Y527920D01*
X606090D02*
X619090D01*
X606090Y477920D02*
X619090D01*
X567090Y527920D02*
X580090D01*
X567090Y477920D02*
X580090D01*
X357510Y446730D02*
X366510D01*
X428510D02*
X437510D01*
X357510Y566730D02*
X366510D01*
Y536730D02*
Y566730D01*
Y536730D02*
X428510D01*
Y566730D01*
X437510D01*
X457510Y466730D02*
Y546730D01*
X337510Y466730D02*
Y546730D01*
X952260Y396910D02*
X961510D01*
X913010D02*
X922260D01*
X913010Y512410D02*
X922260D01*
X952260D02*
X961510D01*
X913010Y396910D02*
Y512410D01*
X961510Y396910D02*
Y512410D01*
X985090Y620550D02*
X1090090D01*
X985090Y560550D02*
Y620550D01*
Y560550D02*
X1090090D01*
Y620550D01*
X1013590Y288950D02*
Y290200D01*
Y243200D02*
Y254450D01*
Y243200D02*
X1061590D01*
Y288950D02*
Y290200D01*
Y243200D02*
Y254450D01*
X1013590Y290200D02*
X1061590D01*
X896750Y288950D02*
Y290200D01*
Y243200D02*
Y254450D01*
Y243200D02*
X944750D01*
Y288950D02*
Y290200D01*
Y243200D02*
Y254450D01*
X896750Y290200D02*
X944750D01*
X288950Y542160D02*
X290200D01*
X243200D02*
X254450D01*
X243200Y494160D02*
Y542160D01*
X288950Y494160D02*
X290200D01*
X243200D02*
X254450D01*
X290200D02*
Y542160D01*
X765560Y258290D02*
X829560D01*
X827560Y318290D02*
X838560D01*
Y333290D01*
X847560D01*
Y294290D02*
Y333290D01*
X756560Y318290D02*
X767560D01*
X756560D02*
Y333290D01*
X747560D02*
X756560D01*
X747560Y294290D02*
Y333290D01*
X1169430Y384880D02*
Y468880D01*
X1109430Y466880D02*
Y477880D01*
X1094430D02*
X1109430D01*
X1094430D02*
Y486880D01*
X1133430D01*
X1109430Y375880D02*
Y386880D01*
X1094430Y375880D02*
X1109430D01*
X1094430Y366880D02*
Y375880D01*
Y366880D02*
X1133430D01*
X282848Y785779D02*
X364848D01*
X282848Y678178D02*
Y785779D01*
Y678178D02*
X364848D01*
Y785779D01*
X960820Y570520D02*
Y638520D01*
X857820Y570520D02*
X960820D01*
X857820D02*
Y638520D01*
X960820D01*
X960520Y642020D02*
Y661270D01*
X804610Y570520D02*
Y638520D01*
X701610Y570520D02*
X804610D01*
X701610D02*
Y638520D01*
X804610D01*
X804310Y642020D02*
Y661270D01*
X670830Y363100D02*
Y411600D01*
X723630D01*
Y363100D02*
Y411600D01*
X670830Y363100D02*
X723630D01*
X671430Y343100D02*
Y359600D01*
X527380Y482170D02*
Y498170D01*
X486380D02*
X527380D01*
X474380Y486170D02*
X486380Y498170D01*
X474380Y482170D02*
Y486170D01*
X527380Y444170D02*
Y460170D01*
X486380Y444170D02*
X527380D01*
X474380Y456170D02*
X486380Y444170D01*
X474380Y456170D02*
Y460170D01*
X643970Y770700D02*
X653970D01*
X648970D02*
X652970Y777700D01*
X643970D02*
X648970Y770700D01*
X643970Y777700D02*
X652970D01*
X648970Y768700D02*
Y770700D01*
Y777700D02*
Y780700D01*
X809070Y752030D02*
X819070D01*
X810070Y745030D02*
X814070Y752030D01*
X819070Y745030D01*
X810070D02*
X819070D01*
X814070Y752030D02*
Y754030D01*
Y742030D02*
Y745030D01*
X724980Y685880D02*
Y695880D01*
Y690880D02*
X731980Y686880D01*
X724980Y690880D02*
X731980Y695880D01*
Y686880D02*
Y695880D01*
X722980Y690880D02*
X724980D01*
X731980D02*
X734980D01*
X838280Y772165D02*
X848280D01*
X843280D02*
X847280Y779165D01*
X838280D02*
X843280Y772165D01*
X838280Y779165D02*
X847280D01*
X843280Y770165D02*
Y772165D01*
Y779165D02*
Y782165D01*
X881190Y684610D02*
Y694610D01*
Y689610D02*
X888190Y685610D01*
X881190Y689610D02*
X888190Y694610D01*
Y685610D02*
Y694610D01*
X879190Y689610D02*
X881190D01*
X888190D02*
X891190D01*
X1003380Y745300D02*
X1013380D01*
X1008380D02*
X1012380Y752300D01*
X1003380D02*
X1008380Y745300D01*
X1003380Y752300D02*
X1012380D01*
X1008380Y743300D02*
Y745300D01*
Y752300D02*
Y755300D01*
X377320Y781290D02*
Y788290D01*
Y781290D02*
X425320D01*
Y788290D01*
Y804290D02*
Y811290D01*
X377320D02*
X425320D01*
X377320Y804290D02*
Y811290D01*
X401320Y781290D02*
Y811290D01*
D11*
X614180Y556230D02*
G03*
X614180Y556230I-1250J0D01*
G01*
Y593060D02*
G03*
X614180Y593060I-1250J0D01*
G01*
X944860Y719890D02*
G03*
X944860Y719890I-1250J0D01*
G01*
X909300Y805770D02*
G03*
X909300Y805770I-1250J0D01*
G01*
X750550Y718425D02*
G03*
X750550Y718425I-1250J0D01*
G01*
X714990Y805480D02*
G03*
X714990Y805480I-1250J0D01*
G01*
X281450Y348870D02*
G03*
X281450Y348870I-1250J0D01*
G01*
X398760Y575730D02*
G03*
X398760Y575730I-1250J0D01*
G01*
X1083290Y654800D02*
G03*
X1083290Y654800I-1250J0D01*
G01*
X1078590Y280200D02*
G03*
X1078590Y280200I-1250J0D01*
G01*
X961750D02*
G03*
X961750Y280200I-1250J0D01*
G01*
X281450Y478410D02*
G03*
X281450Y478410I-1250J0D01*
G01*
D12*
X623672Y558148D02*
G03*
X623672Y556672I-189J-738D01*
G01*
X472542Y568308D02*
G03*
X472542Y566832I-189J-738D01*
G01*
X629793Y562229D02*
X645287D01*
X629793Y537591D02*
X645287D01*
X478663Y572389D02*
X494157D01*
X478663Y547751D02*
X494157D01*
D13*
X1084340Y612300D02*
G03*
X1084340Y612300I-2500J0D01*
G01*
D14*
X660860Y431050D02*
X662860D01*
Y411050D02*
Y431050D01*
X660860Y411050D02*
X662860D01*
X652860D02*
X654860D01*
X652860D02*
Y431050D01*
X654860D01*
X752300Y523080D02*
X754300D01*
Y503080D02*
Y523080D01*
X752300Y503080D02*
X754300D01*
X744300D02*
X746300D01*
X744300D02*
Y523080D01*
X746300D01*
X796750Y526890D02*
X798750D01*
Y506890D02*
Y526890D01*
X796750Y506890D02*
X798750D01*
X788750D02*
X790750D01*
X788750D02*
Y526890D01*
X790750D01*
X675640Y504190D02*
Y505460D01*
X652780D02*
X675640D01*
X652780Y504190D02*
Y505460D01*
Y495300D02*
Y496570D01*
Y495300D02*
X675640D01*
Y496570D01*
X664210Y495300D02*
Y505460D01*
X623460Y471170D02*
X641460D01*
X623460Y488170D02*
X627460D01*
X623460Y454170D02*
Y488170D01*
Y454170D02*
X627460D01*
X637460D02*
X641460D01*
Y488170D01*
X637460D02*
X641460D01*
X665480Y533400D02*
X666750D01*
Y510540D02*
Y533400D01*
X665480Y510540D02*
X666750D01*
X656590Y521970D02*
X666750D01*
X656590Y533400D02*
X657860D01*
X656590Y510540D02*
X657860D01*
X656590D02*
Y533400D01*
X646430Y502920D02*
Y504190D01*
X623570D02*
X646430D01*
X623570Y502920D02*
Y504190D01*
Y494030D02*
Y495300D01*
Y494030D02*
X646430D01*
Y495300D01*
X635000Y494030D02*
Y504190D01*
X623570Y581660D02*
Y582930D01*
Y581660D02*
X646430D01*
Y582930D01*
Y590550D02*
Y591820D01*
X623570D02*
X646430D01*
X623570Y590550D02*
Y591820D01*
X635000Y581660D02*
Y591820D01*
X660400D02*
X661670D01*
Y568960D02*
Y591820D01*
X660400Y568960D02*
X661670D01*
X651510Y580390D02*
X661670D01*
X651510Y591820D02*
X652780D01*
X651510Y568960D02*
X652780D01*
X651510D02*
Y591820D01*
X651540Y528510D02*
Y531510D01*
Y517510D02*
Y520510D01*
X637540Y517510D02*
Y531510D01*
X623540D02*
X651540D01*
X623540Y528510D02*
Y531510D01*
Y517510D02*
X651540D01*
X623540D02*
Y520510D01*
X623730Y567770D02*
Y569770D01*
Y567770D02*
X643730D01*
Y569770D01*
Y575770D02*
Y577770D01*
X623730D02*
X643730D01*
X623730Y575770D02*
Y577770D01*
X671450Y618350D02*
Y620850D01*
X623950D02*
X671450D01*
X623950Y618350D02*
Y620850D01*
Y598350D02*
Y600850D01*
Y598350D02*
X671450D01*
Y600850D01*
X647700Y598350D02*
Y620850D01*
X656590Y551180D02*
Y552450D01*
Y551180D02*
X679450D01*
Y552450D01*
Y560070D02*
Y561340D01*
X656590D02*
X679450D01*
X656590Y560070D02*
Y561340D01*
X668020Y551180D02*
Y561340D01*
X676750Y545290D02*
Y547290D01*
X656750D02*
X676750D01*
X656750Y545290D02*
Y547290D01*
Y537290D02*
Y539290D01*
Y537290D02*
X676750D01*
Y539290D01*
X466090Y370770D02*
X467360D01*
X466090Y347910D02*
Y370770D01*
Y347910D02*
X467360D01*
X474980D02*
X476250D01*
Y370770D01*
X474980D02*
X476250D01*
X466090Y359340D02*
X476250D01*
X491490Y347980D02*
X492760D01*
Y370840D01*
X491490D02*
X492760D01*
X482600D02*
X483870D01*
X482600Y347980D02*
Y370840D01*
Y347980D02*
X483870D01*
X482600Y359410D02*
X492760D01*
X865300Y439880D02*
Y441880D01*
X845300D02*
X865300D01*
X845300Y439880D02*
Y441880D01*
Y431880D02*
Y433880D01*
Y431880D02*
X865300D01*
Y433880D01*
X523240Y514350D02*
Y515620D01*
X500380D02*
X523240D01*
X500380Y514350D02*
Y515620D01*
Y505460D02*
Y506730D01*
Y505460D02*
X523240D01*
Y506730D01*
X511810Y505460D02*
Y515620D01*
X889000Y364490D02*
Y365760D01*
X866140D02*
X889000D01*
X866140Y364490D02*
Y365760D01*
Y355600D02*
Y356870D01*
Y355600D02*
X889000D01*
Y356870D01*
X877570Y355600D02*
Y365760D01*
X499110Y801370D02*
Y802640D01*
Y801370D02*
X521970D01*
Y802640D01*
Y810260D02*
Y811530D01*
X499110D02*
X521970D01*
X499110Y810260D02*
Y811530D01*
X510540Y801370D02*
Y811530D01*
X505460Y563880D02*
Y565150D01*
Y563880D02*
X528320D01*
Y565150D01*
Y572770D02*
Y574040D01*
X505460D02*
X528320D01*
X505460Y572770D02*
Y574040D01*
X516890Y563880D02*
Y574040D01*
X449580Y801370D02*
Y802640D01*
Y801370D02*
X472440D01*
Y802640D01*
Y810260D02*
Y811530D01*
X449580D02*
X472440D01*
X449580Y810260D02*
Y811530D01*
X461010Y801370D02*
Y811530D01*
X473710Y591820D02*
Y593090D01*
Y591820D02*
X496570D01*
Y593090D01*
Y600710D02*
Y601980D01*
X473710D02*
X496570D01*
X473710Y600710D02*
Y601980D01*
X485140Y591820D02*
Y601980D01*
X497840Y370840D02*
X499110D01*
X497840Y347980D02*
Y370840D01*
Y347980D02*
X499110D01*
X506730D02*
X508000D01*
Y370840D01*
X506730D02*
X508000D01*
X497840Y359410D02*
X508000D01*
X337820Y370840D02*
X339090D01*
X337820Y347980D02*
Y370840D01*
Y347980D02*
X339090D01*
X346710D02*
X347980D01*
Y370840D01*
X346710D02*
X347980D01*
X337820Y359410D02*
X347980D01*
X882650Y511810D02*
X883920D01*
X882650Y488950D02*
Y511810D01*
Y488950D02*
X883920D01*
X891540D02*
X892810D01*
Y511810D01*
X891540D02*
X892810D01*
X882650Y500380D02*
X892810D01*
X731520Y466090D02*
Y467360D01*
X708660D02*
X731520D01*
X708660Y466090D02*
Y467360D01*
Y457200D02*
Y458470D01*
Y457200D02*
X731520D01*
Y458470D01*
X720090Y457200D02*
Y467360D01*
X731520Y480060D02*
Y481330D01*
X708660D02*
X731520D01*
X708660Y480060D02*
Y481330D01*
Y471170D02*
Y472440D01*
Y471170D02*
X731520D01*
Y472440D01*
X720090Y471170D02*
Y481330D01*
X654050Y365760D02*
X655320D01*
X654050Y342900D02*
Y365760D01*
Y342900D02*
X655320D01*
X662940D02*
X664210D01*
Y365760D01*
X662940D02*
X664210D01*
X654050Y354330D02*
X664210D01*
X499540Y817880D02*
X502540D01*
X499540D02*
Y875030D01*
X508000D01*
X513080D02*
X521540D01*
Y817880D02*
Y875030D01*
X518540Y817880D02*
X521540D01*
X499540Y847090D02*
X521540D01*
X506730Y842010D02*
X510540Y847090D01*
X514350Y842010D01*
X510540Y847090D02*
Y849630D01*
Y839470D02*
Y842010D01*
X506730D02*
X514350D01*
X521540Y875030D02*
Y876300D01*
X513080D02*
X521540D01*
X513080Y875030D02*
Y876300D01*
X499540Y875030D02*
Y876300D01*
X508000D01*
Y875030D02*
Y876300D01*
X459105Y875030D02*
Y876300D01*
X450645D02*
X459105D01*
X450645Y875030D02*
Y876300D01*
X464185Y875030D02*
Y876300D01*
X472645D01*
Y875030D02*
Y876300D01*
X457835Y842010D02*
X465455D01*
X461645Y839470D02*
Y842010D01*
Y847090D02*
Y849630D01*
Y847090D02*
X465455Y842010D01*
X457835D02*
X461645Y847090D01*
X450645D02*
X472645D01*
X469645Y817880D02*
X472645D01*
Y875030D01*
X464185D02*
X472645D01*
X450645D02*
X459105D01*
X450645Y817880D02*
Y875030D01*
Y817880D02*
X453645D01*
X412750Y875030D02*
Y876300D01*
X404290D02*
X412750D01*
X404290Y875030D02*
Y876300D01*
X417830Y875030D02*
Y876300D01*
X426290D01*
Y875030D02*
Y876300D01*
X411480Y842010D02*
X419100D01*
X415290Y839470D02*
Y842010D01*
Y847090D02*
Y849630D01*
Y847090D02*
X419100Y842010D01*
X411480D02*
X415290Y847090D01*
X404290D02*
X426290D01*
X423290Y817880D02*
X426290D01*
Y875030D01*
X417830D02*
X426290D01*
X404290D02*
X412750D01*
X404290Y817880D02*
Y875030D01*
Y817880D02*
X407290D01*
X866220Y388460D02*
X868220D01*
X866220Y368460D02*
Y388460D01*
Y368460D02*
X868220D01*
X874220D02*
X876220D01*
Y388460D01*
X874220D02*
X876220D01*
X862790Y315120D02*
X864790D01*
Y335120D01*
X862790D02*
X864790D01*
X854790D02*
X856790D01*
X854790Y315120D02*
Y335120D01*
Y315120D02*
X856790D01*
X850980Y375760D02*
X852980D01*
X850980Y355760D02*
Y375760D01*
Y355760D02*
X852980D01*
X858980D02*
X860980D01*
Y375760D01*
X858980D02*
X860980D01*
X505620Y549990D02*
Y551990D01*
Y549990D02*
X525620D01*
Y551990D01*
Y557990D02*
Y559990D01*
X505620D02*
X525620D01*
X505620Y557990D02*
Y559990D01*
X473870Y579200D02*
Y581200D01*
Y579200D02*
X493870D01*
Y581200D01*
Y587200D02*
Y589200D01*
X473870D02*
X493870D01*
X473870Y587200D02*
Y589200D01*
X990760Y514430D02*
Y516430D01*
Y514430D02*
X1010760D01*
Y516430D01*
Y522430D02*
Y524430D01*
X990760D02*
X1010760D01*
X990760Y522430D02*
Y524430D01*
X1010760Y508460D02*
Y510460D01*
X990760D02*
X1010760D01*
X990760Y508460D02*
Y510460D01*
Y500460D02*
Y502460D01*
Y500460D02*
X1010760D01*
Y502460D01*
X1072990Y522430D02*
Y524430D01*
X1052990D02*
X1072990D01*
X1052990Y522430D02*
Y524430D01*
Y514430D02*
Y516430D01*
Y514430D02*
X1072990D01*
Y516430D01*
X893920Y540210D02*
Y542210D01*
X873920D02*
X893920D01*
X873920Y540210D02*
Y542210D01*
Y532210D02*
Y534210D01*
Y532210D02*
X893920D01*
Y534210D01*
X913510Y677090D02*
Y679590D01*
Y677090D02*
X961010D01*
Y679590D01*
Y697090D02*
Y699590D01*
X913510D02*
X961010D01*
X913510Y697090D02*
Y699590D01*
X937260Y677090D02*
Y699590D01*
X737710Y537670D02*
Y539670D01*
X717710D02*
X737710D01*
X717710Y537670D02*
Y539670D01*
Y529670D02*
Y531670D01*
Y529670D02*
X737710D01*
Y531670D01*
X757300Y677090D02*
Y679590D01*
Y677090D02*
X804800D01*
Y679590D01*
Y697090D02*
Y699590D01*
X757300D02*
X804800D01*
X757300Y697090D02*
Y699590D01*
X781050Y677090D02*
Y699590D01*
X904700Y491650D02*
X906700D01*
Y511650D01*
X904700D02*
X906700D01*
X896700D02*
X898700D01*
X896700Y491650D02*
Y511650D01*
Y491650D02*
X898700D01*
X896700Y417670D02*
X898700D01*
X896700Y397670D02*
Y417670D01*
Y397670D02*
X898700D01*
X904700D02*
X906700D01*
Y417670D01*
X904700D02*
X906700D01*
X701200Y443310D02*
Y445310D01*
Y443310D02*
X721200D01*
Y445310D01*
Y451310D02*
Y453310D01*
X701200D02*
X721200D01*
X701200Y451310D02*
Y453310D01*
X859630Y467820D02*
Y469820D01*
X839630D02*
X859630D01*
X839630Y467820D02*
Y469820D01*
Y459820D02*
Y461820D01*
Y459820D02*
X859630D01*
Y461820D01*
X711360Y485220D02*
Y487220D01*
Y485220D02*
X731360D01*
Y487220D01*
Y493220D02*
Y495220D01*
X711360D02*
X731360D01*
X711360Y493220D02*
Y495220D01*
X772240Y526890D02*
X774240D01*
X772240Y506890D02*
Y526890D01*
Y506890D02*
X774240D01*
X780240D02*
X782240D01*
Y526890D01*
X780240D02*
X782240D01*
X751030Y391320D02*
X753030D01*
Y411320D01*
X751030D02*
X753030D01*
X743030D02*
X745030D01*
X743030Y391320D02*
Y411320D01*
Y391320D02*
X745030D01*
X796750D02*
X798750D01*
Y411320D01*
X796750D02*
X798750D01*
X788750D02*
X790750D01*
X788750Y391320D02*
Y411320D01*
Y391320D02*
X790750D01*
X865300Y453850D02*
Y455850D01*
X845300D02*
X865300D01*
X845300Y453850D02*
Y455850D01*
Y445850D02*
Y447850D01*
Y445850D02*
X865300D01*
Y447850D01*
X711360Y497920D02*
Y499920D01*
Y497920D02*
X731360D01*
Y499920D01*
Y505920D02*
Y507920D01*
X711360D02*
X731360D01*
X711360Y505920D02*
Y507920D01*
X505460Y546100D02*
X506730D01*
X505460Y523240D02*
Y546100D01*
Y523240D02*
X506730D01*
X514350D02*
X515620D01*
Y546100D01*
X514350D02*
X515620D01*
X505460Y534670D02*
X515620D01*
X500380Y601980D02*
X501650D01*
X500380Y579120D02*
Y601980D01*
Y579120D02*
X501650D01*
X509270D02*
X510540D01*
Y601980D01*
X509270D02*
X510540D01*
X500380Y590550D02*
X510540D01*
X495300Y514350D02*
Y515620D01*
X472440D02*
X495300D01*
X472440Y514350D02*
Y515620D01*
Y505460D02*
Y506730D01*
Y505460D02*
X495300D01*
Y506730D01*
X483870Y505460D02*
Y515620D01*
X500410Y537400D02*
Y540400D01*
X472410D02*
X500410D01*
X472410Y537400D02*
Y540400D01*
Y526400D02*
Y529400D01*
Y526400D02*
X500410D01*
Y529400D01*
X486410Y526400D02*
Y540400D01*
X639810Y797700D02*
X642220D01*
X639810Y751840D02*
Y797700D01*
Y750570D02*
Y751840D01*
Y750570D02*
X646430D01*
Y751840D01*
X639810D02*
X646430D01*
X651510D02*
X658130D01*
X651510Y750570D02*
Y751840D01*
Y750570D02*
X658130D01*
Y751840D01*
Y797700D01*
X655720D02*
X658130D01*
X624840Y797560D02*
X626110D01*
X624840Y774700D02*
Y797560D01*
Y774700D02*
X626110D01*
X633730D02*
X635000D01*
Y797560D01*
X633730D02*
X635000D01*
X624840Y786130D02*
X635000D01*
X820820Y725030D02*
X823230D01*
Y770890D01*
Y772160D01*
X816610D02*
X823230D01*
X816610Y770890D02*
Y772160D01*
Y770890D02*
X823230D01*
X804910D02*
X811530D01*
Y772160D01*
X804910D02*
X811530D01*
X804910Y770890D02*
Y772160D01*
Y725030D02*
Y770890D01*
Y725030D02*
X807320D01*
X836930Y725170D02*
X838200D01*
Y748030D01*
X836930D02*
X838200D01*
X828040D02*
X829310D01*
X828040Y725170D02*
Y748030D01*
Y725170D02*
X829310D01*
X828040Y736600D02*
X838200D01*
X751980Y697630D02*
Y700040D01*
X706120D02*
X751980D01*
X704850D02*
X706120D01*
X704850Y693420D02*
Y700040D01*
Y693420D02*
X706120D01*
Y700040D01*
Y681720D02*
Y688340D01*
X704850D02*
X706120D01*
X704850Y681720D02*
Y688340D01*
Y681720D02*
X706120D01*
X751980D01*
Y684130D01*
X725010Y676100D02*
Y678100D01*
X705010D02*
X725010D01*
X705010Y676100D02*
Y678100D01*
Y668100D02*
Y670100D01*
Y668100D02*
X725010D01*
Y670100D01*
X834120Y799165D02*
X836530D01*
X834120Y753305D02*
Y799165D01*
Y752035D02*
Y753305D01*
Y752035D02*
X840740D01*
Y753305D01*
X834120D02*
X840740D01*
X845820D02*
X852440D01*
X845820Y752035D02*
Y753305D01*
Y752035D02*
X852440D01*
Y753305D01*
Y799165D01*
X850030D02*
X852440D01*
X819150Y799025D02*
X820420D01*
X819150Y776165D02*
Y799025D01*
Y776165D02*
X820420D01*
X828040D02*
X829310D01*
Y799025D01*
X828040D02*
X829310D01*
X819150Y787595D02*
X829310D01*
X908190Y696360D02*
Y698770D01*
X862330D02*
X908190D01*
X861060D02*
X862330D01*
X861060Y692150D02*
Y698770D01*
Y692150D02*
X862330D01*
Y698770D01*
Y680450D02*
Y687070D01*
X861060D02*
X862330D01*
X861060Y680450D02*
Y687070D01*
Y680450D02*
X862330D01*
X908190D01*
Y682860D01*
X999220Y772300D02*
X1001630D01*
X999220Y726440D02*
Y772300D01*
Y725170D02*
Y726440D01*
Y725170D02*
X1005840D01*
Y726440D01*
X999220D02*
X1005840D01*
X1010920D02*
X1017540D01*
X1010920Y725170D02*
Y726440D01*
Y725170D02*
X1017540D01*
Y726440D01*
Y772300D01*
X1015130D02*
X1017540D01*
X881220Y676735D02*
Y678735D01*
X861220D02*
X881220D01*
X861220Y676735D02*
Y678735D01*
Y668735D02*
Y670735D01*
Y668735D02*
X881220D01*
Y670735D01*
X1021080Y748030D02*
X1022350D01*
X1021080Y725170D02*
Y748030D01*
Y725170D02*
X1022350D01*
X1029970D02*
X1031240D01*
Y748030D01*
X1029970D02*
X1031240D01*
X1021080Y736600D02*
X1031240D01*
X866140Y341630D02*
Y342900D01*
Y341630D02*
X889000D01*
Y342900D01*
Y350520D02*
Y351790D01*
X866140D02*
X889000D01*
X866140Y350520D02*
Y351790D01*
X877570Y341630D02*
Y351790D01*
X838200Y341630D02*
Y342900D01*
Y341630D02*
X861060D01*
Y342900D01*
Y350520D02*
Y351790D01*
X838200D02*
X861060D01*
X838200Y350520D02*
Y351790D01*
X849630Y341630D02*
Y351790D01*
D15*
X490220Y434340D02*
X502920D01*
Y414020D02*
Y434340D01*
X490220Y414020D02*
X502920D01*
X462280D02*
X474980D01*
X462280D02*
Y434340D01*
X474980D01*
X673100Y486410D02*
X685800D01*
Y466090D02*
Y486410D01*
X673100Y466090D02*
X685800D01*
X645160D02*
X657860D01*
X645160D02*
Y486410D01*
X657860D01*
X1154434Y708660D02*
X1167130D01*
Y715008D01*
X1165014Y717124D01*
X1162898D01*
X1160782Y715008D01*
Y708660D01*
Y715008D01*
X1158666Y717124D01*
X1156550D01*
X1154434Y715008D01*
Y708660D01*
X1167130Y759460D02*
X1158666D01*
X1154434Y763692D01*
X1158666Y767924D01*
X1167130D01*
X1160782D01*
Y759460D01*
X1033782Y314958D02*
Y299722D01*
X1041399D01*
X1043938Y302262D01*
Y304801D01*
X1041399Y307340D01*
X1033782D01*
X1041399D01*
X1043938Y309879D01*
Y312418D01*
X1041399Y314958D01*
X1033782D01*
X916942Y300993D02*
Y311149D01*
X922020Y316227D01*
X927098Y311149D01*
Y300993D01*
Y308610D01*
X916942D01*
X260781Y558802D02*
Y568958D01*
X265859D01*
X267552Y567266D01*
Y563880D01*
X265859Y562187D01*
X260781D01*
X264167D02*
X267552Y558802D01*
X277709Y568958D02*
X270938D01*
Y558802D01*
X277709D01*
X270938Y563880D02*
X274323D01*
X287866Y567266D02*
X286173Y568958D01*
X282787D01*
X281094Y567266D01*
Y565573D01*
X282787Y563880D01*
X286173D01*
X287866Y562187D01*
Y560494D01*
X286173Y558802D01*
X282787D01*
X281094Y560494D01*
X298022Y568958D02*
X291251D01*
Y558802D01*
X298022D01*
X291251Y563880D02*
X294637D01*
X301408Y568958D02*
X308179D01*
X304793D01*
Y558802D01*
X259514Y438148D02*
Y427992D01*
X264593D01*
X266285Y429684D01*
Y431377D01*
X264593Y433070D01*
X259514D01*
X264593D01*
X266285Y434763D01*
Y436456D01*
X264593Y438148D01*
X259514D01*
X274749D02*
X271364D01*
X269671Y436456D01*
Y429684D01*
X271364Y427992D01*
X274749D01*
X276442Y429684D01*
Y436456D01*
X274749Y438148D01*
X284906D02*
X281521D01*
X279828Y436456D01*
Y429684D01*
X281521Y427992D01*
X284906D01*
X286599Y429684D01*
Y436456D01*
X284906Y438148D01*
X289984D02*
X296756D01*
X293370D01*
Y427992D01*
X306912Y436456D02*
X305219Y438148D01*
X301834D01*
X300141Y436456D01*
Y434763D01*
X301834Y433070D01*
X305219D01*
X306912Y431377D01*
Y429684D01*
X305219Y427992D01*
X301834D01*
X300141Y429684D01*
X317069Y438148D02*
X310298D01*
Y427992D01*
X317069D01*
X310298Y433070D02*
X313683D01*
X320455Y438148D02*
Y427992D01*
X327226D01*
X527052Y875872D02*
X533823D01*
X537208Y872487D01*
X533823Y869101D01*
X527052D01*
X532130D01*
Y875872D01*
X535516Y858944D02*
X537208Y860637D01*
Y864023D01*
X535516Y865716D01*
X528744D01*
X527052Y864023D01*
Y860637D01*
X528744Y858944D01*
X537208Y855559D02*
Y848788D01*
Y852173D01*
X527052D01*
X485986Y875872D02*
X487678Y874180D01*
Y870794D01*
X485986Y869101D01*
X484293D01*
X482600Y870794D01*
Y872487D01*
Y870794D01*
X480907Y869101D01*
X479214D01*
X477522Y870794D01*
Y874180D01*
X479214Y875872D01*
X487678Y865716D02*
X480907D01*
X477522Y862330D01*
X480907Y858944D01*
X487678D01*
X485986Y855559D02*
X487678Y853866D01*
Y850480D01*
X485986Y848788D01*
X484293D01*
X482600Y850480D01*
Y852173D01*
Y850480D01*
X480907Y848788D01*
X479214D01*
X477522Y850480D01*
Y853866D01*
X479214Y855559D01*
X441958Y875871D02*
X431802D01*
Y870792D01*
X433494Y869100D01*
X435187D01*
X436880Y870792D01*
Y875871D01*
Y870792D01*
X438573Y869100D01*
X440266D01*
X441958Y870792D01*
Y875871D01*
X431802Y865714D02*
X438573D01*
X441958Y862328D01*
X438573Y858943D01*
X431802D01*
X436880D01*
Y865714D01*
X441958Y855557D02*
Y848786D01*
Y852172D01*
X431802D01*
X441958Y845400D02*
Y838629D01*
Y842015D01*
X431802D01*
D16*
X818590Y488670D02*
Y493470D01*
X748590Y488670D02*
Y493470D01*
X818590Y423470D02*
Y428270D01*
X748590Y423470D02*
Y428270D01*
X813790Y493470D02*
X818590D01*
X748590D02*
X753390D01*
X813790Y423470D02*
X818590D01*
X748590D02*
X753390D01*
D17*
X818388Y612645D02*
X823466D01*
X820927D01*
Y605028D01*
X826005D02*
Y612645D01*
X829814D01*
X831084Y611376D01*
Y608837D01*
X829814Y607567D01*
X826005D01*
X833623Y611376D02*
X834893Y612645D01*
X837432D01*
X838701Y611376D01*
Y610106D01*
X837432Y608837D01*
X838701Y607567D01*
Y606298D01*
X837432Y605028D01*
X834893D01*
X833623Y606298D01*
Y607567D01*
X834893Y608837D01*
X833623Y610106D01*
Y611376D01*
X834893Y608837D02*
X837432D01*
X625336Y845067D02*
X630415D01*
X627875D01*
Y837450D01*
X632954D02*
Y845067D01*
X636763D01*
X638032Y843798D01*
Y841259D01*
X636763Y839989D01*
X632954D01*
X640571Y845067D02*
X645650D01*
Y843798D01*
X640571Y838719D01*
Y837450D01*
X824726Y841257D02*
X829805D01*
X827265D01*
Y833640D01*
X832344D02*
Y841257D01*
X836152D01*
X837422Y839988D01*
Y837449D01*
X836152Y836179D01*
X832344D01*
X845040Y841257D02*
X842500Y839988D01*
X839961Y837449D01*
Y834910D01*
X841231Y833640D01*
X843770D01*
X845040Y834910D01*
Y836179D01*
X843770Y837449D01*
X839961D01*
X974598Y690116D02*
X979676D01*
X977137D01*
Y682498D01*
X982215D02*
Y690116D01*
X986024D01*
X987294Y688846D01*
Y686307D01*
X986024Y685037D01*
X982215D01*
X994911Y690116D02*
X989833D01*
Y686307D01*
X992372Y687576D01*
X993642D01*
X994911Y686307D01*
Y683768D01*
X993642Y682498D01*
X991103D01*
X989833Y683768D01*
X1118108Y618996D02*
X1123186D01*
X1120647D01*
Y611378D01*
X1125725D02*
Y618996D01*
X1129534D01*
X1130804Y617726D01*
Y615187D01*
X1129534Y613917D01*
X1125725D01*
X1137152Y611378D02*
Y618996D01*
X1133343Y615187D01*
X1138421D01*
X1008888Y798065D02*
X1013966D01*
X1011427D01*
Y790448D01*
X1016506D02*
Y798065D01*
X1020314D01*
X1021584Y796796D01*
Y794257D01*
X1020314Y792987D01*
X1016506D01*
X1024123Y796796D02*
X1025393Y798065D01*
X1027932D01*
X1029201Y796796D01*
Y795526D01*
X1027932Y794257D01*
X1026662D01*
X1027932D01*
X1029201Y792987D01*
Y791718D01*
X1027932Y790448D01*
X1025393D01*
X1024123Y791718D01*
X565658Y432305D02*
X570736D01*
X568197D01*
Y424688D01*
X573275D02*
Y432305D01*
X577084D01*
X578354Y431036D01*
Y428497D01*
X577084Y427227D01*
X573275D01*
X585971Y424688D02*
X580893D01*
X585971Y429766D01*
Y431036D01*
X584702Y432305D01*
X582163D01*
X580893Y431036D01*
X431038Y407669D02*
X436116D01*
X433577D01*
Y400051D01*
X438656D02*
Y407669D01*
X442464D01*
X443734Y406399D01*
Y403860D01*
X442464Y402590D01*
X438656D01*
X446273Y400051D02*
X448812D01*
X447543D01*
Y407669D01*
X446273Y406399D01*
X602742Y354838D02*
X595125D01*
Y358647D01*
X596394Y359916D01*
X598933D01*
X600203Y358647D01*
Y354838D01*
Y357377D02*
X602742Y359916D01*
X597664Y362455D02*
X602742Y367534D01*
X600203Y364995D01*
X597664Y367534D01*
X602742Y362455D01*
X574804Y354838D02*
Y359916D01*
Y357377D01*
X582422D01*
X577344Y362455D02*
X582422Y367534D01*
X579883Y364995D01*
X577344Y367534D01*
X582422Y362455D01*
X555754Y359916D02*
X554484Y358647D01*
Y356108D01*
X555754Y354838D01*
X560832D01*
X562102Y356108D01*
Y358647D01*
X560832Y359916D01*
X558293D01*
Y357377D01*
X562102Y362455D02*
X554484D01*
X562102Y367534D01*
X554484D01*
Y370073D02*
X562102D01*
Y373882D01*
X560832Y375151D01*
X555754D01*
X554484Y373882D01*
Y370073D01*
X774194Y361186D02*
X772924Y359917D01*
Y357378D01*
X774194Y356108D01*
X779272D01*
X780542Y357378D01*
Y359917D01*
X779272Y361186D01*
X776733D01*
Y358647D01*
X780542Y363726D02*
X772924D01*
X780542Y368804D01*
X772924D01*
Y371343D02*
X780542D01*
Y375152D01*
X779272Y376421D01*
X774194D01*
X772924Y375152D01*
Y371343D01*
X793244Y356108D02*
X800862D01*
Y359917D01*
X799592Y361186D01*
X794514D01*
X793244Y359917D01*
Y356108D01*
Y363726D02*
Y366265D01*
Y364995D01*
X800862D01*
Y363726D01*
Y366265D01*
Y370074D02*
X793244D01*
Y373882D01*
X794514Y375152D01*
X797053D01*
X798323Y373882D01*
Y370074D01*
Y372613D02*
X800862Y375152D01*
X821182Y356108D02*
X813565D01*
Y359917D01*
X814834Y361186D01*
X817373D01*
X818643Y359917D01*
Y356108D01*
X813565Y363726D02*
X821182D01*
X818643Y366265D01*
X821182Y368804D01*
X813565D01*
X821182Y371343D02*
X813565D01*
X816104Y373882D01*
X813565Y376421D01*
X821182D01*
X1048256Y401825D02*
X1043178D01*
Y394208D01*
X1048256D01*
X1043178Y398017D02*
X1045717D01*
X1050796Y394208D02*
Y399286D01*
X1054604D01*
X1055874Y398017D01*
Y394208D01*
X1063491Y399286D02*
X1059683D01*
X1058413Y398017D01*
Y395478D01*
X1059683Y394208D01*
X1063491D01*
X1066031Y401825D02*
Y394208D01*
X1069839D01*
X1071109Y395478D01*
Y396747D01*
X1069839Y398017D01*
X1066031D01*
X1069839D01*
X1071109Y399286D01*
Y400556D01*
X1069839Y401825D01*
X1066031D01*
X1048256Y420876D02*
X1043178D01*
Y413258D01*
X1048256D01*
X1043178Y417067D02*
X1045717D01*
X1050796Y413258D02*
Y418336D01*
X1054604D01*
X1055874Y417067D01*
Y413258D01*
X1063491Y418336D02*
X1059683D01*
X1058413Y417067D01*
Y414528D01*
X1059683Y413258D01*
X1063491D01*
X1066031D02*
Y418336D01*
X1068570Y420876D01*
X1071109Y418336D01*
Y413258D01*
Y417067D01*
X1066031D01*
X1055876Y439926D02*
X1054607Y441195D01*
X1052068D01*
X1050798Y439926D01*
Y434848D01*
X1052068Y433578D01*
X1054607D01*
X1055876Y434848D01*
Y437387D01*
X1053337D01*
X1058416Y433578D02*
Y441195D01*
X1063494Y433578D01*
Y441195D01*
X1066033D02*
Y433578D01*
X1069842D01*
X1071111Y434848D01*
Y439926D01*
X1069842Y441195D01*
X1066033D01*
X1050798Y460246D02*
Y455167D01*
X1053337Y452628D01*
X1055876Y455167D01*
Y460246D01*
X1063494Y458976D02*
X1062224Y460246D01*
X1059685D01*
X1058416Y458976D01*
Y453898D01*
X1059685Y452628D01*
X1062224D01*
X1063494Y453898D01*
X1071111Y458976D02*
X1069842Y460246D01*
X1067303D01*
X1066033Y458976D01*
Y453898D01*
X1067303Y452628D01*
X1069842D01*
X1071111Y453898D01*
X477522Y406399D02*
X476252Y407669D01*
X473713D01*
X472443Y406399D01*
Y405130D01*
X473713Y403860D01*
X476252D01*
X477522Y402590D01*
Y401321D01*
X476252Y400051D01*
X473713D01*
X472443Y401321D01*
X480061Y407669D02*
Y400051D01*
X483870D01*
X485139Y401321D01*
Y402590D01*
X483870Y403860D01*
X480061D01*
X483870D01*
X485139Y405130D01*
Y406399D01*
X483870Y407669D01*
X480061D01*
X487678Y406399D02*
X488948Y407669D01*
X491487D01*
X492757Y406399D01*
Y405130D01*
X491487Y403860D01*
X490218D01*
X491487D01*
X492757Y402590D01*
Y401321D01*
X491487Y400051D01*
X488948D01*
X487678Y401321D01*
X661671Y459739D02*
X660402Y461009D01*
X657862D01*
X656593Y459739D01*
Y458470D01*
X657862Y457200D01*
X660402D01*
X661671Y455930D01*
Y454661D01*
X660402Y453391D01*
X657862D01*
X656593Y454661D01*
X664210Y461009D02*
Y453391D01*
X668019D01*
X669289Y454661D01*
Y455930D01*
X668019Y457200D01*
X664210D01*
X668019D01*
X669289Y458470D01*
Y459739D01*
X668019Y461009D01*
X664210D01*
X671828Y453391D02*
X674367D01*
X673098D01*
Y461009D01*
X671828Y459739D01*
D18*
X549485Y659130D02*
Y647280D01*
X555410Y653205D02*
X543560D01*
X549485Y750570D02*
Y738720D01*
X270085Y708660D02*
Y696810D01*
X276010Y702735D02*
X264160D01*
X270510Y760730D02*
Y748880D01*
D19*
X603430Y556480D02*
D03*
Y593310D02*
D03*
D20*
Y583980D02*
D03*
Y620810D02*
D03*
M02*
