G04*
G04 #@! TF.GenerationSoftware,Altium Limited,Altium Designer,24.2.2 (26)*
G04*
G04 Layer_Color=32896*
%FSLAX44Y44*%
%MOMM*%
G71*
G04*
G04 #@! TF.SameCoordinates,8E206BF5-5000-4682-9AB4-4AEA4F1FC2D2*
G04*
G04*
G04 #@! TF.FilePolarity,Positive*
G04*
G01*
G75*
%ADD15C,0.2540*%
%ADD17C,0.1778*%
D15*
X387350Y415290D02*
Y427990D01*
X367030D02*
X387350D01*
X367030Y415290D02*
Y427990D01*
Y387350D02*
Y400050D01*
Y387350D02*
X387350D01*
Y400050D01*
D17*
X393701Y411478D02*
X392431Y412748D01*
Y415287D01*
X393701Y416557D01*
X394970D01*
X396240Y415287D01*
Y412748D01*
X397510Y411478D01*
X398779D01*
X400049Y412748D01*
Y415287D01*
X398779Y416557D01*
X392431Y408939D02*
X400049D01*
Y405130D01*
X398779Y403861D01*
X397510D01*
X396240Y405130D01*
Y408939D01*
Y405130D01*
X394970Y403861D01*
X393701D01*
X392431Y405130D01*
Y408939D01*
X400049Y396243D02*
Y401322D01*
X394970Y396243D01*
X393701D01*
X392431Y397513D01*
Y400052D01*
X393701Y401322D01*
M02*
