M48
;Layer_Color=9474304
;FILE_FORMAT=4:4
METRIC,LZ
;TYPE=PLATED
T01F00S00C0.2540
T02F00S00C0.4000
T04F00S00C1.0160
T05F00S00C1.1000
T06F00S00C3.2000
%
T01
X0027559Y0034036
X0037719Y0037846
X0040297Y0038227
X0041059
X0045212
X0064008Y0035941
X0067818Y00381254
X0072771Y0035941
Y0035179
X0074676
Y0035941
X0075438
X00751078Y00381254
X0080645Y0038354
X0083058Y00381
X0083129Y00435163
X0083058Y0044577
X0080866Y0044831
X0080772Y0045847
X00804799Y0048354
X00829534Y00477296
X0084328Y0047371
X0084582Y004953
X0085344
Y0050292
X0084582
X00872236Y0051249
Y0053721
X0090297Y0053975
X0091567Y0054102
X0092837Y0053975
X0096774Y0054102
X0097536
Y0054864
Y0055626
Y0056388
X0096774
Y0055626
Y0054864
X0093726Y0063246
X0092964
X0093726Y0070866
X0094488
X009525
X0096012
X0096774
Y0071628
X0096012
X009525
X0094488
X0093726
X0085217Y0074295
X0084455
X0081407Y0078105
X0080645
X0081915Y006604
X00846811Y00659335
X0087503Y0046863
Y0045974
X0102108Y0041656
Y0039751
X0076073Y0044069
Y0044831
X0075852Y0046863
X00786753Y00483556
X0077724Y0050292
X0076708Y0051308
X0075946Y0052705
X0074676Y0053848
X0077216Y0053975
X007366Y0051308
X0074041Y0049784
X0069469Y0049657
Y0048768
X0067437Y0052197
Y0052959
X0070993Y0053467
X0068961Y0058039
X0068072
X0062357Y0056388
X0062103Y0053848
X0056261Y0054483
X0055499
X005207
Y0053721
X0053467Y0049911
Y0049149
X0046609Y0054737
X0047244Y0057531
X0045466Y0079248
X0050449Y0079278
X0062357Y0073787
X0063246
X0064135
X0065024
X0073152Y0073914
X0073914
Y0073152
X0073152Y0074676
Y0075438
Y00762
Y0067056
Y0063246
Y0062484
X0069215Y0065913
X0063119Y0042164
Y0041402
Y004064
X0062357
Y0041402
Y0042164
X0061595
Y0041402
Y004064
X0060833
Y0041402
Y0042164
X0060071
Y0041402
Y004064
X00309601Y00544161
X0070104Y0080772
X0070866
X0071628
X007239
X0073152
X0073914
Y0081534
X0073152
X007239
X0071628
X0070866
X0070104
X007239Y008001
X0073152
T02
X0038278Y0034559
X0039078
X0039478Y0035259
X0038678
X0037878
X0040278
X0041078
X0041878
X0042678
X0043478
X0043078Y0034559
X0042278
X0041478
X0039878
T04
X0082804Y0063119
X0098425Y0070739
X0112776Y0063627
X0057531Y0044958
X0043942Y0042418
X00635Y0082296
X0083566Y0081788
X0101854Y0081534
T05
X0110617Y0071247
Y0076327
X0032385Y0075438
Y0070358
T06
X003048Y003048
X0112395
X00508Y0065278
X0050927Y0074295
X003048Y0083693
X0112395
M30
