G04*
G04 #@! TF.GenerationSoftware,Altium Limited,Altium Designer,24.2.2 (26)*
G04*
G04 Layer_Color=16711935*
%FSLAX44Y44*%
%MOMM*%
G71*
G04*
G04 #@! TF.SameCoordinates,8E206BF5-5000-4682-9AB4-4AEA4F1FC2D2*
G04*
G04*
G04 #@! TF.FilePolarity,Negative*
G04*
G01*
G75*
%ADD85C,1.6256*%
%ADD86C,2.3016*%
%ADD87O,1.1016X1.7016*%
%ADD88C,0.7516*%
%ADD89O,5.7016X5.6016*%
%ADD90O,5.6016X5.7016*%
%ADD91C,0.6096*%
%ADD106R,1.3716X1.3716*%
D85*
X828040Y631190D02*
D03*
X635000Y822960D02*
D03*
X835660Y817880D02*
D03*
X984250Y707390D02*
D03*
X1127760Y636270D02*
D03*
X1018540Y815340D02*
D03*
X575310Y449580D02*
D03*
X439420Y424180D02*
D03*
D86*
X1106170Y712470D02*
D03*
Y763270D02*
D03*
X323850Y754380D02*
D03*
Y703580D02*
D03*
D87*
X449480Y293790D02*
D03*
X364080D02*
D03*
Y341090D02*
D03*
X449480D02*
D03*
D88*
X402780Y352590D02*
D03*
X398780Y345590D02*
D03*
X394780Y352590D02*
D03*
X386780D02*
D03*
X378780D02*
D03*
X390780Y345590D02*
D03*
X382780D02*
D03*
X430780D02*
D03*
X422780D02*
D03*
X434780Y352590D02*
D03*
X426780D02*
D03*
X418780D02*
D03*
X414780Y345590D02*
D03*
X410780Y352590D02*
D03*
D89*
X509270Y742950D02*
D03*
X508000Y652780D02*
D03*
D90*
X304800Y304800D02*
D03*
Y836930D02*
D03*
X1123950D02*
D03*
Y304800D02*
D03*
D91*
X739140Y739140D02*
D03*
Y731520D02*
D03*
X731520Y762000D02*
D03*
Y754380D02*
D03*
Y746760D02*
D03*
Y739140D02*
D03*
X694690Y487680D02*
D03*
Y496570D02*
D03*
X554990Y544830D02*
D03*
X562610D02*
D03*
X534670Y491490D02*
D03*
X631190Y406400D02*
D03*
X806450Y383540D02*
D03*
X807720Y458470D02*
D03*
X804799Y483540D02*
D03*
X1021080Y397510D02*
D03*
Y416560D02*
D03*
X843280Y473710D02*
D03*
X830580Y445770D02*
D03*
X831290Y435163D02*
D03*
X760730Y440690D02*
D03*
Y448310D02*
D03*
X410590Y382270D02*
D03*
X402970D02*
D03*
X853440Y502920D02*
D03*
Y495300D02*
D03*
X845820Y502920D02*
D03*
Y495300D02*
D03*
X631190Y421640D02*
D03*
Y414020D02*
D03*
X623570Y421640D02*
D03*
Y414020D02*
D03*
Y406400D02*
D03*
X615950Y421640D02*
D03*
Y414020D02*
D03*
Y406400D02*
D03*
X608330Y421640D02*
D03*
Y414020D02*
D03*
Y406400D02*
D03*
X600710Y421640D02*
D03*
Y414020D02*
D03*
Y406400D02*
D03*
X727710Y351790D02*
D03*
Y359410D02*
D03*
X754380D02*
D03*
X746760D02*
D03*
Y351790D02*
D03*
X740410Y497840D02*
D03*
X759460Y527050D02*
D03*
X709930Y534670D02*
D03*
X674370Y529590D02*
D03*
Y521970D02*
D03*
X621030Y538480D02*
D03*
X623570Y563880D02*
D03*
X466090Y547370D02*
D03*
X534670Y499110D02*
D03*
X520700Y537210D02*
D03*
Y544830D02*
D03*
X472440Y575310D02*
D03*
X975360Y563880D02*
D03*
Y556260D02*
D03*
Y548640D02*
D03*
Y541020D02*
D03*
X967740Y563880D02*
D03*
Y556260D02*
D03*
Y548640D02*
D03*
Y541020D02*
D03*
X915670D02*
D03*
X967740Y716280D02*
D03*
Y708660D02*
D03*
X960120Y716280D02*
D03*
Y708660D02*
D03*
X952500Y716280D02*
D03*
Y708660D02*
D03*
X944880Y716280D02*
D03*
Y708660D02*
D03*
X937260Y716280D02*
D03*
Y708660D02*
D03*
Y632460D02*
D03*
X929640D02*
D03*
X829534Y477296D02*
D03*
X758520Y468630D02*
D03*
X786753Y483556D02*
D03*
X808660Y448310D02*
D03*
X772160Y539750D02*
D03*
X746760Y538480D02*
D03*
X777240Y502920D02*
D03*
X767080Y513080D02*
D03*
X736600D02*
D03*
X650240Y737870D02*
D03*
X641350D02*
D03*
X632460D02*
D03*
X623570D02*
D03*
X692150Y659130D02*
D03*
X852170Y742950D02*
D03*
X844550D02*
D03*
X819150Y660400D02*
D03*
X814070Y781050D02*
D03*
X806450D02*
D03*
X846811Y659335D02*
D03*
X739140Y815340D02*
D03*
Y807720D02*
D03*
X731520Y815340D02*
D03*
Y807720D02*
D03*
Y800100D02*
D03*
Y670560D02*
D03*
Y632460D02*
D03*
Y624840D02*
D03*
X723900Y815340D02*
D03*
Y807720D02*
D03*
Y800100D02*
D03*
X716280Y815340D02*
D03*
Y807720D02*
D03*
X708660Y815340D02*
D03*
Y807720D02*
D03*
X701040Y815340D02*
D03*
Y807720D02*
D03*
X504490Y792780D02*
D03*
X689610Y580390D02*
D03*
X928370Y539750D02*
D03*
X872236Y537210D02*
D03*
Y512490D02*
D03*
X751078Y381254D02*
D03*
X678180D02*
D03*
X875030Y468630D02*
D03*
Y459740D02*
D03*
X902970Y539750D02*
D03*
X830580Y381000D02*
D03*
X309601Y544161D02*
D03*
X275590Y340360D02*
D03*
X640080Y359410D02*
D03*
X452120Y382270D02*
D03*
X377190Y378460D02*
D03*
X680720Y580390D02*
D03*
X454660Y792480D02*
D03*
D106*
X377190Y397510D02*
D03*
Y417830D02*
D03*
M02*
